<?xml version="1.0" encoding="UTF-8"?>
<svg width="122px" height="122px" viewBox="0 0 122 122" version="1.1" xmlns="http://www.w3.org/2000/svg" xmlns:xlink="http://www.w3.org/1999/xlink">
    <title>ceo character-06</title>
    <g id="Page-1" stroke="none" stroke-width="1" fill="none" fill-rule="evenodd">
        <g id="MC-1263-DWP-Landing-Page-Web" transform="translate(-443.000000, -862.000000)" fill-rule="nonzero">
            <g id="ceo-character-06" transform="translate(443.000000, 862.000000)">
                <circle id="Oval" fill="#BEEDC0" cx="61" cy="61" r="56"></circle>
                <path d="M61.0390998,121.999988 C36.3637913,122.015433 14.1095778,107.163283 4.65603387,84.3707092 C-4.79751002,61.5781353 0.411879106,35.33507 17.8544931,17.8815259 C35.2971071,0.427981706 61.5369075,-4.79784957 84.3354044,4.64140891 C107.133901,14.0806674 122,36.3255664 122,61.0008756 C121.962143,94.659143 94.6973426,121.941029 61.0390998,121.999988 Z M61.0390998,1.61425413 C37.0149682,1.61116371 15.3548323,16.0809784 6.15976728,38.2757868 C-3.03529774,60.4705953 2.04573848,86.0189797 19.033365,103.006603 C36.0209915,119.994227 61.5693802,125.075262 83.7641924,115.880199 C105.959005,106.685135 120.428822,85.0250032 120.425731,61.0008756 C120.387829,28.2182626 93.8217183,1.65215607 61.0390998,1.61425413 Z" id="Shape" fill="#BEEDC0"></path>
                <path d="M89.320944,74.5558528 L48.3421829,69 L17.1421829,74.2090936 C13.9686027,75.0384091 10.9009065,76.2330018 8,77.7691546 C15.0104099,99.688384 34.5528698,115.144922 57.4054193,116.844928 C80.2579689,118.544934 101.853017,106.148625 112,85.5057373 C105.696495,79.664876 97.7984133,75.8515303 89.320944,74.5558528 Z" id="Path" fill="#7DCC7A"></path>
                <path d="M41,88.403372 C41,88.403372 46.8258778,97.0199306 55.8379028,101.855383 C56.206608,102.048206 56.6543829,102.048206 57.023088,101.855383 C59.4550265,100.575624 68.7518038,95.3111616 73,87 L41,88.403372 Z" id="Path" fill="#B2D4FE"></path>
                <path d="M56.2988802,102.998805 L56.2988802,102.998805 C56.2148649,102.993028 56.13618,102.946437 56.080205,102.869322 C56.0242299,102.792208 55.9955705,102.690914 56.0005568,102.587816 L56.3658507,94.3680326 C56.3671273,94.2634183 56.4040836,94.1642539 56.4677317,94.0946561 C56.5313798,94.0250583 56.6158878,93.9914042 56.7007034,94.0018786 C56.7853177,94.0056284 56.8650145,94.0516264 56.9213371,94.12922 C56.9776597,94.2068137 57.0057226,94.3092722 56.9990267,94.4128677 L56.6337328,102.632651 C56.6306777,102.736505 56.5932009,102.834322 56.5299816,102.903451 C56.4667624,102.97258 56.3832844,103.007024 56.2988802,102.998805 L56.2988802,102.998805 Z" id="Path" fill="#FFFFFF"></path>
                <path d="M55.9711782,103 C55.7041887,102.997369 55.4422777,102.924594 55.2102836,102.788577 C46.2849896,97.5891294 40.426101,88.2551819 40.3728384,88.161216 L40,87.5660986 L73,86 L72.71086,86.6186089 C68.4878949,95.5532013 59.4256398,101.261631 56.7320729,102.796407 C56.4987566,102.928119 56.2372858,102.998081 55.9711782,103 Z M41.4380908,88.3178259 C42.8761817,90.4398895 48.1567904,97.7144173 55.575513,102.076002 C55.8109346,102.21588 56.100986,102.21588 56.3364077,102.076002 C58.9006226,100.603869 67.4378603,95.2478121 71.6684344,86.8848457 L41.4380908,88.3178259 Z" id="Shape" fill="#4AA147"></path>
                <path d="M57,70.2684401 L41.3518435,70.0006421 C38.0287217,69.9552963 35.1744852,72.3166046 34.6466007,75.5478859 C33.7841651,80.8196804 33.3024443,88.922482 36.4258598,96 L40.7302683,91.4091775 C41.9064318,90.0386997 43.8159476,89.5192251 45.5397067,90.1007931 L48.6475828,91.9983331 C50.8486416,93.3467499 53.2242529,94.3967932 55.7102314,95.1200924 L56.3162672,95.2960739 L57,70.2684401 Z" id="Path" fill="#FFFFFF"></path>
                <path d="M57.4419049,69 L74.069512,70.7410714 C75.9455632,70.8535232 77.5298365,72.2201153 77.9717567,74.1071429 C79.4595502,81.002825 79.3311541,88.1659556 77.5972611,95 L73.2231518,90.6202381 C71.8674775,89.2660714 68.7666535,90.202381 66.9840542,90.8446429 L64.3326249,92.1678571 C62.2995365,93.1753051 60.1744005,93.971096 57.9886685,94.5434524 L57,94.7988095 L57.4419049,69 Z" id="Path" fill="#FFFFFF"></path>
                <circle id="Oval" fill="#FFFFFF" cx="53" cy="97" r="1"></circle>
                <path d="M82.1980122,32.9133637 L62.7813755,26.5657216 C57.9438703,24.9889303 52.653481,26.7854659 49.7438438,30.9930686 L45.7880437,36.7310932 C44.2515652,38.9547007 43.5308048,41.6492835 43.7497498,44.3513118 L44.5952643,55.1491617 L44.519772,55.0805797 L43.0099246,74.2225689 C42.6626598,82.2847602 51.5103651,93.3569379 56.6966907,92.9911674 C62.6228415,92.5720554 68.9642003,85.9577056 71.0402404,79.0309268 C71.9235011,76.074282 71.7951641,64.5525114 71.7951641,64.5525114 C71.7951641,64.5525114 86.5463725,61.9768775 82.1980122,32.9133637 Z" id="Path" fill="#FFB6B2"></path>
                <path d="M72,64.5471777 C67.9693589,65.2803874 63.806117,64.7043606 60.136178,62.9056974 C57.7389234,61.8617711 55.9149169,59.8497683 55.1313735,57.3850587 C55.0442786,57.1298852 54.7866446,56.9706643 54.5156273,57.0045202 C54.24461,57.038376 54.0354369,57.255911 54.0157029,57.5244296 C53.8742798,60.0176213 54.6285361,63.5096383 58.7298043,66.6609706 C62.7674988,69.8735849 67.1300908,72.6679936 71.7485813,75 L72,64.5471777 Z" id="Path" fill="#F2A2A0"></path>
                <circle id="Oval" fill="#314351" cx="63" cy="44" r="1"></circle>
                <circle id="Oval" fill="#314351" cx="78" cy="46" r="1"></circle>
                <path d="M71.7805167,52 C71.6725644,52.0031515 71.5794175,51.8516153 71.5607436,51.6424122 L71.0239901,45.6390993 C70.9809261,45.4710633 70.9968506,45.2677699 71.0636312,45.133037 C71.1304119,44.9983042 71.2333114,44.961865 71.3197811,45.0423283 C71.4062508,45.1227915 71.4572083,45.3024004 71.4466307,45.4894323 L71.9960633,51.4594858 C72.007147,51.5731522 71.9946041,51.6908158 71.9612416,51.7861441 C71.9278791,51.8814723 71.8764826,51.946506 71.8185543,51.9666909 L71.7805167,52 Z" id="Path" fill="#FF8880"></path>
                <path d="M62.4294439,77.9941829 C62.3807916,78.001939 62.3312122,78.001939 62.2825599,77.9941829 C62.0641574,77.9104324 61.9495013,77.6710937 62.0214327,77.4490937 L63.163864,74.276186 C63.2478913,74.0588885 63.4898028,73.9473775 63.7102787,74.0243118 C63.9307547,74.1012461 64.0501168,74.3388222 63.9798864,74.5609341 L62.8374551,77.7338418 C62.769378,77.8970977 62.6066511,78.0009294 62.4294439,77.9941829 L62.4294439,77.9941829 Z" id="Path" fill="#F2A2A0"></path>
                <path d="M88.5101511,30.0494077 C88.3102513,29.9650873 88.0792534,30.0550131 87.9899647,30.2519123 C87.9899647,30.2519123 87.0249814,32.254458 83.5269166,32.951974 C83.6673101,32.8401324 83.8007437,32.7199082 83.92648,32.5919657 C87.9145754,31.0019295 88.9474092,25.8418117 88.9926428,25.6168066 C89.0341518,25.4055784 88.8958202,25.2008261 88.6835466,25.1592961 C88.5793662,25.1373693 88.4707024,25.1585485 88.3825404,25.2179641 C88.2943785,25.2773796 88.234305,25.3699186 88.2161327,25.4743033 C88.2161327,25.5193043 87.4622395,29.0593851 85.0648589,31.0094296 C85.3945688,30.4101035 85.6817487,29.7885734 85.9242972,29.1493872 C88.0955098,23.6517617 85.7885964,20.3891872 80.6922779,18.889153 C75.5959594,17.3891188 75.2793242,18.1391359 71.6907922,17.7716275 C68.1022602,17.4041191 60.0732969,13.6690339 48.4558016,18.2966395 C36.8383063,22.9242451 40.4720718,36.8295625 40.7660902,39.2371174 C41.0601086,41.6446724 41.1958094,52.3924177 44.4752451,56 L47.3400395,49.2498459 C46.2373332,48.4292617 45.5250997,47.1912977 45.3723781,45.8297679 C45.274372,43.7447203 45.9302591,42.0421814 47.3777342,41.7121739 C48.8897629,41.4698267 50.3218698,42.4661509 50.6119363,43.9622253 C50.8607211,45.4097583 50.2500676,47.5023061 52.1875733,47.3523026 C52.1875733,47.3523026 53.3636468,46.1222746 53.0922452,42.507192 C53.0922452,42.0271811 53.0093169,41.4646683 52.9640833,40.8496542 L56.8767894,40.4296446 C56.7184718,42.0646819 56.4018367,46.8347908 57.9850125,48.2673235 C58.7841394,49.0173406 61.4679995,49.557353 63.8126075,49.557353 C65.3203941,49.557353 66.677402,49.3248477 67.3031334,48.7398343 C68.6375245,47.4948059 69.5648132,43.1072057 69.7909812,41.9146785 L73.0779558,42.3121876 C72.9196382,43.9547251 72.610542,48.7098336 74.1861789,50.1348661 C74.9853058,50.8848833 77.6767048,51.4323958 80.0137739,51.4323958 C81.5215605,51.4323958 82.8785684,51.1923903 83.5042998,50.6148771 C84.6351397,49.557353 85.4870391,46.2047764 85.8941415,44.299733 C85.9552196,43.9960054 85.8868462,43.6806818 85.7053391,43.4290158 C85.5238319,43.1773497 85.2454741,43.0119184 84.936697,42.9722027 L57.3668201,39.5971256 L57.3215865,39.5971256 L52.9113108,40.0771366 C52.6851428,36.1470469 52.9113108,30.7844245 57.5628323,29.9519055 C63.2999601,28.924382 70.1377721,33.4469853 76.0558343,33.8219938 C77.8048666,33.9344964 79.2146471,34.0619993 80.4057984,34.0094981 L80.9335237,34.0094981 C87.0928318,34.0094981 88.6458519,30.7394235 88.7061634,30.5969202 C88.7594803,30.4994907 88.7685701,30.3840831 88.7311577,30.2795808 C88.6937454,30.1750785 88.6133714,30.0913709 88.5101511,30.0494077 Z M73.8620048,42.3871893 L84.8386909,43.72972 C84.9292977,43.74253 85.0108589,43.7912152 85.0648589,43.864723 C85.1148036,43.9369733 85.1337917,44.0260282 85.1176314,44.1122287 C84.4692832,47.1572982 83.6626174,49.3623485 82.9614966,50.0148634 C81.6798781,51.222391 75.7693548,50.4873742 74.7214432,49.5348524 C73.5529086,48.4773283 73.6735315,44.389735 73.8620048,42.3871893 Z M57.6683774,40.4071441 L68.9767764,41.7946758 C68.6450634,43.4897145 67.7403915,47.194799 66.7150966,48.1473208 C65.4259391,49.3473482 59.5229548,48.6123314 58.4750432,47.6598096 C57.3215865,46.579785 57.4723651,42.372189 57.6683774,40.4071441 Z" id="Shape" fill="#314351"></path>
                <path d="M64,53 C64.0021899,53.3327452 64.0465738,53.6638478 64.1320755,53.9852794 C64.4468741,55.0574472 65.1727364,55.9594014 66.1493856,56.4919829 C67.1260348,57.0245643 68.2731373,57.1439659 69.3374029,56.8238225 C69.9647015,56.636342 70.5359724,56.2951116 71,55.8307234 L64,53 Z" id="Path" fill="#FFFFFF"></path>
            </g>
        </g>
    </g>
</svg>