<?xml version="1.0" encoding="UTF-8"?>
<svg width="296px" height="272px" viewBox="0 0 296 272" version="1.1" xmlns="http://www.w3.org/2000/svg" xmlns:xlink="http://www.w3.org/1999/xlink">
    <title>SEO illustrations_2(2)-03</title>
    <g id="Page-1" stroke="none" stroke-width="1" fill="none" fill-rule="evenodd">
        <g id="MC-1263-DWP-Landing-Page-Web" transform="translate(-809.000000, -1378.000000)">
            <g id="SEO-illustrations_2(2)-03" transform="translate(809.000000, 1378.000000)">
                <path d="M55.85,9.87 C69.26,2.33 104.15,-7.92 156.12,13.47 C208.09,34.86 251.53,54.27 280.92,90.53 C280.92,90.53 305.82,116.67 289.92,156.45 C274.02,196.23 226.25,224.59 211.58,235 C196.91,245.41 141.2,276.56 96.69,271.34 C52.18,266.12 21.81,206 13.47,181.48 C6.30596564,160.600406 1.95765841,138.85887 0.54,116.83 C-1.45,81.69 3.8,39.13 55.85,9.87 Z" id="Path" fill="#ECF3FF" fill-rule="nonzero"></path>
                <path d="M161.72,195 L161.72,165.28 L149.43,161.28 L139.73,158.14 L137.14,157.3 L124.85,153.3 L112.56,149.3 L101.77,145.81 L100.27,145.32 L88,141.4 L79.68,138.71 L75.68,137.06 L67.36,133.58 L63.36,131.92 L51.07,126.79 L38.78,121.66 L37.9,121.29 L26.49,116.52 L14.2,111.39 L8.53,109 L2,106.26 L0.24,105.52 C0.24,106.69 0.24,107.85 0.24,109 C0.286666667,111.666667 0.386666667,114.276667 0.54,116.83 C0.62,118.33 0.73,119.83 0.84,121.29 C1.13,124.99 1.51,128.6 1.96,132.11 C2.02,132.61 2.09,133.11 2.16,133.58 C2.73,137.86 3.4,141.98 4.16,145.87 C4.98,150.27 5.87,154.39 6.76,158.16 C7.87,162.85 8.98,167 9.97,170.45 C11.97,177.39 13.5,181.45 13.5,181.45 C13.64,181.86 13.78,182.28 13.94,182.71 C14.1,183.14 14.16,183.34 14.28,183.66 C15.45,187 17,190.85 18.87,195 C20.6,198.85 22.6,203 24.87,207.29 C25.41,208.29 25.97,209.34 26.54,210.38 C28.21,213.38 30,216.49 31.92,219.58 C34.07,223.06 36.38,226.58 38.83,229.97 L40.2,231.86 C43.3384699,236.127937 46.696319,240.23012 50.26,244.15 L51.12,245.08 C54.9086178,249.168985 59.0002208,252.966421 63.36,256.44 C67.2170896,259.528968 71.347481,262.260248 75.7,264.6 C78.7879865,266.246417 82.0053619,267.637715 85.32,268.76 C86.2,269.06 87.09,269.34 87.98,269.59 C90.831692,270.406022 93.7444256,270.991244 96.69,271.34 C97.87,271.48 99.07,271.59 100.27,271.67 C104.359987,271.972158 108.465259,272.008902 112.56,271.78 C116.676064,271.560868 120.778143,271.1303 124.85,270.49 C128.96,269.86 133.07,269.04 137.14,268.07 L137.14,231.89 L149.43,231.89 L149.43,219.61 L161.72,219.61 L161.72,195 Z" id="Path" fill="#FAF1E1" fill-rule="nonzero"></path>
                <g id="Group" opacity="0.7" transform="translate(13.000000, 0.000000)" fill="#B2D4FE" fill-rule="nonzero">
                    <path d="M1.63,47.84 L1.63,111.55 L0.73,111.18 L0.73,49.35 C1,48.85 1.32,48.34 1.63,47.84 Z" id="Path"></path>
                    <path d="M13.94,31.87 L13.94,116.7 L13.04,116.32 L13.04,32.82 C13.33,32.5 13.63,32.19 13.94,31.87 Z" id="Path"></path>
                    <polygon id="Path" points="26.26 20.8 26.26 121.85 25.36 121.47 25.36 21.5"></polygon>
                    <polygon id="Path" points="38.57 12.37 38.57 127 37.67 126.63 37.67 12.92"></polygon>
                    <polygon id="Path" points="50.89 6.2 50.89 69.41 50 69.41 50 6.54"></polygon>
                    <polygon id="Path" points="63.2 2.71 63.2 137.29 62.3 136.91 62.3 2.9"></polygon>
                    <polygon id="Path" points="75.52 1 75.52 131.44 74.62 131.93 74.62 1.08"></polygon>
                    <polygon id="Path" points="87.83 0.74 87.83 124.82 86.93 125.3 86.93 0.71"></polygon>
                    <polygon id="Path" points="100.15 1.71 100.15 118.19 99.25 118.68 99.25 1.6"></polygon>
                    <polygon id="Path" points="112.46 3.82 112.46 111.57 111.56 112.05 111.56 3.63"></polygon>
                    <polygon id="Path" points="124.77 7 124.77 53.8 123.87 53.8 123.87 6.7"></polygon>
                    <path d="M137.09,11.1 L137.09,98.32 L136.19,98.8 L136.19,10.8 C136.49,10.87 136.79,11 137.09,11.1 Z" id="Path"></path>
                    <polygon id="Path" points="149.4 16.06 149.4 91.69 148.5 92.18 148.5 15.69"></polygon>
                    <polygon id="Path" points="161.72 21.24 161.72 45 160.82 45 160.82 20.85"></polygon>
                </g>
                <path d="M178.6,22.89 L178.37,55.53 L163.13,91.3 L162.4,91.69 L161.5,92.18 L150.09,98.32 L149.19,98.8 L125.46,111.57 L124.56,112.05 L113.15,118.19 L112.25,118.68 L100.83,124.82 L99.93,125.3 L88.52,131.44 L87.62,131.93 L77,137.63 L76.18,137.29 L75.28,136.91 L51.57,127 L50.67,126.63 L39.26,121.86 L38.36,121.48 L26.94,116.7 L26.04,116.32 L14.63,111.55 L13.73,111.18 L0.2,105.52 C0.2,87.24 3.03,67.65 13.73,49.35 C14.02,48.85 14.32,48.35 14.63,47.84 C17.9057528,42.4640545 21.7150034,37.4319574 26,32.82 C26.29,32.5 26.59,32.19 26.9,31.82 C30.4696718,28.1117979 34.299397,24.6630401 38.36,21.5 L39.26,20.8 C42.9190325,17.9702945 46.7278876,15.3398144 50.67,12.92 L51.57,12.37 C52.96,11.53 54.39,10.69 55.85,9.87 C58.1511431,8.59144335 60.5405371,7.4786207 63,6.54 L63.9,6.2 C67.611273,4.81387649 71.4221639,3.71072385 75.3,2.9 L76.2,2.71 C79.97171,1.94493471 83.7848614,1.4006758 87.62,1.08 L88.52,1 C92.09,0.74 95.89,0.62 99.93,0.71 L100.83,0.71 C104.46,0.82 108.26,1.09 112.25,1.57 L113.15,1.68 C116.81,2.14 120.61,2.77 124.56,3.6 L125.46,3.79 C129.153333,4.59666667 132.956667,5.56666667 136.87,6.7 L137.77,6.97 C141.47,8.05666667 145.276667,9.32333333 149.19,10.77 C149.49,10.87 149.79,10.99 150.09,11.1 C152.09,11.84 154.09,12.63 156.09,13.47 L161.47,15.69 L162.37,16.06 C166.23,17.66 170.036667,19.2566667 173.79,20.85 L174.69,21.24 C176,21.78 177.31,22.34 178.6,22.89 Z" id="Path"></path>
                <g id="Group" opacity="0.35" transform="translate(0.000000, 106.000000)" stroke="#FFC74F" stroke-width="0.9">
                    <polyline id="Path" points="1.96 0.26 1.96 3 1.96 15.29 1.96 26.11 1.96 27.58"></polyline>
                    <polyline id="Path" points="14.25 5.39 14.25 15.29 14.25 27.58 14.25 39.87 14.25 52.16 14.25 64.45 14.25 76.74"></polyline>
                    <polyline id="Path" points="26.54 10.52 26.54 15.29 26.54 27.58 26.54 39.87 26.54 52.16 26.54 64.45 26.54 76.74 26.54 89.03 26.54 101.32"></polyline>
                    <polyline id="Path" points="38.83 15.29 38.83 15.66 38.83 27.58 38.83 39.87 38.83 52.16 38.83 64.45 38.83 76.74 38.83 89.03 38.83 101.32 38.83 113.61"></polyline>
                    <polyline id="Path" points="51.12 20.79 51.12 27.58 51.12 39.87 51.12 52.16 51.12 64.45 51.12 76.74 51.12 89.03 51.12 101.32 51.12 113.61 51.12 125.89 51.12 138.18 51.12 139.11"></polyline>
                    <polyline id="Path" points="63.41 25.92 63.41 27.58 63.41 39.87 63.41 52.16 63.41 64.45 63.41 76.74 63.41 89.03 63.41 101.32 63.41 113.61 63.41 125.89 63.41 138.18 63.41 150.47 63.41 150.51"></polyline>
                    <polyline id="Path" points="75.7 158.6 75.7 150.47 75.7 138.18 75.7 125.89 75.7 113.61 75.7 101.32 75.7 89.03 75.7 76.74 75.7 64.45 75.7 52.16 75.7 39.87 75.7 31.06 75.7 27.58"></polyline>
                    <polyline id="Path" points="87.98 163.59 87.98 162.76 87.98 150.47 87.98 138.18 87.98 125.89 87.98 113.61 87.98 101.32 87.98 89.03 87.98 76.74 87.98 64.45 87.98 52.16 87.98 39.87 87.98 35.4"></polyline>
                    <polyline id="Path" points="100.27 39.38 100.27 39.87 100.27 52.16 100.27 64.45 100.27 76.74 100.27 89.03 100.27 101.32 100.27 113.61 100.27 125.89 100.27 138.18 100.27 150.47 100.27 162.76 100.27 165.67"></polyline>
                    <polyline id="Path" points="112.56 43.36 112.56 52.16 112.56 64.45 112.56 76.74 112.56 89.03 112.56 101.32 112.56 113.61 112.56 125.89 112.56 138.18 112.56 162.76 112.56 165.78"></polyline>
                    <polyline id="Path" points="124.85 47.34 124.85 52.16 124.85 64.45 124.85 76.74 124.85 89.03 124.85 101.32 124.85 113.61 124.85 125.89 124.85 138.18 124.85 162.76 124.85 164.49"></polyline>
                    <polyline id="Path" points="137.14 162.07 137.14 125.89 137.14 113.61 137.14 101.32 137.14 89.03 137.14 76.74 137.14 64.45 137.14 52.16 137.14 51.32"></polyline>
                    <polyline id="Path" points="149.43 52.16 149.43 55.3 149.43 64.45 149.43 76.74 149.43 89.03 149.43 113.61"></polyline>
                    <polyline id="Path" points="161.72 76.74 161.72 64.45 161.72 59.28"></polyline>
                    <polyline id="Path" stroke-linecap="round" points="85.32 162.76 87.98 162.76 100.27 162.76 112.56 162.76 124.85 162.76 130.39 162.76"></polyline>
                    <polyline id="Path" stroke-linecap="round" points="105.02 150.47 100.27 150.47 87.98 150.47 75.7 150.47 63.41 150.47 63.36 150.47"></polyline>
                    <polyline id="Path" stroke-linecap="round" points="130.09 138.18 124.85 138.18 112.56 138.18 100.27 138.18 87.98 138.18 75.7 138.18 63.41 138.18 51.12 138.18 50.26 138.18"></polyline>
                    <polyline id="Path" points="137.14 125.89 124.85 125.89 112.56 125.89 100.27 125.89 87.98 125.89 75.7 125.89 63.41 125.89 51.12 125.89"></polyline>
                    <polyline id="Path" points="149.43 113.61 137.14 113.61 124.85 113.61 112.56 113.61 100.27 113.61 87.98 113.61 75.7 113.61 63.41 113.61 51.12 113.61 38.83 113.61"></polyline>
                    <polyline id="Path" stroke-linecap="round" points="145.34 101.32 137.14 101.32 124.85 101.32 112.56 101.32 100.27 101.32 87.98 101.32 75.7 101.32 63.41 101.32 51.12 101.32 38.83 101.32 26.54 101.32 24.87 101.32"></polyline>
                    <polyline id="Path" points="26.54 89.03 38.83 89.03 51.12 89.03 63.41 89.03 75.7 89.03 87.98 89.03 100.27 89.03 112.56 89.03 124.85 89.03 137.14 89.03 149.43 89.03"></polyline>
                    <polyline id="Path" points="13.91 76.74 14.25 76.74 26.54 76.74 38.83 76.74 51.12 76.74 63.41 76.74 75.7 76.74 87.98 76.74 100.27 76.74 112.56 76.74 124.85 76.74 137.14 76.74 149.43 76.74 161.72 76.74"></polyline>
                    <polyline id="Path" points="161.72 64.45 149.43 64.45 137.14 64.45 124.85 64.45 112.56 64.45 100.27 64.45 87.98 64.45 75.7 64.45 63.41 64.45 51.12 64.45 38.83 64.45 26.54 64.45 14.25 64.45 9.94 64.45"></polyline>
                    <polyline id="Path" points="149.43 52.16 139.73 52.16 137.14 52.16 124.85 52.16 112.56 52.16 100.27 52.16 87.98 52.16 75.7 52.16 63.41 52.16 51.12 52.16 38.83 52.16 26.54 52.16 14.25 52.16 6.73 52.16"></polyline>
                    <polyline id="Path" points="101.77 39.87 100.27 39.87 87.98 39.87 75.7 39.87 63.41 39.87 51.12 39.87 38.83 39.87 26.54 39.87 14.25 39.87 4.13 39.87"></polyline>
                    <polyline id="Path" points="1.96 27.58 2.16 27.58 14.25 27.58 26.54 27.58 38.83 27.58 51.12 27.58 63.41 27.58 67.38 27.58 75.7 27.58"></polyline>
                    <polyline id="Path" points="0.84 15.29 1.96 15.29 14.25 15.29 26.54 15.29 37.95 15.29 38.83 15.29"></polyline>
                    <polyline id="Path" points="0.24 3 1.96 3 8.53 3"></polyline>
                </g>
                <path d="M184.26,25.34 L183.96,28.24 C183.081024,36.9640323 179.03184,45.0623995 172.58,51 L172.58,51 C164.962877,57.9952791 160.740895,67.9413659 161,78.28 L162.28,124 C162.31993,125.465024 162.269836,126.931118 162.13,128.39 L154.74,202.25 C153.971019,209.967558 150.62846,217.202138 145.25,222.79 C136.762432,231.61365 133.571598,244.266696 136.86,256.06 L140.01,267.36 C171.95,259.18 201.48,242.22 211.58,235.03 C226.25,224.59 273.99,196.24 289.91,156.45 C305.83,116.66 280.91,90.53 280.91,90.53 C257,61 223.8,42.68 184.26,25.34 Z" id="Path" fill="#DCF5DE" fill-rule="nonzero"></path>
                <g id="Group" opacity="0.2" transform="translate(135.000000, 34.000000)" stroke="#7DCC7A" stroke-width="0.9">
                    <line x1="36.64" y1="222.47" x2="1.97" y2="222.47" id="Path"></line>
                    <line x1="61.74" y1="210.18" x2="0.7" y2="210.18" id="Path"></line>
                    <line x1="81.14" y1="197.89" x2="3.96" y2="197.89" id="Path"></line>
                    <line x1="98.84" y1="185.61" x2="12.96" y2="185.61" id="Path"></line>
                    <line x1="114.6" y1="173.32" x2="18.84" y2="173.32" id="Path"></line>
                    <line x1="128.02" y1="161.03" x2="20.46" y2="161.03" id="Path"></line>
                    <line x1="139.08" y1="148.74" x2="21.69" y2="148.74" id="Path"></line>
                    <line x1="147.8" y1="136.45" x2="22.92" y2="136.45" id="Path"></line>
                    <line x1="154.2" y1="124.16" x2="24.15" y2="124.16" id="Path"></line>
                    <line x1="158.3" y1="111.87" x2="25.38" y2="111.87" id="Path"></line>
                    <line x1="160.12" y1="99.58" x2="26.61" y2="99.58" id="Path"></line>
                    <line x1="159.6" y1="87.29" x2="27.22" y2="87.29" id="Path"></line>
                    <line x1="156.53" y1="75" x2="26.88" y2="75" id="Path"></line>
                    <line x1="150.52" y1="62.71" x2="26.54" y2="62.71" id="Path"></line>
                    <line x1="140.69" y1="50.43" x2="26.2" y2="50.43" id="Path"></line>
                    <line x1="128.33" y1="38.14" x2="26.39" y2="38.14" id="Path"></line>
                    <line x1="112.97" y1="25.85" x2="30.56" y2="25.85" id="Path"></line>
                    <line x1="93.96" y1="13.56" x2="40.8" y2="13.56" id="Path"></line>
                    <line x1="70.75" y1="1.24" x2="47.52" y2="1.24" id="Path"></line>
                </g>
                <path d="M184.26,25.34 L183.96,28.24 C183.081024,36.9640323 179.03184,45.0623995 172.58,51 L172.58,51 C164.962877,57.9952791 160.740895,67.9413659 161,78.28 L162.28,124 C162.31993,125.465024 162.269836,126.931118 162.13,128.39 L154.74,202.25 C153.971019,209.967558 150.62846,217.202138 145.25,222.79 C136.762432,231.61365 133.571598,244.266696 136.86,256.06 L140.01,267.36 C171.95,259.18 201.48,242.22 211.58,235.03 C226.25,224.59 273.99,196.24 289.91,156.45 C305.83,116.66 280.91,90.53 280.91,90.53 C257,61 223.8,42.68 184.26,25.34 Z" id="Path"></path>
                <circle id="Oval" stroke="#F58220" stroke-width="0.9" stroke-linecap="round" cx="125.4" cy="256.62" r="5.93"></circle>
                <path d="M33.23,117.15 L37,115.29 C38.3120474,114.639505 39.8573066,114.661846 41.15,115.35 L44.41,117.09 C45.6717405,117.762095 47.1767014,117.799163 48.47,117.19 L52.63,115.25 C53.9594589,114.620145 55.5128474,114.679891 56.79,115.41 L61.62,118.15" id="Path" stroke="#0265FC" stroke-width="0.68" stroke-linecap="round"></path>
                <path d="M272.63,150.75 C273.299064,149.488204 273.339759,147.986173 272.74,146.69 L270.79,142.53 C270.168328,141.197889 270.231708,139.646944 270.96,138.37 L273.7,133.54" id="Path" stroke="#4AA147" stroke-width="0.9" stroke-linecap="round"></path>
                <path d="M32.24,56.35 L42.7,46.35 C42.8914582,46.1702854 43.1655721,46.1090547 43.4153042,46.1902177 C43.6650364,46.2713807 43.8507781,46.4820644 43.9,46.74 L46.23,59.65 C46.2734161,59.8855995 46.1950935,60.1272065 46.0217103,60.2925254 C45.8483271,60.4578443 45.6032662,60.5245796 45.37,60.47 L32.58,57.57 C32.3177104,57.5175176 32.1071778,57.3220752 32.0353682,57.0644056 C31.9635586,56.806736 32.042661,56.5305757 32.24,56.35 L32.24,56.35 Z" id="Path" stroke="#0265FC" stroke-width="0.68" fill="#ECF3FF" fill-rule="nonzero" stroke-linecap="round"></path>
                <path d="M242.3,213.23 C241.05,209.58 239.39,204.78 239.24,202.37 C237.42,172.37 233.6,161.09 233.6,161.09 L193.13,151.8 L176,190.22 C176,190.22 167.75,209.74 162.71,226.57 C161.46,230.71 159.71,249.38 158.85,261.49 C168.292207,258.049712 177.527616,254.066399 186.51,249.56 C186.51,240.9 187.28,231.15 187.73,229.31 C189.73,221.31 206.73,199.4 206.73,199.4 L210.25,227 C210.592802,229.632988 211.144543,232.234529 211.9,234.78 C218.07,230.44 229.67,223.1 242.3,213.23 Z" id="Path" fill="#A8AAAD" fill-rule="nonzero"></path>
                <path d="M183.46,225.6 C181.08,231.09 180.81,241.52 181,252.25 C182.913333,251.35 184.76,250.453333 186.54,249.56 C186.54,240.9 187.31,231.15 187.76,229.31 C189.54,221.99 203.88,203.1 206.35,199.88 L206.35,191.88 C206.35,191.88 189.91,210.64 183.46,225.6 Z" id="Path" fill="#000000" fill-rule="nonzero" opacity="0.1" style="mix-blend-mode: multiply;"></path>
                <path d="M239.24,202.37 C237.42,172.37 233.6,161.09 233.6,161.09 L228.85,164.66 L233.25,200.48 C234.190239,206.129241 235.472598,211.716186 237.09,217.21 C238.803333,215.93 240.536667,214.596667 242.29,213.21 C241,209.28 239.37,204.51 239.24,202.37 Z" id="Path" fill="#000000" fill-rule="nonzero" opacity="0.1" style="mix-blend-mode: multiply;"></path>
                <path d="M86.55,54.36 C86.55,54.36 84.79,45.42 93.88,39.11 C93.88,39.11 98.88,17.11 119.63,21.91 C140.77,26.8 126,76.06 126,76.06 L86.55,54.36 Z" id="Path" fill="#000000" fill-rule="nonzero"></path>
                <path d="M64,84.66 L66.59,73.84 C69.4474347,61.8659603 79.9473512,53.2728876 92.25,52.84 L110.52,52.2 L133.19,58.74 C143.342084,61.6732855 150.902516,70.1831495 152.62,80.61 L153.92,88.56 L64,84.66 Z" id="Path" fill="#E085D3" fill-rule="nonzero"></path>
                <path d="M236.82,98.76 L223,93.85 L210.39,93.06 L191.63,94.06 L193.48,137.95 L192.48,137.67 C193.55,143.58 192.48,149.31 190.99,154.94 L225.99,164.53 C234.209885,166.780878 242.760753,162.240284 245.5,154.17 L253,132.28 C257.66421,118.563053 250.46134,103.640914 236.82,98.76 L236.82,98.76 Z" id="Path" fill="#7DCC7A" fill-rule="nonzero"></path>
                <path d="M232.68,131 C232.68,131 200.88,128.93 181.91,122.6 C181.3,123.79 180.57,125.32 179.91,127.03 C195,132.36 231.29,135.55 231.29,135.55 L232.68,131 Z" id="Path" fill="#4AA147" fill-rule="nonzero"></path>
                <path d="M229.35,140.78 C216.27,140 202,137.65 202,137.65 L201.68,140.08 C201.68,140.08 213.94,142.97 224.79,145.78 C227.17,146.4 230.3,140.83 229.35,140.78 Z" id="Path" fill="#4AA147" fill-rule="nonzero"></path>
                <path d="M152.64,80.62 C150.922516,70.1931495 143.362084,61.6832855 133.21,58.75 L118.21,54.43 L118.21,54.43 C121.134874,56.9681341 124.379033,59.1129771 127.86,60.81 C132.99,63.16 143.11,65.65 149.12,83.97 C149.575093,85.5771652 150.305961,87.0930407 151.28,88.45 L153.91,88.57 L152.64,80.62 Z" id="Path" fill="#000000" fill-rule="nonzero" opacity="0.1" style="mix-blend-mode: multiply;"></path>
                <line x1="206.42" y1="199.74" x2="205.94" y2="182.88" id="Path" stroke="#314351" stroke-width="0.68" stroke-linecap="round"></line>
                <rect id="Rectangle" fill="#FFFFFF" fill-rule="nonzero" x="59.15" y="82.86" width="143.17" height="109.64" rx="8.16"></rect>
                <rect id="Rectangle" fill="#7DCC7A" fill-rule="nonzero" x="176.33" y="92.38" width="17.01" height="17.01" rx="1.8"></rect>
                <rect id="Rectangle" fill="#B2D4FE" fill-rule="nonzero" x="152.43" y="92.38" width="17.01" height="17.01" rx="1.8"></rect>
                <rect id="Rectangle" fill="#B2D4FE" fill-rule="nonzero" x="68.95" y="92.38" width="76.59" height="17.01" rx="1.98"></rect>
                <rect id="Rectangle" fill="#B2D4FE" fill-rule="nonzero" x="176.33" y="165.98" width="17.01" height="17.01" rx="1.8"></rect>
                <rect id="Rectangle" fill="#ECF3FF" fill-rule="nonzero" x="152.43" y="165.98" width="17.01" height="17.01" rx="1.8"></rect>
                <rect id="Rectangle" fill="#ECF3FF" fill-rule="nonzero" x="152.43" y="117.6" width="40.96" height="40.41" rx="1.8"></rect>
                <path d="M152.43,131 L152.43,119.4 C152.43,118.405887 153.235887,117.6 154.23,117.6 L191.6,117.6 C192.594113,117.6 193.4,118.405887 193.4,119.4 L193.4,156.2 C193.4,157.194113 192.594113,158 191.6,158 L165.42,158" id="Path" stroke="#B2D4FE" stroke-width="0.9" stroke-linecap="round" stroke-dasharray="0.9"></path>
                <rect id="Rectangle" fill="#ECF3FF" fill-rule="nonzero" x="68.95" y="165.98" width="76.59" height="17.01" rx="1.98"></rect>
                <rect id="Rectangle" fill="#B2D4FE" fill-rule="nonzero" x="68.85" y="117.6" width="76.68" height="40.41" rx="2.46"></rect>
                <path d="M64.6,109.17 C64.6,109.17 67.6,114.91 77.53,106.85 C77.53,106.85 85.89,102.97 84.35,96.7 L82.63,93.12 L68.3,95.92 L64.19,105.31 L64.6,109.17 Z" id="Path" fill="#B22485" fill-rule="nonzero"></path>
                <circle id="Oval" fill="#7DCC7A" fill-rule="nonzero" cx="145.05" cy="151.12" r="18.96"></circle>
                <path d="M139.71,152.32 L143.63,156.95 C143.699941,157.042387 143.809124,157.096673 143.925,157.096673 C144.040876,157.096673 144.150059,157.042387 144.22,156.95 L151.22,145.18" id="Path" stroke="#FFFFFF" stroke-width="2.7" stroke-linecap="round"></path>
                <path d="M103.58,39.85 L101.7,54.41 C102.117319,58.3655096 105.348038,61.430877 109.32,61.64 C116.46,62.33 118.12,55 118.12,55 L120.76,42.78 L103.58,39.85 Z" id="Path" fill="#CC8672" fill-rule="nonzero"></path>
                <path d="M101.49,52.46 L101.49,52.75 C101.152282,54.9162313 101.696093,57.1274909 103,58.89 C104.532345,60.7911345 106.819281,61.9272958 109.26,62 C117.14,62.64 118.63,54.7 118.63,54.7" id="Path" stroke="#FFFFFF" stroke-width="0.9" stroke-linecap="round"></path>
                <path d="M118.22,54.51 L120.22,45.02 L103.3,41.66 L102.88,44.89 C104,47.92 107.69,55 118.22,54.51 Z" id="Path" fill="#AF6951" fill-rule="nonzero"></path>
                <path d="M121.49,30 C121.49,30 116.64,33.36 105.34,32.52 C104.329618,32.4607212 103.450128,33.2038896 103.34,34.21 L103.34,34.21 C103.34,34.21 99.09,47.89 112.82,49.43 C122.77,50.57 125.79,36.77 121.49,30 Z" id="Path" fill="#CC8672" fill-rule="nonzero"></path>
                <circle id="Oval" fill="#CC8672" fill-rule="nonzero" cx="122.71" cy="39.8" r="3.01"></circle>
                <circle id="Oval" fill="#000000" fill-rule="nonzero" cx="108.2" cy="38.58" r="1"></circle>
                <circle id="Oval" fill="#000000" fill-rule="nonzero" cx="118.13" cy="39.3" r="1"></circle>
                <path d="M110.09,43.2 C110.065053,43.3891811 110.065053,43.5808189 110.09,43.77 C110.256291,45.0840925 111.455746,46.0150132 112.77,45.85 C113.131271,45.7950774 113.474154,45.6544957 113.77,45.44 L110.09,43.2 Z" id="Path" fill="#FFFFFF" fill-rule="nonzero"></path>
                <line x1="113.32" y1="39.47" x2="113.55" y2="41.87" id="Path" stroke="#FFB6B2" stroke-width="0.9" stroke-linecap="round"></line>
                <line x1="131.56" y1="76.79" x2="132.25" y2="82.4" id="Path" stroke="#B22485" stroke-width="0.9" stroke-linecap="round"></line>
                <circle id="Oval" fill="#000000" fill-rule="nonzero" cx="117.09" cy="19.57" r="3.71"></circle>
                <path d="M112.89,16.54 C112.89,16.54 111.18,21.28 115.89,22.2" id="Path" stroke="#000000" stroke-width="0.9" stroke-linecap="round"></path>
                <path d="M188.15,136.41 L194.99,142.27 L193.99,148.63 L182.92,152.29 L181.48,152.38 C181.48,152.38 177.48,148.66 183.81,139.96 C184.811514,138.456135 186.191006,137.242183 187.81,136.44 L188.15,136.41 Z" id="Path" fill="#4AA147" fill-rule="nonzero"></path>
                <path d="M110.67,18.63 C110.67,18.63 111.22,22.25 115.36,21.63" id="Path" stroke="#000000" stroke-width="0.9" stroke-linecap="round"></path>
                <path d="M111.11,34.13 C111.11,34.13 119.32,33.62 121.81,29.29" id="Path" stroke="#000000" stroke-width="0.9" stroke-linecap="round"></path>
                <path d="M188.65,141.1 L187,140.81 C184.110577,140.299796 181.34263,139.251639 178.84,137.72 C176.46,136.27 173.63,134.72 173.03,135.26 C172.43,135.8 174.94,139.17 174.94,139.17 C174.94,139.17 172.4,138.77 171.32,138.63 C169.58,138.39 164.46,137.44 163.93,138.63 C163.810369,138.814185 163.782712,139.043366 163.855091,139.250723 C163.927471,139.45808 164.091738,139.620268 164.3,139.69 C164.3,139.69 163.57,140.03 163.62,140.69 C163.67,141.35 164.52,141.75 164.52,141.75 L164.52,142.16 C164.181111,142.33545 163.971621,142.688479 163.98,143.07 C163.98,143.71 165.17,144.18 165.17,144.18 L165.17,144.48 C164.859411,144.580584 164.677116,144.90177 164.75,145.22 C164.85,145.82 169.48,147.87 170.44,148.22 C171.11,148.47 178.09,150.84 182.15,152.22 C184,151.51 188.84,149.17 188.65,141.1 Z" id="Path" fill="#FFB6B2" fill-rule="nonzero"></path>
                <path d="M205.59,141.08 L188.13,136.33 C191.26,150.79 181.49,152.33 181.49,152.33 L206.82,159.2 C208.28,153.59 206.66,147 205.59,141.08 Z" id="Path" fill="#7DCC7A" fill-rule="nonzero"></path>
                <path d="M205.66,103.07 C207.778491,106.727668 210.68565,109.867127 214.17,112.26 C214.17,112.26 221.26,109.26 224.56,103.47 L205.66,103.07 Z" id="Path" fill="#B2D4FE" fill-rule="nonzero"></path>
                <line x1="214.7" y1="106.99" x2="214.22" y2="111.85" id="Path" stroke="#FFFFFF" stroke-width="0.68" stroke-linecap="round"></line>
                <path d="M205.66,103.07 C207.708767,106.619458 210.494705,109.688423 213.83,112.07 C214.037524,112.210874 214.30456,112.229948 214.53,112.12 C216.02,111.42 221.71,108.49 224.53,103.5 L205.66,103.07 Z" id="Path" stroke="#4AA147" stroke-width="0.68" stroke-linecap="round"></path>
                <path d="M245.61,154.15 L253,132.28 C257.660312,118.551685 250.437254,103.624624 236.78,98.76 L225.13,94.6 L224.83,96.31 L234.78,100.11 C247.287338,105.139747 253.750945,119.0072 249.56,131.82 L243.04,151.75 C240.75661,158.723675 233.439603,162.715168 226.34,160.86 L185.75,150 C184.537936,151.121845 183.073192,151.934829 181.48,152.37 L226.1,164.53 C234.325582,166.77891 242.878842,162.228278 245.61,154.15 L245.61,154.15 Z" id="Path" fill="#000000" fill-rule="nonzero" opacity="0.1" style="mix-blend-mode: multiply;"></path>
                <path d="M215.57,92.65 L207.32,92.79 C204.57,93.05 203.83,94.85 203.76,96.79 C203.65,100.09 205.15,101.96 204.76,107.28 L205.35,105.73 C205.864455,104.308088 207.405833,103.541803 208.85,103.99 L208.85,103.99 L214.66,107.54 L215.57,92.65 Z" id="Path" fill="#FFFFFF" fill-rule="nonzero"></path>
                <path d="M217,93 L225.85,94.14 C226.97721,94.2859616 227.87754,95.1497921 228.07,96.27 C228.47,98.69 226.25,103.62 225.96,107.73 L224.55,105.73 C223.786773,104.875136 222.603206,104.529767 221.5,104.84 L214.58,107.51 L217,93 Z" id="Path" fill="#FFFFFF" fill-rule="nonzero"></path>
                <path d="M177.64,150.6 L182.13,152.12 C184.01,151.51 188.84,149.12 188.65,141.12 L187,140.83 C186.5,140.74 186,140.62 185.52,140.5 L185.52,140.5 C185.52,140.5 186.33,147.32 177.64,150.6 Z" id="Path" fill="#F2A2A0" fill-rule="nonzero"></path>
                <path d="M199.06,64.76 C199.06,64.76 200.18,68.68 203.33,68.99" id="Path" stroke="#314351" stroke-width="0.9" stroke-linecap="round"></path>
                <path d="M207.64,86.65 C207.64,86.65 199.88,85.07 202.88,68.85 L218.64,64.32 L224.69,73.64 L223.69,82.73 L223.69,82.73 C214.16,89 207.64,86.65 207.64,86.65 Z" id="Path" fill="#FFB6B2" fill-rule="nonzero"></path>
                <path d="M214.61,106.72 C213.03,106.61 208.42,100.78 208.27,96.15 C208.27,95.15 208.14,87.15 208.14,87.15 C208.14,87.15 213.9,89.22 223.79,81.97 L224.57,93.8 C225,99 217.5,106.92 214.61,106.72 Z" id="Path" fill="#FFB6B2" fill-rule="nonzero"></path>
                <path d="M223.66,82.73 L222.17,78.81 C222.811634,78.3649455 223.239139,77.6729671 223.35,76.9 C223.44,75.72 223.1,74.73 222.29,74.52 C221.439039,74.3526542 220.609676,74.8937363 220.42,75.74 C220.25,76.56 220.55,77.74 219.42,77.64 C219.42,77.64 218.77,76.92 219,74.87 C219.23,72.82 219.93,68.32 216.7,67.63 C213.47,66.94 209.51,69.39 206.15,69.49 C203.02,69.59 201.76,69.83 200.64,66.66 C199.52,63.49 200.89,61.66 203.8,60.92 C206.71,60.18 206.9,60.6 208.92,60.45 C210.94,60.3 215.58,58.32 222.08,61.18 C228.58,64.04 226.25,71.88 226.08,73.25 C225.91,74.62 225.59,80.73 223.66,82.73 Z" id="Path" fill="#314351" fill-rule="nonzero"></path>
                <path d="M208.14,86.77 C210.316468,87.2541592 212.591452,87.0154263 214.62,86.09 C215.954131,85.5514546 216.984929,84.4548614 217.44,83.09 C217.478473,82.9327296 217.631496,82.8315541 217.791271,82.8577467 C217.951046,82.8839394 218.063755,83.0286775 218.05,83.19 C218.068259,85.2122109 217.044308,87.1014203 215.34,88.19 C213.193706,89.8605004 210.784036,91.1616548 208.21,92.04 L208.14,86.77 Z" id="Path" fill="#F2A2A0" fill-rule="nonzero"></path>
                <circle id="Oval" fill="#314351" fill-rule="nonzero" cx="213.24" cy="75.54" r="1"></circle>
                <circle id="Oval" fill="#314351" fill-rule="nonzero" cx="204.4" cy="76.31" r="1"></circle>
                <path d="M216.69,73.36 C216.69,73.36 217.01,77.04 216.01,77.89 C215.35,78.45 211.84,78.81 211.01,77.99 C210.18,77.17 209.79,74 209.79,74" id="Path" stroke="#314351" stroke-width="0.68"></path>
                <path d="M207.47,74.12 C207.47,74.12 207.79,77.8 206.79,78.65 C206.13,79.22 202.62,79.57 201.79,78.76 C201.2,78.16 200.79,76.14 200.62,75.24 C200.599918,75.126427 200.6286,75.0096478 200.699013,74.9183014 C200.769425,74.826955 200.875056,74.7694903 200.99,74.76 L216.67,73.36 L220.76,73.93" id="Path" stroke="#314351" stroke-width="0.68"></path>
                <line x1="208.86" y1="77.04" x2="208.27" y2="79.49" id="Path" stroke="#FF8880" stroke-width="0.68" stroke-linecap="round"></line>
                <path d="M212.84,80.91 C212.827666,81.1137045 212.790731,81.3151685 212.73,81.51 C212.273781,82.8712446 210.803821,83.6084585 209.44,83.16 C209.061919,83.0215072 208.720058,82.7992972 208.44,82.51 L212.84,80.91 Z" id="Path" fill="#FFFFFF" fill-rule="nonzero"></path>
                <circle id="Oval" fill="#FFFFFF" fill-rule="nonzero" cx="212.52" cy="108.42" r="1"></circle>
                <line x1="165.52" y1="144.18" x2="170.77" y2="145.76" id="Path" stroke="#FF8880" stroke-width="0.68" stroke-linecap="round"></line>
                <line x1="164.81" y1="141.79" x2="171.96" y2="143.59" id="Path" stroke="#FF8880" stroke-width="0.68" stroke-linecap="round"></line>
                <line x1="164.53" y1="139.67" x2="173.36" y2="141.39" id="Path" stroke="#FF8880" stroke-width="0.68" stroke-linecap="round"></line>
                <path d="M229.49,168.71 L233.44,203.01 C233.932664,207.296436 235.019768,211.493399 236.67,215.48 L236.67,215.48" id="Path" stroke="#314351" stroke-width="0.68" stroke-linecap="round"></path>
                <line x1="140.84" y1="127.08" x2="137.32" y2="115.54" id="Path" stroke="#306626" stroke-width="0.68" stroke-linecap="round"></line>
                <line x1="148.83" y1="126.98" x2="148.83" y2="100" id="Path" stroke="#306626" stroke-width="0.68" stroke-linecap="round"></line>
                <line x1="91.09" y1="97.36" x2="139.28" y2="97.36" id="Path" stroke="#FFFFFF" stroke-width="0.9" stroke-linecap="round"></line>
                <line x1="128.11" y1="101.18" x2="139.28" y2="101.18" id="Path" stroke="#FFFFFF" stroke-width="0.9" stroke-linecap="round"></line>
                <line x1="91.09" y1="101.18" x2="122.86" y2="101.18" id="Path" stroke="#FFFFFF" stroke-width="0.9" stroke-linecap="round"></line>
                <line x1="97.25" y1="104.99" x2="139.28" y2="104.99" id="Path" stroke="#FFFFFF" stroke-width="0.9" stroke-linecap="round"></line>
                <path d="M188.08,136.78 C190.84,148.07 184.08,151.36 181.77,152.04" id="Path" stroke="#4AA147" stroke-width="0.9" stroke-linecap="round"></path>
                <path d="M206.18,141 L210.68,141.11 C219.424598,141.31819 227.622041,136.867279 232.21,129.42 L234.69,125.42 L229.37,141.91 C228.412661,144.854028 225.29632,146.511656 222.32,145.66 L206.18,141 Z" id="Path" fill="#000000" fill-rule="nonzero" opacity="0.1" style="mix-blend-mode: multiply;"></path>
                <path d="M203,140.37 L223,145.49 C225.513009,146.127202 228.096214,144.737916 228.95,142.29 L235.27,124.14" id="Path" stroke="#4AA147" stroke-width="0.9" stroke-linecap="round"></path>
                <path d="M113.65,141 C115.2,141.49 115.82,141.53 116.15,140.72 C116.4,140.09 111.96,137.53 110.05,136.46 C109.47995,136.139576 108.974647,135.715664 108.56,135.21 L86.8,106.71 C83.8295986,102.824411 82.3501525,98.0029063 82.63,93.12 L82.63,92.66 C75.7187693,92.5458686 69.1298558,95.5772839 64.72,100.9 C65.5919401,105.694191 67.7761948,110.152701 71.03,113.78 L104.89,150 C106.010185,151.082256 107.604452,151.519454 109.12,151.16 L113.5,150.16 C113.985979,150.046837 114.495576,150.198955 114.84,150.56 C116.13,151.91 118,153.76 118.7,152.56 C119.5,151.15 110.7,141.43 110.93,140.71 C111.16,139.99 112.09,140.5 113.65,141 Z" id="Path" fill="#CC8672" fill-rule="nonzero"></path>
                <line x1="113.73" y1="149.58" x2="111.45" y2="146.91" id="Path" stroke="#FFB6B2" stroke-width="0.68" stroke-linecap="round"></line>
                <line x1="111.28" y1="150.05" x2="108.95" y2="147.4" id="Path" stroke="#FFB6B2" stroke-width="0.68" stroke-linecap="round"></line>
                <line x1="108.71" y1="150.55" x2="106.33" y2="148.13" id="Path" stroke="#FFB6B2" stroke-width="0.68" stroke-linecap="round"></line>
                <path d="M83,98.45 L83,98.45 C82.9,97.96 82.82,97.45 82.75,96.96 L82.69,96.38 C82.69,96.01 82.62,95.64 82.61,95.27 L82.61,94.74 C82.61,94.2 82.61,93.66 82.61,93.12 L82.61,93.12 L82.61,92.66 C75.7042256,92.5479256 69.1205151,95.5749612 64.71,100.89 C64.71,101.04 64.71,101.18 64.79,101.33 C64.87,101.48 64.92,101.92 64.99,102.22 C65.06,102.52 65.14,102.83 65.22,103.13 L65.46,103.97 C65.56,104.29 65.67,104.61 65.78,104.97 C65.89,105.33 65.96,105.48 66.06,105.73 C66.16,105.98 66.33,106.41 66.48,106.73 C66.63,107.05 66.67,107.17 66.77,107.38 C66.94,107.75 67.12,108.11 67.31,108.47 L67.59,109 C67.81,109.39 68.04,109.77 68.27,110.15 L68.53,110.57 C68.8,110.98 69.08,111.37 69.36,111.77 C69.42,111.84 69.47,111.92 69.52,111.99 C70.05,109.82 72.5,101.9 83,98.45 Z" id="Path" fill="#AF6951" fill-rule="nonzero"></path>
                <path d="M105.69,131.77 C104.22,132.33 97.12,135.3 95.54,140.23 C95.5186502,140.313869 95.4520288,140.378653 95.3675964,140.39765 C95.2831639,140.416648 95.1952145,140.386642 95.14,140.32 L92.6,137.4 C92.5608683,137.324785 92.5608683,137.235215 92.6,137.16 C93.03,136.16 96.07,129.44 103.81,128.56 C103.901414,128.549547 103.990757,128.592277 104.04,128.67 L105.83,131.43 C105.8669,131.49218 105.872413,131.568093 105.844883,131.634952 C105.817353,131.701811 105.759985,131.751832 105.69,131.77 Z" id="Path" fill="#FFC74F" fill-rule="nonzero"></path>
                <ellipse id="Oval" stroke="#F58220" stroke-width="0.9" fill="#FAF1E1" fill-rule="nonzero" stroke-linecap="round" transform="translate(98.144875, 132.854359) rotate(-8.660000) translate(-98.144875, -132.854359) " cx="98.1448746" cy="132.854359" rx="4.1" ry="4.41"></ellipse>
                <polyline id="Path" stroke="#F58220" stroke-width="0.9" fill="#FAF1E1" fill-rule="nonzero" stroke-linecap="round" points="97.29 130.93 97.95 133.12 100.15 133.34"></polyline>
                <path d="M84.35,96.7 C84.1498487,93.9369533 84.1498487,91.1630467 84.35,88.4 C84.4924283,85.719795 84.7795131,83.0492387 85.21,80.4 L85.21,80.4 L71.21,63.93 C67.39,67.78 58.68,92.52 63.37,106.4 C63.7074191,107.357704 64.0980265,108.295829 64.54,109.21 C67,98 79.16,96.72 84.35,96.7 Z" id="Path" fill="#E085D3" fill-rule="nonzero"></path>
                <path d="M87.36,74.74 C86.2595258,77.2037721 85.4927583,79.8033828 85.08,82.47" id="Path" stroke="#B22485" stroke-width="0.9" stroke-linecap="round"></path>
                <g id="Group" opacity="0.1" style="mix-blend-mode: multiply;" transform="translate(66.000000, 55.000000)" fill="#000000" fill-rule="nonzero">
                    <circle id="Oval" cx="15.63" cy="6.65" r="1"></circle>
                    <circle id="Oval" cx="1.2" cy="24.58" r="1"></circle>
                    <circle id="Oval" cx="26.41" cy="11.78" r="1"></circle>
                    <circle id="Oval" cx="55" cy="20.18" r="1"></circle>
                    <circle id="Oval" cx="82.29" cy="21.33" r="1"></circle>
                    <circle id="Oval" cx="43.32" cy="24.72" r="1"></circle>
                    <circle id="Oval" cx="28.8" cy="23.26" r="1"></circle>
                    <circle id="Oval" cx="26.56" cy="1.75" r="1"></circle>
                    <circle id="Oval" cx="38.73" cy="13.29" r="1"></circle>
                    <circle id="Oval" cx="64.63" cy="9.48" r="1"></circle>
                    <circle id="Oval" cx="51.78" cy="10.36" r="1"></circle>
                    <circle id="Oval" cx="70.59" cy="18.42" r="1"></circle>
                    <circle id="Oval" cx="13.66" cy="19.89" r="1"></circle>
                    <circle id="Oval" cx="2.22" cy="38.5" r="1"></circle>
                    <circle id="Oval" cx="13.07" cy="33.08" r="1"></circle>
                </g>
                <path d="M64.85,108.78 C67.24,97.59 78.46,96.4 83.98,96.78" id="Path" stroke="#B22485" stroke-width="0.9" stroke-linecap="round"></path>
                <path d="M137.32,210.35 C137.32,210.35 138.92,209.48 139.03,206.45 C139.116379,202.473889 136.72453,198.862197 133.03,197.39 L123.65,193.54 L120.52,209.76 L135,211.13 L137.32,210.35 Z" id="Path" fill="#F58220" fill-rule="nonzero"></path>
                <path d="M121.44,196.68 L127.17,189.62 C127.618059,189.042916 127.956952,188.388851 128.17,187.69 C128.93,185.33 130.77,179.84 131.53,179.98 C132.53,180.15 132.59,180.85 132.4,182.69 C132.21,184.53 131.77,185.69 132.63,185.77 C133.49,185.85 142.28,173.93 144.02,174.51 C145.52,175 143.89,177.51 142.69,179.22 C142.370911,179.682452 142.31777,180.278386 142.55,180.79 L144.68,185.42 C145.408277,187.018405 145.280396,188.876443 144.34,190.36 L130.34,212.5 L121.44,196.68 Z" id="Path" fill="#FFB6B2" fill-rule="nonzero"></path>
                <line x1="141.94" y1="180.66" x2="139.5" y2="183.79" id="Path" stroke="#F2A2A0" stroke-width="0.68" stroke-linecap="round"></line>
                <line x1="143.02" y1="183.28" x2="140.6" y2="186.45" id="Path" stroke="#F2A2A0" stroke-width="0.68" stroke-linecap="round"></line>
                <line x1="144.14" y1="186.01" x2="141.99" y2="189.19" id="Path" stroke="#F2A2A0" stroke-width="0.68" stroke-linecap="round"></line>
                <path d="M76.73,149.17 C78.6519087,151.733184 79.7346495,154.827727 79.83,158.03 C79.8505242,158.627229 79.9970606,159.213375 80.26,159.75 L80.55,160.33 C80.6852077,160.578184 80.7090817,160.871993 80.6157165,161.138751 C80.5223514,161.405508 80.3204667,161.620302 80.06,161.73 L79.36,162.05 C78.9475993,162.242295 78.6430393,162.609235 78.53,163.05 C78.03,164.82 76.1,169.53 69.4,170.29 C68.1253736,170.418099 67.1538276,171.488959 67.15,172.77 L67.15,185.24 L45.15,185.24 L57.85,157.68 C57.85,157.68 74.09,144 76.73,149.17 Z" id="Path" fill="#FFB6B2" fill-rule="nonzero"></path>
                <path d="M67.15,185.23 L67.15,179.7 C55.4,179.06 56,166.59 56,166.59 L55.35,163.17 L45.16,185.23 L67.15,185.23 Z" id="Path" fill="#F2A2A0" fill-rule="nonzero"></path>
                <path d="M124.54,192.85 L122.48,195.39 L131.21,211.19 L136.21,203.28 L136.54,202.68 C136.54,202.68 130.21,203.16 124.54,192.85 Z" id="Path" fill="#F2A2A0" fill-rule="nonzero"></path>
                <path d="M112.69,239.77 L137.32,210.35 C129.32,210.94 123.64,193.54 123.64,193.54 L101.36,217.78 L92.83,197.78 C89.7473283,190.55065 83.1331506,185.439523 75.36,184.28 L55.63,181.35 C51.7606755,180.772997 47.8113513,181.066805 44.07,182.21 C35.8332415,184.726543 29.7441151,191.707707 28.37,200.21 L26.69,210.68 C33.12,222.31 41.41,234.74 51.34,245.33 L72.82,245.33 L77.7,228.71 L90.33,240.93 C93.3798108,243.885444 97.5214321,245.43929 101.762609,245.219264 C106.003787,244.999239 109.962386,243.025168 112.69,239.77 L112.69,239.77 Z" id="Path" fill="#FFC74F" fill-rule="nonzero"></path>
                <circle id="Oval" fill="#314351" fill-rule="nonzero" cx="75.94" cy="156.72" r="1"></circle>
                <path d="M132.46,208.54 L110.16,234.93 C105.543146,240.384774 97.473435,241.292616 91.76,237 L73.06,223 L77.7,228.73 L90.33,240.95 C93.3811503,243.904252 97.5235843,245.456354 101.764796,245.234431 C106.006007,245.012507 109.963834,243.036554 112.69,239.78 L137.32,210.36 C135.525242,210.406758 133.782566,209.75415 132.46,208.54 L132.46,208.54 Z" id="Path" fill="#000000" fill-rule="nonzero" opacity="0.1" style="mix-blend-mode: multiply;"></path>
                <path d="M74.29,161.16 C74.1692771,161.296779 74.071358,161.452099 74,161.62 C73.4603032,162.779865 73.9613408,164.157719 75.12,164.7 C75.434063,164.840984 75.775871,164.909346 76.12,164.9 L74.29,161.16 Z" id="Path" fill="#FFFFFF" fill-rule="nonzero"></path>
                <path d="M123.69,193.73 C125.12,197.61 130.38,210.4 137.13,209.91" id="Path" stroke="#F58220" stroke-width="0.9" stroke-linecap="round"></path>
                <path d="M76.43,146.38 C75.19,144.62 65.73,135.73 55.18,146.14 C55.18,146.14 27.76,137.78 35.82,191.73 C35.82,191.73 51.38,185.51 50.34,170.29 C49.46,157.42 53.47,156.29 53.47,156.29 C52.6129039,158.419253 52.4143443,160.756683 52.9,163 C53.4640937,165.106781 54.9072164,166.869092 56.861388,167.837565 C58.8155595,168.806038 61.0919116,168.88707 63.11,168.06 C65.69,167.06 68.31,164.77 69.25,159.85 C69.25,159.85 71.82,149.11 77.53,150.29 C77.5794106,148.903923 77.1948543,147.537 76.43,146.38 Z" id="Path" fill="#314351" fill-rule="nonzero"></path>
                <path d="M51.17,145.67 C52.34,147.24 53.5,150.52 52.38,157.17 C52.6554311,156.784348 53.0328822,156.483079 53.47,156.3 C53.47,156.3 58.03,150.83 55.18,146.14 C53.8716709,145.797739 52.5220135,145.63955 51.17,145.67 L51.17,145.67 Z" id="Path" fill="#FFC74F" fill-rule="nonzero"></path>
                <circle id="Oval" fill="#FFB6B2" fill-rule="nonzero" cx="69.14" cy="158.23" r="3.08"></circle>
                <line x1="101.36" y1="217.78" x2="103.63" y2="222.3" id="Path" stroke="#F58220" stroke-width="0.9" stroke-linecap="round"></line>
                <polygon id="Path" fill="#000000" fill-rule="nonzero" opacity="0.1" style="mix-blend-mode: multiply;" points="72.18 223.03 66.98 245.34 72.82 245.34 77.61 229.07"></polygon>
                <line x1="77.7" y1="228.72" x2="71.99" y2="222.42" id="Path" stroke="#F58220" stroke-width="0.9" stroke-linecap="round"></line>
                <path d="M66.37,156.92 C65.9081636,157.824401 65.9352018,158.901045 66.4418525,159.781124 C66.9485032,160.661202 67.8659815,161.225232 68.88,161.28 L69.23,160.12 C67.5630523,160.012734 66.2901291,158.588485 66.37,156.92 Z" id="Path" fill="#F2A2A0" fill-rule="nonzero"></path>
                <path d="M33,180.64 C33,180.64 29.68,153.56 44.48,147.85" id="Path" stroke="#314351" stroke-width="0.9" stroke-linecap="round"></path>
                <path d="M77.81,265.66 L72.81,245.34 L51.34,245.34 C59.18,253.7 68,260.9 77.81,265.66 Z" id="Path" fill="#7DCC7A" fill-rule="nonzero"></path>
                <line x1="54.08" y1="245.39" x2="72.04" y2="245.39" id="Path" stroke="#4AA147" stroke-width="0.9" stroke-linecap="round"></line>
            </g>
        </g>
    </g>
</svg>