<?xml version="1.0" encoding="UTF-8"?>
<svg width="275px" height="272px" viewBox="0 0 275 272" version="1.1" xmlns="http://www.w3.org/2000/svg" xmlns:xlink="http://www.w3.org/1999/xlink">
    <title>SEO illustrations_2(2)-05</title>
    <g id="Page-1" stroke="none" stroke-width="1" fill="none" fill-rule="evenodd">
        <g id="MC-1263-DWP-Landing-Page-Web" transform="translate(-830.000000, -2090.000000)">
            <g id="SEO-illustrations_2(2)-05" transform="translate(830.000000, 2090.000000)">
                <path d="M98.4,1.52 C126.16,-1.21 154.89,5.52 210.02,37.78 C265.15,70.04 277.46,108.45 274.52,138.94 C271.83,166.94 248.93,194.27 236.41,206.94 C215,228.66 169.6,285 98,267.37 C18.65,247.82 -15.76,158.88 7.12,91.44 C30,24 77.24,3.61 98.4,1.52 Z" id="Path" fill="#ECF3FF" fill-rule="nonzero"></path>
                <path d="M178.14,58.68 C177.553132,55.5308963 179.147633,52.3788233 182.032188,50.9857659 C184.916743,49.5927085 188.376868,50.303718 190.478378,52.7213454 C192.579888,55.1389727 192.802254,58.6643876 191.021175,61.3269097 C189.240095,63.9894317 185.896732,65.1295717 182.86,64.11" id="Path" stroke="#0265FC" stroke-width="0.9" stroke-linecap="round"></path>
                <path d="M141.78,32.66 L149.21,25.23 C149.347254,25.0997562 149.543533,25.0525635 149.724993,25.1061768 C149.906453,25.15979 150.045568,25.3060762 150.09,25.49 L151.99,34.83 C152.023151,34.9998111 151.969671,35.1749887 151.84733,35.29733 C151.724989,35.4196713 151.549811,35.4731508 151.38,35.44 L142,33.54 C141.818525,33.4905277 141.677914,33.3469082 141.632293,33.1644267 C141.586673,32.9819452 141.643156,32.7890521 141.78,32.66 L141.78,32.66 Z" id="Path" stroke="#B2D4FE" stroke-width="0.9"></path>
                <path d="M16.2,201.36 C32.2,232.64 59.94,257.99 98.01,267.36 C169.6,285 215,228.66 236.41,207 C244.603479,198.693059 251.971355,189.610479 258.410014,179.88 L258.410014,110.92 C258.412657,109.952881 258.030331,109.024461 257.347411,108.339664 C256.66449,107.654868 255.737123,107.27 254.77,107.27 L19.85,107.27 C17.8341607,107.27 16.2,108.904161 16.2,110.92 L16.2,201.36 Z" id="Path" fill="#FFFFFF" fill-rule="nonzero"></path>
                <rect id="Rectangle" fill="#FFFFFF" fill-rule="nonzero" x="33.8" y="124.87" width="117.28" height="70.37" rx="2.48"></rect>
                <path d="M197.26,107.27 L19.85,107.27 C17.8341607,107.27 16.2,108.904161 16.2,110.92 L16.2,199.64" id="Path" stroke="#4D9AFD" stroke-width="0.9" stroke-linecap="round"></path>
                <path d="M258.400014,176.67 L258.400014,110.92 C258.402657,109.952881 258.020331,109.024461 257.337411,108.339664 C256.65449,107.654868 255.727123,107.27 254.76,107.27 L218.37,107.27" id="Path" stroke="#4D9AFD" stroke-width="0.9" stroke-linecap="round"></path>
                <path d="M36.28,124.87 L148.6,124.87 C149.969666,124.87 151.08,125.980334 151.08,127.35 L151.08,192.76 C151.08,194.129666 149.969666,195.24 148.6,195.24 L36.28,195.24 C34.9103338,195.24 33.8,194.129666 33.8,192.76 L33.8,127.35 C33.8,125.980334 34.9103338,124.87 36.28,124.87 Z" id="Rectangle" stroke="#B2D4FE" stroke-width="0.9" stroke-linecap="round" stroke-dasharray="0.9"></path>
                <path d="M43.14,237.51 L43.14,219.51 C43.14,218.405431 42.2445695,217.51 41.14,217.51 L35.9,217.51 C34.7954305,217.51 33.9,218.405431 33.9,219.51 L33.9,227.8 C36.807263,231.196759 39.8915413,234.437922 43.14,237.51 L43.14,237.51 Z" id="Path" fill="#B2D4FE" fill-rule="nonzero"></path>
                <path d="M60.61,227.489973 L55.1,227.489973 C54.5979247,227.487322 54.1156384,227.685587 53.7606125,228.040613 C53.4055866,228.395638 53.2073222,228.877925 53.2099732,229.38 L53.2099732,246.05 C56.19,248.31 59.2866667,250.446667 62.5,252.46 L62.5,229.38 C62.5,228.336182 61.6538182,227.489973 60.61,227.489973 Z" id="Path" fill="#B2D4FE" fill-rule="nonzero"></path>
                <path d="M62.5,237.46 L53.21,237.46 L53.21,246.05 C56.19,248.31 59.2866667,250.446667 62.5,252.46 L62.5,237.46 Z" id="Path" fill="#ECF3FF" fill-rule="nonzero"></path>
                <path d="M80.35,248.41 L74.06,248.41 C73.2315729,248.41 72.56,249.081573 72.56,249.91 L72.56,258.06 C75.56,259.55 78.66,260.94 81.85,262.2 L81.85,249.91 C81.85,249.081573 81.1784271,248.41 80.35,248.41 Z" id="Path" fill="#ECF3FF" fill-rule="nonzero"></path>
                <path d="M118.67,227.49 L113.15,227.49 C112.649656,227.49 112.169948,227.689436 111.817091,228.04417 C111.464234,228.398904 111.267339,228.879663 111.269973,229.38 L111.269973,269.85 C114.423333,270.25 117.516667,270.513333 120.550027,270.64 L120.550027,229.38 C120.552661,228.879663 120.355766,228.398904 120.002909,228.04417 C119.650052,227.689436 119.170344,227.49 118.67,227.49 Z" id="Path" fill="#B2D4FE" fill-rule="nonzero"></path>
                <path d="M120.55,237.46 L111.27,237.46 L111.27,269.85 C114.423333,270.25 117.516667,270.513333 120.55,270.64 L120.55,237.46 Z" id="Path" fill="#ECF3FF" fill-rule="nonzero"></path>
                <path d="M138.19,237.5 L132.33,237.5 C131.383978,237.5055 130.62,238.273962 130.62,239.22 L130.62,270.57 C133.78,270.396667 136.873333,270.09 139.900029,269.65 L139.900029,239.22 C139.902662,238.76475 139.723678,238.327231 139.402702,238.004378 C139.081726,237.681524 138.645258,237.5 138.19,237.5 L138.19,237.5 Z" id="Path" fill="#F4C6EF" fill-rule="nonzero"></path>
                <path d="M157.12,211.529788 L152.12,211.529788 C150.943633,211.529788 149.99,212.483633 149.99,213.66 L149.99,267.66 C153.156667,266.88 156.253333,265.966667 159.28,264.92 L159.28,213.66 C159.28,213.089852 159.051533,212.543482 158.645568,212.143156 C158.239604,211.74283 157.690091,211.52197 157.12,211.529788 L157.12,211.529788 Z" id="Path" fill="#B2D4FE" fill-rule="nonzero"></path>
                <path d="M150,237.46 L150,267.69 C153.17,267.06 156.27,266.31 159.29,265.47 L159.29,237.47 L150,237.46 Z" id="Path" fill="#ECF3FF" fill-rule="nonzero"></path>
                <path d="M99.49,237.90997 L93.62,237.90997 C92.6755931,237.90997 91.91,238.675593 91.91,239.62 L91.91,265.69 C93.91,266.29 95.91,266.86 98.01,267.37 C99.08,267.63 100.14,267.88 101.20003,268.11 L101.20003,239.62 C101.202681,239.165663 101.023381,238.729159 100.702111,238.407889 C100.380841,238.086619 99.9443366,237.907319 99.49,237.90997 L99.49,237.90997 Z" id="Path" fill="#FFE5B2" fill-rule="nonzero"></path>
                <path d="M55.1207849,148.563069 L162.460785,148.563069 C163.565354,148.563069 164.460785,149.4585 164.460785,150.563069 L164.460785,214.203069 C164.460785,215.307639 163.565354,216.203069 162.460785,216.203069 L58.7907849,216.203069 C55.6814217,216.203069 53.1607849,213.682432 53.1607849,210.573069 L53.1607849,150.573069 C53.1607849,149.4685 54.0562154,148.573069 55.1607849,148.573069 L55.1207849,148.563069 Z" id="Path" fill="#000000" fill-rule="nonzero" opacity="0.1" style="mix-blend-mode: multiply;" transform="translate(108.810785, 182.383069) rotate(-22.910000) translate(-108.810785, -182.383069) "></path>
                <rect id="Rectangle" fill="#FFFFFF" fill-rule="nonzero" transform="translate(111.261276, 175.629463) rotate(-22.910000) translate(-111.261276, -175.629463) " x="55.6412763" y="141.609463" width="111.24" height="68.04" rx="1.96"></rect>
                <rect id="Rectangle" stroke="#B2D4FE" stroke-width="0.9" transform="translate(111.375794, 175.574034) rotate(-22.910000) translate(-111.375794, -175.574034) " x="55.8207941" y="141.559034" width="111.11" height="68.03" rx="1.96"></rect>
                <line x1="63.02" y1="174.5" x2="81.82" y2="166.55" id="Path" stroke="#B2D4FE" stroke-width="1.8" stroke-linecap="round"></line>
                <line x1="137.27" y1="153.11" x2="150.68" y2="147.44" id="Path" stroke="#B2D4FE" stroke-width="1.8" stroke-linecap="round"></line>
                <line x1="66.54" y1="183" x2="129.24" y2="156.51" id="Path" stroke="#B2D4FE" stroke-width="1.8" stroke-linecap="round"></line>
                <line x1="70.04" y1="191.52" x2="139.91" y2="161.99" id="Path" stroke="#FFC74F" stroke-width="1.8" stroke-linecap="round"></line>
                <line x1="96.71" y1="190.23" x2="157.72" y2="164.45" id="Path" stroke="#FFC74F" stroke-width="1.8" stroke-linecap="round"></line>
                <line x1="73.58" y1="200.01" x2="86.13" y2="194.71" id="Path" stroke="#FFC74F" stroke-width="1.8" stroke-linecap="round"></line>
                <line x1="77.1" y1="208.51" x2="146.96" y2="178.98" id="Path" stroke="#FFC74F" stroke-width="1.8" stroke-linecap="round"></line>
                <path d="M178.63,220.28 L182.06,218.58 C183.252252,217.98839 184.657178,218.010749 185.83,218.64 L188.83,220.22 C189.977422,220.828551 191.344274,220.861889 192.52,220.31 L196.3,218.54 C197.513954,217.977648 198.924287,218.033466 200.09,218.69 L204.48,221.19" id="Path" stroke="#4AA147" stroke-width="0.9" stroke-linecap="round"></path>
                <path d="M226.14,133.24 L213.54,155.07 L203.86,132.8 C193.68,136.46 187.15,143.63 187.15,155.07 C187.15,169.644795 198.965205,181.46 213.54,181.46 C228.114795,181.46 239.93,169.644795 239.93,155.07 C239.93,144.8 234.7,137.61 226.14,133.24 Z" id="Path" fill="#B2D4FE" fill-rule="nonzero"></path>
                <path d="M213.54,155.07 L237,143 C234.44809,138.062534 230.407277,134.053209 225.45,131.54 L213.54,155.07 Z" id="Path" fill="#E085D3" fill-rule="nonzero"></path>
                <path d="M204.61,130.23 C197.927168,132.636853 192.495563,137.634172 189.541426,144.093759 C186.587289,150.553345 186.359686,157.93059 188.91,164.56 L213.54,155.07 L204.61,130.23 Z" id="Path" fill="#FFC74F" fill-rule="nonzero"></path>
                <path d="M213.54,155.07 L188.91,164.56 C191.312897,170.75141 195.952192,175.815379 201.91,178.75 L213.54,155.07 Z" id="Path" fill="#BEEDC0" fill-rule="nonzero"></path>
                <path d="M213.54,155.07 L201.9,178.75 C203.97614,179.77273 206.17864,180.515864 208.45,180.96 L213.54,155.07 Z" id="Path" fill="#7DCC7A" fill-rule="nonzero"></path>
                <path d="M236.41,207 C215,228.66 169.6,285 98,267.37 C64.68,259.16 39.29,238.72 22.73,212.78" id="Path" stroke="#ECF3FF" stroke-width="0.9" stroke-linecap="round"></path>
                <circle id="Oval" fill="#FFFFFF" fill-rule="nonzero" cx="247.99" cy="91.82" r="1.47"></circle>
                <circle id="Oval" fill="#FFFFFF" fill-rule="nonzero" cx="213.46" cy="155.02" r="11.36"></circle>
                <path d="M221.93,93.51 C216.24803,89.3983301 209.164349,87.7146517 202.24,88.83 L204.37,102 C205.227106,101.710724 206.125397,101.562134 207.03,101.56 C209.77684,101.558766 212.345938,102.918216 213.89,105.19 L222.07,94.51 C222.185096,94.3592116 222.235065,94.1686359 222.208765,93.9807729 C222.182464,93.79291 222.08208,93.6233837 221.93,93.51 L221.93,93.51 Z" id="Path" fill="#4D9AFD" fill-rule="nonzero"></path>
                <path d="M189.47,99.9 C189.47,99.9 195.41,97.67 193.69,88.85 C191.97,80.03 189,80.23 189,80.23 L180.54,86.49 L182.79,97.34 C182.79,97.34 188,100.3 189.47,99.9 Z" id="Path" fill="#4AA147" fill-rule="nonzero"></path>
                <path d="M187.44,80.59 L209.73,80.53 C210.24623,80.4999584 210.76377,80.4999584 211.28,80.53 C214.23,80.76 216.53,86.64 217.19,87.89 C217.892373,88.8575538 218.675151,89.7641042 219.53,90.6 C219.793265,90.8859243 219.837779,91.3106941 219.63951,91.6449851 C219.441241,91.9792762 219.04715,92.1439083 218.67,92.05 L208.81,89.58 C207.892601,89.5270551 206.98597,89.7997525 206.25,90.35 L206.25,90.35 C204.15,91.42 204.01,94.84 204.09,96.58 C204.111068,97.1658727 203.725279,97.6888692 203.159301,97.8417071 C202.593323,97.9945451 201.996711,97.7368382 201.72,97.22 L201.72,97.22 C201.26,96.15 200.15,93.22 199.72,92.57 C199.470182,92.142677 199.039721,91.8520241 198.55,91.78 L181,94.23 L187.44,80.59 Z" id="Path" fill="#FFB6B2" fill-rule="nonzero"></path>
                <path d="M191.19,92.8 C190.7,90.92 189.24,83.8 191.19,80.58 L187.33,80.58 L186.08,82.58 L181.61,94.2 L191.19,92.8 Z" id="Path" fill="#F2A2A0" fill-rule="nonzero"></path>
                <path d="M79.44,150.08 C79.44,150.08 84.23,151.4 89.65,143.63 C95.07,135.86 93.71,129.56 93.71,129.56 L83.64,133.22 C83.64,133.22 76,142.31 79.44,150.08 Z" id="Path" fill="#4AA147" fill-rule="nonzero"></path>
                <path d="M91.83,130.49 L105.39,140 C105.6318,140.168014 105.761764,140.455272 105.728331,140.747809 C105.694898,141.040347 105.503473,141.290874 105.23,141.4 L103.48,142.11 C103.010259,142.299915 102.756792,142.811144 102.89,143.3 L103.26,144.67 C103.67218,146.201299 104.435726,147.615401 105.49,148.8 L106.78,150.25 C107.275579,150.816358 107.476804,151.582379 107.323549,152.319178 C107.170295,153.055977 106.68031,153.678227 106,154 L105.14,154.4 C102.841476,155.478928 100.20864,155.601218 97.82,154.74 L96.45,154.25 C93.3504553,153.140179 90.8678338,150.766603 89.62,147.72 L84.33,137.66 L91.83,130.49 Z" id="Path" fill="#FFB6B2" fill-rule="nonzero"></path>
                <path d="M100.16,146.22 C100.16,146.22 102.62,151.64 105.82,152.62" id="Path" stroke="#F2A2A0" stroke-width="0.9" stroke-linecap="round"></path>
                <path d="M97.12,147.41 C97.12,147.41 99.83,153.13 103.95,153.93" id="Path" stroke="#F2A2A0" stroke-width="0.9" stroke-linecap="round"></path>
                <path d="M94.66,149.69 C96.0886349,151.896441 98.1937716,153.580551 100.66,154.49" id="Path" stroke="#F2A2A0" stroke-width="0.9" stroke-linecap="round"></path>
                <path d="M91.83,130.49 L84.33,137.67 L88.33,145.29 C88.56,138.51 93.04,133.55 94.33,132.29 L91.83,130.49 Z" id="Path" fill="#F2A2A0" fill-rule="nonzero"></path>
                <path d="M99.87,53.91 L114.41,55.35 C125.47,56.45 133.77,60.91 141.99,68.35 C141.99,68.35 142.76,69.12 144.14,70.25 C151.130548,75.8928492 159.770777,79.1017762 168.75,79.39 L189.35,80.18 C189.35,80.18 181.16,97.42 189.35,99.91 C189.35,99.91 146.08,106.86 121.45,82.82 L118.12,106.82 L63.41,106.82 L93.71,129.56 C93.71,129.56 78.27,141.48 79.44,150.08 L35.94,115 C29.3160568,109.659226 27.5229356,100.313004 31.7,92.9 C38.13,81.51 48.16,67.66 57.11,62.09 C57.11,62.07 67.13,53.91 99.87,53.91 Z" id="Path" fill="#7DCC7A" fill-rule="nonzero"></path>
                <path d="M119.36,98 C119.57,96.38 120,93.38 120.02,93.22 C90.72,96.55 70.33,93.62 60.84,91.79 C60.07,92.56 58.03,94.26 57.57,96.04 C76.44,100.16 104.44,99.37 119.36,98 Z" id="Path" fill="#4AA147" fill-rule="nonzero"></path>
                <path d="M63.62,106.82 L118.16,106.82 C118.35,105.66 118.45,104.63 118.59,103.49 C86.97,107.58 67.59,104.15 59.01,102.49 C58.9,104 61.89,105.66 63.62,106.82 Z" id="Path" fill="#4AA147" fill-rule="nonzero"></path>
                <path d="M189.31,99.94 C187.329996,99.260462 185.95833,97.4500208 185.84,95.36 C145.75,101.24 122.5,77.5 122.5,77.5 L121.71,83.05 C146.39,106.76 189.31,99.94 189.31,99.94 Z" id="Path" fill="#000000" fill-rule="nonzero" opacity="0.1" style="mix-blend-mode: multiply;"></path>
                <path d="M64.88,85.58 C64.88,85.58 61.88,104.87 82.13,106.82 L63.41,106.82 C63.41,106.82 55.59,100.48 55.79,99.11 C55.99,97.74 59.11,92.61 60.38,91.64 C61.65,90.67 64.88,85.58 64.88,85.58 Z" id="Path" fill="#000000" fill-rule="nonzero" opacity="0.1" style="mix-blend-mode: multiply;"></path>
                <path d="M63.46,106.88 L57,101.21 C55.8205335,100.156919 55.6263471,98.38335 56.55,97.1 L65.78,84.26" id="Path" stroke="#4AA147" stroke-width="0.9" stroke-linecap="round"></path>
                <path d="M41.38,110.78 C37.0269329,107.110102 33.9812796,102.127582 32.7,96.58 L31.8,92.71 L31.7,92.88 C27.5114278,100.297692 29.3054187,109.656909 35.94,115 L79.44,150.1 C79.2798148,148.014878 79.735317,145.928609 80.75,144.1 L41.38,110.78 Z" id="Path" fill="#000000" fill-rule="nonzero" opacity="0.1" style="mix-blend-mode: multiply;"></path>
                <line x1="121.83" y1="83.01" x2="122.54" y2="76.1" id="Path" stroke="#4AA147" stroke-width="0.9" stroke-linecap="round"></line>
                <line x1="216.98" y1="88.43" x2="211.44" y2="87.12" id="Path" stroke="#F2A2A0" stroke-width="0.9" stroke-linecap="round"></line>
                <line x1="215.61" y1="85.72" x2="210.53" y2="84.6" id="Path" stroke="#F2A2A0" stroke-width="0.9" stroke-linecap="round"></line>
                <line x1="213.78" y1="82.94" x2="209.75" y2="82.23" id="Path" stroke="#F2A2A0" stroke-width="0.9" stroke-linecap="round"></line>
                <path d="M189.18,80.56 C189.18,80.56 182.34,96.18 189.26,99.5" id="Path" stroke="#4AA147" stroke-width="0.9" stroke-linecap="round"></path>
                <path d="M93.29,129.66 C93.29,129.66 78.35,140.51 79.45,149.51" id="Path" stroke="#4AA147" stroke-width="0.9" stroke-linecap="round"></path>
                <path d="M83.13,64.13 C85.547249,67.5962724 88.7073303,70.479633 92.38,72.57 C92.38,72.57 99.19,69 102,62.94 L83.13,64.13 Z" id="Path" fill="#B2D4FE" fill-rule="nonzero"></path>
                <line x1="92.52" y1="67.32" x2="92.42" y2="71.9" id="Path" stroke="#FFFFFF" stroke-width="0.68" stroke-linecap="round"></line>
                <path d="M83.13,64.13 C85.473995,67.4835616 88.5086351,70.2965707 92.03,72.38 C92.2429191,72.5053572 92.5070809,72.5053572 92.72,72.38 C94.15,71.56 99.57,68.16 101.99,62.95 L83.13,64.13 Z" id="Path" stroke="#4AA147" stroke-width="0.68" stroke-linecap="round"></path>
                <path d="M92.13,52.91 L83.49,52.91 C81.5488895,52.9198052 79.9072803,54.3487707 79.63,56.27 C79.18,59.41 78.98,64.27 80.88,68.39 L83.35,65.64 C84.1109632,64.7815189 85.2948785,64.4321669 86.4,64.74 L92.49,67.74 L92.13,52.91 Z" id="Path" fill="#FFFFFF" fill-rule="nonzero"></path>
                <path d="M93.6,53.16 L102.5,53.56 C103.638353,53.6029414 104.613811,54.3873726 104.9,55.49 C105.880523,59.5246143 105.880523,63.7353857 104.9,67.77 L102.21,65.24 C101.380444,64.4505902 100.173851,64.2022881 99.1,64.6 L92.42,67.85 L93.6,53.16 Z" id="Path" fill="#FFFFFF" fill-rule="nonzero"></path>
                <path d="M105.76,29.83 L89.89,25.42 L83.89,34.84 L84.89,43.23 L84.89,43.23 L84.2,55.1 C83.68,60.3 89.93,66.98 92.85,66.86 C94.61,66.79 99.59,63.13 100.6,57.3 C100.76,56.3 100.65,47.89 100.65,47.89 L101.14,47.75 C101.14,47.75 108.92,46.09 105.76,29.83 Z" id="Path" fill="#FFB6B2" fill-rule="nonzero"></path>
                <path d="M85,44 L86.46,40 C85.813473,39.5562971 85.3791679,38.8650281 85.26,38.09 C85.16,36.9 85.49,35.91 86.26,35.69 C87.117028,35.5093827 87.9612223,36.0470012 88.16,36.9 C88.34,37.72 88.04,38.9 89.16,38.8 C89.16,38.8 89.8,38.07 89.56,36.01 C89.32,33.95 88.56,29.44 91.8,28.72 C95.04,28 99.04,30.42 102.42,30.49 C105.56,30.56 106.83,30.79 107.92,27.6 C109.01,24.41 107.63,22.6 104.69,21.86 C101.75,21.12 101.58,21.57 99.54,21.43 C97.5,21.29 92.84,19.36 86.33,22.29 C79.82,25.22 82.24,33.08 82.46,34.45 C82.68,35.82 83.06,42 85,44 Z" id="Path" fill="#314351" fill-rule="nonzero"></path>
                <path d="M100.65,47.88 C98.4635851,48.3853171 96.172248,48.1677629 94.12,47.26 C92.7900821,46.7341116 91.749008,45.6639165 91.26,44.32 C91.2078468,44.181412 91.0649618,44.0990579 90.9189003,44.1234015 C90.7728387,44.1477451 90.6643867,44.2719887 90.6599627,44.42 C90.652754,46.4545173 91.7012988,48.3471975 93.43,49.42 C95.7254664,51.1115227 98.157115,52.6099802 100.7,53.9 L100.65,47.88 Z" id="Path" fill="#F2A2A0" fill-rule="nonzero"></path>
                <circle id="Oval" fill="#314351" fill-rule="nonzero" cx="95.41" cy="36.64" r="1"></circle>
                <circle id="Oval" fill="#314351" fill-rule="nonzero" cx="104.31" cy="37.34" r="1"></circle>
                <path d="M91.93,34.48 C91.93,34.48 91.64,38.18 92.65,39.02 C93.33,39.59 96.86,39.91 97.65,39.09 C98.44,38.27 98.86,35.09 98.86,35.09" id="Path" stroke="#314351" stroke-width="0.68"></path>
                <path d="M101.2,35.16 C101.2,35.16 100.91,38.86 101.92,39.71 C102.59,40.27 106.12,40.59 106.92,39.77 C107.51,39.17 107.92,37.13 108.06,36.22 C108.077005,36.1079699 108.046886,35.9938977 107.976795,35.9048632 C107.906704,35.8158286 107.802891,35.7597718 107.69,35.75 L91.92,34.48 L87.82,35.1" id="Path" stroke="#314351" stroke-width="0.68"></path>
                <line x1="99.69" y1="38.26" x2="100.68" y2="40.69" id="Path" stroke="#FF8880" stroke-width="0.68" stroke-linecap="round"></line>
                <path d="M95.91,42 C95.9248739,42.2042147 95.9651857,42.4057734 96.03,42.6 C96.4944008,43.9637204 97.9758983,44.6932796 99.34,44.23 C99.7211954,44.0928925 100.064068,43.8665969 100.34,43.57 L95.91,42 Z" id="Path" fill="#FFFFFF" fill-rule="nonzero"></path>
                <circle id="Oval" fill="#FFFFFF" fill-rule="nonzero" cx="90.41" cy="68.88" r="1"></circle>
                <circle id="Oval" fill="#FFFFFF" fill-rule="nonzero" cx="56.37" cy="43.01" r="1.47"></circle>
            </g>
        </g>
    </g>
</svg>