<?xml version="1.0" encoding="UTF-8"?>
<svg width="296px" height="273px" viewBox="0 0 296 273" version="1.1" xmlns="http://www.w3.org/2000/svg" xmlns:xlink="http://www.w3.org/1999/xlink">
    <title>SEO illustrations_2(2)-04</title>
    <g id="Page-1" stroke="none" stroke-width="1" fill="none" fill-rule="evenodd">
        <g id="MC-1263-DWP-Landing-Page-Web" transform="translate(-258.000000, -1731.000000)">
            <g id="SEO-illustrations_2(2)-04" transform="translate(258.000000, 1731.000000)">
                <path d="M56.06,10 C69.46,2.46 104.36,-7.79 156.33,13.6 C208.3,34.99 251.74,54.4 281.12,90.66 C281.12,90.66 306.03,116.8 290.12,156.58 C274.21,196.36 226.46,224.72 211.79,235.16 C197.12,245.6 141.41,276.73 96.9,271.51 C52.39,266.29 22,206.18 13.68,181.66 C6.51053961,160.777981 2.15882443,139.032857 0.74,117 C-1.24,81.86 4,39.3 56.06,10 Z" id="Path" fill="#ECF3FF" fill-rule="nonzero"></path>
                <path d="M220.06,229.54 L38.59,229.54 C53.12,250 73,268.7 96.9,271.51 C141.41,276.73 197.11,245.65 211.78,235.2 C213.91,233.69 216.74,231.79 220.06,229.54 Z" id="Path" fill="#B2D4FE" fill-rule="nonzero"></path>
                <path d="M162.55,83.71 C162.55,83.71 163.62,82.92 161.55,80.38 C158.480232,76.76492 153.796774,74.9381461 149.09,75.52 L148.29,75.52 L153.44,87.83 L162.55,83.71 Z" id="Path" fill="#4AA147" fill-rule="nonzero"></path>
                <path d="M147.38,78.08 L149,75.85 C151.543935,72.4385289 153.779409,68.8075572 155.68,65 L156.9,62.52 C157.158154,62.0058922 157.751746,61.7557353 158.3,61.93 L158.3,61.93 C158.770218,62.0800648 159.097353,62.506937 159.12,63 L158.26,66.62 C158.173972,66.8862466 158.273853,67.1773311 158.505227,67.3346655 C158.736602,67.4919999 159.044022,67.4778806 159.26,67.3 L166.87,62.48 C167.300471,62.2042017 167.845432,62.1791935 168.299353,62.4144071 C168.753274,62.6496208 169.047094,63.1092701 169.07,63.62 L169.41,65.62 C169.546352,66.3047569 169.573354,67.0067929 169.49,67.7 C169.317081,68.9643146 168.801846,70.1573091 168,71.15 L156.91,83.46 L147.38,78.08 Z" id="Path" fill="#FFB6B2" fill-rule="nonzero"></path>
                <path d="M149.22,75.58 L149.03,75.85 L147.38,78.08 L156.87,83.46 L160.08,79.9 C155.53,80.9 149.74,76 149.22,75.58 Z" id="Path" fill="#F2A2A0" fill-rule="nonzero"></path>
                <line x1="158.44" y1="67.5" x2="157.85" y2="70.22" id="Path" stroke="#F2A2A0" stroke-width="0.68" stroke-linecap="round"></line>
                <line x1="163.56" y1="66.76" x2="168.23" y2="63.67" id="Path" stroke="#F2A2A0" stroke-width="0.68" stroke-linecap="round"></line>
                <line x1="168.15" y1="66.09" x2="164.71" y2="68.7" id="Path" stroke="#F2A2A0" stroke-width="0.68" stroke-linecap="round"></line>
                <line x1="168.19" y1="68.7" x2="165.38" y2="70.92" id="Path" stroke="#F2A2A0" stroke-width="0.68" stroke-linecap="round"></line>
                <path d="M148,75.77 L129.69,95 C127.699036,96.9665251 124.544906,97.1132289 122.38,95.34 L108.74,84.1 C103.922905,80.1168 97.8396293,77.9885404 91.59,78.1 L70.48,78.5 L54,81.12 C45.9023442,82.3970761 38.8704022,87.3934559 35,94.62 L21.09,120.69 C19.3454872,123.945007 19.4392237,127.877166 21.3368554,131.045351 C23.2344871,134.213535 26.6569804,136.151885 30.35,136.150001 L98.35,136.150001 L103,106 L120.5,113.74 C128.190614,117.14631 137.20741,115.045111 142.6,108.59 L162.6,83.59 C162.6,83.59 154.71,86.33 148,75.77 Z M39.62,120.7 L44.9,110.34 L49.64,121.82 L39.62,120.7 Z" id="Shape" fill="#7DCC7A" fill-rule="nonzero"></path>
                <path d="M65.68,124.13 C65.68,124.13 75.68,124.18 80.62,123.67 L91.62,122.53 L89.62,127.22 L81.62,128.05 C76.06,128.63 64.89,128.45 64.89,128.45 L65.68,124.13 Z" id="Path" fill="#4AA147" fill-rule="nonzero"></path>
                <path d="M67.45,88.92 C69.9720839,92.2494683 73.1771014,95.0010098 76.85,96.99 C77.0702136,97.1148021 77.3397864,97.1148021 77.56,96.99 C78.98,96.09 84.38,92.41 86.64,86.99 L67.45,88.92 Z" id="Path" fill="#B2D4FE" fill-rule="nonzero"></path>
                <path d="M67.45,88.92 C69.9720839,92.2494683 73.1771014,95.0010098 76.85,96.99 C77.0702136,97.1148021 77.3397864,97.1148021 77.56,96.99 C78.98,96.09 84.38,92.41 86.64,86.99 L67.45,88.92 Z" id="Path" stroke="#4AA147" stroke-width="0.68" stroke-linecap="round"></path>
                <line x1="77.15" y1="91.81" x2="77.22" y2="96.49" id="Path" stroke="#FFFFFF" stroke-width="0.68" stroke-linecap="round"></line>
                <path d="M76.71,77.16 L67.38,77.51 C65.4018247,77.5982682 63.7859468,79.1205953 63.58,81.09 C63.24,84.3 63.22,89.22 65.32,93.39 L67.73,90.49 C68.489771,89.6082601 69.6771767,89.2227388 70.81,89.49 L77.14,92.36 L76.71,77.16 Z" id="Path" fill="#FFFFFF" fill-rule="nonzero"></path>
                <path d="M76.47,76.91 L86.8,77.38 C87.9611713,77.3868706 88.9826175,78.1489019 89.32,79.26 C90.4680479,83.340583 90.6257489,87.6362209 89.78,91.79 L86.93,89.31 C86.0534224,88.5422453 84.8177466,88.336945 83.74,88.78 L77.05,92.36 L76.47,76.91 Z" id="Path" fill="#FFFFFF" fill-rule="nonzero"></path>
                <path d="M157.23,84.18 C154.65,87.28 149.17,95.18 143.23,102.31 C139.226165,107.201036 133.500228,110.371774 127.23,111.17 L125.23,115.17 C131.746857,116.168948 138.311788,113.68861 142.54,108.63 L162.54,83.56 C160.864693,84.2663555 159.022973,84.4813963 157.23,84.18 L157.23,84.18 Z" id="Path" fill="#000000" fill-rule="nonzero" opacity="0.1" style="mix-blend-mode: multiply;"></path>
                <path d="M129.13,107.17 L96.44,107.17 L105.55,77.06 C105.831225,76.1350892 106.683282,75.5021326 107.65,75.5 L136.88,75.5 C137.309251,75.5009092 137.712878,75.7044171 137.968851,76.0489963 C138.224824,76.3935756 138.303095,76.8387766 138.18,77.25 L129.13,107.17 Z" id="Path" fill="#FFFFFF" fill-rule="nonzero"></path>
                <path d="M88.68,56.33 L74.28,51.67 L68.41,60.08 L69,67.84 L69,67.84 L67.91,78.7 C67.43,84.39 74.38,91.3 77.05,91.18 C80.23,91.03 82.58,84.73 82.88,81.35 C82.96,80.47 83.29,72.71 83.29,72.71 L83.75,72.6 C83.75,72.6 91,71.19 88.68,56.33 Z" id="Path" fill="#FFB6B2" fill-rule="nonzero"></path>
                <path d="M69.09,68.5 L70.58,64.93 C70.0140699,64.4924013 69.6525641,63.8416909 69.58,63.13 C69.58,62.04 69.88,61.13 70.58,60.97 C71.3751508,60.8420304 72.1280742,61.3690768 72.28,62.16 C72.41,62.92 72.09,64.02 73.1,63.94 C73.1,63.94 73.72,63.29 73.57,61.39 C73.42,59.49 72.92,55.32 75.91,54.78 C78.9,54.24 82.49,56.62 85.59,56.78 C88.48,56.96 89.59,57.23 90.76,54.34 C91.93,51.45 90.7,49.77 88,49 C85.3,48.23 85.15,48.61 83.29,48.4 C81.43,48.19 77.21,46.24 71.13,48.68 C65.05,51.12 66.95,58.42 67.13,59.68 C67.31,60.94 67.37,66.6 69.09,68.5 Z" id="Path" fill="#314351" fill-rule="nonzero"></path>
                <path d="M83.29,72.7 C81.2540789,73.0877601 79.1472181,72.7998225 77.29,71.88 C76.0912807,71.3436043 75.1782298,70.3214238 74.78,69.07 C74.7330186,68.9440865 74.6056824,68.8669489 74.4723273,68.8836183 C74.3389722,68.9002877 74.2345417,69.0063961 74.22,69.14 C74.1524293,70.9907986 75.0398069,72.7466735 76.57,73.79 C78.6023713,75.4191033 80.7589353,76.8869042 83.02,78.18 L83.29,72.7 Z" id="Path" fill="#F2A2A0" fill-rule="nonzero"></path>
                <circle id="Oval" fill="#314351" fill-rule="nonzero" cx="78.92" cy="62.19" r="1"></circle>
                <circle id="Oval" fill="#314351" fill-rule="nonzero" cx="87.05" cy="63.17" r="1"></circle>
                <path d="M75.81,60.07 C75.81,60.07 75.4,63.45 76.29,64.27 C76.89,64.81 80.12,65.27 80.89,64.52 C81.66,63.77 82.15,60.91 82.15,60.91" id="Path" stroke="#314351" stroke-width="0.68"></path>
                <path d="M84.29,61.05 C84.29,61.05 83.88,64.44 84.77,65.25 C85.37,65.79 88.6,66.25 89.37,65.5 C89.94,64.97 90.37,63.11 90.56,62.29 C90.5801986,62.1859932 90.5560583,62.0782762 90.4934033,61.9928376 C90.4307483,61.907399 90.3352685,61.8519976 90.23,61.84 L75.81,60.07 L72.01,60.47" id="Path" stroke="#314351" stroke-width="0.68"></path>
                <line x1="82.92" y1="63.71" x2="83.53" y2="65.84" id="Path" stroke="#FF8880" stroke-width="0.68" stroke-linecap="round"></line>
                <path d="M79.12,67.15 C79.1289578,67.3402077 79.162572,67.5284476 79.22,67.71 C79.4487598,68.5116481 80.0818768,69.1341572 80.8872755,69.3493401 C81.6926742,69.564523 82.5519021,69.3407319 83.15,68.76 L79.12,67.15 Z" id="Path" fill="#FFFFFF" fill-rule="nonzero"></path>
                <line x1="110.36" y1="81.85" x2="131.18" y2="81.85" id="Path" stroke="#4D9AFD" stroke-width="1.8" opacity="0.4" stroke-linecap="round"></line>
                <line x1="108.89" y1="86.4" x2="129.71" y2="86.4" id="Path" stroke="#4D9AFD" stroke-width="1.8" opacity="0.3" stroke-linecap="round"></line>
                <line x1="107.43" y1="90.94" x2="128.24" y2="90.94" id="Path" stroke="#4D9AFD" stroke-width="1.8" opacity="0.2" stroke-linecap="round"></line>
                <line x1="105.96" y1="95.49" x2="120.11" y2="95.49" id="Path" stroke="#4D9AFD" stroke-width="1.8" opacity="0.2" stroke-linecap="round"></line>
                <path d="M46.46,114 L55.92,115 C63.084016,115.745018 70.305984,115.745018 77.47,115 L88.47,113.86 L86.47,118.56 L78.47,119.39 C70.6970873,120.198644 62.8579345,120.131556 55.1,119.19 L48.23,118.33 L46.46,114 Z" id="Path" fill="#4AA147" fill-rule="nonzero"></path>
                <path d="M49.61,121.73 L66.08,123.93 C60.7879315,121.630473 56.3941694,117.661687 53.57,112.63 C51.4630281,108.799565 50.2430205,104.544917 50,100.18 L44.9,110.18 L49.61,121.73 Z" id="Path" fill="#000000" fill-rule="nonzero" opacity="0.1" style="mix-blend-mode: multiply;"></path>
                <path d="M63.81,132.8 L37,131.42 C31.339961,131.120806 25.7897747,129.7392 20.65,127.35 L19.91,127 C20.5888337,132.236006 25.0501737,136.153594 30.33,136.150002 L62.89,136.150002 L63.81,132.8 Z" id="Path" fill="#000000" fill-rule="nonzero" opacity="0.1" style="mix-blend-mode: multiply;"></path>
                <path d="M65.63,124.31 L70.88,125.54 C73.1572075,126.066226 75.1403931,127.457684 76.41,129.42 L78.73,133 C79.0939297,133.557012 79.1229119,134.268787 78.805473,134.853543 C78.4880342,135.438298 77.8753599,135.801745 77.21,135.800006 L63,135.800006 L65.63,124.31 Z" id="Path" fill="#FFB6B2" fill-rule="nonzero"></path>
                <polygon id="Path" fill="#F2A2A0" fill-rule="nonzero" points="62.89 135.8 66.08 135.8 65.69 124.66"></polygon>
                <path d="M71.73,128.25 C73.442039,128.834509 75.0668583,129.648601 76.56,130.67" id="Path" stroke="#F2A2A0" stroke-width="0.68" stroke-linecap="round"></path>
                <path d="M71.62,131.22 C73.8253789,131.825604 75.9815795,132.597824 78.07,133.53" id="Path" stroke="#F2A2A0" stroke-width="0.68" stroke-linecap="round"></path>
                <line x1="72.09" y1="134.05" x2="77.15" y2="135.14" id="Path" stroke="#F2A2A0" stroke-width="0.68" stroke-linecap="round"></line>
                <path d="M50,100.18 L39.69,120.41 L65.47,123.83 C65.5644177,123.841399 65.6493274,123.892977 65.7029619,123.971514 C65.7565965,124.05005 65.7737409,124.147908 65.75,124.24 L63.05,135.51" id="Path" stroke="#4AA147" stroke-width="0.9" stroke-linecap="round"></path>
                <line x1="39.69" y1="120.41" x2="37.01" y2="120.04" id="Path" stroke="#4AA147" stroke-width="0.9" stroke-linecap="round"></line>
                <path d="M162.16,83.46 C162.16,83.46 155,87.05 148.35,76" id="Path" stroke="#4AA147" stroke-width="0.9" stroke-linecap="round"></path>
                <circle id="Oval" fill="#FFFFFF" fill-rule="nonzero" cx="75.25" cy="93.62" r="1"></circle>
                <path d="M127.91,136.15 L80.41,136.15 L89.52,106 C89.8023005,105.071552 90.6595857,104.43773 91.63,104.439994 L135.63,104.439994 C136.059251,104.440909 136.462878,104.644417 136.718851,104.988996 C136.974824,105.333576 137.053095,105.778777 136.93,106.19 L127.91,136.15 Z" id="Path" fill="#B2D4FE" fill-rule="nonzero"></path>
                <ellipse id="Oval" fill="#FFFFFF" fill-rule="nonzero" transform="translate(110.874323, 119.964125) rotate(-74.800000) translate(-110.874323, -119.964125) " cx="110.874323" cy="119.964125" rx="2.96" ry="2.65"></ellipse>
                <path d="M87.66,112.18 L89.52,106 C89.8023005,105.071552 90.6595857,104.43773 91.63,104.439994 L135.63,104.439994 C136.059251,104.440909 136.462878,104.644417 136.718851,104.988996 C136.974824,105.333576 137.053095,105.778777 136.93,106.19 L131.82,123.09" id="Path" stroke="#4D9AFD" stroke-width="0.68" stroke-linecap="round"></path>
                <path d="M148,197.81 L112.75,197.81 L106.94,170.81 L142.72,170.81 C143.314592,170.811361 143.827308,171.228203 143.95,171.81 L149.22,196.28 C149.305355,196.651365 149.216659,197.041383 148.979095,197.339311 C148.741531,197.637239 148.381048,197.810538 148,197.81 L148,197.81 Z" id="Path" fill="#FFFFFF" fill-rule="nonzero"></path>
                <line x1="138.7" y1="180.08" x2="117.88" y2="180.08" id="Path" stroke="#4D9AFD" stroke-width="1.8" opacity="0.4" stroke-linecap="round"></line>
                <line x1="140.17" y1="184.62" x2="119.35" y2="184.62" id="Path" stroke="#4D9AFD" stroke-width="1.8" opacity="0.3" stroke-linecap="round"></line>
                <line x1="141.63" y1="189.17" x2="120.82" y2="189.17" id="Path" stroke="#4D9AFD" stroke-width="1.8" opacity="0.2" stroke-linecap="round"></line>
                <line x1="22.28" y1="176.65" x2="31.78" y2="176.65" id="Path" stroke="#C5E2FF" stroke-width="0.9" stroke-linecap="round"></line>
                <polygon id="Path" fill="#A8AAAD" fill-rule="nonzero" points="85.23 229.65 104.52 229.65 99.48 206.14 80.2 206.14"></polygon>
                <polygon id="Path" fill="#A8AAAD" fill-rule="nonzero" points="102.75 229.38 104.46 229.38 99.48 206.14 97.78 206.14"></polygon>
                <polygon id="Path" fill="#000000" fill-rule="nonzero" opacity="0.1" style="mix-blend-mode: multiply;" points="102.75 229.38 104.46 229.38 99.48 206.14 97.78 206.14"></polygon>
                <polygon id="Path" fill="#000000" fill-rule="nonzero" opacity="0.1" style="mix-blend-mode: multiply;" points="99.48 206.14 80.2 206.14 81.98 214.45 102.29 219.28"></polygon>
                <path d="M46.41,158.509985 L115.9,158.509985 C117.219065,158.505701 118.35955,159.428951 118.63,160.72 L129.14,209.72 C129.268473,210.32759 129.118734,210.960804 128.731728,211.446496 C128.344722,211.932189 127.760936,212.219548 127.14,212.23 L57.36,212.23 C56.2311354,212.23 55.2518953,211.450402 55,210.35 L44.13,161.35 C43.9788526,160.658978 44.1484019,159.93667 44.5912325,159.385074 C45.0340631,158.833478 45.7026431,158.5118 46.41,158.509985 Z" id="Path" fill="#A8AAAD" fill-rule="nonzero"></path>
                <line x1="81.64" y1="212.14" x2="107.44" y2="212.14" id="Path" stroke="#314351" stroke-width="0.68" stroke-linecap="round"></line>
                <ellipse id="Oval" fill="#FFFFFF" fill-rule="nonzero" transform="translate(85.820532, 185.381043) rotate(-6.400000) translate(-85.820532, -185.381043) " cx="85.8205324" cy="185.381043" rx="2.95" ry="3.29"></ellipse>
                <path d="M32.33,193.48 L35.75,191.79 C36.9422521,191.19839 38.3471781,191.220749 39.52,191.85 L42.52,193.43 C43.6674225,194.038551 45.0342741,194.071889 46.21,193.52 L50,191.75 C51.2105131,191.18775 52.6178462,191.243596 53.78,191.9 L58.17,194.4" id="Path" stroke="#0265FC" stroke-width="0.68" stroke-linecap="round"></path>
                <path d="M96.28,160.67 C95.2109866,161.602974 93.838875,162.11485 92.42,162.110034 C89.2999334,162.109669 86.7137979,159.691667 86.5040438,156.578659 C86.2942898,153.465651 88.5326724,150.722573 91.6244921,150.303686 C94.7163119,149.884799 97.6038821,151.933402 98.23,154.99" id="Path" stroke="#CC4E0A" stroke-width="0.68" stroke-linecap="round"></path>
                <line x1="31.39" y1="146.94" x2="67.16" y2="146.94" id="Path" stroke="#C5E2FF" stroke-width="0.9" stroke-linecap="round"></line>
                <path d="M263.46,148 C263.306576,147.765361 263.096873,147.572846 262.85,147.44 C260.41,146.19 251.73,142.32 249.41,146.29 C249.41,146.28 261.56,154.24 263.46,148 Z" id="Path" fill="#F58220" fill-rule="nonzero"></path>
                <path d="M196.09,180.72 L198.47,184.17 C198.669568,184.46242 198.979765,184.6608 199.328927,184.719308 C199.678088,184.777816 200.036009,184.691391 200.32,184.48 C203.832057,181.954226 206.317009,178.248098 207.32,174.04 L204.69,174.04 L196.09,180.72 Z" id="Path" fill="#FFFFFF" fill-rule="nonzero"></path>
                <path d="M115,224.23 L119.75,224.23 C121.959139,224.23 123.75,226.020861 123.75,228.23 L123.75,228.48 C123.75,229.31395 123.07395,229.99 122.24,229.99 L112.42,229.99 C112.019523,229.99 111.635449,229.830911 111.352269,229.547731 C111.069089,229.264551 110.91,228.880477 110.91,228.48 L110.91,228.23 C110.909727,227.153355 111.343487,226.122059 112.113212,225.369271 C112.882937,224.616484 113.923627,224.205775 115,224.23 L115,224.23 Z" id="Path" fill="#FFFFFF" fill-rule="nonzero"></path>
                <path d="M127.77,230.07 L121.41,230.07 C121.041653,230.064351 120.717814,229.824724 120.604717,229.474123 C120.49162,229.123523 120.614388,228.739829 120.91,228.52 L122.91,227.04 C123.089072,226.919232 123.182728,226.706247 123.150688,226.492647 C123.118648,226.279047 122.966624,226.102913 122.76,226.04 L120.6,225.29 C119.253773,224.827149 117.812086,224.713604 116.41,224.96 L115.83,225.05 C115.229922,225.154389 114.620867,224.921759 114.243177,224.443908 C113.865487,223.966057 113.779827,223.319739 114.02,222.76 L114.02,222.76 C114.512748,221.613927 115.394676,220.67887 116.51,220.12 L117.24,219.76 C117.98972,219.380956 118.819982,219.188829 119.66,219.2 L125.66,219.27 C125.66,219.27 132.68,223.08 127.77,230.07 Z" id="Path" fill="#FFB6B2" fill-rule="nonzero"></path>
                <path d="M114.68,223.79 L116.68,223.19 C117.605222,222.921183 118.566995,222.799696 119.53,222.83 L122.11,222.91" id="Path" stroke="#F2A2A0" stroke-width="0.68" stroke-linecap="round"></path>
                <path d="M121.54,220.78 C119.928954,220.569543 118.290874,220.75842 116.77,221.33" id="Path" stroke="#F2A2A0" stroke-width="0.68" stroke-linecap="round"></path>
                <path d="M253.12,150.52 L252.58,133.74 C252.571755,133.402689 252.763806,133.092436 253.069397,132.949394 C253.374988,132.806351 253.736254,132.857604 253.99,133.08 L256.4,135.19 C256.561232,135.328085 256.775791,135.386783 256.984861,135.350002 C257.193932,135.313221 257.375576,135.184821 257.48,135 L261.3,128.29 C261.614111,127.700307 262.201942,127.306413 262.86678,127.24013 C263.531619,127.173847 264.185646,127.44393 264.61,127.96 L266.41,130.2 C267.146872,131.055075 267.426125,132.213044 267.16,133.31 L261.33,152 L253.12,150.52 Z" id="Path" fill="#FFB6B2" fill-rule="nonzero"></path>
                <line x1="260.54" y1="134.13" x2="263.41" y2="127.92" id="Path" stroke="#F2A2A0" stroke-width="0.68" stroke-linecap="round"></line>
                <line x1="262.33" y1="135.38" x2="264.93" y2="129.59" id="Path" stroke="#F2A2A0" stroke-width="0.68" stroke-linecap="round"></line>
                <line x1="264.19" y1="136.85" x2="266.25" y2="131.38" id="Path" stroke="#F2A2A0" stroke-width="0.68" stroke-linecap="round"></line>
                <path d="M262.3,148.93 L262.76,147.45 C257.37,148.91 253.11,144.75 252.93,144.56 L253.05,148.29 C253.077172,149.26843 253.88121,150.045815 254.86,150.040032 L260.86,150.040032 C261.52939,150.019934 262.110195,149.572231 262.3,148.93 Z" id="Path" fill="#F2A2A0" fill-rule="nonzero"></path>
                <path d="M190.13,174.81 C190.13,174.81 192.27,180.17 196.13,180.72 L192.75,183.82 C192.319861,184.216486 191.719274,184.370289 191.151508,184.229354 C190.583742,184.088419 190.124796,183.671612 189.93,183.12 C188.902523,180.48289 188.403068,177.669632 188.46,174.84 L190.13,174.81 Z" id="Path" fill="#FFFFFF" fill-rule="nonzero"></path>
                <path d="M188.16,153.49 C188.16,153.49 188.16,144.43 196.84,142.77 C205.52,141.11 209.74,148.06 210.75,150.24 C212.11,153.15 215.42,181.24 224.91,189.6 L196.11,177.37 L188.16,153.49 Z" id="Path" fill="#000000" fill-rule="nonzero"></path>
                <path d="M263.54,148.27 C263.54,148.27 259.9,152.66 249.41,146.27 L237,184.72 C237,184.72 215.44,171.38 198.88,174.6 L184.48,174.93 C173.775338,175.179418 164.257693,181.806723 160.31,191.76 L153.81,208.19 L153.75,208.32 C151.470978,214.1778 146.110992,218.272073 139.86,218.93 L125.54,219.32 C125.54,219.32 131.44,224.59 127.73,230.060002 L148.32,230.060002 C157.750487,230.063886 166.329432,224.604557 170.32,216.06 C171.502082,213.485983 172.442781,210.807837 173.13,208.06 C173.160544,207.871091 173.323637,207.732249 173.515,207.732249 C173.706363,207.732249 173.869456,207.871091 173.9,208.06 L176.72,229.5 L219.12,229.5 L221.72,203.99 C221.756114,203.625444 222.063664,203.348216 222.43,203.35 C222.58,203.35 230.81,204.35 238.64,204.46 C246.64,204.53 252.4,198.32 253.64,190.32 L263.54,148.27 Z" id="Path" fill="#FFC74F" fill-rule="nonzero"></path>
                <path d="M172.71,200.75 C172.71,200.75 168.85,216.82 159.25,223.3 C152.25,228.03 139.25,227.43 128.97,226.64 C128.885803,227.868952 128.467403,229.051538 127.76,230.060002 L148.35,230.060002 C157.780487,230.063886 166.359432,224.604557 170.35,216.06 C171.532082,213.485983 172.472781,210.807837 173.16,208.06 C173.2093,207.863878 173.400329,207.737973 173.6,207.77 L172.71,200.75 Z" id="Path" fill="#000000" fill-rule="nonzero" opacity="0.1" style="mix-blend-mode: multiply;"></path>
                <line x1="172.18" y1="193.86" x2="173.54" y2="208.27" id="Path" stroke="#F58220" stroke-width="0.68" stroke-linecap="round"></line>
                <g id="Group" opacity="0.6" transform="translate(131.000000, 155.000000)" fill="#FFE5B2" fill-rule="nonzero">
                    <circle id="Oval" cx="42.37" cy="30.02" r="1"></circle>
                    <circle id="Oval" cx="27.94" cy="47.95" r="1"></circle>
                    <circle id="Oval" cx="53.15" cy="35.15" r="1"></circle>
                    <circle id="Oval" cx="81.74" cy="43.55" r="1"></circle>
                    <circle id="Oval" cx="66.73" cy="45.55" r="1"></circle>
                    <circle id="Oval" cx="60.87" cy="54.98" r="1"></circle>
                    <circle id="Oval" cx="53.3" cy="25.12" r="1"></circle>
                    <circle id="Oval" cx="65.47" cy="36.66" r="1"></circle>
                    <circle id="Oval" cx="91.37" cy="32.84" r="1"></circle>
                    <circle id="Oval" cx="125.08" cy="17.6" r="1"></circle>
                    <circle id="Oval" cx="97.82" cy="42.42" r="1"></circle>
                    <circle id="Oval" cx="81.2" cy="23.46" r="1"></circle>
                    <circle id="Oval" cx="113.75" cy="45.45" r="1"></circle>
                    <circle id="Oval" cx="78.52" cy="33.72" r="1"></circle>
                    <circle id="Oval" cx="105.83" cy="36.95" r="1"></circle>
                    <circle id="Oval" cx="127.14" cy="1.67" r="1"></circle>
                    <circle id="Oval" cx="118.05" cy="8.41" r="1"></circle>
                    <circle id="Oval" cx="116.68" cy="25.71" r="1"></circle>
                    <circle id="Oval" cx="37.02" cy="39.49" r="1"></circle>
                    <circle id="Oval" cx="28.98" cy="63.51" r="1"></circle>
                    <circle id="Oval" cx="62.63" cy="64.02" r="1"></circle>
                    <circle id="Oval" cx="85.79" cy="65.1" r="1"></circle>
                    <circle id="Oval" cx="36.02" cy="53.03" r="1"></circle>
                    <circle id="Oval" cx="11.32" cy="69.89" r="1"></circle>
                    <circle id="Oval" cx="20.26" cy="63.36" r="1"></circle>
                    <circle id="Oval" cx="1.2" cy="66.19" r="1"></circle>
                    <circle id="Oval" cx="49.19" cy="49.51" r="1"></circle>
                    <circle id="Oval" cx="72.89" cy="70.91" r="1"></circle>
                    <circle id="Oval" cx="50.22" cy="69.59" r="1"></circle>
                    <circle id="Oval" cx="72.97" cy="58.53" r="1"></circle>
                    <circle id="Oval" cx="84.4" cy="53.76" r="1"></circle>
                </g>
                <line x1="201.4" y1="229.58" x2="196.41" y2="229.58" id="Path" stroke="#4D9AFD" stroke-width="0.68" stroke-linecap="round"></line>
                <circle id="Oval" fill="#FFB6B2" fill-rule="nonzero" cx="206.17" cy="157.75" r="2.71"></circle>
                <path d="M206.73,155.66 C206.367875,151.363849 203.149595,147.854558 198.900762,147.122807 C194.651928,146.391056 190.445117,148.621568 188.666682,152.549064 C186.888248,156.476559 187.98714,161.10958 191.34,163.82 L190.12,174.89 C190.9866,176.909242 192.365408,178.667223 194.12,179.99 C195.309291,180.760698 196.794075,180.920312 198.12,180.42 C200.84029,179.445104 203.170464,177.61325 204.76,175.2 C205.065344,174.722603 205.225174,174.166671 205.22,173.6 L204.94,162 C206.281103,160.171386 206.916752,157.91998 206.73,155.66 L206.73,155.66 Z" id="Path" fill="#FFB6B2" fill-rule="nonzero"></path>
                <path d="M188.16,153.49 C188.16,153.49 191.72,152.77 195.87,147.19 C195.87,147.19 199.64,154.28 206.64,155.05 L208.17,151.24 C208.17,151.24 204.45,145.83 195.74,145.24 C195.74,145.21 188.9,147.07 188.16,153.49 Z" id="Path" fill="#000000" fill-rule="nonzero"></path>
                <path d="M191.33,163.83 C191.33,163.83 196.01,167.77 201.58,165.11 C202.927413,164.327274 204.09315,163.267204 205,162 L205.15,170.6 C205.15,170.6 196.15,172.94 191.15,165.49 L191.33,163.83 Z" id="Path" fill="#F2A2A0" fill-rule="nonzero"></path>
                <circle id="Oval" fill="#000000" fill-rule="nonzero" cx="190.88" cy="155.26" r="1"></circle>
                <circle id="Oval" fill="#000000" fill-rule="nonzero" cx="199.85" cy="155.43" r="1"></circle>
                <line x1="194.94" y1="155.86" x2="193.93" y2="158.03" id="Path" stroke="#FF8880" stroke-width="0.68" stroke-linecap="round"></line>
                <path d="M193.45,161.14 C193.58225,161.275089 193.73392,161.389685 193.9,161.48 C194.446098,161.794048 195.094757,161.877758 195.702692,161.71264 C196.310627,161.547522 196.827811,161.147163 197.14,160.6 C197.321647,160.275597 197.421206,159.911693 197.43,159.54 L193.45,161.14 Z" id="Path" fill="#FFFFFF" fill-rule="nonzero"></path>
                <path d="M206.31,159.19 C206.221216,159.624836 206.073167,160.045427 205.87,160.44 C206.046349,160.454984 206.223651,160.454984 206.4,160.44 C207.117951,160.379013 207.782057,160.034622 208.245545,159.482941 C208.709032,158.931259 208.933738,158.217712 208.87,157.5 C208.49158,158.573187 207.445561,159.263724 206.31,159.19 L206.31,159.19 Z" id="Path" fill="#F2A2A0" fill-rule="nonzero"></path>
                <path d="M186.65,153.72 C186.65,153.72 192.27,153.51 195.99,146.42" id="Path" stroke="#000000" stroke-width="0.9" stroke-linecap="round"></path>
                <line x1="237.39" y1="185.19" x2="240.91" y2="189.3" id="Path" stroke="#F58220" stroke-width="0.68" stroke-linecap="round"></line>
                <path d="M259.88,149.72 L248.17,195.34 C247.629543,197.543835 245.892054,199.254236 243.68,199.76 C237.4,201.15 227.22,200.62 222.21,200.23 C220.59062,200.095577 219.158591,201.274894 218.98,202.89 C218.29,208.47 215.98,220.89 208.13,229.58 L219.18,229.58 L221.79,204.07 C221.826685,203.697642 222.146043,203.417657 222.52,203.43 L222.52,203.43 C227.894294,204.074923 233.297975,204.445404 238.71,204.54 C246.71,204.61 252.47,198.4 253.71,190.4 L263.56,148.27 C262.566405,149.210102 261.247819,149.729653 259.88,149.72 Z" id="Path" fill="#000000" fill-rule="nonzero" opacity="0.1" style="mix-blend-mode: multiply;"></path>
                <path d="M189.82,174.89 C190.738914,176.93178 192.180892,178.694582 194,180 C195.272719,180.73033 196.795472,180.886603 198.19,180.43 C201.25,179.57 203.5,177.86 205.55,174.37" id="Path" stroke="#F58220" stroke-width="0.68" stroke-linecap="round"></path>
                <path d="M263.1,148.24 C263.1,148.24 260.31,152.88 249.83,146.5" id="Path" stroke="#F58220" stroke-width="0.9" stroke-linecap="round"></path>
                <line x1="80.85" y1="19.46" x2="137.77" y2="19.46" id="Path" stroke="#C5E2FF" stroke-width="0.9" stroke-linecap="round"></line>
                <line x1="107.44" y1="31.09" x2="137.77" y2="31.09" id="Path" stroke="#C5E2FF" stroke-width="0.9" stroke-linecap="round"></line>
                <line x1="111.45" y1="42.77" x2="130.04" y2="42.77" id="Path" stroke="#C5E2FF" stroke-width="0.9" stroke-linecap="round"></line>
                <path d="M105,19.54 L105,30.78 C105.002711,30.8612831 104.972305,30.9401838 104.915747,30.9986265 C104.85919,31.0570691 104.781328,31.09 104.7,31.09 L90.5,31.09" id="Path" stroke="#C5E2FF" stroke-width="0.9" stroke-linecap="round"></path>
                <line x1="121.5" y1="31.13" x2="121.5" y2="42.51" id="Path" stroke="#C5E2FF" stroke-width="0.9" stroke-linecap="round"></line>
                <line x1="269.28" y1="136.24" x2="289.22" y2="136.24" id="Path" stroke="#4D9AFD" stroke-width="0.9" stroke-linecap="round"></line>
                <line x1="171.33" y1="136.24" x2="249.05" y2="136.24" id="Path" stroke="#4D9AFD" stroke-width="0.9" stroke-linecap="round"></line>
                <line x1="10.67" y1="136.24" x2="147.91" y2="136.24" id="Path" stroke="#4D9AFD" stroke-width="0.9" stroke-linecap="round"></line>
                <rect id="Rectangle" fill="#FFFFFF" fill-rule="nonzero" x="237.03" y="74.03" width="5.86" height="30.2" rx="1.11"></rect>
                <rect id="Rectangle" stroke="#C5E2FF" stroke-width="0.9" stroke-linecap="round" x="221.97" y="80.3" width="5.86" height="23.5" rx="1.11"></rect>
                <rect id="Rectangle" stroke="#C5E2FF" stroke-width="0.9" stroke-linecap="round" x="229.63" y="86.37" width="5.86" height="17.42" rx="1.11"></rect>
                <rect id="Rectangle" stroke="#C5E2FF" stroke-width="0.9" stroke-linecap="round" x="244.65" y="79.86" width="5.86" height="23.94" rx="0.99"></rect>
                <line x1="240.54" y1="78.61" x2="240.54" y2="83.59" id="Path" stroke="#C5E2FF" stroke-width="0.9" stroke-linecap="round"></line>
                <line x1="218.41" y1="103.81" x2="263.12" y2="103.81" id="Path" stroke="#C5E2FF" stroke-width="0.9" stroke-linecap="round"></line>
                <line x1="225.05" y1="108.89" x2="258.63" y2="108.89" id="Path" stroke="#FFFFFF" stroke-width="0.9" stroke-linecap="round"></line>
                <path d="M178.68,46 L171.25,38.56 C171.118669,38.4248626 171.070725,38.2292489 171.124683,38.0486983 C171.17864,37.8681477 171.326055,37.7309169 171.51,37.69 L180.85,35.79 C181.019811,35.7568492 181.194989,35.8103287 181.31733,35.93267 C181.439671,36.0550113 181.493151,36.2301889 181.46,36.4 L179.56,45.73 C179.524205,45.9197862 179.386174,46.0741 179.201537,46.1307501 C179.0169,46.1874001 178.816076,46.1370532 178.68,46 L178.68,46 Z" id="Path" stroke="#C5E2FF" stroke-width="0.9" stroke-linecap="round"></path>
                <circle id="Oval" stroke="#0265FC" stroke-width="0.68" stroke-linecap="round" cx="195.98" cy="48.56" r="3.04"></circle>
                <path d="M119.22,246.09 L118.32,246.09 C118.334109,245.362182 118.304054,244.634178 118.23,243.91 C118.188952,243.527307 117.864882,243.237805 117.48,243.239881 L101.18,243.239881 C100.787829,243.233064 100.456547,243.529474 100.42,243.92 C100.21,245.98 99.98,252.23 104.51,255.5 C105.315373,256.0845 106.284879,256.399502 107.28,256.4 L111.39,256.4 C112.352651,256.399451 113.291817,256.102688 114.08,255.55 C115.296402,254.676684 116.28152,253.519944 116.95,252.18 L119.31,252.18 C120.238829,252.204257 121.126477,251.796768 121.713567,251.076604 C122.300658,250.35644 122.520923,249.404888 122.31,248.5 C121.986228,247.062758 120.692819,246.053983 119.22,246.09 L119.22,246.09 Z M119.31,250.78 L117.54,250.78 C117.902219,249.714764 118.137185,248.610428 118.24,247.49 L119.31,247.49 C119.928319,247.441754 120.521469,247.744313 120.845404,248.273192 C121.169339,248.802071 121.169339,249.467929 120.845404,249.996808 C120.521469,250.525687 119.928319,250.828246 119.31,250.78 L119.31,250.78 Z" id="Shape" fill="#FFFFFF" fill-rule="nonzero"></path>
                <path d="M114.68,254.47 C108.142566,254.471709 102.582465,249.701661 101.59,243.239881 L101.18,243.239881 C100.787829,243.233064 100.456547,243.529474 100.42,243.92 C100.21,245.98 99.98,252.23 104.51,255.5 C105.315373,256.0845 106.284879,256.399502 107.28,256.4 L111.39,256.4 C112.352651,256.399451 113.291817,256.102688 114.08,255.55 C114.533349,255.219669 114.955148,254.848084 115.34,254.44 L114.68,254.47 Z" id="Path" fill="#000000" fill-rule="nonzero" opacity="0.1" style="mix-blend-mode: multiply;"></path>
                <line x1="185.42" y1="229.75" x2="55.94" y2="229.75" id="Path" stroke="#4D9AFD" stroke-width="0.68" stroke-linecap="round"></line>
                <line x1="89" y1="256.8" x2="136.94" y2="256.8" id="Path" stroke="#4D9AFD" stroke-width="0.68" stroke-linecap="round"></line>
                <path d="M177.6,89.28 L177.6,120.07 C177.599977,120.739901 178.140121,121.284509 178.81,121.29 L192.61,121.29 C193.283787,121.29 193.83,120.743787 193.83,120.07 L193.83,89.28 C193.83,88.6117355 194.371735,88.07 195.04,88.07 L201.76,88.07 C202.225521,88.0836272 202.657546,87.8288718 202.870927,87.4149111 C203.084309,87.0009504 203.041171,86.5012655 202.76,86.13 L186.49,64.35 C186.264641,64.0191973 185.890271,63.8212489 185.49,63.8212489 C185.089729,63.8212489 184.715359,64.0191973 184.49,64.35 L168.6,86.13 C168.333089,86.5029484 168.297883,86.9940791 168.50887,87.4012848 C168.719858,87.8084906 169.14139,88.0629695 169.6,88.06 L176.36,88.06 C176.68782,88.0518577 177.004907,88.1771176 177.23866,88.4071001 C177.472412,88.6370827 177.602811,88.9520909 177.6,89.28 Z" id="Path" fill="#A8AAAD" fill-rule="nonzero"></path>
                <path d="M168,141.26 L168,110.09 C168,109.537715 167.552285,109.09 167,109.09 L152.82,109.09 C152.267715,109.09 151.82,109.537715 151.82,110.09 L151.82,141.26 C151.82,141.812285 151.372285,142.26 150.82,142.26 L143.53,142.26 C143.136523,142.242592 142.769476,142.457771 142.592473,142.809618 C142.41547,143.161466 142.461482,143.584442 142.71,143.89 L159.32,166.18 C159.506435,166.452164 159.815104,166.614867 160.145,166.614867 C160.474896,166.614867 160.783565,166.452164 160.97,166.18 L177.23,143.89 C177.473417,143.582822 177.514947,143.161762 177.336234,142.812948 C177.15752,142.464134 176.791512,142.251875 176.4,142.27 L169.09,142.27 C168.807819,142.295528 168.528053,142.200155 168.320225,142.007579 C168.112396,141.815004 167.996014,141.543306 168,141.26 Z" id="Path" fill="#B2D4FE" fill-rule="nonzero"></path>
                <path d="M152.82,109.07 C152.267715,109.07 151.82,109.517715 151.82,110.07 L151.82,127.56 C157.884493,122.54867 162.732871,116.226631 166,109.07 L152.82,109.07 Z" id="Path" fill="#000000" fill-rule="nonzero" opacity="0.1" style="mix-blend-mode: multiply;"></path>
                <path d="M193.83,114.68 C190.590461,116.155287 187.779098,118.429841 185.66,121.29 L192.66,121.29 C193.333787,121.29 193.88,120.743787 193.88,120.07 L193.83,114.68 Z" id="Path" fill="#000000" fill-rule="nonzero" opacity="0.1" style="mix-blend-mode: multiply;"></path>
            </g>
        </g>
    </g>
</svg>