<svg width="19" height="14" viewBox="0 0 19 14" fill="none" xmlns="http://www.w3.org/2000/svg">
<path opacity="0.6" d="M9.51135 0.863525C5.49258 0.863525 2.06054 3.40807 0.670044 6.99989C2.06054 10.5917 5.49258 13.1363 9.51135 13.1363C13.5301 13.1363 16.9622 10.5917 18.3527 6.99989C16.9622 3.40807 13.5301 0.863525 9.51135 0.863525ZM9.51135 11.0908C7.29299 11.0908 5.49258 9.25807 5.49258 6.99989C5.49258 4.74171 7.29299 2.90898 9.51135 2.90898C11.7297 2.90898 13.5301 4.74171 13.5301 6.99989C13.5301 9.25807 11.7297 11.0908 9.51135 11.0908ZM9.51135 4.54534C8.17712 4.54534 7.10009 5.64171 7.10009 6.99989C7.10009 8.35807 8.17712 9.45444 9.51135 9.45444C10.8456 9.45444 11.9226 8.35807 11.9226 6.99989C11.9226 5.64171 10.8456 4.54534 9.51135 4.54534Z" fill="#405261"/>
</svg>
