<svg width="170" height="28" viewBox="0 0 170 28" fill="none" xmlns="http://www.w3.org/2000/svg">
<g clip-path="url(#clip0)">
<path d="M55.996 25.528C55.9918 25.9764 55.8105 26.405 55.4917 26.7204C55.173 27.0359 54.7425 27.2125 54.294 27.212C53.844 27.202 53.415 27.014 53.1 26.689L45.933 18.836L43.388 21.286V25.266C43.3907 25.7775 43.1901 26.2692 42.8305 26.6329C42.4709 26.9967 41.9815 27.2028 41.47 27.206C41.2165 27.2047 40.9658 27.1535 40.7322 27.0553C40.4985 26.9571 40.2865 26.8138 40.1082 26.6336C39.9299 26.4535 39.7889 26.24 39.6931 26.0053C39.5973 25.7707 39.5487 25.5194 39.55 25.266V2.83999C39.55 1.76899 40.41 0.899987 41.47 0.899987C41.9815 0.903161 42.4709 1.10927 42.8305 1.47304C43.1901 1.8368 43.3907 2.32846 43.388 2.83999V16.713L51.532 8.43899C51.889 8.11299 52.345 7.91899 52.825 7.88999C53.785 7.88999 54.563 8.67699 54.563 9.64699C54.5661 10.0999 54.4064 10.5389 54.113 10.884L48.284 16.559L55.489 24.326C55.806 24.645 55.988 25.076 55.996 25.529V25.528ZM57.91 2.77599C57.953 1.72799 58.922 0.898987 60.103 0.898987C61.283 0.898987 62.253 1.72899 62.296 2.77599C62.253 3.82299 61.284 4.65199 60.103 4.65199C58.923 4.65199 57.953 3.82299 57.91 2.77599ZM62.264 10.059V25.23C62.293 25.93 61.889 26.587 61.211 26.944C60.8712 27.12 60.4942 27.2119 60.1115 27.2119C59.7288 27.2119 59.3518 27.12 59.012 26.944C58.334 26.587 57.931 25.929 57.959 25.23V10.059C57.931 9.35899 58.334 8.70199 59.012 8.34499C59.3519 8.16878 59.7291 8.0768 60.112 8.0768C60.4949 8.0768 60.8721 8.16878 61.212 8.34499C61.889 8.70199 62.292 9.35899 62.264 10.059ZM78.66 10.556C78.97 10.945 79.149 11.427 79.172 11.931C79.172 12.86 78.492 13.417 77.637 13.417C77.064 13.417 76.527 13.152 75.989 12.414C75.6244 11.9151 75.144 11.5125 74.5891 11.2407C74.0343 10.9689 73.4216 10.8362 72.804 10.854C71.014 10.854 69.939 11.782 69.939 13.12C69.939 14.05 70.45 14.941 72.339 15.509L74.556 16.141C77.601 16.995 79.893 18.405 79.893 21.526C79.893 25.428 76.347 27.398 72.625 27.398C69.509 27.398 67.324 25.985 66.393 24.462C66.213 24.197 65.64 23.459 65.64 22.567C65.64 21.787 66.106 20.974 67.109 20.974C67.933 20.974 68.363 21.505 68.721 22.052C69.616 23.612 71.085 24.132 72.625 24.132C74.7 24.132 76.132 23.241 76.132 21.744C76.132 20.629 75.38 19.812 73.592 19.291L71.192 18.623C67.718 17.622 66.214 15.69 66.214 13.163C66.214 9.66999 69.258 7.66299 72.732 7.66299C75.296 7.65799 77.517 8.73499 78.66 10.556ZM95.087 10.556C95.397 10.945 95.576 11.427 95.599 11.931C95.599 12.86 94.919 13.417 94.064 13.417C93.491 13.417 92.954 13.152 92.416 12.414C92.0512 11.9147 91.5702 11.5118 91.0148 11.24C90.4594 10.9682 89.8461 10.8357 89.228 10.854C87.438 10.854 86.366 11.782 86.366 13.12C86.366 14.05 86.877 14.941 88.763 15.509L90.983 16.141C94.028 16.995 96.32 18.405 96.32 21.526C96.32 25.428 92.774 27.398 89.05 27.398C85.936 27.398 83.75 25.985 82.82 24.462C82.64 24.197 82.067 23.459 82.067 22.567C82.067 21.787 82.533 20.974 83.536 20.974C84.36 20.974 84.79 21.505 85.148 22.052C86.043 23.612 87.509 24.132 89.049 24.132C91.127 24.132 92.559 23.241 92.559 21.744C92.559 20.629 91.807 19.812 90.016 19.291L87.616 18.623C84.145 17.622 82.64 15.69 82.64 13.163C82.64 9.66999 85.685 7.66299 89.157 7.66299C91.72 7.65799 93.931 8.73499 95.087 10.556ZM111.647 3.51499C111.653 3.69892 111.622 3.88215 111.556 4.05388C111.489 4.22562 111.39 4.38239 111.262 4.51499C111.137 4.64515 110.986 4.74772 110.819 4.81609C110.652 4.88446 110.472 4.91713 110.292 4.91199C109.836 4.86459 109.39 4.7437 108.972 4.55399C108.469 4.28592 107.91 4.1387 107.34 4.12399C105.395 4.12399 104.77 5.62899 104.77 7.09599V8.32199H108.243C109.146 8.32199 109.771 8.93099 109.771 9.82699C109.788 10.247 109.631 10.654 109.34 10.947C109.048 11.24 108.65 11.391 108.243 11.362H104.769V25.262C104.783 25.5966 104.708 25.9288 104.551 26.225C104.395 26.5211 104.163 26.7706 103.879 26.948C103.599 27.1205 103.276 27.2119 102.948 27.2119C102.619 27.2119 102.296 27.1205 102.016 26.948C101.732 26.7706 101.499 26.5211 101.343 26.2247C101.186 25.9284 101.111 25.5958 101.125 25.261V11.36H99.985C99.7851 11.3722 99.585 11.3408 99.3985 11.2679C99.212 11.195 99.0436 11.0825 98.905 10.938C98.7636 10.7907 98.6543 10.6156 98.5841 10.4238C98.5138 10.2321 98.4842 10.0278 98.497 9.82399C98.478 9.41399 98.63 9.01599 98.915 8.72899C99.0534 8.58799 99.2208 8.47862 99.4054 8.40837C99.5901 8.33811 99.7878 8.30865 99.985 8.32199H101.132V6.95499C101.132 2.04499 104.638 0.898987 106.896 0.898987C108.459 0.898987 109.779 1.32899 110.716 2.00899C111.307 2.40399 111.646 2.86899 111.646 3.51499H111.647ZM117.133 3.25899V25.215C117.133 26.264 116.308 27.115 115.292 27.115C114.275 27.115 113.451 26.264 113.451 25.215V3.26399C113.451 2.21499 114.275 1.36399 115.291 1.36399C116.308 1.36399 117.133 2.21499 117.133 3.26399V3.25899ZM139.357 17.55C139.357 24.163 134.089 27.398 130.021 27.398C125.952 27.398 120.719 24.176 120.719 17.55C120.719 10.924 125.955 7.66299 130.033 7.66299C134.112 7.66299 139.357 10.959 139.357 17.55ZM124.434 17.55C124.434 21.732 127.297 23.99 130.021 23.99C132.745 23.99 135.645 21.732 135.645 17.55C135.645 13.318 132.78 11.07 130.021 11.07C127.261 11.07 124.434 13.329 124.434 17.55ZM169.387 10.405C169.347 10.7 169.261 10.988 169.132 11.257L164.121 25.847C163.801 26.77 163.124 27.267 162.341 27.267C161.557 27.267 160.881 26.76 160.489 25.847L155.683 14.133L150.853 25.847C150.496 26.77 149.82 27.267 149.036 27.267C148.253 27.267 147.576 26.76 147.256 25.847L142.232 11.257C142.103 10.988 142.018 10.7005 141.978 10.405C141.976 10.171 142.02 9.93892 142.109 9.72237C142.197 9.50581 142.328 9.30916 142.494 9.14399C142.829 8.80999 143.284 8.62399 143.758 8.62899C144.096 8.62599 144.428 8.72187 144.713 8.90485C144.997 9.08783 145.222 9.34994 145.36 9.65899L149.278 21.729L153.978 9.80899C154.223 9.08399 154.918 8.60799 155.683 8.63699C156.055 8.62699 156.421 8.73497 156.728 8.94548C157.035 9.15598 157.268 9.45823 157.393 9.80899L162.091 21.729L166.01 9.65899C166.188 9.01899 166.933 8.62899 167.61 8.62899C168.082 8.62499 168.537 8.81099 168.872 9.14499C169.206 9.47899 169.392 9.93299 169.387 10.405Z" fill="#414042"/>
<path d="M27.5147 11.6919C30.8863 8.34263 31.9927 3.98979 29.9858 1.96958C27.9789 -0.0506313 23.6189 1.02681 20.2473 4.37611C16.8757 7.72541 15.7693 12.0783 17.7762 14.0985C19.7831 16.1187 24.1431 15.0412 27.5147 11.6919Z" fill="#1F80FF"/>
<path d="M26.328 26.784C27.8392 25.2616 27.1051 22.0827 24.6883 19.6835C22.2715 17.2844 19.0873 16.5736 17.576 18.096C16.0648 19.6183 16.7989 22.7973 19.2157 25.1964C21.6325 27.5956 24.8167 28.3063 26.328 26.784Z" fill="#48AD1E"/>
<path d="M13.9528 14.1034C15.9596 12.0832 14.8533 7.73036 11.4817 4.38106C8.11014 1.03176 3.75005 -0.0456755 1.7432 1.97453C-0.263656 3.99474 0.842677 8.34759 4.21426 11.6969C7.58585 15.0462 11.9459 16.1236 13.9528 14.1034Z" fill="#D32A97"/>
<path d="M12.517 25.1948C14.9338 22.7956 15.6679 19.6167 14.1567 18.0943C12.6454 16.572 9.46117 17.2827 7.04438 19.6819C4.6276 22.081 3.8935 25.26 5.40473 26.7823C6.91596 28.3047 10.1002 27.5939 12.517 25.1948Z" fill="#FF6529"/>
</g>
<defs>
<clipPath id="clip0">
<rect width="170" height="28" fill="white"/>
</clipPath>
</defs>
</svg>
