<?xml version="1.0" encoding="UTF-8"?>
<svg width="40px" height="40px" viewBox="0 0 40 40" version="1.1" xmlns="http://www.w3.org/2000/svg" xmlns:xlink="http://www.w3.org/1999/xlink">
    <!-- Generator: Sketch 59 (86127) - https://sketch.com -->
    <title>process copy 7</title>
    <desc>Created with Sketch.</desc>
    <g id="Final-1" stroke="none" stroke-width="1" fill="none" fill-rule="evenodd">
        <g id="menu_purchase">
            <rect id="Logo-BG-Copy-16" x="0" y="0" width="40" height="40"></rect>
            <g id="Group-7-Copy" transform="translate(3.000000, 7.000000)" fill-rule="nonzero">
                <g id="69372" transform="translate(0.250554, 0.000000)">
                    <ellipse id="Oval" fill="#FFA530" opacity="0.636648996" cx="15.1476192" cy="23.0989177" rx="2.92302564" ry="2.93441975"></ellipse>
                    <ellipse id="Oval" fill="#FFA530" opacity="0.636648996" cx="27.4135448" cy="23.0989177" rx="2.92302564" ry="2.93441975"></ellipse>
                    <path d="M31.5753733,3.42961748 L7.89438471,3.42961748 C7.12331234,3.42961748 6.6844189,4.02618776 6.91309281,4.76326923 L10.6593331,14.6291608 C10.8438769,15.2217164 11.4970017,15.7018631 12.1172295,15.7018631 L27.6429843,15.7018631 C28.2632122,15.7018631 28.9155346,15.2217164 29.0984738,14.6291608 L32.3632953,4.50392575 C32.5494439,3.91056714 32.1972059,3.42961748 31.5753733,3.42961748 Z" id="Path" fill="#D341A5"></path>
                    <path d="M30.9231617,17.9981261 L13.8279306,17.9981261 L7.37297382,0.0173634825 L2.04399683,0.0173634825 C1.12968235,0.0173634825 0.388829415,0.761104298 0.388829415,1.67898282 C0.388829415,2.59686135 1.12968235,3.34060216 2.04399683,3.34060216 L5.0186637,3.34060216 L11.4736205,21.3213648 L30.9231617,21.3213648 C31.8374762,21.3213648 32.5783291,20.5776239 32.5783291,19.6597455 C32.5783291,18.741867 31.8374762,17.9981261 30.9231617,17.9981261 Z" id="Path" fill="#0565FF" opacity="0.6"></path>
                </g>
            </g>
        </g>
    </g>
</svg>