<?xml version="1.0" encoding="UTF-8"?>
<svg width="40px" height="40px" viewBox="0 0 40 40" version="1.1" xmlns="http://www.w3.org/2000/svg" xmlns:xlink="http://www.w3.org/1999/xlink">
    <title>workflow</title>
    <g id="workflow" stroke="none" stroke-width="1" fill="none" fill-rule="evenodd">
        <g id="Group" transform="translate(4.000000, 5.000000)" fill-rule="nonzero">
            <g id="Group-2" opacity="0.6366" transform="translate(5.000000, 5.000000)" fill="#4AA147">
                <path d="M11.8,16 L11.8,19.2 L10.8,19.2 L10.8,16 L2.3,16 C1.5,16 0.8,15.2 0.8,14.2 L0.8,11.7 L0.8,6.3 C0.8,5.3 1.5,4.5 2.3,4.5 L10.4,4.5 L10.4,0.2 L11.4,0.2 L11.4,4.4 L20.3,4.4 C21.1,4.4 21.8,5.2 21.8,6.2 L21.8,11.6 L21.8,14.1 C21.8,15.1 21.1,15.9 20.3,15.9 L11.8,16 C11.8,15.9 11.8,16 11.8,16 Z M1.8,11.8 L1.8,14.3 C1.8,14.6 2,14.9 2.3,14.9 L20.3,14.9 C20.6,14.9 20.8,14.6 20.8,14.3 L20.8,11.8 L20.8,6.3 C20.8,6 20.6,5.7 20.3,5.7 L2.3,5.7 C2,5.8 1.8,6.1 1.8,6.3 C1.8,6.3 1.8,11.8 1.8,11.8 Z" id="Combined-Shape"></path>
            </g>
            <g id="Group-4">
                <path d="M1.4,12.1 L11.1,12.1 C11.7,12.1 12.1,12.5 12.1,13.1 L12.1,16.6 C12.1,17.2 11.7,17.6 11.1,17.6 L1.4,17.6 C0.8,17.6 0.4,17.2 0.4,16.6 L0.4,13.1 C0.4,12.6 0.8,12.1 1.4,12.1 Z" id="Rectangle-Copy" fill="#0565FF" opacity="0.6"></path>
                <path d="M11.1,0.2 L20.8,0.2 C21.4,0.2 21.8,0.6 21.8,1.2 L21.8,4.7 C21.8,5.3 21.4,5.7 20.8,5.7 L11.1,5.7 C10.5,5.7 10.1,5.3 10.1,4.7 L10.1,1.2 C10.1,0.6 10.6,0.2 11.1,0.2 Z" id="Rectangle-Copy-3" fill="#D341A5"></path>
                <path d="M12.4,24.2 L20.2,24.2 C20.8,24.2 21.2,24.6 21.2,25.2 L21.2,28.7 C21.2,29.3 20.8,29.7 20.2,29.7 L12.4,29.7 C11.8,29.7 11.4,29.3 11.4,28.7 L11.4,25.2 C11.4,24.6 11.8,24.2 12.4,24.2 Z" id="Rectangle-Copy-4" fill="#D341A5" opacity="0.3164"></path>
                <path d="M21,12.1 L30.7,12.1 C31.3,12.1 31.7,12.5 31.7,13.1 L31.7,16.6 C31.7,17.2 31.3,17.6 30.7,17.6 L21,17.6 C20.4,17.6 20,17.2 20,16.6 L20,13.1 C20,12.6 20.4,12.1 21,12.1 Z" id="Rectangle-Copy-2" fill="#FFA530" opacity="0.6366"></path>
            </g>
        </g>
    </g>
</svg>