<?xml version="1.0" encoding="UTF-8"?>
<svg width="40px" height="40px" viewBox="0 0 40 40" version="1.1" xmlns="http://www.w3.org/2000/svg" xmlns:xlink="http://www.w3.org/1999/xlink">
    <!-- Generator: Sketch 59 (86127) - https://sketch.com -->
    <title>process copy 8</title>
    <desc>Created with Sketch.</desc>
    <g id="Final-1" stroke="none" stroke-width="1" fill="none" fill-rule="evenodd">
        <g id="menu_school">
            <polygon id="Path" points="0 0 40 0 40 40 0 40"></polygon>
            <g id="Group-29" transform="translate(2.000000, 7.000000)" fill-rule="nonzero">
                <path d="M27.4000588,19.4067131 C23.0147255,21.9417131 19.6867255,23.2200464 17.4138921,23.2395464 C15.1627255,23.2601298 12.0134755,22.0630464 7.9650588,19.6515464 C6.95524622,19.0496673 6.34917772,17.9493816 6.38014213,16.7742131 L6.58814213,8.87887976 L17.6771421,4.8564631 L29.0228921,8.52462976 L29.0228921,16.5932964 C29.0228921,17.7535464 28.4044178,18.8258146 27.4000588,19.4067131 L27.4000588,19.4067131 Z" id="Path" fill="#D341A5"></path>
                <path d="M0.371975462,5.6007131 L16.6728921,0.166713097 C17.3398877,-0.0555710325 18.0609799,-0.0555710325 18.7279755,0.166713097 L35.0299755,5.6007131 C35.2514244,5.6742827 35.4008676,5.88140497 35.4008676,6.11475476 C35.4008676,6.34810456 35.2514244,6.55522683 35.0299755,6.62879643 L18.7279755,12.0627964 C18.0609799,12.2850806 17.3398877,12.2850806 16.6728921,12.0627964 L0.370892129,6.6277131 C0.149443176,6.55414349 -3.55271368e-14,6.34702122 -3.55271368e-14,6.11367143 C-3.55271368e-14,5.88032164 0.149443176,5.67319937 0.370892129,5.59962976 L0.371975462,5.6007131 Z" id="Path" fill="#0565FF" opacity="0.6"></path>
                <path d="M5.2188088,8.22454643 L5.2188088,15.1622131 C5.6088088,15.3247131 5.88939213,15.7580464 5.88939213,16.2661298 C5.88939213,16.9128798 5.43547546,17.4372131 4.87539213,17.4372131 C4.3153088,17.4372131 3.86139213,16.9117964 3.86139213,16.2661298 C3.86139213,15.7905464 4.10622546,15.3821298 4.4583088,15.1979631 L4.46047546,7.96562976 L5.2188088,8.22454643 Z M5.21014213,15.8837131 L5.20797546,15.8815464 L5.2058088,15.8793798 L5.20147546,15.8739631 L5.20039213,15.8728798 L5.19822546,15.8696298 L5.19389213,15.8652964 L5.19172546,15.8631298 L5.1895588,15.8609631 L5.18522546,15.8566298 L5.1830588,15.8544631 L5.18089213,15.8522964 L5.1765588,15.8479631 L5.17439213,15.8457964 L5.17222546,15.8436298 L5.16789213,15.8392964 L5.16572546,15.8382131 L5.16247546,15.8349631 L5.15814213,15.8306298 L5.1570588,15.8295464 L5.1538088,15.8262964 L5.14947546,15.8230464 L5.14839213,15.8230464 L5.14514213,15.8197964 L5.13864213,15.8143798 L5.13539213,15.8122131 L5.12997546,15.8078798 L5.12889213,15.8078798 L5.12564213,15.8046298 L5.12022546,15.8013798 L5.11914213,15.8002964 L5.1148088,15.7970464 L5.11047546,15.7937964 L5.1083088,15.7937964 L5.1050588,15.7916298 L5.09964213,15.7883798 L5.0985588,15.7872964 L5.09422546,15.7840464 L5.08989213,15.7807964 L5.0888088,15.7807964 L5.08447546,15.7786298 L5.08014213,15.7753798 L5.07797546,15.7753798 L5.07364213,15.7721298 L5.06822546,15.7699631 L5.06389213,15.7667131 L5.05847546,15.7645464 L5.0563088,15.7645464 L5.0530588,15.7623798 L5.04764213,15.7591298 L5.04547546,15.7591298 L5.04222546,15.7569631 L5.0368088,15.7547964 L5.03572546,15.7547964 L5.03139213,15.7526298 L5.02597546,15.7504631 L5.02489213,15.7504631 L5.01947546,15.7482964 L5.0140588,15.7461298 L5.00864213,15.7439631 L5.00322546,15.7417964 L4.9978088,15.7407131 L4.99239213,15.7385464 L4.9913088,15.7385464 L4.98589213,15.7363798 L4.98047546,15.7352964 L4.98047546,15.7342131 L4.9750588,15.7331298 L4.96964213,15.7320464 L4.96314213,15.7298798 L4.95772546,15.7298798 L4.95122546,15.7277131 L4.9458088,15.7277131 L4.9393088,15.7255464 L4.93389213,15.7255464 L4.92739213,15.7233798 L4.92197546,15.7233798 L4.91547546,15.7222964 L4.91114213,15.7222964 L4.90464213,15.7212131 L4.89272546,15.7212131 L4.88622546,15.7201298 L4.83747546,15.7201298 L4.82989213,15.7222964 L4.82122546,15.7222964 L4.81364213,15.7244631 L4.8028088,15.7244631 L4.80064213,15.7255464 L4.79414213,15.7266298 L4.78872546,15.7277131 L4.78547546,15.7277131 L4.7768088,15.7309631 L4.76814213,15.7320464 L4.76489213,15.7331298 L4.7605588,15.7352964 L4.7540588,15.7363798 L4.75189213,15.7363798 L4.74322546,15.7396298 L4.73564213,15.7417964 L4.7313088,15.7439631 L4.72697546,15.7450464 L4.72047546,15.7482964 L4.7118088,15.7515464 L4.7085588,15.7515464 L4.70314213,15.7547964 L4.6988088,15.7569631 L4.69664213,15.7580464 L4.6890588,15.7623798 L4.68039213,15.7656298 L4.67822546,15.7677964 L4.6728088,15.7699631 L4.66739213,15.7732131 L4.6663088,15.7742964 L4.65872546,15.7786298 L4.65764213,15.7786298 L4.65222546,15.7829631 L4.64789213,15.7862131 L4.64464213,15.7872964 L4.63814213,15.7916298 L4.6305588,15.7970464 L4.6273088,15.7992131 L4.62297546,15.8024631 L4.61864213,15.8057131 L4.61647546,15.8067964 L4.60889213,15.8122131 L4.60239213,15.8176298 L4.59914213,15.8208798 L4.59589213,15.8241298 L4.59047546,15.8284631 L4.58939213,15.8284631 L4.58289213,15.8349631 L4.58072546,15.8371298 L4.57639213,15.8414631 L4.57314213,15.8447131 L4.56989213,15.8479631 L4.56339213,15.8533798 L4.55689213,15.8598798 L4.55472546,15.8620464 L4.55147546,15.8663798 L4.54714213,15.8707131 L4.54497546,15.8728798 L4.5395588,15.8793798 L4.53414213,15.8858798 L4.53089213,15.8891298 L4.52872546,15.8934631 L4.5233088,15.8988798 L4.5233088,15.8999631 L4.5168088,15.9075464 L4.5168088,15.9086298 L4.51247546,15.9151298 L4.50922546,15.9194631 L4.5070588,15.9216298 L4.50272546,15.9292131 L4.4973088,15.9367964 L4.49297546,15.9443798 L4.48864213,15.9497964 L4.48864213,15.9519631 L4.48322546,15.9606298 L4.47889213,15.9682131 L4.4745588,15.9757964 L4.47022546,15.9833798 L4.46589213,15.9920464 L4.4648088,15.9942131 L4.4615588,16.0007131 L4.45939213,16.0050464 L4.45722546,16.0082964 L4.45397546,16.0169631 L4.45072546,16.0256298 L4.4485588,16.0288798 L4.44639213,16.0342964 C4.41719291,16.1076962 4.40247781,16.1860541 4.4030588,16.2650464 C4.4030588,16.5651298 4.61322546,16.8088798 4.87322546,16.8088798 C5.13322546,16.8088798 5.34339213,16.5651298 5.34339213,16.2650464 C5.34526941,16.1249943 5.29683508,15.9889168 5.20689213,15.8815464 L5.2090588,15.8826298 L5.21014213,15.8837131 Z" id="Shape" fill="#F58220" opacity="0.8"></path>
                <path d="M4.71614213,16.2726298 L2.98714213,24.7280464 C2.95897546,24.8656298 3.5678088,25.0530464 3.85814213,24.7767964 C4.23947546,25.1256298 4.7443088,24.9826298 4.89597546,24.7421298 C5.08664213,24.9804631 5.53839213,25.1137131 5.86664213,24.7562131 C6.15589213,25.0313798 6.8048088,24.8396298 6.75714213,24.6088798 L5.03897546,16.2639631 C4.99564213,16.1393798 4.73889213,16.1610464 4.71614213,16.2715464 L4.71614213,16.2726298 Z" id="Path" fill="#F58220" opacity="0.8"></path>
            </g>
        </g>
    </g>
</svg>