<?xml version="1.0" encoding="UTF-8"?>
<svg width="40px" height="40px" viewBox="0 0 40 40" version="1.1" xmlns="http://www.w3.org/2000/svg" xmlns:xlink="http://www.w3.org/1999/xlink">
    <!-- Generator: Sketch 59 (86127) - https://sketch.com -->
    <title>process copy 5</title>
    <desc>Created with Sketch.</desc>
    <g id="Final-1" stroke="none" stroke-width="1" fill="none" fill-rule="evenodd">
        <g id="menu_people">
            <rect id="Logo-BG-Copy-14" x="0" y="0" width="40" height="40"></rect>
            <g id="Group-16-Copy" transform="translate(4.000000, 4.000000)" fill-rule="nonzero">
                <g id="Group-15-Copy" transform="translate(0.632143, 5.565605)" fill="#D341A5">
                    <ellipse id="Oval" cx="7.33285719" cy="4.4524845" rx="4.5514286" ry="4.4524845"></ellipse>
                    <path d="M1.10445733,22.6064114 L2.11080959,15.6065236 C2.2963826,14.3157327 3.40228334,13.3574535 4.70634556,13.3574535 L8.53775238,13.3574535 C9.80108201,13.3574535 10.88482,14.2582447 11.1157811,15.5002829 L12.4174332,22.5001708 C12.6821946,23.9239766 11.7426033,25.2928309 10.3187974,25.5575924 C10.160693,25.5869923 10.0002192,25.6017859 9.83940451,25.6017859 L3.69999329,25.6017859 C2.25177993,25.6017859 1.07777105,24.427777 1.07777105,22.9795636 C1.07777105,22.8547028 1.08668916,22.7300015 1.10445733,22.6064114 Z" id="Path"></path>
                </g>
                <g id="Group-14" opacity="0.636648996" transform="translate(18.837857, 5.565605)" fill="#FFA530">
                    <ellipse id="Oval-Copy-2" cx="5.68928575" cy="4.4524845" rx="4.5514286" ry="4.4524845"></ellipse>
                    <path d="M0.383736274,24.1038489 L1.60711163,15.606024 C1.79290575,14.3154587 2.89870514,13.3574535 4.20257573,13.3574535 L8.0462867,13.3574535 C9.30937366,13.3574535 10.3929759,14.2579069 10.6241976,15.4996498 L12.216459,24.0506618 C12.3490145,24.7625322 11.879387,25.4470746 11.1675166,25.5796302 C11.0883622,25.5943693 11.0080185,25.6017859 10.9275036,25.6017859 L1.68146832,25.6017859 C0.957361646,25.6017859 0.370357202,25.0147815 0.370357202,24.2906747 C0.370357202,24.2281602 0.374828299,24.1657256 0.383736274,24.1038489 Z" id="Path-Copy-2"></path>
                </g>
                <g id="Group-15" opacity="0.6" transform="translate(8.597143, 0.000000)" fill="#0565FF">
                    <ellipse id="Oval" cx="7.84513114" cy="6.10361417" rx="6.10799496" ry="6.10361417"></ellipse>
                    <path d="M0.646406379,26.6739874 L1.75655285,18.9569583 C2.035064,17.0209266 3.69384562,15.5836958 5.64980752,15.5836958 L9.52164226,15.5836958 C11.4164703,15.5836958 13.0419842,16.9346509 13.3886046,18.7975057 L14.8245078,26.5145346 C15.2218897,28.6501989 13.8127333,30.7036386 11.677069,31.1010204 C11.4397723,31.145174 11.1989151,31.1673915 10.9575455,31.1673915 L4.53966105,31.1673915 C2.36734102,31.1673915 0.606327696,29.4063782 0.606327696,27.2340581 C0.606327696,27.0466514 0.619721375,26.8594844 0.646406379,26.6739874 Z" id="Path"></path>
                </g>
            </g>
        </g>
    </g>
</svg>