<?xml version="1.0" encoding="UTF-8"?>
<svg width="122px" height="122px" viewBox="0 0 122 122" version="1.1" xmlns="http://www.w3.org/2000/svg" xmlns:xlink="http://www.w3.org/1999/xlink">
    <title>Group 27</title>
    <g id="Page-1" stroke="none" stroke-width="1" fill="none" fill-rule="evenodd">
        <g id="MC-1263-DWP-Landing-Page-Web" transform="translate(-433.000000, -4802.000000)">
            <g id="Group-27" transform="translate(434.000000, 4803.000000)">
                <circle id="Oval" fill="#FFE5B2" fill-rule="nonzero" cx="59.5" cy="60.5" r="55.5"></circle>
                <circle id="Oval" stroke="#FFE5B2" stroke-width="1.8" cx="60" cy="60" r="60"></circle>
                <path d="M59.6507495,116 C79.5665508,116.003941 97.9819788,105.451944 108,88.2959926 C102.349513,83.7416333 95.4667355,80.9667734 88.2284355,80.324891 L64.0138228,78.2524046 C60.0815551,77.9158651 56.1275823,77.9158651 52.1953146,78.2524046 L22.6845885,80.7411597 C17.998665,81.144966 13.3924787,82.2002974 9,83.8764596 C18.2085812,103.464977 37.947014,115.983416 59.6507495,116 Z" id="Path" fill="#FFC74F" fill-rule="nonzero"></path>
                <path d="M80.0688767,39.8584025 C80.0688767,39.8584025 83.0826247,30.3013783 83.9685102,24.3447843 C84.8543958,18.3881903 66.7545375,24.3447843 66.7545375,24.3447843 C66.7545375,24.3447843 73.1381248,20.1972299 71.3663536,17.8587153 C69.5945824,15.5202006 57.3398319,17.1350994 53.6139014,20.7443541 C53.6139014,20.7443541 59.4155834,14.3641801 56.2194472,14.0111968 C53.023311,13.6582134 39.8566194,21.7062338 38.579902,30.3631504 C38.579902,30.3631504 31.9531304,33.3635089 33.1429963,39.1347866 C34.3328623,44.9060644 43.9125857,58.1341154 43.7909936,63.3053215 L49.7055826,68 L67.4580349,50.8008863 L80.0688767,39.8584025 Z" id="Path" fill="#000000" fill-rule="nonzero"></path>
                <path d="M75.2775986,64.6287081 L75.9991223,86.8818182 C75.9991223,86.8818182 76.3510851,100 62.9589011,100 C49.5667171,100 44.7008316,88.6875598 45.0615935,85.0672249 C45.4223553,81.44689 45,63.7169856 45,63.7169856 L51.8984706,63 L75.2775986,64.6287081 Z" id="Path" fill="#FFB6B2" fill-rule="nonzero"></path>
                <path d="M58,62 L59.4001957,66.7778695 C60.0192271,68.8620159 61.7212715,70.4104631 63.8033268,70.7836499 L76,73 L75.7534247,63.9620149 L58,62 Z" id="Path" fill="#F2A2A0" fill-rule="nonzero"></path>
                <path d="M55.9536133,64.168457 C57.3420776,65.8015477 61.0183967,64.8974703 63.191909,64.9148858 L74.582344,64.9996668 C76.5860632,65.0074787 78.5070971,64.2201914 79.9050025,62.8183093 C81.3029079,61.4164272 82.0577795,59.5201968 81.9965449,57.5643745 L81.3888235,39.421244 C81.3888235,39.421244 77.9161299,41.2694694 67.0118719,38.0223577 C62.89673,36.7845554 58.4169553,36.5302124 55.3436214,36.0300046 C54.7485085,35.9295326 54.1379008,36.0840103 53.6676019,36.454021 C53.197303,36.8240318 52.9128013,37.3737872 52.8866907,37.963011 L52.4786492,47.4245688 C52.455294,48.0353863 51.9412213,48.5186692 51.3152969,48.5182435 C50.7438222,48.5216498 50.2544415,48.1192061 50.1606262,47.5686965 C49.9609463,46.407197 49.5702683,44.5420154 49.058046,44.1011543 C48.3114169,43.4483407 45.9152583,43.3635597 45.2467648,44.6183183 C44.5782713,45.8730768 45.2901734,51.1634102 47.1133376,51.6805742 C48.9365017,52.1977382 49.5094962,53.1557633 49.4574058,54.1053103 C49.4053154,55.0548574 50.5307979,63.614258 44.5924918,63.78382 L54.8369141,63.7246094 C54.8369141,63.7246094 55.5455718,63.7021616 55.9536133,64.168457 Z" id="Path" fill="#FFB6B2" fill-rule="nonzero"></path>
                <circle id="Oval" fill="#000000" fill-rule="nonzero" cx="76" cy="46" r="1"></circle>
                <circle id="Oval" fill="#000000" fill-rule="nonzero" cx="61" cy="46" r="1"></circle>
                <line x1="70" y1="46" x2="71" y2="52" id="Path" stroke="#FF8880" stroke-width="0.9" stroke-linecap="round"></line>
                <path d="M75,56.1912607 C74.0046103,57.5202995 72.307193,58.200243 70.6141281,57.9481328 C68.9210633,57.6960226 67.5223257,56.5550381 67,55 L75,56.1912607 Z" id="Path" fill="#FFFFFF" fill-rule="nonzero"></path>
                <path d="M38.8205816,22 C38.8205816,22 36.3420935,26.8678103 40,31" id="Path" stroke="#000000" stroke-width="0.9" stroke-linecap="round"></path>
                <path d="M34,25 C34.7085745,27.6559784 36.5405146,29.8543064 39,31" id="Path" stroke="#000000" stroke-width="0.9" stroke-linecap="round"></path>
                <line x1="70" y1="63.5" x2="72" y2="63.5" id="Path" stroke="#F2A2A0" stroke-width="0.9" stroke-linecap="round"></line>
                <path d="M55.5213551,96.8664688 C48.296259,93.305638 45.3318954,86.4154303 44.139236,82 C44.139236,83.3086053 44.0787388,84.3590504 44.0182416,84.9821958 C43.6639007,88.6231454 48.4345383,100 61.5970041,100 C66.1688652,100 69.1073014,98.3976261 71,96.3145401 C67.0244686,98.3531157 61.4155125,99.7952522 55.5213551,96.8664688 Z" id="Path" fill="#F2A2A0" fill-rule="nonzero"></path>
            </g>
        </g>
    </g>
</svg>