<?xml version="1.0" encoding="UTF-8"?>
<svg width="300px" height="276px" viewBox="0 0 300 276" version="1.1" xmlns="http://www.w3.org/2000/svg" xmlns:xlink="http://www.w3.org/1999/xlink">
    <title>Ready whenever you are_Монтажная область 1</title>
    <g id="Page-1" stroke="none" stroke-width="1" fill="none" fill-rule="evenodd">
        <g id="MC-1263-DWP-Landing-Page-Web" transform="translate(-808.000000, -6026.000000)">
            <g id="Ready-whenever-you-are_Монтажная-область-1" transform="translate(808.000000, 6026.000000)">
                <line x1="152.96" y1="119.63" x2="146" y2="108.35" id="Path" stroke="#0265FC" stroke-width="0.85" stroke-linecap="round"></line>
                <line x1="150.88" y1="123.07" x2="144" y2="119.54" id="Path" stroke="#0265FC" stroke-width="0.85" stroke-linecap="round"></line>
                <path d="M57,10 C70.58,2.37 105.91,-8 158.54,13.65 C208.47,34.19 250.76,52.81 280.22,86.16 C284.39,90.89 292.84,102.59 295.43,109.74 C299.67,121.44 302.13,138.17 294.02,158.44 C277.9,198.74 229.55,227.44 214.7,238.02 C199.85,248.6 143.43,280.02 98.35,274.79 C53.27,269.56 22.53,208.63 14.08,183.79 C6.8282277,162.631609 2.42948309,140.600893 1,118.28 C-1,82.69 4.28,39.59 57,10 Z" id="Path" fill="#ECF3FF" fill-rule="nonzero"></path>
                <path d="M174,259.789995 L38.33,162.789995 L23.33,162.789995 C19.5926834,162.78662 16.0774442,164.564361 13.8651899,167.576582 C11.6529356,170.588803 11.0084844,174.474926 12.13,178.04 C13.28,181.69 14.04,183.73 14.04,183.73 C22.49,208.57 53.24,269.44 98.31,274.73 C123.07,277.65 151.2,269.49 174,259.789995 Z" id="Path" fill="#E085D3" fill-rule="nonzero"></path>
                <path d="M122.74,274.45 C136.74,272.74 150.95,268.7 163.97,263.81 L163.97,245.81 L122.74,245.81 L122.74,274.45 Z" id="Path" fill="#000000" fill-rule="nonzero" opacity="0.1" style="mix-blend-mode: multiply;"></path>
                <path d="M61.74,212.39 L102.69,263.39 L160,265.28 C175.217161,259.813994 189.907313,252.979341 203.89,244.86 L196.51,237.86 C188.856929,230.608872 179.061799,226.030561 168.59,224.81 L61.74,212.39 Z" id="Path" fill="#7DCC7A" fill-rule="nonzero"></path>
                <path d="M179.4,219.91 C176.156851,205.185282 161.597987,195.871726 146.87,199.1 L106.59,207.93 L74.37,211.09 L94.05,224.09 L143.82,229.66 L148.89,268.88 C161.945027,264.926074 174.654198,259.909296 186.89,253.88 L179.4,219.91 Z" id="Path" fill="#7DCC7A" fill-rule="nonzero"></path>
                <path d="M186.17,250.64 L179.4,219.91 C176.156851,205.185282 161.597987,195.871726 146.87,199.1" id="Path" stroke="#4AA147" stroke-width="0.85" stroke-linecap="round"></path>
                <path d="M200.93,246.54 C203.61,245.03 206.02,243.54 208.16,242.27 L208.16,202.55 L200.93,202.55 L200.93,246.54 Z" id="Path" fill="#B2D4FE" fill-rule="nonzero"></path>
                <polygon id="Path" fill="#000000" fill-rule="nonzero" opacity="0.1" style="mix-blend-mode: multiply;" points="200.93 211.82 208.16 211.82 208.16 202.55 200.93 202.55"></polygon>
                <path d="M124.54,204 C138.74,205.69 155.24,207 173.25,207.76 C166.689479,200.285294 156.584218,196.967948 146.87,199.1 L124.54,204 Z" id="Path" fill="#000000" fill-rule="nonzero" opacity="0.1" style="mix-blend-mode: multiply;"></path>
                <path d="M74.27,108.49 C74.27,108.49 47.66,109.68 32.21,123.81 C13.47,140.95 21.21,170.51 23.21,177.06 C23.3141663,177.394488 23.5560227,177.668686 23.8748882,177.813798 C24.1937537,177.958911 24.5593681,177.961167 24.88,177.82 L25.88,177.39 L58.77,217.77 C58.77,217.77 110.77,215.36 117.45,205.89 C117.45,205.89 105.75,166.43 111.6,148.6 L127.8,165 C127.8,165 136.11,150 139.45,140 C139.45,140 125.81,104.35 90.15,106.3 L74.27,108.49 Z" id="Path" fill="#FFC74F" fill-rule="nonzero"></path>
                <path d="M99.4,75.2 C100.910029,71.2150539 102.172433,67.1406269 103.18,63 C104.18,58.3 89.24,62.3 89.24,62.3 C89.24,62.3 94.58,59.25 93.24,57.3 C91.9,55.35 81.91,56.16 78.75,58.88 C78.75,58.88 83.75,54.04 81.12,53.62 C78.49,53.2 67.59,59.09 66.19,65.93 C66.19,65.93 60.7,68.06 61.43,72.71 C62.16,77.36 69.43,88.29 69.08,92.41 L73.69,96.41 L88.75,83.41 L99.4,75.2 Z" id="Path" fill="#000000" fill-rule="nonzero"></path>
                <path d="M87.81,73.45 C84.51,72.26 80.92,71.86 78.44,71.3 C77.961057,71.1912462 77.4584836,71.2949415 77.0616996,71.5843829 C76.6649157,71.8738244 76.4126994,72.3207244 76.37,72.81 L75.64,80.66 C75.5697504,81.1570163 75.141932,81.5249401 74.64,81.52 C74.1866316,81.4754086 73.8207013,81.1300363 73.75,80.68 C73.7131578,79.6640194 73.4573257,78.6679797 73,77.76 C72.42,77.19 70.48,77.02 69.89,78.03 C69.3,79.04 69.65,83.46 71.11,83.97 C72.57,84.48 72.98,85.29 72.91,86.08 C72.84,86.87 73.91,92.5 69.08,92.41 C69.08,92.41 68.71,106.51 68.28,109.41 C67.85,112.31 71.28,121.41 81.98,121.99 C92.68,122.57 92.98,112.09 92.98,112.09 L93.26,96.17 C96.4964533,96.1385116 99.1246324,93.5457288 99.2,90.31 L99.4,75.2 C99.4,75.2 96.49,76.59 87.81,73.45 Z" id="Path" fill="#FFB6B2" fill-rule="nonzero"></path>
                <path d="M68.1,109.32 C67.67,112.18 71.27,121.41 82,122 C92.73,122.59 93.19,112.21 93.19,112.21 L93.56,106.21" id="Path" stroke="#FFFFFF" stroke-width="0.85" stroke-linecap="round"></path>
                <circle id="Oval" fill="#000000" fill-rule="nonzero" cx="97.08" cy="80.42" r="1"></circle>
                <circle id="Oval" fill="#000000" fill-rule="nonzero" cx="84.96" cy="79.27" r="1"></circle>
                <line x1="92.26" y1="80.05" x2="92.78" y2="84.88" id="Path" stroke="#FF8880" stroke-width="0.85" stroke-linecap="round"></line>
                <path d="M93.76,88.48 C92.6731167,89.3349872 91.1956258,89.5002505 89.946699,88.9065332 C88.6977722,88.3128159 87.8931402,87.0626724 87.87,85.68 L93.76,88.48 Z" id="Path" fill="#FFFFFF" fill-rule="nonzero"></path>
                <path d="M66.05,59.86 C64.7749116,62.0939285 65.0221175,64.8849632 66.67,66.86" id="Path" stroke="#000000" stroke-width="0.85" stroke-linecap="round"></path>
                <path d="M62.6,61.89 C63.0856042,64.0417394 64.4938262,65.8705992 66.45,66.89" id="Path" stroke="#000000" stroke-width="0.85" stroke-linecap="round"></path>
                <line x1="89.46" y1="93.52" x2="90.69" y2="93.58" id="Path" stroke="#F2A2A0" stroke-width="0.85" stroke-linecap="round"></line>
                <path d="M92.82,96.15 L83.6,95.61 C82.0731756,95.5098697 80.6422914,94.8301998 79.6,93.71 L80.12,95.8 C80.5255939,97.4394124 81.8223894,98.7091107 83.47,99.08 L93.13,101.29 L93.22,96.13 C93.09,96.13 93,96.16 92.82,96.15 Z" id="Path" fill="#F2A2A0" fill-rule="nonzero"></path>
                <path d="M209.14,163.08 C135.73,163.08 76.22,172.31 76.22,183.7 C76.22,195.09 135.73,204.31 209.14,204.31 C228.32,204.31 246.56,203.68 263.03,202.54 C273.39,192.42 283.22,180.59 289.97,167.33 C267.57,164.67 239.55,163.08 209.14,163.08 Z" id="Path" fill="#B2D4FE" fill-rule="nonzero"></path>
                <path d="M269.18,196.24 C278.59,186.13 287.08,174.58 292.57,161.8 C269.76,158.95 240.74,157.23 209.14,157.23 C135.73,157.23 76.22,166.46 76.22,177.85 C76.22,189.24 135.73,198.46 209.14,198.46 C230.75,198.46 251.15,197.66 269.18,196.24 Z" id="Path" fill="#FFFFFF" fill-rule="nonzero"></path>
                <path d="M140.85,145.67 L144.85,148.67 C146.85,150.79 150.24,149.05 151.95,146.73 C151.95,146.73 185.89,112.63 185.89,112.73 C185.89,112.83 196.04,109.73 201.39,112.13 C201.39,112.13 189.74,128.56 179.99,143.33 C175.52,150.1 171.72,156.39 166.79,161.55 C155.79,173.04 137.21,173.47 125.53,162.84 C125.055064,162.405074 124.604384,161.944379 124.18,161.46 L122.6,159.69 L127.18,157.45 C132.289002,154.940498 136.720088,151.239924 140.1,146.66 L140.85,145.67 Z" id="Path" fill="#FFB6B2" fill-rule="nonzero"></path>
                <path d="M122.88,159.64 C128.633529,157.417189 133.719452,153.753396 137.65,149" id="Path" stroke="#F58220" stroke-width="0.85" stroke-linecap="round"></path>
                <rect id="Rectangle" fill="#B2D4FE" fill-rule="nonzero" x="100.46" y="19.91" width="47.08" height="30.49" rx="4.08"></rect>
                <rect id="Rectangle" fill="#ECF3FF" fill-rule="nonzero" x="104.51" y="24.07" width="38.97" height="22.16" rx="3.16"></rect>
                <path d="M102.8,31 C102.6,30.35 118.01,27.18 129.88,36.81" id="Path" stroke="#B2D4FE" stroke-width="0.85" stroke-linecap="round"></path>
                <path d="M103.61,38.12 C103.61,38.12 110.02,34.26 120.9,38.12 C126.7,40.17 134.2,43.26 140.09,41.73" id="Path" stroke="#B2D4FE" stroke-width="0.85" stroke-linecap="round"></path>
                <path d="M57,10 C47.9720442,14.9710904 39.5778672,21.0148978 32,28 L69.89,28 C72.4636469,28 74.55,25.9136469 74.55,23.34 L74.55,3.4 C68.4274119,4.79276695 62.5231172,7.01318543 57,10 Z" id="Path" fill="#B2D4FE" fill-rule="nonzero"></path>
                <path d="M57,10 C50.0970064,13.8256768 43.5449454,18.2528355 37.42,23.23 L66.31,23.23 C68.3037479,23.23 69.92,21.6137479 69.92,19.62 L69.92,4.62 C65.4312875,5.94037549 61.0992281,7.74428258 57,10 L57,10 Z" id="Path" fill="#ECF3FF" fill-rule="nonzero" opacity="0.6"></path>
                <path d="M162.56,81.469986 L138.63,81.469986 C136.569978,81.469986 134.9,83.1399779 134.9,85.2 L134.9,103.2 C134.9,105.260022 136.569978,106.93 138.63,106.93 L146,106.93 C146.808446,106.930979 147.547333,107.387464 147.91,108.11 L150.22,112.79 C150.292853,112.951047 150.453242,113.054528 150.63,113.054528 C150.806758,113.054528 150.967147,112.951047 151.04,112.79 L152.78,108.32 C153.100571,107.497486 153.897283,106.959706 154.78,106.97 L162.57,106.97 C164.630022,106.97 166.300215,105.300022 166.300215,103.24 L166.300215,85.24 C166.310706,84.2420942 165.92108,83.2815145 165.218238,82.5730347 C164.515396,81.8645548 163.557959,81.4672671 162.56,81.469986 Z" id="Path" fill="#FFFFFF" fill-rule="nonzero"></path>
                <path d="M156.34,98.63 L155.34,97.02 C154.896382,96.2838206 154.664538,95.4394924 154.67,94.58 L154.67,93.17 C154.667087,91.4388635 153.528977,89.9146087 151.87,89.42 L151.87,88.42 C151.87,87.8014411 151.368559,87.3 150.75,87.3 C150.131441,87.3 149.63,87.8014411 149.63,88.42 L149.63,89.42 C147.969035,89.9117592 146.829616,91.4377671 146.83,93.17 L146.83,94.57 C146.822519,95.4290748 146.587917,96.2708827 146.15,97.01 L145.15,98.61 C145.101518,98.697681 145.10173,98.8041767 145.15056,98.8916641 C145.19939,98.9791516 145.289921,99.0352366 145.39,99.04 L148.72,99.04 C148.985776,99.8502293 149.73603,100.402845 150.588629,100.416378 C151.441228,100.429911 152.208643,99.9013859 152.5,99.1 C152.504679,99.0802736 152.504679,99.0597264 152.5,99.04 L156.01,99.04 C156.108604,99.0371888 156.199017,98.9844477 156.25,98.9 C156.326914,98.833094 156.361387,98.729673 156.34,98.63 L156.34,98.63 Z" id="Path" fill="#E55200" fill-rule="nonzero"></path>
                <line x1="165.82" y1="77.1" x2="168.61" y2="72.65" id="Path" stroke="#FF8880" stroke-width="0.85" stroke-linecap="round"></line>
                <line x1="168.61" y1="81" x2="179.89" y2="72.79" id="Path" stroke="#FF8880" stroke-width="0.85" stroke-linecap="round"></line>
                <path d="M196.07,104.6 C195.78367,105.944211 196.118887,107.345864 196.982409,108.415078 C197.84593,109.484292 199.145635,110.107004 200.52,110.11 L204.05,110.11 C205.05268,112.10036 206.525129,113.816501 208.34,115.11 C209.510894,115.93602 210.907084,116.3828 212.34,116.390002 L218.49,116.390002 C219.979867,116.391108 221.432114,115.92219 222.64,115.05 C229.43,110.15 229.09,100.8 228.76,97.7 C228.693671,97.1271659 228.206649,96.6961727 227.63,96.6999747 L203.26,96.6999747 C202.685426,96.6966935 202.201553,97.1287232 202.14,97.7 C202.022842,98.7958766 201.97608,99.8981383 202,101 L200.65,101 C198.4651,100.968892 196.555885,102.469584 196.07,104.6 L196.07,104.6 Z M198.07,105.6 C198.07548,104.238133 199.178133,103.13548 200.54,103.13 L202.14,103.13 C202.278867,104.810126 202.614498,106.46814 203.14,108.07 L200.49,108.07 C199.832236,108.059476 199.205602,107.788044 198.747995,107.315434 C198.290388,106.842823 198.039305,106.207762 198.05,105.55 L198.07,105.6 Z" id="Shape" fill="#B2D4FE" fill-rule="nonzero"></path>
                <path d="M207.46,113.55 C217.248922,113.544196 225.569075,106.396254 227.05,96.7199747 L227.67,96.7199747 C228.246649,96.7161727 228.733671,97.1471659 228.8,97.72 C229.13,100.81 229.47,110.17 222.68,115.07 C221.472114,115.94219 220.019867,116.411108 218.53,116.410002 L212.38,116.410002 C210.947084,116.4028 209.550894,115.95602 208.38,115.13 C207.70523,114.641198 207.079016,114.088656 206.51,113.48 C206.8,113.51 207.12,113.55 207.46,113.55 Z" id="Path" fill="#000000" fill-rule="nonzero" opacity="0.1" style="mix-blend-mode: multiply;"></path>
                <path d="M206.47,113.5 C202.58,109.74 202.12,103.08 202.12,103.08 C200.31,102.42 199.42,103.17 198.36,104.08 C198.213355,104.195707 198.005258,104.191186 197.863777,104.069219 C197.722295,103.947252 197.687163,103.742093 197.78,103.58 C198.647337,102.031172 199.223519,100.336519 199.48,98.58 C199.556922,98.1424606 199.352845,97.7033729 198.968788,97.480084 C198.584731,97.2567951 198.102182,97.2966817 197.76,97.58 L194.45,100.29 C193.560403,101.010707 192.79083,101.868038 192.17,102.83 L185.74,112.75 L177.66,121 L188.55,130 L190.99,126.72 C192.64,125.03 193.37,123.15 195.44,122 C196.560952,121.372369 197.573847,120.568806 198.44,119.62 C199.173831,118.811118 199.951677,118.043288 200.77,117.32 C201.097622,117.396614 201.43637,117.413551 201.77,117.37 C203.3,117.15 206.01,114 206.35,113.6 L206.47,113.5 Z" id="Path" fill="#FFB6B2" fill-rule="nonzero"></path>
                <path d="M199.32,108.21 C200.197522,107.556105 200.978532,106.781828 201.64,105.91" id="Path" stroke="#FF8880" stroke-width="0.85" stroke-linecap="round"></path>
                <path d="M198.09,112.28 C199.844014,111.574304 201.406462,110.464144 202.65,109.04" id="Path" stroke="#FF8880" stroke-width="0.85" stroke-linecap="round"></path>
                <path d="M199.66,115.24 C201.111075,114.288584 202.432168,113.152377 203.59,111.86" id="Path" stroke="#FF8880" stroke-width="0.85" stroke-linecap="round"></path>
                <path d="M214.73,93.62 L216.33,90.24 C216.679524,89.5447928 216.679524,88.7252072 216.33,88.03 L215.33,86.19 C214.960021,85.4785595 214.960021,84.6314405 215.33,83.92 L216.33,81.92" id="Path" stroke="#B2D4FE" stroke-width="0.85" stroke-linecap="round"></path>
                <path d="M121.16,227.24 L124.37,228.87 C133.449078,233.454516 139.821329,242.067069 141.55,252.09 L141.67,252.52 C142.968236,257.038327 145.169257,261.246461 148.14,264.89 L148.14,264.89 L143.71,231.07 C143.613044,230.294389 142.996851,229.686466 142.22,229.6 L121.16,227.24 Z" id="Path" fill="#000000" fill-rule="nonzero" opacity="0.1" style="mix-blend-mode: multiply;"></path>
                <path d="M119.53,226.94 L142.28,229.48 C143.176164,229.598729 143.881271,230.303836 144,231.2 L148.84,268.41" id="Path" stroke="#4AA147" stroke-width="0.85" stroke-linecap="round"></path>
                <circle id="Oval" fill="#FFFFFF" fill-rule="nonzero" cx="275.67" cy="122.42" r="2.1"></circle>
                <circle id="Oval" fill="#FFFFFF" fill-rule="nonzero" cx="188.52" cy="47.3" r="2.1"></circle>
                <path d="M59.33,217.74 C61.85,217.61 72.48,217.01 84.02,215.58 L81.38,200.83 L70.3,192.64 C64.8994753,188.649335 60.1062556,183.896536 56.07,178.53 L52.41,173.67 L46.41,175.25 C44.2387591,175.817714 42.3945634,177.249507 41.3064319,179.2123 C40.2183003,181.175093 39.9810959,183.497769 40.65,185.64 L44.49,198 C45.2467348,200.428392 46.4620009,202.689194 48.07,204.66 L58.76,217.78 L59.33,217.74 Z" id="Path" fill="#000000" fill-rule="nonzero" opacity="0.1" style="mix-blend-mode: multiply;"></path>
                <line x1="258.21" y1="108.46" x2="258.21" y2="115.39" id="Path" stroke="#FFFFFF" stroke-width="0.64" stroke-linecap="round"></line>
                <line x1="254.74" y1="111.92" x2="261.67" y2="111.92" id="Path" stroke="#FFFFFF" stroke-width="0.64" stroke-linecap="round"></line>
                <path d="M122.74,239 C122.74,226.297451 112.442549,216 99.74,216 L33.31,216 C48.31,240 70.64,271.39 98.31,274.65 C106.423118,275.51782 114.610682,275.417112 122.7,274.35 L122.74,239 Z" id="Path" fill="#E085D3" fill-rule="nonzero"></path>
                <path d="M114.57,257.86 L114.910003,241.01 C114.912653,236.337805 113.058491,231.856063 109.755687,228.551385 C106.452884,225.246706 101.972196,223.389999 97.3,223.39 L46,222.88" id="Path" stroke="#E55200" stroke-width="0.85" stroke-linecap="round"></path>
                <path d="M51.43,171.61 L58.74,189.35 L101.24,210 C104.322052,211.387786 107.504417,212.541059 110.76,213.45 C113.012735,214.121413 114.903212,215.666203 116.01,217.74 C117.72,220.97 119.92,225.68 119.35,227.74 C119.168308,228.337587 118.872897,228.894454 118.48,229.38 C117.599616,230.514105 116.293186,231.238184 114.864864,231.383661 C113.436541,231.529138 112.010955,231.083321 110.92,230.15 C108.92,228.51 104.32,225.9 101.05,224.15 C98.9775382,223.020826 96.7650973,222.170146 94.47,221.62 C86.64,219.76 66.65,214.78 51.82,209.13 C45.5375485,206.727946 40.1157938,202.504062 36.25,197 C31.9299462,190.924125 28.0947721,184.517679 24.78,177.84 L24.78,177.84 C31.4426307,173.951665 38.9873587,171.827989 46.7,171.67 L51.43,171.61 Z" id="Path" fill="#FFB6B2" fill-rule="nonzero"></path>
                <path d="M114.14,220.16 C115.554985,222.330705 116.843786,224.581097 118,226.9" id="Path" stroke="#FF8880" stroke-width="0.85" stroke-linecap="round"></path>
                <path d="M111,222.42 C113.287217,224.447955 115.196769,226.865367 116.64,229.56" id="Path" stroke="#FF8880" stroke-width="0.85" stroke-linecap="round"></path>
                <path d="M107.92,224.69 C109.544724,225.603428 111.049596,226.715287 112.4,228" id="Path" stroke="#FF8880" stroke-width="0.85" stroke-linecap="round"></path>
                <path d="M24.78,177.88 C32.8443019,173.191697 42.121292,171.009081 51.43,171.61" id="Path" stroke="#F58220" stroke-width="0.85" stroke-linecap="round"></path>
                <path d="M48.74,159.09 C48.74,159.09 51.65,175.78 58.74,189.35" id="Path" stroke="#F58220" stroke-width="0.85" stroke-linecap="round"></path>
                <ellipse id="Oval" fill="#000000" fill-rule="nonzero" opacity="0.03" style="mix-blend-mode: multiply;" cx="147.99" cy="172.68" rx="47.61" ry="8.85"></ellipse>
                <ellipse id="Oval" fill="#000000" fill-rule="nonzero" opacity="0.03" style="mix-blend-mode: multiply;" cx="222.98" cy="180.29" rx="22.16" ry="4.12"></ellipse>
                <path d="M132.49,167 L108.18,167 C107.627715,167 107.179853,167.447715 107.179853,168 L107.179853,168 C107.173297,168.391869 107.396131,168.751529 107.75,168.92 L123.8,177.08 L186.71,177.08 L132.49,167 Z" id="Path" fill="#A8AAAD" fill-rule="nonzero"></path>
                <path d="M132.49,167.08 L108.18,167.08 C107.627715,167.08 107.179633,167.527715 107.179633,168.08 L107.179633,168.08 C107.16932,168.475457 107.392772,168.840036 107.75,169.01 L123.8,177.17 L187.72,177.17 L132.49,167.08 Z" id="Path" fill="#000000" fill-rule="nonzero" opacity="0.1" style="mix-blend-mode: multiply;"></path>
                <path d="M187.76,177.1 L123.76,177.1 L138,132.37 C138.356656,131.251112 139.395644,130.491074 140.57,130.49 L202.4,130.49 C202.80886,130.49 203.19325,130.684788 203.434435,131.014934 C203.67562,131.34508 203.744575,131.77058 203.62,132.16 L189.77,175.62 C189.48953,176.495357 188.679158,177.092049 187.76,177.1 L187.76,177.1 Z" id="Path" fill="#A8AAAD" fill-rule="nonzero"></path>
                <ellipse id="Oval" fill="#FFFFFF" fill-rule="nonzero" transform="translate(165.367600, 154.280800) rotate(-75.547572) translate(-165.367600, -154.280800) " cx="165.3676" cy="154.2808" rx="4.26723585" ry="3.8164715"></ellipse>
                <path d="M223.67,155.84 C223.67,155.84 211.46,164.24 211.19,177.94 C211.169779,179.198454 211.862916,180.360137 212.98,180.94 C216.98,183.03 231.56,186.3 242.07,180.94 C243.469403,180.319819 244.286305,178.84531 244.07,177.33 C243.18,172.11 240.29,160.33 231.89,155.19 L223.67,155.84 Z" id="Path" fill="#F4C6EF" fill-rule="nonzero"></path>
                <path d="M238.42,161.89 C236.764968,159.185145 234.514506,156.89364 231.84,155.19 L223.67,155.84 C221.208576,157.665809 219.011144,159.82286 217.14,162.25 C220.73,162.94 224.55,164.59 228.03,164.48 C232.16,164.34 235.83,162.33 238.42,161.89 Z" id="Path" fill="#E085D3" fill-rule="nonzero"></path>
                <path d="M219.54,159.32 C219.664258,159.042124 219.804492,158.771672 219.96,158.51 C221.578981,155.841529 224.41807,154.151917 227.535638,154.001552 C230.653205,153.851187 233.641723,155.259725 235.51,157.76 C235.79,158.13 236.07,158.53 236.34,158.95 C233.706718,160.122985 230.89998,160.85929 228.03,161.13 C225.38,161.27 222.22,160 219.54,159.32 Z" id="Path" fill="#F4C6EF" fill-rule="nonzero"></path>
                <circle id="Oval" fill="#E085D3" fill-rule="nonzero" cx="227.76" cy="152.36" r="2.23"></circle>
                <path d="M217,162.9 L210,154.73 L206.75,157.23 C206.75,157.23 213.53,171.63 213.75,171.35 C213.97,171.07 217,162.9 217,162.9 Z" id="Path" fill="#F4C6EF" fill-rule="nonzero"></path>
                <path d="M206.77,157.23 C206.77,157.23 206.46,156.23 207.84,155.23 C209.22,154.23 210.02,154.69 210.02,154.69 C210.02,154.69 210.63,155.79 209.08,156.81 C207.53,157.83 206.77,157.23 206.77,157.23 Z" id="Path" fill="#E085D3" fill-rule="nonzero"></path>
                <path d="M237.16,160.37 C237.16,160.37 240.04,155.75 244.61,156.54 C250.25,157.54 250.41,170.05 240.71,173.16" id="Path" stroke="#E085D3" stroke-width="3.42" stroke-linecap="round"></path>
                <ellipse id="Oval" stroke="#B2D4FE" stroke-width="0.85" stroke-linecap="round" cx="263.27" cy="170.88" rx="8.29" ry="2.65"></ellipse>
                <path d="M271.58,170.88 C271.646394,173.963569 270.686062,176.981757 268.85,179.46 C268.188014,180.367731 267.133471,180.906143 266.01,180.910001 L260.56,180.910001 C259.435352,180.911024 258.378722,180.371548 257.72,179.46 C255.87625,176.985149 254.911899,173.965395 254.98,170.88" id="Path" stroke="#B2D4FE" stroke-width="0.85" stroke-linecap="round"></path>
            </g>
        </g>
    </g>
</svg>