<?xml version="1.0" encoding="UTF-8"?>
<svg width="296px" height="276px" viewBox="0 0 296 276" version="1.1" xmlns="http://www.w3.org/2000/svg" xmlns:xlink="http://www.w3.org/1999/xlink">
    <title>team leads illustrations-changes 25-08 -03</title>
    <g id="Page-1" stroke="none" stroke-width="1" fill="none" fill-rule="evenodd">
        <g id="MC-1263-DWP-Landing-Page-Web" transform="translate(-259.000000, -5086.000000)">
            <g id="team-leads-illustrations-changes-25-08--03" transform="translate(259.000000, 5086.000000)">
                <path d="M56.21,13.85 C69.62,6.31 104.51,-3.94 156.48,17.45 C208.45,38.84 251.89,58.25 281.27,94.51 C281.27,94.51 306.77,120.89 290.27,160.43 C273.96,199.51 226.27,227.9 211.94,239.01 C197.61,250.12 141.56,280.54 97.05,275.32 C52.54,270.1 22.17,210 13.83,185.47 C6.66670769,164.586767 2.3184325,142.842028 0.9,120.81 C-1.09,85.67 4.16,43.11 56.21,13.85 Z" id="Path" fill="#ECF3FF" fill-rule="nonzero"></path>
                <g id="Group" opacity="0.5" transform="translate(7.000000, 0.000000)" fill="#B2D4FE" fill-rule="nonzero">
                    <g opacity="0.7" id="Rectangle">
                        <rect x="0.54" y="0.82" width="1" height="176.12"></rect>
                        <rect x="12.86" y="0.82" width="1" height="146.31"></rect>
                        <rect x="25.17" y="0.82" width="1" height="176.12"></rect>
                        <rect x="37.49" y="0.82" width="1" height="176.12"></rect>
                        <rect x="49.8" y="0.82" width="1" height="46.03"></rect>
                        <rect x="62.12" y="0.82" width="1" height="176.12"></rect>
                        <rect x="74.43" y="0.82" width="1" height="37.04"></rect>
                        <rect x="86.75" y="0.82" width="1" height="176.12"></rect>
                        <rect x="99.06" y="0.82" width="1" height="12.9"></rect>
                        <rect x="111.38" y="0.82" width="1" height="44.67"></rect>
                        <rect x="123.69" y="0.82" width="1" height="81.51"></rect>
                        <rect x="136.01" y="0.82" width="1" height="176.12"></rect>
                        <rect x="148.32" y="0.82" width="1" height="176.12"></rect>
                        <rect x="160.64" y="0.82" width="1" height="72.72"></rect>
                    </g>
                    <g opacity="0.7" transform="translate(172.000000, 0.000000)" id="Rectangle">
                        <rect x="0.97" y="0.82" width="1" height="40.85"></rect>
                        <rect x="13.28" y="0.82" width="1" height="176.12"></rect>
                        <rect x="25.6" y="0.82" width="1" height="176.12"></rect>
                        <rect x="37.91" y="0.82" width="1" height="97.15"></rect>
                        <rect x="50.23" y="0.82" width="1" height="176.12"></rect>
                        <rect x="62.54" y="0.82" width="1" height="176.12"></rect>
                        <rect x="74.86" y="0.82" width="1" height="176.12"></rect>
                        <rect x="87.17" y="0.82" width="1" height="176.12"></rect>
                        <rect x="99.49" y="0.82" width="1" height="176.12"></rect>
                        <rect x="111.8" y="0.82" width="1" height="81.51"></rect>
                    </g>
                </g>
                <path d="M250.64,78.1799924 L28.72,78.1799924 C26.9598827,78.1773452 25.2709461,78.8746889 24.0254162,80.118343 C22.7798864,81.361997 22.08,83.0498807 22.08,84.81 L22.08,196.25 C22.08,196.25 30.54,218.91 46.3,239.25 C63.41,261.31 81.79,267.91 100.35,270.09 C144.87,275.31 201.35,227.81 216.04,217.38 C223.58,212.02 239.86,218.29 256.04,204.38 L256.04,83.61 C256.04,80.6227706 253.627184,78.196504 250.64,78.1799924 Z" id="Path" fill="#B2D4FE" fill-rule="nonzero"></path>
                <path d="M247.07,77.94 L25.16,77.94 C23.3972285,77.94 21.7068013,78.64094 20.4612719,79.8883452 C19.2157425,81.1357504 18.5173452,82.8272305 18.5199925,84.59 L18.5199925,197.28 C30.81,225.44 58.67,270.81 97.05,275.28 C141.56,280.55 197.71,250 211.94,239 C219.41,233.18 236.01,222.63 252.490009,208.3 L252.490009,83.38 C252.492655,81.9398737 251.923111,80.557677 250.906664,79.5374786 C249.890216,78.5172801 248.510126,77.9426497 247.07,77.94 Z" id="Path" fill="#FFFFFF" fill-rule="nonzero"></path>
                <path d="M18.75,197.94 C16.67,193.23 15.03,188.94 13.83,185.47 C6.66670769,164.586767 2.3184325,142.842028 0.9,120.81 C0.0694026143,109.054629 0.602956694,97.242614 2.49,85.61" id="Path" stroke="#ECF3FF" stroke-width="0.9" stroke-linecap="round"></path>
                <path d="M195.86,248.84 C177.27,259.06 148.13,272 119.86,275.18" id="Path" stroke="#ECF3FF" stroke-width="0.9" stroke-linecap="round"></path>
                <rect id="Rectangle" fill="#FAF1E1" fill-rule="nonzero" x="189.78" y="87.96" width="24.59" height="8.8"></rect>
                <rect id="Rectangle" fill="#FFE3B1" fill-rule="nonzero" x="189.78" y="87.96" width="17.21" height="8.8"></rect>
                <rect id="Rectangle" fill="#ECF3FF" fill-rule="nonzero" x="189.78" y="102.81" width="42.76" height="8.8"></rect>
                <rect id="Rectangle" fill="#B2D4FE" fill-rule="nonzero" x="189.78" y="102.81" width="26.84" height="8.8"></rect>
                <rect id="Rectangle" fill="#F7DFF5" fill-rule="nonzero" x="189.78" y="117.67" width="54.1" height="8.8"></rect>
                <rect id="Rectangle" fill="#F4C6EF" fill-rule="nonzero" x="189.78" y="117.67" width="40.63" height="8.8"></rect>
                <rect id="Rectangle" fill="#F4C6EF" fill-rule="nonzero" x="135.84" y="156.96" width="10.24" height="34.45"></rect>
                <rect id="Rectangle" fill="#FFE3B1" fill-rule="nonzero" x="154.01" y="165.85" width="10.24" height="25.56"></rect>
                <rect id="Rectangle" fill="#B2D4FE" fill-rule="nonzero" x="172.19" y="178.28" width="10.24" height="13.14"></rect>
                <line x1="134.56" y1="191.7" x2="183.23" y2="191.7" id="Path" stroke="#4D9AFD" stroke-width="0.9" stroke-linecap="round"></line>
                <path d="M202.39,149.06 C201.227739,145.067769 202.437993,140.762058 205.51,137.96 C210.78,132.78 230.31,132.14 225.93,151.61 L202.39,149.06 Z" id="Path" fill="#000000" fill-rule="nonzero"></path>
                <circle id="Oval" fill="#FFB6B2" fill-rule="nonzero" cx="212.88" cy="151.53" r="10.63"></circle>
                <circle id="Oval" fill="#FFB6B2" fill-rule="nonzero" cx="222.92" cy="152.12" r="3.05"></circle>
                <path d="M222.75,151.61 C223.045536,151.05503 223.595273,150.681059 224.22,150.61" id="Path" stroke="#FF8880" stroke-width="0.9" stroke-linecap="round"></path>
                <path d="M234.84,171.18 C231.846667,171.04 229.056667,170.956667 226.47,170.93 C224.678043,170.912374 223.188877,169.544069 223.02,167.76 C222.46,162.06 221.27,150.66 221.27,150.66 L207,158 L206.72,168.83 C206.674039,170.599467 205.384459,172.09002 203.64,172.39 C201.705486,172.67746 199.796356,173.115457 197.93,173.7 L197.93,173.7 C197.383621,176.104628 198.023549,178.625421 199.65073,180.478269 C201.277911,182.331117 203.694946,183.291246 206.15,183.06 L228.15,180.96 C230.325748,180.755375 232.311286,179.633537 233.609326,177.875457 C234.907365,176.117378 235.394964,173.889569 234.95,171.75 L234.84,171.18 Z" id="Path" fill="#FFB6B2" fill-rule="nonzero"></path>
                <path d="M202.39,149.06 C202.39,149.06 206.3,147.92 210.39,141.29 C210.39,141.29 215.39,148.89 223.27,149.09 L224.52,144.66 C224.52,144.66 219.86,138.96 210.06,139.08 C210.09,139.08 202.61,141.81 202.39,149.06 Z" id="Path" fill="#000000" fill-rule="nonzero"></path>
                <path d="M206.91,160.32 C206.91,160.32 212.51,164.32 218.49,160.8 C219.912363,159.792159 221.108004,158.497733 222,157 L222.9,166.67 C222.9,166.67 213.16,170.06 206.9,162.21 L206.91,160.32 Z" id="Path" fill="#F2A2A0" fill-rule="nonzero"></path>
                <circle id="Oval" fill="#000000" fill-rule="nonzero" cx="205.59" cy="150.78" r="1"></circle>
                <circle id="Oval" fill="#000000" fill-rule="nonzero" cx="215.64" cy="150.13" r="1"></circle>
                <line x1="210.19" y1="151.08" x2="209.27" y2="153.6" id="Path" stroke="#FF8880" stroke-width="0.9" stroke-linecap="round"></line>
                <path d="M209,157.12 C209.164541,157.256206 209.346056,157.370493 209.54,157.46 C210.871068,158.07709 212.450447,157.499923 213.07,156.17 C213.245164,155.791517 213.327444,155.376686 213.31,154.96 L209,157.12 Z" id="Path" fill="#FFFFFF" fill-rule="nonzero"></path>
                <path d="M222.53,137.75 C222.53,137.75 230.19,128.57 243.64,132.48 C256.44,136.19 252.47,148.12 262.79,151.05 C271.7,153.57 277.15,148.59 279.22,145.18 C279.352438,144.951915 279.620168,144.839434 279.875765,144.904495 C280.131362,144.969556 280.31273,145.196353 280.32,145.46 C280.83,152.25 279.51,171.86 259.67,172.16 C235.03,172.52 236.89,148.55 225.46,146.94 L222.53,137.75 Z" id="Path" fill="#000000" fill-rule="nonzero"></path>
                <path d="M200.73,149.29 C200.73,149.29 207.18,148.6 210.5,140.29" id="Path" stroke="#000000" stroke-width="0.9" stroke-linecap="round"></path>
                <path d="M271.3,147.92 C271.3,147.92 264.45,153.15 257.71,148.6" id="Path" stroke="#000000" stroke-width="0.9" stroke-linecap="round"></path>
                <path d="M141.55,209.54 C141.55,209.54 137.55,202.8 152.25,193.54 L153.57,198.54 C153.57,198.54 148.15,211.89 141.55,209.54 Z" id="Path" fill="#4AA147" fill-rule="nonzero"></path>
                <path d="M150.38,190.57 L149.53,187.86 L148.53,180.96 C148.43142,180.292628 147.907372,179.76858 147.24,179.67 L147.24,179.67 C146.896317,179.617408 146.546824,179.71775 146.283387,179.944652 C146.01995,180.171554 145.868921,180.502318 145.87,180.85 L145.87,186.71 C145.87,187.380998 145.603447,188.024513 145.12898,188.49898 C144.654513,188.973447 144.010998,189.24 143.34,189.24 L143.34,189.24 C142.174675,189.239565 141.157904,188.4492 140.87,187.32 L139.87,183.38 C139.687767,182.639054 139.230049,181.995388 138.59,181.58 L137.59,180.93 C136.734743,180.3634 136.220329,179.405914 136.22,178.38 L136.22,178.38 C136.227879,177.798305 135.823947,177.291969 135.255041,177.170408 C134.686135,177.048847 134.110542,177.345883 133.88,177.88 C133.742109,178.203473 133.631719,178.53799 133.55,178.88 C133.55,178.88 130.55,179.88 130.13,185.71 C129.71,191.54 140.19,198.62 141.76,200.19 L148.12,207.61 L154.3,197.7 L153.07,196 C151.886061,194.347097 150.977633,192.513357 150.38,190.57 L150.38,190.57 Z" id="Path" fill="#FFB6B2" fill-rule="nonzero"></path>
                <path d="M151.1,192.48 C148.95,199.48 146.19,202.76 144.97,203.93 L148.15,207.64 L154.33,197.73 L153.07,196 C152.292308,194.898621 151.632044,193.718859 151.1,192.48 Z" id="Path" fill="#F2A2A0" fill-rule="nonzero"></path>
                <path d="M267,194.83 C263.7,187.74 250,170.4 234.84,171.18 C234.84,171.18 219.59,190.18 197.9,173.72 C197.9,173.72 185.97,176.26 177.96,191.9 C169.95,207.54 169.36,211.25 169.36,211.25 L152.25,193.56 C152.25,193.56 150.49,208.95 141.55,209.56 C141.55,209.56 160.97,235.47 174.81,237.56 C176.254414,237.781109 177.731384,237.517364 179.01,236.81 C182.49,234.86 189.39,228.81 194.81,209.81 C195.2,208.47 195.35,211.53 195.35,211.53 C195.9,217.17 197.77,221.28 199.9,226.48 L201.8,245.76 C205.429366,243.702554 208.908108,241.390076 212.21,238.84 C221.79,232 247.28,215.12 267,194.83 Z" id="Path" fill="#7DCC7A" fill-rule="nonzero"></path>
                <g id="Group" opacity="0.35" transform="translate(151.000000, 176.000000)" stroke="#4AA147" stroke-linecap="round" stroke-width="0.9">
                    <line x1="2.52" y1="23.52" x2="2.91" y2="25.48" id="Path"></line>
                    <line x1="0.08" y1="33" x2="1.74" y2="33.59" id="Path"></line>
                    <line x1="11.32" y1="32.61" x2="11.61" y2="34.67" id="Path"></line>
                    <line x1="7.7" y1="45.32" x2="8.29" y2="43.07" id="Path"></line>
                    <line x1="19.14" y1="46.3" x2="20.51" y2="48.15" id="Path"></line>
                    <line x1="30.96" y1="44.34" x2="30.57" y2="46.78" id="Path"></line>
                    <line x1="27.74" y1="26.26" x2="28.91" y2="28.41" id="Path"></line>
                    <line x1="41.62" y1="22.94" x2="39.56" y2="23.62" id="Path"></line>
                    <line x1="38" y1="11.5" x2="38.98" y2="13.85" id="Path"></line>
                    <line x1="46.8" y1="9.25" x2="49.53" y2="10.04" id="Path"></line>
                    <line x1="52.08" y1="22.35" x2="51.59" y2="23.91" id="Path"></line>
                    <line x1="49.34" y1="33" x2="50.71" y2="33" id="Path"></line>
                    <line x1="55.59" y1="43.36" x2="56.86" y2="40.92" id="Path"></line>
                    <line x1="59.31" y1="53.04" x2="57.16" y2="53.92" id="Path"></line>
                    <line x1="59.8" y1="25.87" x2="60.38" y2="27.14" id="Path"></line>
                    <line x1="58.23" y1="12.09" x2="59.8" y2="11.01" id="Path"></line>
                    <line x1="65.07" y1="36.42" x2="67.22" y2="35.94" id="Path"></line>
                    <line x1="73.48" y1="22.55" x2="74.07" y2="24.11" id="Path"></line>
                    <line x1="66.83" y1="14.92" x2="68.1" y2="14.24" id="Path"></line>
                    <line x1="77.88" y1="6.32" x2="78.76" y2="7.3" id="Path"></line>
                    <line x1="86.19" y1="0.36" x2="86.19" y2="2.02" id="Path"></line>
                    <line x1="81.89" y1="16.68" x2="83.45" y2="15.8" id="Path"></line>
                    <line x1="74.95" y1="33.59" x2="75.92" y2="34.67" id="Path"></line>
                    <line x1="69.08" y1="52.26" x2="70.06" y2="50.21" id="Path"></line>
                    <line x1="86.58" y1="36.33" x2="85.6" y2="37.89" id="Path"></line>
                    <line x1="71.33" y1="40.72" x2="71.62" y2="42" id="Path"></line>
                    <line x1="87.55" y1="21.67" x2="86.77" y2="23.33" id="Path"></line>
                    <line x1="98.31" y1="13.16" x2="100.26" y2="11.99" id="Path"></line>
                    <line x1="106.32" y1="18.54" x2="105.83" y2="20.2" id="Path"></line>
                    <line x1="90.49" y1="11.21" x2="91.27" y2="9.06" id="Path"></line>
                </g>
                <path d="M198.83,174.41 C198.52,174.18 198.21,173.96 197.9,173.72 C197.9,173.72 185.97,176.26 177.96,191.9 C171.25,204.98 169.75,209.71 169.43,210.9 L171.43,212.61 C171.43,212.61 180.59,181.26 198.83,174.41 Z" id="Path" fill="#000000" fill-rule="nonzero" opacity="0.1" style="mix-blend-mode: multiply;"></path>
                <path d="M267,194.83 C263.7,187.74 250,170.4 234.84,171.18 C234.84,171.18 234.53,171.56 233.94,172.18 C241.39,172.75 252.94,176.09 265.65,196.18 L267,194.83 Z" id="Path" fill="#000000" fill-rule="nonzero" opacity="0.1" style="mix-blend-mode: multiply;"></path>
                <polygon id="Path" fill="#000000" fill-rule="nonzero" opacity="0.1" style="mix-blend-mode: multiply;" points="247.87 212.33 245.64 197.01 252.97 208 250.48 210.16"></polygon>
                <path d="M234.69,171.52 C234.69,171.52 219.94,190 198.26,174" id="Path" stroke="#4AA147" stroke-width="0.9" stroke-linecap="round"></path>
                <line x1="169.58" y1="211.11" x2="173.17" y2="214.67" id="Path" stroke="#4AA147" stroke-width="0.9" stroke-linecap="round"></line>
                <path d="M136.47,181.78 C136.47,181.78 136.91,187.26 138.03,189.97" id="Path" stroke="#FF8880" stroke-width="0.68" stroke-linecap="round"></path>
                <path d="M133.63,180.07 C133.632193,183.371605 134.210884,186.647469 135.34,189.75" id="Path" stroke="#FF8880" stroke-width="0.68" stroke-linecap="round"></path>
                <path d="M131.43,183.54 C131.453201,185.357476 131.837305,187.152227 132.56,188.82" id="Path" stroke="#FF8880" stroke-width="0.68" stroke-linecap="round"></path>
                <path d="M179,233.08 C177.585906,234.281051 175.673664,234.714293 173.88,234.24 C162.29,230.99 148.18,213.33 144.62,208.67 C143.694363,209.172761 142.671003,209.469535 141.62,209.54 C141.62,209.54 160.72,235.03 174.53,237.46 C176.140844,237.754521 177.803965,237.474975 179.23,236.67 C183.01,234.5 189.97,229.15 195.46,207.2 L194.73,200.93 C188.75,222 182.5,230.15 179,233.08 Z" id="Path" fill="#000000" fill-rule="nonzero" opacity="0.1" style="mix-blend-mode: multiply;"></path>
                <path d="M152.18,193.92 C152.18,193.92 151.37,208.47 141.95,209.38" id="Path" stroke="#4AA147" stroke-width="0.9" stroke-linecap="round"></path>
                <line x1="245.59" y1="196.59" x2="252.38" y2="207.12" id="Path" stroke="#4AA147" stroke-width="0.9" stroke-linecap="round"></line>
                <path d="M195,201.09 L195.16,211.09 C195.17661,214.805303 196.107311,218.459422 197.87,221.73 C199.661594,225.008691 200.728943,228.633587 201,232.36" id="Path" stroke="#4AA147" stroke-width="0.9" stroke-linecap="round"></path>
                <path d="M39.9,235 L114.5,235 C115.107513,235 115.6,234.507513 115.6,233.9 L115.6,203.26 C115.6,202.652487 115.107513,202.16 114.5,202.16 L20.66,202.16 C26.0401352,213.680115 32.4812715,224.674237 39.9,235 L39.9,235 Z" id="Path" fill="#B2D4FE" fill-rule="nonzero"></path>
                <path d="M97.05,275.35 C103.210234,276.03678 109.422387,276.1272 115.6,275.62 L115.6,243.53 C115.6,242.922487 115.107513,242.43 114.5,242.43 L45.63,242.43 C59.31,259.11 76.7,273 97.05,275.35 Z" id="Path" fill="#ECF3FF" fill-rule="nonzero"></path>
                <line x1="52.93" y1="213.69" x2="108.32" y2="213.69" id="Path" stroke="#FFFFFF" stroke-width="0.9" stroke-linecap="round"></line>
                <line x1="97.27" y1="223.23" x2="108.32" y2="223.23" id="Path" stroke="#FFFFFF" stroke-width="0.9" stroke-linecap="round"></line>
                <line x1="67.51" y1="254.16" x2="108.32" y2="254.16" id="Path" stroke="#FFFFFF" stroke-width="0.9" stroke-linecap="round"></line>
                <line x1="83.74" y1="263.7" x2="108.32" y2="263.7" id="Path" stroke="#FFFFFF" stroke-width="0.9" stroke-linecap="round"></line>
                <line x1="44.69" y1="223.23" x2="91.51" y2="223.23" id="Path" stroke="#FFFFFF" stroke-width="0.9" stroke-linecap="round"></line>
                <circle id="Oval" fill="#FFFFFF" fill-rule="nonzero" cx="45.67" cy="213.58" r="2.35"></circle>
                <path d="M97.35,140.31 C95.7104904,145.763109 90.6942329,149.499916 85,149.51 C82.3480214,149.511438 79.7614872,148.686543 77.6,147.15 C76.29,149.51 71.08,159.55 69.15,162.15 C76.9464799,166.927029 86.4933708,167.895788 95.090533,164.782284 C103.687695,161.668781 110.400364,154.811543 113.33,146.15 C111,144.91 99.22,141.1 97.35,140.31 Z" id="Path" fill="#FFE3B1" fill-rule="nonzero"></path>
                <path d="M70.41,104.76 C60.8228706,108.276739 53.6705482,116.411565 51.41,126.37 C51.3393877,126.703129 51.405516,127.050661 51.5935397,127.334576 C51.7815634,127.618492 52.0757295,127.815005 52.41,127.88 L78.66,132.63 C79.106943,132.735868 79.5762205,132.592162 79.8872446,132.254182 C80.1982686,131.916203 80.3025657,131.436625 80.16,131 L72,105.58 C71.8990421,105.259618 71.6743335,104.992812 71.3757852,104.838843 C71.077237,104.684875 70.7295677,104.656493 70.41,104.76 Z" id="Path" fill="#F4C6EF" fill-rule="nonzero"></path>
                <path d="M84.91,136.58 L112.3,124.1 C106.146416,110.616206 91.1001206,103.610434 76.82,107.58 C76.5051154,107.671978 76.2410706,107.887865 76.0883634,108.178198 C75.9356562,108.46853 75.9073751,108.808423 76.01,109.12 L84.91,136.58 Z" id="Path" fill="#B2D4FE" fill-rule="nonzero"></path>
                <path d="M84.91,136.58 L113.2,146.9 C115.893125,139.474735 115.570038,131.289877 112.3,124.1 L112.3,124.1 L84.91,136.58 Z" id="Path" fill="#ECF3FF" fill-rule="nonzero"></path>
                <path d="M56.08,131.36 C55.8730496,131.322187 55.6595648,131.368481 55.4868656,131.488619 C55.3141664,131.608758 55.1965188,131.792817 55.16,132 C53.2926547,144.133369 58.9784237,156.185459 69.53,162.46 L69.53,162.46 L84.91,136.58 L56.08,131.36 Z" id="Path" fill="#ECF3FF" fill-rule="nonzero"></path>
                <circle id="Oval" fill="#B2D4FE" fill-rule="nonzero" cx="103.87" cy="94.75" r="2.35"></circle>
                <circle id="Oval" fill="#F4C6EF" fill-rule="nonzero" cx="62.82" cy="94.75" r="2.35"></circle>
                <circle id="Oval" fill="#FFC74F" fill-rule="nonzero" cx="69.57" cy="182.86" r="2.35"></circle>
                <line x1="101.53" y1="99.83" x2="95.66" y2="112.93" id="Path" stroke="#4D9AFD" stroke-width="0.9" stroke-linecap="round"></line>
                <line x1="71.62" y1="178.17" x2="78.66" y2="162.33" id="Path" stroke="#F58220" stroke-width="0.9" stroke-linecap="round"></line>
                <circle id="Oval" stroke="#B2D4FE" stroke-width="0.9" cx="139.06" cy="244.23" r="5.93"></circle>
                <path d="M163.68,55.18 L176.27,48 C176.499453,47.8717941 176.780535,47.8788092 177.003306,48.0183016 C177.226078,48.1577941 177.355135,48.4075954 177.34,48.67 L176.45,61.76 C176.431441,61.9902499 176.302031,62.1970783 176.103081,62.314459 C175.904131,62.4318397 175.660513,62.4450974 175.45,62.35 L163.74,56.41 C163.513584,56.2942901 163.36633,56.0663363 163.353941,55.8123687 C163.341553,55.5584011 163.465921,55.3171975 163.68,55.18 Z" id="Path" stroke="#B2D4FE" stroke-width="0.9" fill="#ECF3FF" fill-rule="nonzero"></path>
                <path d="M158.21,128.76 C158.21,128.76 166.42,132.18 170.33,114.3 L164.33,113.03 L157,124.66 L158.21,128.76 Z" id="Path" fill="#F58220" fill-rule="nonzero"></path>
                <path d="M40.83,117.62 C40.83,117.62 42.88,121.21 50.36,116.23 C57.84,111.25 57.54,110.23 57.54,110.23 L53.44,106 L40.32,113 L40.83,117.62 Z" id="Path" fill="#F58220" fill-rule="nonzero"></path>
                <path d="M169.55,114.49 L173.35,117 C174.233289,117.585345 175.301605,117.823936 176.35,117.67 L181.89,116.84 C182.27905,116.762488 182.677134,116.922276 182.904625,117.247263 C183.132115,117.572249 183.145994,118.00098 182.94,118.34 L181.38,121.26 C181.077921,121.818449 181.202441,122.511606 181.68,122.93 L186.5,127.22 C187.62,128.22 188.13,130.14 186.65,130.76 C186.54,130.76 186.79,131.48 186.39,132.01 C185.63,133.01 184.93,132.49 184.67,132.81 C184.67,132.81 184.58,132.87 184.57,132.92 C184.382558,133.453165 183.971938,133.878086 183.445501,134.083666 C182.919064,134.289245 182.329151,134.255043 181.83,133.99 C181.83,133.99 181.91,134.56 181.55,134.93 C180.8,135.73 179.34,135.93 176.67,134.72 C167.67,130.81 159.27,123.72 157.67,122.21 C157.73,122.21 163.1,114.2 169.55,114.49 Z" id="Path" fill="#FFB6B2" fill-rule="nonzero"></path>
                <line x1="181.04" y1="126.76" x2="186.26" y2="130.52" id="Path" stroke="#FF8880" stroke-width="0.68" stroke-linecap="round"></line>
                <line x1="178.89" y1="128.86" x2="184.46" y2="132.57" id="Path" stroke="#FF8880" stroke-width="0.68" stroke-linecap="round"></line>
                <line x1="176.34" y1="131.3" x2="181.48" y2="133.79" id="Path" stroke="#FF8880" stroke-width="0.68" stroke-linecap="round"></line>
                <path d="M164.35,127.5 C164.69,125.85 166.27,119.2 170.55,115.15 L169.55,114.49 C168.371982,114.452031 167.198454,114.652721 166.1,115.08 C163.45,116.62 160.24,119.23 158.96,123.3 C160.17,124.33 162,125.83 164.35,127.5 Z" id="Path" fill="#F2A2A0" fill-rule="nonzero"></path>
                <path d="M171.41,122.6 C172.804052,123.667473 174.64073,123.964196 176.3,123.39 C177.819025,122.742594 179.387348,122.21759 180.99,121.82" id="Path" stroke="#FF8880" stroke-width="0.68" stroke-linecap="round"></path>
                <path d="M56.15,109.67 L61.15,117.44 C61.4582859,117.915621 61.449378,118.530196 61.1274369,118.996682 C60.8054958,119.463168 60.2340506,119.689513 59.68,119.57 L56.1,118.81 C55.2108685,118.630705 54.3052862,119.031405 53.84,119.81 L53.84,119.81 C53.5267387,120.306991 53.432655,120.911298 53.58,121.48 L55.2,127.65 C55.3570341,128.238324 55.1214886,128.86128 54.6144881,129.198526 C54.1074876,129.535772 53.4419037,129.512227 52.96,129.14 L48.44,125.72 C46.9473069,124.592093 46.0228965,122.867501 45.91,121 L45.23,111.29 C45.23,111.29 51.09,108.38 56.15,109.67 Z" id="Path" fill="#FFB6B2" fill-rule="nonzero"></path>
                <path d="M56.71,110.53 C53.41,109.17 48.04,110.82 45.27,111.86 L45.72,118.3 C46.145933,116.77949 47.0123109,115.419033 48.21,114.39 C50.93,112.21 56.65,110.55 56.71,110.53 L56.71,110.53 Z" id="Path" fill="#F2A2A0" fill-rule="nonzero"></path>
                <path d="M170.33,114.3 L151.16,95.8 C145.760257,90.5996335 141.550484,84.2917975 138.82,77.31 L135.59,69.05 C131.461332,58.5002373 121.906623,51.0428096 110.67,49.6 L93.9,47.44 L80.72,46.68 C71.8338986,46.1636923 63.0659937,48.9167789 56.07,54.42 L33.71,71.42 C29.1699317,74.8559564 27.4117448,80.8573425 29.38,86.2 L40.83,117.67 C42.49,109.75 57.54,110.24 57.54,110.24 L50.62,83 L57.35,78 L114,78 L121.82,90.73 C126.748961,98.7529863 132.811634,106.021457 139.82,112.31 L158.19,128.82 C158.19,128.82 159.09,118.6 170.33,114.3 Z" id="Path" fill="#FFC74F" fill-rule="nonzero"></path>
                <path d="M167.94,115 L170.28,114.26 L151.16,95.8 C145.760257,90.5996335 141.550484,84.2917975 138.82,77.31 L135.59,69.05 C131.461332,58.5002373 121.906623,51.0428096 110.67,49.6 L105,48.87 L104.89,50.34 C104.89,50.34 107.03,50.91 108.89,51.27 C118.73,53.2 128.5,58.88 132.27,68.17 L133.89,72.17 C137.71,81.61 142.28,90.38 149.63,97.42 L167.94,115 Z" id="Path" fill="#000000" fill-rule="nonzero" opacity="0.1" style="mix-blend-mode: multiply;"></path>
                <path d="M61.56,75.05 C61.56,75.05 99.18,78.05 112.38,75.3 L113.62,78 L57.43,78 L61.56,75.05 Z" id="Path" fill="#000000" fill-rule="nonzero" opacity="0.1" style="mix-blend-mode: multiply;"></path>
                <path d="M55.05,110.14 C55.05,110.14 43.86,79.75 49,77.35 C49.48,77.13 51.91,77.86 54.33,76.57 C61.21,72.9 64,70.72 67.46,70.9 L50.53,82.9 L57.48,109.97 L55.05,110.14 Z" id="Path" fill="#000000" fill-rule="nonzero" opacity="0.1" style="mix-blend-mode: multiply;"></path>
                <line x1="51.61" y1="87.13" x2="49.33" y2="77.67" id="Path" stroke="#F58220" stroke-width="0.9" stroke-linecap="round"></line>
                <line x1="114.21" y1="78.26" x2="111.89" y2="74.52" id="Path" stroke="#F58220" stroke-width="0.9" stroke-linecap="round"></line>
                <path d="M110,29.2 C111.125342,26.5275772 112.087117,23.7891891 112.88,21 C113.66,17.81 103.36,20.15 103.36,20.15 C103.36,20.15 107.1,18.21 106.23,16.85 C105.36,15.49 98.51,15.76 96.23,17.54 C96.23,17.54 99.74,14.36 97.99,14.01 C96.24,13.66 88.59,17.39 87.45,22.01 C87.45,22.01 83.64,23.32 84.02,26.52 C84.4,29.72 89.02,37.39 88.73,40.19 L91.73,43.04 L102.38,34.56 L110,29.2 Z" id="Path" fill="#000000" fill-rule="nonzero"></path>
                <path d="M102.09,27.7 C100.015187,26.9871884 97.8934283,26.4191584 95.74,26 C95.4114866,25.9136535 95.0616643,25.974336 94.7814251,26.1662806 C94.5011859,26.3582253 94.3181958,26.6624828 94.28,27 L93.57,32.35 C93.529411,32.6753476 93.2528697,32.9195326 92.925,32.9195326 C92.5971303,32.9195326 92.320589,32.6753476 92.28,32.35 C92.2789765,31.660505 92.1324503,30.9789882 91.85,30.35 C91.47,29.95 90.15,29.78 89.71,30.46 C89.27,31.14 89.41,34.16 90.39,34.55 C91.37,34.94 91.64,35.5 91.57,36.04 C91.5,36.58 92.06,40.46 88.78,40.26 C88.78,40.26 88.17,47.97 87.78,49.91 C87.39,51.85 89.68,57.91 96.99,58.62 C104.3,59.33 104.91,52.19 104.91,52.19 L105.17,43.45 C107.388296,43.5242995 109.261002,41.8157878 109.39,39.6 L110,29.2 C110,29.2 107.94,30.07 102.09,27.7 Z" id="Path" fill="#FFB6B2" fill-rule="nonzero"></path>
                <circle id="Oval" fill="#000000" fill-rule="nonzero" cx="106.48" cy="32.42" r="1"></circle>
                <circle id="Oval" fill="#000000" fill-rule="nonzero" cx="98.17" cy="31.9" r="1"></circle>
                <line x1="103.45" y1="32.08" x2="103.68" y2="35.4" id="Path" stroke="#FF8880" stroke-width="0.9" stroke-linecap="round"></line>
                <path d="M105.3,38.27 C104.682421,38.9663103 103.729159,39.2619022 102.825975,39.0371565 C101.922791,38.8124107 101.219228,38.1045389 101,37.2 L105.3,38.27 Z" id="Path" fill="#FFFFFF" fill-rule="nonzero"></path>
                <path d="M87.57,17.83 C86.6327786,19.3284054 86.7285646,21.2521086 87.81,22.65" id="Path" stroke="#000000" stroke-width="0.9" stroke-linecap="round"></path>
                <path d="M85.15,19.12 C85.4153542,20.6181951 86.3308354,21.9218403 87.65,22.68" id="Path" stroke="#000000" stroke-width="0.9" stroke-linecap="round"></path>
                <line x1="102.68" y1="41.46" x2="103.53" y2="41.54" id="Path" stroke="#F2A2A0" stroke-width="0.9" stroke-linecap="round"></line>
                <path d="M104.92,43.35 L98.62,42.74 C97.5785601,42.6322092 96.6187189,42.1272181 95.94,41.33 L96.24,42.78 C96.4776539,43.9081482 97.3273374,44.8080402 98.44,45.11 L105,46.87 L105.2,43.35 L104.92,43.35 Z" id="Path" fill="#F2A2A0" fill-rule="nonzero"></path>
                <line x1="50.78" y1="82.86" x2="67.37" y2="71.29" id="Path" stroke="#F58220" stroke-width="0.9" stroke-linecap="round"></line>
                <path d="M158.44,128.39 C158.53,127.39 159.44,118.6 169.97,114.53" id="Path" stroke="#F58220" stroke-width="0.9" stroke-linecap="round"></path>
                <path d="M41.09,117.25 C42.62,109.94 55.15,110.16 57.09,110.18" id="Path" stroke="#F58220" stroke-width="0.9" stroke-linecap="round"></path>
                <path d="M87.79,47.26 C87.62,48.48 87.55,49.26 87.45,49.79 C87.05,51.73 89.27,58.1 96.98,58.79 C104.69,59.48 105.15,52.31 105.15,52.31 L105.33,49.09" id="Path" stroke="#FFFFFF" stroke-width="0.9" stroke-linecap="round"></path>
            </g>
        </g>
    </g>
</svg>