<?xml version="1.0" encoding="UTF-8"?>
<svg width="296px" height="272px" viewBox="0 0 296 272" version="1.1" xmlns="http://www.w3.org/2000/svg" xmlns:xlink="http://www.w3.org/1999/xlink">
    <title>team leads illustrations-changes 25-08 -02</title>
    <g id="Page-1" stroke="none" stroke-width="1" fill="none" fill-rule="evenodd">
        <g id="MC-1263-DWP-Landing-Page-Web" transform="translate(-258.000000, -5717.000000)">
            <g id="team-leads-illustrations-changes-25-08--02" transform="translate(258.000000, 5717.000000)">
                <path d="M56.32,9.43 C69.73,1.9 104.62,-8.35 156.59,13.03 C205.9,33.32 247.52,51.83 276.75,84.64 C276.92,84.84 276.41,85.7 276.59,85.9 C277.99,87.49 279.59,89.22 280.89,90.9 C280.89,90.9 286.06,96.24 290.27,107.03 C290.39,107.34 291.65,107.63 291.77,107.94 C296.06,119.46 298.38,136.02 290.38,156.04 C274.46,195.83 226.72,224.17 212.05,234.62 C197.38,245.07 141.67,276.15 97.16,270.92 C52.65,265.69 22.28,205.6 13.94,181.07 C6.77231945,160.184061 2.42066443,138.435875 1,116.4 C-1,81.25 4.27,38.69 56.32,9.43 Z" id="Path" fill="#ECF3FF" fill-rule="nonzero"></path>
                <path d="M91.75,0.4 C74.99,1.27 62.99,5.68 56.32,9.4 C4.27,38.69 -1,81.25 1,116.4 C2.41919523,138.428667 6.76746204,160.170001 13.93,181.05 C18.9385609,195.017961 25.489034,208.383878 33.46,220.9 L182.56,111.11 C182.56,111.11 185.5,97.92 181.69,94.4 L91.75,0.4 Z" id="Path" fill="#B2D4FE" fill-rule="nonzero"></path>
                <path d="M197.79,42.62 L18.23,42.62 C17.279719,43.9077507 16.3952532,45.2427933 15.58,46.62 C1.24,70.73 -0.24,97.25 1,120.63 C2.40807549,143.875095 6.75604033,166.848074 13.94,189 C15.33,193.32 17.34,198.68 19.94,204.65 L208.07,204.65 L208.07,53.5 C208.07,47.49 203.47,42.62 197.79,42.62 Z" id="Path" fill="#FFFFFF" fill-rule="nonzero"></path>
                <path d="M70.07,179.92 C70.07,179.92 60.88,172.49 71.07,153.53 L81.43,148.65 C81.43,148.65 88.25,168.78 70.07,179.92 Z" id="Path" fill="#F58220" fill-rule="nonzero"></path>
                <path d="M79.21,145.42 L69.09,127.77 C68.7923244,127.238988 68.1721227,126.977862 67.5842752,127.136038 C66.9964277,127.294213 66.5910089,127.83131 66.6,128.44 L66.6,133.35 C66.6,134.349635 65.7896354,135.16 64.79,135.16 L40.21,135.16 C40.21,135.16 46.21,142.78 59.56,150.55 L83.56,187.35 L99.68,169.17 L79.21,145.42 Z" id="Path" fill="#FFB6B2" fill-rule="nonzero"></path>
                <path d="M69.06,165.08 L83.61,187.35 L98.53,170.53 L97.53,166.6 L79.21,145.42 C77.2,158 71.27,163.44 69.06,165.08 Z" id="Path" fill="#F2A2A0" fill-rule="nonzero"></path>
                <path d="M48.05,136.92 C50.0500282,138.349394 52.215793,139.531331 54.5,140.44" id="Path" stroke="#FF8880" stroke-width="0.9" stroke-linecap="round"></path>
                <line x1="56.52" y1="136.7" x2="59.38" y2="138.02" id="Path" stroke="#FF8880" stroke-width="0.9" stroke-linecap="round"></line>
                <path d="M265.93,191.45 L263.32,175.33 C261.825343,165.589785 256.993214,156.671378 249.65,150.1 C242.908847,144.140635 234.402546,140.551271 225.43,139.88 C224.88,139.88 220.99,139.62 220.43,139.6 L186.56,138.48 L168.19,140.48 C152.773491,142.291103 139.564831,152.349917 133.72,166.73 L120.5,192 L81.61,148.11 C81.61,148.11 83.36,171.32 70.07,179.92 C70.07,179.92 102.91,232.7 127.54,229.57 C152.17,226.44 160,185 160,185 L167.43,239.35 L204.77,239.35 C207.77,237.52 210.23,235.9 212.06,234.6 C222.4,227.22 245.45,214.4 265.93,191.45 Z" id="Path" fill="#FFC74F" fill-rule="nonzero"></path>
                <path d="M46.55,239 C60.11,255.25 77.21,268.61 97.16,270.95 C136.54,275.57 184.66,251.79 205.4,239 L46.55,239 Z" id="Path" fill="#FFE3B1" fill-rule="nonzero"></path>
                <path d="M182.51,101 C181.446192,96.6395885 180.65136,92.217921 180.13,87.76 C179.74,82.76 194.79,88.83 194.79,88.83 C194.79,88.83 189.6,84.96 191.26,83.1 C192.92,81.24 203.26,83.37 206.19,86.62 C206.19,86.62 201.65,80.92 204.39,80.82 C207.13,80.72 217.82,88.28 218.39,95.62 C218.39,95.62 223.85,98.55 222.49,103.31 C221.13,108.07 212.17,118.58 212,122.92 L206.68,126.48 L192.57,111 L182.51,101 Z" id="Path" fill="#000000" fill-rule="nonzero"></path>
                <path d="M194.84,100.69 C198.44,99.87 202.25,99.92 204.9,99.69 C205.418768,99.6283928 205.938562,99.7964898 206.323022,100.150193 C206.707483,100.503897 206.918238,101.007905 206.9,101.53 L206.66,109.82 C206.611769,110.177266 206.757801,110.533123 207.043087,110.753525 C207.328372,110.973927 207.70957,111.025389 208.043087,110.888525 C208.376603,110.751662 208.611769,110.447266 208.66,110.09 C208.9,109.09 209.35,107.49 209.81,107.09 C210.49,106.57 212.54,106.64 213.03,107.78 C213.52,108.92 212.57,113.48 211.03,113.78 C209.49,114.08 208.9,114.92 208.87,115.78 C208.84,116.64 207.02,122.37 212.05,122.89 C212.05,122.89 210.61,137.67 210.7,140.71 C210.79,143.75 206.01,152.9 194.75,152.08 C183.49,151.26 184.6,140.33 184.6,140.33 L186.36,123.66 C182.975987,123.222596 180.560412,120.163164 180.92,116.77 L182.51,101 C182.51,101 185.36,102.85 194.84,100.69 Z" id="Path" fill="#FFB6B2" fill-rule="nonzero"></path>
                <circle id="Oval" fill="#000000" fill-rule="nonzero" cx="184.26" cy="106.78" r="1"></circle>
                <circle id="Oval" fill="#000000" fill-rule="nonzero" cx="197.07" cy="107.15" r="1"></circle>
                <line x1="189.34" y1="107.01" x2="188.17" y2="111.99" id="Path" stroke="#FF8880" stroke-width="0.9" stroke-linecap="round"></line>
                <path d="M186.68,115.63 C187.708573,116.654363 189.226876,117.011142 190.60403,116.552091 C191.981185,116.093039 192.981759,114.896634 193.19,113.46 L186.68,115.63 Z" id="Path" fill="#FFFFFF" fill-rule="nonzero"></path>
                <path d="M219.33,89.31 C220.376511,91.8183754 219.754542,94.7129253 217.77,96.57" id="Path" stroke="#000000" stroke-width="0.9" stroke-linecap="round"></path>
                <path d="M222.67,91.87 C221.903186,94.0817419 220.191579,95.83733 218,96.66" id="Path" stroke="#000000" stroke-width="0.9" stroke-linecap="round"></path>
                <line x1="190.52" y1="121.45" x2="189.22" y2="121.35" id="Path" stroke="#F2A2A0" stroke-width="0.9" stroke-linecap="round"></line>
                <path d="M186.67,123.75 L196.37,124.39 C197.977436,124.485761 199.560095,123.959401 200.79,122.92 L200,125 C199.360116,126.65659 197.846234,127.815173 196.08,128 L185.7,129.06 L186.27,123.65 C186.400725,123.693015 186.534413,123.726437 186.67,123.75 L186.67,123.75 Z" id="Path" fill="#F2A2A0" fill-rule="nonzero"></path>
                <rect id="Rectangle" fill="#ECF3FF" fill-rule="nonzero" x="27.52" y="104.47" width="39.29" height="31.67" rx="2.47"></rect>
                <path d="M29.95,104.47 L31.47,104.47 L31.47,136.14 L29.95,136.14 C28.6079481,136.14 27.52,135.052052 27.52,133.71 L27.52,106.9 C27.52,105.557948 28.6079481,104.47 29.95,104.47 Z" id="Path" fill="#B2D4FE" fill-rule="nonzero"></path>
                <circle id="Oval" fill="#FFFFFF" fill-rule="nonzero" cx="38.52" cy="112.14" r="2.27"></circle>
                <line x1="45.05" y1="112.14" x2="60.88" y2="112.14" id="Path" stroke="#B2D4FE" stroke-width="1.8" stroke-linecap="round"></line>
                <circle id="Oval" fill="#FFFFFF" fill-rule="nonzero" cx="38.52" cy="120.42" r="2.27"></circle>
                <line x1="45.05" y1="120.42" x2="60.88" y2="120.42" id="Path" stroke="#B2D4FE" stroke-width="1.8" stroke-linecap="round"></line>
                <circle id="Oval" fill="#FFFFFF" fill-rule="nonzero" cx="38.52" cy="128.71" r="2.27"></circle>
                <line x1="45.05" y1="128.71" x2="50.83" y2="128.71" id="Path" stroke="#B2D4FE" stroke-width="1.8" stroke-linecap="round"></line>
                <rect id="Rectangle" fill="#FAF1E1" fill-rule="nonzero" x="79.71" y="104.47" width="39.29" height="31.67" rx="2.47"></rect>
                <path d="M82.14,104.47 L83.66,104.47 L83.66,136.14 L82.14,136.14 C80.7979481,136.14 79.71,135.052052 79.71,133.71 L79.71,106.9 C79.71,105.557948 80.7979481,104.47 82.14,104.47 Z" id="Path" fill="#FFC74F" fill-rule="nonzero"></path>
                <circle id="Oval" fill="#FFFFFF" fill-rule="nonzero" cx="90.72" cy="112.14" r="2.27"></circle>
                <line x1="97.24" y1="112.14" x2="113.07" y2="112.14" id="Path" stroke="#FFFFFF" stroke-width="1.8" stroke-linecap="round"></line>
                <circle id="Oval" fill="#FFFFFF" fill-rule="nonzero" cx="90.72" cy="120.42" r="2.27"></circle>
                <line x1="97.24" y1="120.42" x2="113.07" y2="120.42" id="Path" stroke="#FFFFFF" stroke-width="1.8" stroke-linecap="round"></line>
                <circle id="Oval" fill="#FFFFFF" fill-rule="nonzero" cx="90.72" cy="128.71" r="2.27"></circle>
                <line x1="97.24" y1="128.71" x2="103.02" y2="128.71" id="Path" stroke="#FFFFFF" stroke-width="1.8" stroke-linecap="round"></line>
                <rect id="Rectangle" fill="#F7DFF5" fill-rule="nonzero" x="79.71" y="61.08" width="39.29" height="31.67" rx="2.47"></rect>
                <path d="M82.14,61.08 L83.66,61.08 L83.66,92.75 L82.14,92.75 C80.7979481,92.75 79.71,91.6620519 79.71,90.32 L79.71,63.5 C79.7155068,62.161855 80.8018436,61.08 82.14,61.08 Z" id="Path" fill="#F4C6EF" fill-rule="nonzero"></path>
                <circle id="Oval" fill="#FFFFFF" fill-rule="nonzero" cx="90.72" cy="68.75" r="2.27"></circle>
                <line x1="97.24" y1="68.75" x2="113.07" y2="68.75" id="Path" stroke="#FFFFFF" stroke-width="1.8" stroke-linecap="round"></line>
                <circle id="Oval" fill="#FFFFFF" fill-rule="nonzero" cx="90.72" cy="77.03" r="2.27"></circle>
                <line x1="97.24" y1="77.03" x2="105.94" y2="77.03" id="Path" stroke="#FFFFFF" stroke-width="1.8" stroke-linecap="round"></line>
                <rect id="Rectangle" fill="#ECF3FF" fill-rule="nonzero" x="131.9" y="104.47" width="39.29" height="31.67" rx="2.47"></rect>
                <path d="M134.33,104.47 L135.85,104.47 L135.85,136.14 L134.33,136.14 C132.987948,136.14 131.9,135.052052 131.9,133.71 L131.9,106.9 C131.9,105.557948 132.987948,104.47 134.33,104.47 Z" id="Path" fill="#B2D4FE" fill-rule="nonzero"></path>
                <rect id="Rectangle" fill="#ECF3FF" fill-rule="nonzero" x="131.9" y="61.08" width="39.29" height="31.67" rx="2.47"></rect>
                <path d="M134.33,61.08 L135.85,61.08 L135.85,92.75 L134.33,92.75 C132.987948,92.75 131.9,91.6620519 131.9,90.32 L131.9,63.5 C131.905507,62.161855 132.991844,61.08 134.33,61.08 Z" id="Path" fill="#B2D4FE" fill-rule="nonzero"></path>
                <path d="M134.63,222 C130.476479,224.840781 125.207694,225.503568 120.48,223.78 C99.92,216.4 79.32,186 73.59,177 C72.5456137,178.142102 71.3632004,179.14984 70.07,180 C70.07,180 102.91,232.78 127.54,229.65 C152.17,226.52 160,185 160,185 L159.61,176.79 C151.87,205.44 141.54,217.17 134.63,222 Z" id="Path" fill="#000000" fill-rule="nonzero" opacity="0.1" style="mix-blend-mode: multiply;"></path>
                <path d="M81.55,226.55 L80.47,226.55 C80.4896033,225.671883 80.4528612,224.793413 80.36,223.92 C80.3088007,223.45683 79.9159832,223.107179 79.45,223.109983 L59.84,223.109983 C59.3725803,223.10815 58.9815451,223.464427 58.94,223.93 C58.68,226.42 58.4,233.93 63.85,237.87 C64.8232084,238.568832 65.9918807,238.943227 67.19,238.94 L72.13,238.94 C73.2874871,238.950163 74.4195848,238.60075 75.37,237.94 C76.8340637,236.89263 78.0187113,235.501956 78.82,233.89 L81.66,233.89 C82.7648735,233.886856 83.8095343,233.38611 84.5039958,232.526762 C85.1984574,231.667414 85.4688075,230.540927 85.24,229.46 C84.8525023,227.739705 83.3132307,226.525808 81.55,226.55 L81.55,226.55 Z M81.66,232.19 L79.53,232.19 C79.9686345,230.894969 80.2506414,229.552079 80.37,228.19 L81.66,228.19 C82.7645695,228.19 83.66,229.085431 83.66,230.19 C83.66,231.294569 82.7645695,232.19 81.66,232.19 L81.66,232.19 Z" id="Shape" fill="#A8AAAD" fill-rule="nonzero"></path>
                <path d="M69.28,220.73 L70.89,217.32 C71.2400904,216.61437 71.2400904,215.78563 70.89,215.08 L69.89,213.23 C69.5247668,212.510355 69.5247668,211.659645 69.89,210.94 L70.89,208.94" id="Path" stroke="#B2D4FE" stroke-width="0.68" stroke-linecap="round"></path>
                <path d="M76.09,236.63 C68.2230046,236.62742 61.5343616,230.885804 60.34,223.109993 L59.84,223.109993 C59.3725803,223.10815 58.9815451,223.464427 58.94,223.93 C58.68,226.42 58.4,233.93 63.85,237.87 C64.8232084,238.568832 65.9918807,238.943227 67.19,238.94 L72.13,238.94 C73.2874871,238.950163 74.4195848,238.60075 75.37,237.94 C75.9156962,237.547214 76.4214613,237.101739 76.88,236.609993 C76.62,236.6 76.36,236.63 76.09,236.63 Z" id="Path" fill="#000000" fill-rule="nonzero" opacity="0.1" style="mix-blend-mode: multiply;"></path>
                <path d="M81.5,148.19 C81.5,148.19 83.63,170.94 70.34,179.54" id="Path" stroke="#F58220" stroke-width="0.9" stroke-linecap="round"></path>
                <line x1="148.77" y1="135.99" x2="170.99" y2="119.63" id="Path" stroke="#B2D4FE" stroke-width="0.68" stroke-linecap="round"></line>
                <line x1="114.88" y1="160.95" x2="148.77" y2="135.99" id="Path" stroke="#B2D4FE" stroke-width="0.68" stroke-linecap="round"></line>
                <line x1="33.46" y1="220.9" x2="73.07" y2="191.73" id="Path" stroke="#B2D4FE" stroke-width="0.68" stroke-linecap="round"></line>
                <path d="M15.57,46.63 C1.36,69.4 -0.24,94.36 1,116.4 C2.41919523,138.428667 6.76746204,160.170001 13.93,181.05" id="Path" stroke="#ECF3FF" stroke-width="0.9" stroke-linecap="round"></path>
                <line x1="149.91" y1="61.19" x2="91.75" y2="0.4" id="Path" stroke="#B2D4FE" stroke-width="0.68" stroke-linecap="round"></line>
                <line x1="171.08" y1="83.32" x2="149.91" y2="61.19" id="Path" stroke="#B2D4FE" stroke-width="0.68" stroke-linecap="round"></line>
                <line x1="29.79" y1="62.61" x2="28.63" y2="59.51" id="Path" stroke="#B2D4FE" stroke-width="0.68" stroke-linecap="round"></line>
                <line x1="41.92" y1="94.89" x2="31.68" y2="67.62" id="Path" stroke="#B2D4FE" stroke-width="0.68" stroke-linecap="round"></line>
                <line x1="51.3" y1="95.28" x2="48.57" y2="71.43" id="Path" stroke="#B2D4FE" stroke-width="0.68" stroke-linecap="round"></line>
                <line x1="32.29" y1="96.31" x2="28.78" y2="91.18" id="Path" stroke="#B2D4FE" stroke-width="0.68" stroke-linecap="round"></line>
                <line x1="235.93" y1="175.91" x2="244.04" y2="207.68" id="Path" stroke="#F58220" stroke-width="0.9" stroke-linecap="round"></line>
                <line x1="159.99" y1="185" x2="158.89" y2="171.59" id="Path" stroke="#F58220" stroke-width="0.9" stroke-linecap="round"></line>
                <path d="M293.69,114 C292.777761,110.572621 291.580248,107.227612 290.11,104 C287.926591,98.9626404 284.98596,94.288655 281.39,90.14 C278.39,86.41 275.2,82.88 271.89,79.4899891 L253.73,79.4899891 C252.508272,79.4873441 251.335674,79.9708128 250.470842,80.8337682 C249.606011,81.6967235 249.119989,82.8682696 249.119989,84.09 L249.119989,109.48 C249.117337,110.703462 249.602177,111.877582 250.467298,112.742702 C251.332418,113.607823 252.506538,114.092663 253.73,114.090011 L293.19,114.090011 C293.36,114.05 293.52,114 293.69,114 Z" id="Path" fill="#B2D4FE" fill-rule="nonzero"></path>
                <path d="M265.93,191.45 L263.32,175.33 C261.825343,165.589785 256.993214,156.671378 249.65,150.1 C242.908847,144.140635 234.402546,140.551271 225.43,139.88 C224.88,139.88 220.99,139.62 220.43,139.6 L211.3,139.3 L211.03,140.82 C211.03,140.82 238.56,139.12 252.34,157.3 C252.34,157.3 259.48,164.03 263.22,194.4 C264.13,193.44 265,192.46 265.93,191.45 Z" id="Path" fill="#000000" fill-rule="nonzero" opacity="0.1" style="mix-blend-mode: multiply;"></path>
                <path d="M291.59,107.44 C289.267004,101.090533 285.811009,95.2153419 281.39,90.1 C280,88.39 278.58,86.73 277.13,85.1 L257.67,85.1 C255.819846,85.1 254.32,86.5998461 254.32,88.45 L254.32,105.05 C254.32,106.900154 255.819846,108.4 257.67,108.4 L289.25,108.4 C290.125688,108.399126 290.966007,108.05438 291.59,107.44 Z" id="Path" fill="#ECF3FF" fill-rule="nonzero"></path>
                <path d="M211.05,139.49 C211.05,140.23 211.05,140.31 211.05,140.82 C211.13,143.82 206.27,152.99 194.63,152.11 C182.99,151.23 184.06,140.28 184.06,140.28 L184.21,138.84" id="Path" stroke="#FFFFFF" stroke-width="0.9" stroke-linecap="round"></path>
                <line x1="120.5" y1="192.04" x2="124.8" y2="196.73" id="Path" stroke="#F58220" stroke-width="0.9" stroke-linecap="round"></line>
                <path d="M251.86,92 C251.66,91.37 266.68,88.28 278.25,97.67" id="Path" stroke="#B2D4FE" stroke-width="0.68" stroke-linecap="round"></path>
                <path d="M252.64,99 C252.64,99 258.9,95.23 269.5,99 C275.15,101 282.5,104 288.2,102.52" id="Path" stroke="#B2D4FE" stroke-width="0.68" stroke-linecap="round"></path>
            </g>
        </g>
    </g>
</svg>