<?xml version="1.0" encoding="UTF-8"?>
<svg width="296px" height="272px" viewBox="0 0 296 272" version="1.1" xmlns="http://www.w3.org/2000/svg" xmlns:xlink="http://www.w3.org/1999/xlink">
    <title>SEO illustrations_2(2)-02</title>
    <g id="Page-1" stroke="none" stroke-width="1" fill="none" fill-rule="evenodd">
        <g id="MC-1263-DWP-Landing-Page-Web" transform="translate(-259.000000, -1084.000000)">
            <g id="SEO-illustrations_2(2)-02" transform="translate(259.000000, 1084.000000)">
                <path d="M56.51,9.3 C69.92,1.77 104.81,-8.48 156.78,12.9 C208.75,34.28 252.19,53.7 281.57,90 C281.57,90 306.48,116.13 290.57,155.92 C274.66,195.71 226.9,224 212.23,234.47 C197.56,244.94 141.86,276 97.35,270.77 C52.84,265.54 22.47,205.45 14.13,180.92 C6.96746204,160.040001 2.61919523,138.298667 1.2,116.27 C-0.79,81.12 4.46,38.56 56.51,9.3 Z" id="Path" fill="#ECF3FF" fill-rule="nonzero"></path>
                <path d="M16.69,189.16 C27.98,216.75 56.69,266.34 96.91,271.07 C141.42,276.29 197.12,245.2 211.79,234.76 C222,227.5 248.19,211.57 268.55,189.16 L16.69,189.16 Z" id="Path" fill="#FFE5B2" fill-rule="nonzero"></path>
                <rect id="Rectangle" fill="#FFFFFF" fill-rule="nonzero" x="92.87" y="200.56" width="41.15" height="57.22" rx="1.8"></rect>
                <path d="M106.38,220.91 L107.7,216.56 C107.806917,216.199037 108.138535,215.951402 108.515,215.951402 C108.891465,215.951402 109.223083,216.199037 109.33,216.56 L112.2,226.64 C112.310929,227.016121 112.664766,227.267542 113.056445,227.248552 C113.448123,227.229561 113.775978,226.945089 113.85,226.56 L115.06,219.8 C115.133309,219.421147 115.452621,219.139211 115.837636,219.113387 C116.222651,219.087563 116.576754,219.324331 116.7,219.69 L117.33,221.57 C117.442486,221.895871 117.740658,222.121529 118.084832,222.141258 C118.429007,222.160988 118.751012,221.970883 118.9,221.66 L125.77,206.77" id="Path" stroke="#0265FC" stroke-width="0.68" stroke-linecap="round"></path>
                <line x1="98.88" y1="234.81" x2="127.47" y2="234.81" id="Path" stroke="#B2D4FE" stroke-width="1.8" stroke-linecap="round"></line>
                <line x1="98.88" y1="239.79" x2="127.47" y2="239.79" id="Path" stroke="#B2D4FE" stroke-width="1.8" stroke-linecap="round"></line>
                <line x1="98.88" y1="244.77" x2="112.71" y2="244.77" id="Path" stroke="#B2D4FE" stroke-width="1.8" stroke-linecap="round"></line>
                <path d="M169.13,231.78 L205.2,231.78 C206.229203,231.813741 207.092006,231.009055 207.13,229.98 L207.13,183.73 C207.092006,182.700945 206.229203,181.896259 205.2,181.93 L169.13,181.93 C168.100797,181.896259 167.237994,182.700945 167.2,183.73 L167.2,230 C167.248637,231.021136 168.108271,231.813959 169.13,231.78 L169.13,231.78 Z" id="Path" fill="#FFFFFF" fill-rule="nonzero"></path>
                <path d="M173.62,192 L176.7,193.47 C177.331777,193.775025 178.068223,193.775025 178.7,193.47 L180.38,192.58 C181.029443,192.245431 181.800557,192.245431 182.45,192.58 L184.28,193.49 C184.910027,193.802581 185.649973,193.802581 186.28,193.49 L188.16,192.56 C188.814112,192.230192 189.585888,192.230192 190.24,192.56 L191.86,193.43 C192.484124,193.750924 193.220619,193.769337 193.86,193.48 L195.94,192.48 C196.605761,192.170152 197.380005,192.199931 198.02,192.56 L200.43,193.93" id="Path" stroke="#F58220" stroke-width="0.68" stroke-linecap="round"></path>
                <path d="M173.62,198.93 L176.7,200.4 C177.331777,200.705025 178.068223,200.705025 178.7,200.4 L180.38,199.51 C181.030627,199.180349 181.799373,199.180349 182.45,199.51 L184.28,200.43 C184.911093,200.738 185.648907,200.738 186.28,200.43 L188.16,199.5 C188.814112,199.170192 189.585888,199.170192 190.24,199.5 L191.86,200.37 C192.484124,200.690924 193.220619,200.709337 193.86,200.42 L195.94,199.42 C196.605761,199.110152 197.380005,199.139931 198.02,199.5 L200.43,200.87" id="Path" stroke="#F58220" stroke-width="0.68" stroke-linecap="round"></path>
                <path d="M173.62,205.86 L176.7,207.33 C177.331777,207.635025 178.068223,207.635025 178.7,207.33 L180.38,206.45 C181.029443,206.115431 181.800557,206.115431 182.45,206.45 L184.28,207.37 C184.910027,207.682581 185.649973,207.682581 186.28,207.37 L188.16,206.44 C188.814112,206.110192 189.585888,206.110192 190.24,206.44 L191.86,207.31 C192.481778,207.63999 193.222509,207.658509 193.86,207.36 L195.94,206.36 C196.605761,206.050152 197.380005,206.079931 198.02,206.44 L200.43,207.81" id="Path" stroke="#F58220" stroke-width="0.68" stroke-linecap="round"></path>
                <path d="M190,218.64 C189.999796,216.734603 191.128928,215.010274 192.875516,214.248718 C194.622104,213.487163 196.653974,213.833216 198.05,215.13" id="Path" stroke="#F58220" stroke-width="0.68" stroke-linecap="round"></path>
                <path d="M198.19,222 C197.188533,222.99858 195.797664,223.504699 194.388638,223.383264 C192.979612,223.26183 191.695847,222.525203 190.88,221.37" id="Path" stroke="#F58220" stroke-width="0.68" stroke-linecap="round"></path>
                <rect id="Rectangle" fill="#F58220" fill-rule="nonzero" x="188.08" y="216.96" width="13.44" height="3.37" rx="0.88"></rect>
                <line x1="212.25" y1="189.16" x2="259.71" y2="189.16" id="Path" stroke="#F58220" stroke-width="0.68" stroke-linecap="round"></line>
                <path d="M71.35,204.21 L72.79,207.12 C72.79,207.12 73.46,210.12 76.92,206.9 C79.46,204.53 85.81,196.59 83.66,195.32 C81.51,194.05 71.35,204.21 71.35,204.21 Z" id="Path" fill="#4AA147" fill-rule="nonzero"></path>
                <path d="M84.41,195.8 L92.82,201.55 C93.8708629,202.274792 94.57067,203.406087 94.75,204.67 L95.35,209.09 C95.5321614,210.376292 96.2613367,211.521097 97.35,212.23 L97.35,212.23 C97.8967753,212.594012 98.2532903,213.182386 98.3228585,213.835554 C98.3924266,214.488721 98.1678377,215.138988 97.71,215.61 L96.11,217.27 C94.4643893,218.977924 92.0221123,219.659312 89.73,219.05 L89.73,219.05 C85.2648022,217.866301 81.3659319,215.133547 78.73,211.34 L73,202.23 L84.41,195.8 Z" id="Path" fill="#FFB6B2" fill-rule="nonzero"></path>
                <path d="M161.5,101 L162.05,97.85 C162.05,97.85 182.72,99.42 179.86,104.59 C177,109.76 163.07,104.4 161.5,101 Z" id="Path" fill="#4AA147" fill-rule="nonzero"></path>
                <rect id="Rectangle" fill="#FFFFFF" fill-rule="nonzero" transform="translate(163.924589, 68.020294) rotate(-17.700000) translate(-163.924589, -68.020294) " x="139.074589" y="52.7752945" width="49.7" height="30.49" rx="0.74"></rect>
                <path d="M142.62,63.85 L163.05,69.09 C164.20526,69.403726 165.437232,69.0126239 166.2,68.09 L179.38,51.74" id="Path" stroke="#B2D4FE" stroke-width="0.9" stroke-linecap="round"></path>
                <line x1="174.07" y1="66.01" x2="184.6" y2="71.22" id="Path" stroke="#B2D4FE" stroke-width="0.9" stroke-linecap="round"></line>
                <line x1="149.1" y1="82.54" x2="154.5" y2="71.75" id="Path" stroke="#B2D4FE" stroke-width="0.9" stroke-linecap="round"></line>
                <line x1="165.35" y1="42.7" x2="162.22" y2="34.1" id="Path" stroke="#0265FC" stroke-width="0.68" stroke-linecap="round"></line>
                <line x1="170.23" y1="44.85" x2="170.62" y2="25.31" id="Path" stroke="#0265FC" stroke-width="0.68" stroke-linecap="round"></line>
                <path d="M161.58,98.85 C161.58,98.85 163.83,91.02 162.67,88.33 L160.32,82.85 C160.131852,82.0861865 160.408928,81.2830165 161.028005,80.7976772 C161.647082,80.312338 162.493172,80.2349776 163.19,80.6 L167.14,82.99 L179.91,78.93 C179.91,78.93 179.13,110.53 174.14,121.67 L161.58,98.85 Z" id="Path" fill="#FFB6B2" fill-rule="nonzero"></path>
                <path d="M167.63,83.28 C168.835492,84.2926815 169.851304,85.5116559 170.63,86.88" id="Path" stroke="#F2A2A0" stroke-width="0.9" stroke-linecap="round"></path>
                <path d="M179.91,78.93 L167.14,83 C167.14,83 177.74,82.17 176.78,91.34 C176.25,96.47 175.06,105.92 175.06,105.92 L177.81,106.46 C177.81,106.46 179.64,91.26 179.91,84.64 C180,83.21 179.91,78.93 179.91,78.93 Z" id="Path" fill="#F2A2A0" fill-rule="nonzero"></path>
                <path d="M161.58,98.68 C161.58,98.68 158.51,114.45 156.43,121.23 C153.43,131.1 151.79,139.07 151.79,139.07 C151.79,139.07 145.79,126.63 139.42,117.78 C135.689492,112.646378 130.055308,109.224079 123.78,108.28 L114.47,106.87 L101.28,105.3 L87.28,106.79 C79.0758707,107.630868 71.5530209,111.730965 66.4,118.17 C54.54,133.17 48.63,157.69 48.63,157.69 C47.4510023,161.923037 47.8380061,166.439265 49.72,170.41 C54.36,180.2 63.5,198.35 73.35,208.12 C70.67,203.86 83.72,196.28 84.44,195.82 L84.44,195.82 L81,189.11 L128.6,189.11 C128.6,189.11 131.75,157.11 131.75,150.11 L131.75,150.11 L131.75,150.11 C135.56,156.93 143.46,163.7 149.02,166.4 C155.317075,169.494563 162.931662,167.476804 166.87,161.67 C171.31,155.07 173.35,142.86 175.34,132.93 C178.5,117.21 180.13,104.08 180.13,104.08 C173.63,109.75 161.58,98.68 161.58,98.68 Z" id="Path" fill="#7DCC7A" fill-rule="nonzero"></path>
                <line x1="131.7" y1="150.11" x2="132.48" y2="141.95" id="Path" stroke="#4AA147" stroke-width="0.68" stroke-linecap="round"></line>
                <path d="M131.29,158 C131.42,156.22 131.52,154.6 131.59,153.23 C102.14,154.79 81.9,150.95 72.59,148.55 C72.06,149.78 71.43,151.36 70.87,153.11 C89.41,158.35 116.32,158.47 131.29,158 Z" id="Path" fill="#4AA147" fill-rule="nonzero"></path>
                <path d="M130.49,168.07 C130.63,166.45 130.76,164.84 130.89,163.27 C99.08,165.45 77.89,161.17 69.44,158.96 C69.1846008,160.619601 69.2150399,162.310666 69.53,163.96 C88.32,169 115.55,168.71 130.49,168.07 Z" id="Path" fill="#4AA147" fill-rule="nonzero"></path>
                <path d="M89.75,196.09 L101.1,219.74 C101.208211,219.96657 101.114749,220.238056 100.89,220.35 C100.671516,220.452245 100.411273,220.364027 100.3,220.15 L87.79,197.09 C87.4890048,196.554284 87.6792838,195.875995 88.215,195.575 C88.7507162,195.274005 89.4290048,195.464284 89.73,196 C89.755021,196.022756 89.7630282,196.058788 89.75,196.09 L89.75,196.09 Z" id="Path" fill="#0D48A6" fill-rule="nonzero"></path>
                <path d="M88.57,211.25 L90.57,213.81 C91.2253938,214.632137 92.0554331,215.298218 93,215.76 L95,216.76" id="Path" stroke="#F2A2A0" stroke-width="0.9" stroke-linecap="round"></path>
                <path d="M86.23,214.43 L88,215.6 C89.494619,216.604331 91.1380859,217.367008 92.87,217.86 L93.53,218.04" id="Path" stroke="#F2A2A0" stroke-width="0.9" stroke-linecap="round"></path>
                <path d="M78.68,211.37 C78.68,211.37 77.16,204.47 84.44,195.82 C84.44,195.82 76,201.13 73.8,204.02 L78.68,211.37 Z" id="Path" fill="#F2A2A0" fill-rule="nonzero"></path>
                <path d="M97.3,212.23 C95.8515776,210.875559 94.5844015,209.339486 93.53,207.66 C93.4,207.72 92.46,208.47 92.32,208.5 C91.98,208.61 96.32,215.67 96.83,216.5 L97.66,215.64 C98.62,214.62 98.25,213.23 97.3,212.23 Z" id="Path" fill="#FFB6B2" fill-rule="nonzero"></path>
                <path d="M96.88,215.28 L96.56,215.13 C94.8599818,214.319102 93.4397126,213.020669 92.48,211.4 L90.87,208.69" id="Path" stroke="#F2A2A0" stroke-width="0.9" stroke-linecap="round"></path>
                <path d="M94.9,116.79 C94.9,116.79 98.71,123.09 104.73,126.54 C104.73,126.54 112.42,122.87 115.79,116.35 L94.9,116.79 Z" id="Path" fill="#B2D4FE" fill-rule="nonzero"></path>
                <line x1="105.13" y1="120.74" x2="104.8" y2="125.8" id="Path" stroke="#FFFFFF" stroke-width="0.68" stroke-linecap="round"></line>
                <path d="M94.9,116.79 C97.3358175,120.600321 100.557759,123.846129 104.35,126.31 C104.588779,126.445517 104.881221,126.445517 105.12,126.31 C106.73,125.46 112.88,121.96 115.79,116.31 L94.9,116.79 Z" id="Path" stroke="#4AA147" stroke-width="0.68" stroke-linecap="round"></path>
                <path d="M105.36,104.81 L95.82,104.46 C93.6722978,104.379534 91.7906121,105.886585 91.4,108 C90.76,111.44 90.31,116.75 92.21,121.44 L95.07,118.52 C95.952455,117.61111 97.274185,117.281646 98.48,117.67 L105.07,121.32 L105.36,104.81 Z" id="Path" fill="#FFFFFF" fill-rule="nonzero"></path>
                <path d="M107,105.16 L116.83,106.01 C118.081762,106.110756 119.118736,107.021667 119.38,108.25 C120.270009,112.755531 120.067696,117.408717 118.79,121.82 L115.93,118.9 C115.049484,117.994962 113.732826,117.665798 112.53,118.05 L105,121.33 L107,105.16 Z" id="Path" fill="#FFFFFF" fill-rule="nonzero"></path>
                <line x1="109.55" y1="105.85" x2="108.89" y2="107.7" id="Path" stroke="#F2A2A0" stroke-width="0.9" stroke-linecap="round"></line>
                <path d="M125.88,75.55 C125.88,75.55 124.5,79.86 121,80.08" id="Path" stroke="#314351" stroke-width="0.9" stroke-linecap="round"></path>
                <path d="M121.49,80 L104.17,74.39 L97.11,84.52 L97.85,93.83 L97.85,93.83 L96.55,106.94 C95.72,112.65 102.33,120.33 105.55,120.33 C107.5,120.33 113.17,116.51 114.55,110.13 C114.77,109.13 115.04,99.73 115.04,99.73 L115.59,99.6 C115.59,99.6 124.23,98.06 121.49,80 Z" id="Path" fill="#FFB6B2" fill-rule="nonzero"></path>
                <path d="M97.92,94.6 L99.72,90.3 C99.0256677,89.7825298 98.5767425,89.000531 98.48,88.14 C98.42,86.82 98.83,85.74 99.74,85.53 C100.679074,85.4061981 101.553423,86.0313576 101.74,86.96 C101.9,87.88 101.51,89.2 102.74,89.1 C102.74,89.1 103.48,88.33 103.31,86.04 C103.14,83.75 102.52,78.74 106.13,78.04 C109.74,77.34 114.04,80.25 117.77,80.49 C121.24,80.71 122.63,81.03 123.99,77.55 C125.35,74.07 123.9,72.01 120.69,71.06 C117.48,70.11 117.26,70.6 115.02,70.35 C112.78,70.1 107.71,67.75 100.39,70.68 C93.07,73.61 95.39,82.41 95.55,83.94 C95.71,85.47 95.85,92.31 97.92,94.6 Z" id="Path" fill="#314351" fill-rule="nonzero"></path>
                <path d="M115,99.65 C112.561665,100.109005 110.040115,99.7578145 107.82,98.65 C106.381135,98.006263 105.288391,96.7751045 104.82,95.27 C104.778726,95.1035555 104.619961,94.9939002 104.449684,95.0142317 C104.279408,95.0345632 104.150925,95.1785168 104.15,95.35 C104.055264,97.6002754 105.133978,99.7387794 107,101 C109.45766,102.975994 112.076856,104.742196 114.83,106.28 L115,99.65 Z" id="Path" fill="#F2A2A0" fill-rule="nonzero"></path>
                <circle id="Oval" fill="#314351" fill-rule="nonzero" cx="109.75" cy="87" r="1"></circle>
                <circle id="Oval" fill="#314351" fill-rule="nonzero" cx="119.54" cy="88.18" r="1"></circle>
                <path d="M106,84.44 C106,84.44 105.51,88.52 106.59,89.5 C107.31,90.15 111.19,90.67 112.12,89.8 C113.05,88.93 113.64,85.46 113.64,85.46" id="Path" stroke="#314351" stroke-width="0.68"></path>
                <path d="M116.21,85.63 C116.21,85.63 115.72,89.7 116.79,90.69 C117.51,91.34 121.39,91.86 122.32,90.99 C123.01,90.35 123.54,88.11 123.75,87.12 C123.779549,86.9955588 123.753487,86.8644187 123.678602,86.7607318 C123.603717,86.6570448 123.487421,86.5910741 123.36,86.58 L106,84.44 L101.44,84.94" id="Path" stroke="#314351" stroke-width="0.68"></path>
                <line x1="114.4" y1="88.98" x2="115.38" y2="91.72" id="Path" stroke="#FF8880" stroke-width="0.68" stroke-linecap="round"></line>
                <path d="M110,93 C110.01217,93.2299561 110.049049,93.4579351 110.11,93.68 C110.572314,95.2016233 112.173827,96.0670651 113.7,95.62 C114.129991,95.490197 114.521478,95.2566781 114.84,94.94 L110,93 Z" id="Path" fill="#FFFFFF" fill-rule="nonzero"></path>
                <line x1="150.92" y1="138.32" x2="154.04" y2="143.58" id="Path" stroke="#4AA147" stroke-width="0.68" stroke-linecap="round"></line>
                <circle id="Oval" stroke="#7DCC7A" stroke-width="0.9" stroke-linecap="round" cx="151.91" cy="218.16" r="4.79"></circle>
                <path d="M76.12,141.18 C76.12,141.18 74.36,147.8 77.12,159.56 C78.4526952,165.03412 80.4685105,170.318916 83.12,175.29 L90.36,189 L80.97,189.1 L70.87,167.38 C68.6998973,162.773652 68.6088749,157.457944 70.62,152.78 L76.12,141.18 Z" id="Path" fill="#000000" fill-rule="nonzero" opacity="0.1" style="mix-blend-mode: multiply;"></path>
                <path d="M75.79,141.47 L71,152.38 C68.82,157.58 68.29,163.53 71.06,168.44 L78,183" id="Path" stroke="#4AA147" stroke-width="0.68" stroke-linecap="round"></path>
                <path d="M41.61,179.1 L40.74,179.1 C40.7591422,178.398757 40.7290684,177.697034 40.65,177 C40.6138528,176.629918 40.3018387,176.348239 39.93,176.349987 L24.25,176.349987 C23.876114,176.347749 23.5609678,176.628358 23.52,177 C23.31,179 23.1,185 27.45,188.15 C28.2278398,188.709475 29.1618523,189.010318 30.12,189.01001 L34.12,189.01001 C35.047498,189.011992 35.9526475,188.725419 36.71,188.19 C37.8575641,187.360982 38.7873785,186.266477 39.42,185 L41.69,185 C42.5744357,185.001994 43.4121139,184.603018 43.9679296,183.91505 C44.5237452,183.227083 44.7377939,182.324271 44.55,181.46 C44.2484306,180.078904 43.0236304,179.095731 41.61,179.1 L41.61,179.1 Z M41.69,183.61 L40,183.61 C40.3485775,182.583731 40.5734996,181.519547 40.67,180.44 L41.67,180.44 C42.2663206,180.392597 42.838783,180.683903 43.1514761,181.193872 C43.4641693,181.703841 43.4641693,182.346159 43.1514761,182.856128 C42.838783,183.366097 42.2663206,183.657403 41.67,183.61 L41.69,183.61 Z" id="Shape" fill="#A8AAAD" fill-rule="nonzero"></path>
                <path d="M31.79,174.44 L33.08,171.71 C33.3585851,171.149367 33.3585851,170.490633 33.08,169.93 L32.3,168.44 C32.004559,167.865773 32.004559,167.184227 32.3,166.61 L33.11,165" id="Path" stroke="#B2D4FE" stroke-width="0.9" stroke-linecap="round"></path>
                <path d="M37.24,187.16 C30.9486919,187.16278 25.5988849,182.569339 24.65,176.349987 L24.25,176.349987 C23.876114,176.347749 23.5609678,176.628358 23.52,177 C23.31,179 23.1,185 27.45,188.15 C28.2278398,188.709475 29.1618523,189.010318 30.12,189.01001 L34.12,189.01001 C35.047498,189.011992 35.9526475,188.725419 36.71,188.19 C37.14131,187.873779 37.5429645,187.518984 37.91,187.13 L37.24,187.16 Z" id="Path" fill="#000000" fill-rule="nonzero" opacity="0.1" style="mix-blend-mode: multiply;"></path>
                <line x1="20.55" y1="189.16" x2="53.19" y2="189.16" id="Path" stroke="#F58220" stroke-width="0.68" stroke-linecap="round"></line>
                <polygon id="Path" fill="#A8AAAD" fill-rule="nonzero" points="244.27 188.77 223.56 188.77 228.91 163.81 249.62 163.81"></polygon>
                <polygon id="Path" fill="#A8AAAD" fill-rule="nonzero" points="225.39 188.77 223.56 188.77 228.91 163.81 230.74 163.81"></polygon>
                <polygon id="Path" fill="#000000" fill-rule="nonzero" opacity="0.1" style="mix-blend-mode: multiply;" points="225.39 188.77 223.56 188.77 228.91 163.81 230.74 163.81"></polygon>
                <line x1="260.03" y1="170.25" x2="225.05" y2="170.25" id="Path" stroke="#314351" stroke-width="0.57" stroke-linecap="round"></line>
                <polygon id="Path" fill="#000000" fill-rule="nonzero" opacity="0.1" style="mix-blend-mode: multiply;" points="227.45 170.58 228.35 174.93 245.29 184 248.19 170.47"></polygon>
                <circle id="Oval" fill="#BBD9FE" fill-rule="nonzero" cx="88.37" cy="34.92" r="16.92"></circle>
                <path d="M74.58,34.84 C74.58,34.84 74.58,34.84 74.58,34.92 C74.58,42.5415295 80.7584705,48.72 88.38,48.72 C96.0015295,48.72 102.18,42.5415295 102.18,34.92 C102.18,34.92 102.18,34.86 102.18,34.84 L74.58,34.84 Z" id="Path" fill="#ECF3FF" fill-rule="nonzero"></path>
                <line x1="84.58" y1="31.79" x2="97.1" y2="42.98" id="Path" stroke="#FFFFFF" stroke-width="0.9" stroke-linecap="round"></line>
                <line x1="86.39" y1="38.41" x2="91.8" y2="26.62" id="Path" stroke="#FFFFFF" stroke-width="0.9" stroke-linecap="round"></line>
                <path d="M175.5,35.5 C198.055452,44.6743747 216.848717,61.2017356 228.83,82.4 L233.89,91.64" id="Path" stroke="#B2D4FE" stroke-width="0.9" stroke-linecap="round" stroke-dasharray="0.9"></path>
                <path d="M109.54,29.7 C114.964959,28.5524972 120.466097,27.800519 126,27.45 C139.637735,26.5576721 153.323575,28.1709607 166.38,32.21" id="Path" stroke="#B2D4FE" stroke-width="0.9" stroke-linecap="round" stroke-dasharray="0.9"></path>
                <path d="M54.64,59.35 C59.381578,54.6259998 64.5502986,50.3510929 70.08,46.58" id="Path" stroke="#B2D4FE" stroke-width="0.9" stroke-linecap="round" stroke-dasharray="0.9"></path>
                <path d="M25.77,155.57 C22.0321025,138.315336 22.7652945,120.391718 27.9,103.5" id="Path" stroke="#B2D4FE" stroke-width="0.9" stroke-linecap="round" stroke-dasharray="0.9"></path>
                <path d="M87.3,230.21 C68.73,223.76 52,206.5 43.49,194.85" id="Path" stroke="#FFC74F" stroke-width="0.9" stroke-linecap="round" stroke-dasharray="0.9"></path>
                <path d="M164.35,234.62 C155.827653,237.055679 147.066562,238.561125 138.22,239.11" id="Path" stroke="#FFC74F" stroke-width="0.9" stroke-linecap="round" stroke-dasharray="0.9"></path>
                <circle id="Oval" fill="#B2D4FE" fill-rule="nonzero" cx="44.54" cy="83.55" r="22.92"></circle>
                <path d="M26.67,54.71 C29.6970257,52.8761935 33.0093562,51.561401 36.47,50.82" id="Path" stroke="#B2D4FE" stroke-width="0.9" stroke-linecap="round"></path>
                <path d="M24.44,63.84 C29.6540025,58.4464198 36.8382435,55.4066555 44.34,55.4199562" id="Path" stroke="#B2D4FE" stroke-width="0.9" stroke-linecap="round"></path>
                <path d="M53.21,94.68 C54.6862164,94.6744917 55.88,93.4762267 55.88,92 L55.88,88.42 C55.8791461,88.0354417 55.6340487,87.6939126 55.27,87.57 L49.91,85.78 C49.6484204,85.6919727 49.3609136,85.7288325 49.13,85.88 L46.85,87.4 C44.1100381,85.9470396 41.8568838,83.721702 40.37,81 L41.89,78.72 C42.0411675,78.4890864 42.0780273,78.2015796 41.99,77.94 L40.2,72.56 C40.0760874,72.1959513 39.7345583,71.9508539 39.35,71.95 L35.77,71.95 C34.2937733,71.95 33.0955083,73.1437836 33.09,74.62 C33.2336813,79.8942919 35.4505759,84.8993716 39.26,88.55 C42.9393782,92.3542926 47.9689491,94.5565261 53.26,94.68 L53.21,94.68 Z" id="Path" fill="#4D9AFD" fill-rule="nonzero"></path>
                <line x1="86.42" y1="189.16" x2="161.96" y2="189.16" id="Path" stroke="#F58220" stroke-width="0.68" stroke-linecap="round"></line>
                <circle id="Oval" fill="#FFFFFF" fill-rule="nonzero" cx="102.72" cy="122.7" r="1"></circle>
                <path d="M179.68,104.12 C179.68,104.12 174.28,109.86 161.79,98.94" id="Path" stroke="#4AA147" stroke-width="0.68" stroke-linecap="round"></path>
                <path d="M73.59,207.77 C73.59,207.77 69.81,204.19 84.44,195.77" id="Path" stroke="#4AA147" stroke-width="0.68" stroke-linecap="round"></path>
                <path d="M268.88,170.27 L204.37,170.27 C203.801743,170.293919 203.257666,170.038602 202.912913,169.586238 C202.56816,169.133874 202.466254,168.541572 202.64,168 L219.7,120.91 C219.974122,120.197022 220.666333,119.732881 221.43,119.75 L285.94,119.75 C286.507443,119.722468 287.05224,119.975288 287.397562,120.426402 C287.742883,120.877515 287.844713,121.469421 287.67,122.01 L270.61,169.11 C270.331092,169.819143 269.641937,170.281236 268.88,170.27 L268.88,170.27 Z" id="Path" fill="#A8AAAD" fill-rule="nonzero"></path>
                <path d="M216.66,129.33 L260.32,170.2702 L268.88,170.2702 C269.641937,170.281236 270.331092,169.819143 270.61,169.11 L287.67,122 C287.844713,121.459421 287.742883,120.867515 287.397562,120.416402 C287.05224,119.965288 286.507443,119.712468 285.94,119.74 L221.43,119.74 C220.666333,119.722881 219.974122,120.187022 219.7,120.9 L216.7,129.31 L216.66,129.33 Z" id="Path" fill="#000000" fill-rule="nonzero" opacity="0.1" style="mix-blend-mode: multiply;"></path>
                <circle id="Oval" fill="#FFFFFF" fill-rule="nonzero" cx="246.13" cy="145.3" r="3.02"></circle>
            </g>
        </g>
    </g>
</svg>