<?xml version="1.0" encoding="UTF-8"?>
<svg width="296px" height="272px" viewBox="0 0 296 272" version="1.1" xmlns="http://www.w3.org/2000/svg" xmlns:xlink="http://www.w3.org/1999/xlink">
    <title>Group 23</title>
    <g id="Page-1" stroke="none" stroke-width="1" fill="none" fill-rule="evenodd">
        <g id="MC-1263-DWP-Landing-Page-Web" transform="translate(-259.000000, -3070.000000)">
            <g id="Group-23" transform="translate(259.000000, 3070.000000)">
                <path d="M55.8137184,9.20746418 C69.2537184,1.64746418 104.243718,-8.62253582 156.353718,12.8174642 C208.463718,34.2574642 252.033718,53.7274642 281.473718,90.0974642 C281.473718,90.0974642 306.473718,116.297464 290.473718,156.197464 C274.473718,196.097464 226.633718,224.527464 211.923718,234.997464 C197.213718,245.467464 141.353718,276.637464 96.7237184,271.407464 C52.0937184,266.177464 21.6737184,205.897464 13.3137184,181.297464 C6.12623262,160.363942 1.76440262,138.564881 0.343718424,116.477464 C-1.65628158,81.2274642 3.61371842,38.5474642 55.8137184,9.20746418 Z" id="Path" fill="#ECF3FF" fill-rule="nonzero"></path>
                <path d="M29.4737184,215.687464 C44.3137184,240.867464 67.4737184,267.967464 96.7537184,271.407464 C141.383718,276.637464 197.243718,245.467464 211.953718,234.997464 C217.533718,230.997464 227.883718,224.467464 239.453718,215.687464 L29.4737184,215.687464 Z" id="Path" fill="#FFE5B2" fill-rule="nonzero"></path>
                <path d="M53.7037184,52.5374642 L11.4737184,52.5374642 C3.32371842,68.1274642 0.473718424,84.5374642 0.0537184244,100.127464 L53.7037184,100.127464 C55.5761468,100.127464 57.3718855,99.3836449 58.6958923,98.0596381 C60.0198991,96.7356312 60.7637184,94.9398926 60.7637184,93.0674642 L60.7637184,59.5974642 C60.7637184,57.7250358 60.0198991,55.9292971 58.6958923,54.6052903 C57.3718855,53.2812835 55.5761468,52.5374642 53.7037184,52.5374642 Z" id="Path" fill="#FFFFFF" fill-rule="nonzero"></path>
                <line x1="189.933718" y1="226.777464" x2="132.013718" y2="192.967464" id="Path" stroke="#314351" stroke-width="1.8" stroke-linecap="round"></line>
                <line x1="158.963718" y1="239.977464" x2="119.083718" y2="186.047464" id="Path" stroke="#314351" stroke-width="1.8" stroke-linecap="round"></line>
                <line x1="60.2737184" y1="226.777464" x2="118.203718" y2="192.967464" id="Path" stroke="#314351" stroke-width="1.8" stroke-linecap="round"></line>
                <path d="M211.963718,234.997464 C215.203718,232.687464 220.053718,229.507464 225.813718,225.537464 C213.553718,225.037464 200.473718,224.777464 186.903718,224.777464 C116.803718,224.777464 59.9837184,231.877464 59.9837184,240.637464 C59.9837184,248.777464 108.983718,255.477464 172.123718,256.397464 C190.523718,248.537464 205.373718,239.687464 211.963718,234.997464 Z" id="Path" fill="#FFE5B2" fill-rule="nonzero" opacity="0.6" style="mix-blend-mode: multiply;"></path>
                <path d="M131.663718,185.317464 C131.262057,185.027109 130.701899,185.111577 130.403718,185.507464 L90.5237184,239.477464 L90.9737184,239.537464 C91.2186739,239.573681 91.4661174,239.5904 91.7137184,239.587464 C91.8337184,239.587464 92.4437184,239.587464 92.6337184,239.647464 L131.863718,186.597464 C132.011274,186.402731 132.073317,186.156376 132.0356,185.914983 C131.997882,185.673589 131.863644,185.457903 131.663718,185.317464 L131.663718,185.317464 Z" id="Path" fill="#314351" fill-rule="nonzero"></path>
                <path d="M111.563718,76.0474635 L51.4737184,76.0474635 C47.9644401,76.0474635 44.6498195,77.6599925 42.4862851,80.4229899 C40.3227507,83.1859873 39.5509993,86.7908735 40.3937184,90.1974642 L55.3937184,151.047464 C57.0689754,157.802191 61.4578573,163.565991 67.5237184,166.977464 L116.573718,194.547464 C121.393548,197.256821 127.241534,197.406578 132.193718,194.947464 L178.043718,172.167464 C182.631127,169.884118 186.538192,166.435693 189.373718,162.167464 L189.533718,161.927464 C192.745453,157.130729 194.464422,151.490143 194.473718,145.717464 L194.473718,142.477464 C194.473718,134.646066 188.125116,128.297464 180.293718,128.297464 L110.553718,128.297464 L111.563718,76.0474635 Z" id="Path" fill="#B2D4FE" fill-rule="nonzero"></path>
                <path d="M169.263718,23.5374642 L169.263718,50.8074642 C169.263718,52.0769335 168.758743,53.2942631 167.860155,54.190975 C166.961567,55.0876869 165.743185,55.59012 164.473718,55.5874747 L92.5937184,55.5874747 C89.9537973,55.5874747 87.8137184,53.4473853 87.8137184,50.8074642 L87.8137184,15.4774642 C87.8192331,12.8414492 89.9576976,10.7074642 92.5937184,10.7074642 L141.133718,10.7074642" id="Path" stroke="#FFFFFF" stroke-width="0.9" stroke-linecap="round"></path>
                <path d="M154.073718,105.717464 C152.041652,92.8729701 140.967961,83.415164 127.963718,83.4174638 L111.963718,83.4174638 L100.963718,84.2374642 C89.9600902,85.020687 80.4081864,92.1114837 76.4737184,102.417464 L66.4737184,128.537464 C65.2563505,131.728338 65.6864734,135.313866 67.6240003,138.126276 C69.5615272,140.938686 72.7585082,142.618068 76.1737184,142.617464 L109.573718,142.617464 L110.573718,143.067464 C112.042632,143.700443 113.068861,145.061147 113.273718,146.647464 L114.043718,152.547464 L157.553718,127.917464 L154.073718,105.717464 Z M88.8937184,126.207464 L93.4737184,111.747464 L95.8237184,127.527464 L88.8937184,126.207464 Z" id="Shape" fill="#E085D3" fill-rule="nonzero"></path>
                <polygon id="Path" fill="#F7DFF5" fill-rule="nonzero" points="107.983718 88.5874642 129.513718 89.4774642 119.663718 140.267464 117.023718 140.267464"></polygon>
                <path d="M128.523718,51.4774642 C128.523718,51.4774642 121.763718,44.8474642 112.683718,53.0874642 C112.683718,53.0874642 106.983718,58.8574642 108.603718,66.6574642 L116.663718,82.4774642 C116.663718,82.4774642 136.613718,51.5774642 128.523718,51.4774642 Z" id="Path" fill="#000000" fill-rule="nonzero"></path>
                <path d="M126.843718,51.4774642 C126.843718,51.4774642 131.683718,49.3474642 133.663718,53.6974642 C135.643718,58.0474642 135.353718,62.3874642 136.233718,67.5374642 C137.173718,73.0274642 135.883718,78.3674642 130.643718,78.8574642 C127.349605,79.1183738 124.037103,78.6962254 120.913718,77.6174642 L126.843718,51.4774642 Z" id="Path" fill="#000000" fill-rule="nonzero"></path>
                <path d="M127.963718,83.4174642 L127.963718,83.4174642 C126.976013,83.4179952 126.166102,82.6346392 126.133718,81.6474642 C126.043718,78.7774642 125.913718,76.0374642 125.913718,76.0374642 C126.85335,76.0750161 127.792717,75.9567505 128.693718,75.6874642 C135.963718,72.1974642 132.603718,56.9874642 128.563718,53.9774642 C128.563718,53.9774642 123.483718,61.2174642 116.243718,63.5774642 C115.822384,63.7151623 115.359418,63.5984482 115.053718,63.2774642 C114.363718,62.5674642 113.053718,61.5674642 112.053718,63.1674642 C110.663718,65.4174642 113.553718,67.8474642 115.053718,67.1674642 C114.95434,68.9279038 114.334866,70.6192772 113.273718,72.0274642 C112.371964,73.1910518 111.789441,74.5698033 111.583718,76.0274642 L110.793718,80.9174642 C110.552595,82.4275034 109.31678,83.5809304 107.793718,83.7174642 L102.333718,84.1174642 C105.713699,89.9638762 111.933661,93.5866931 118.686566,93.6421795 C125.439471,93.6976659 131.718125,90.1775462 135.193718,84.3874642 C132.83988,83.7327618 130.406886,83.4063435 127.963718,83.4174642 Z" id="Path" fill="#FFB6B2" fill-rule="nonzero"></path>
                <path d="M128.333718,69.4774642 C127.786061,70.225901 126.862747,70.6009556 125.948303,70.4464314 C125.033858,70.2919073 124.285046,69.6342943 124.013718,68.7474642 L128.333718,69.4774642 Z" id="Path" fill="#FFFFFF" fill-rule="nonzero"></path>
                <line x1="126.763718" y1="65.1574642" x2="127.173718" y2="66.8074642" id="Path" stroke="#FF8880" stroke-width="0.9" stroke-linecap="round"></line>
                <line x1="113.833718" y1="66.7774642" x2="113.803718" y2="67.6974642" id="Path" stroke="#FFFFFF" stroke-width="0.68" stroke-linecap="round"></line>
                <path d="M125.913718,76.0374642 C123.539273,75.578246 121.299821,74.5867331 119.363718,73.1374642 C119.30778,73.0702244 119.20995,73.0564033 119.137575,73.1055154 C119.065199,73.1546275 119.041901,73.2506428 119.083718,73.3274642 C119.753718,74.9474642 121.873718,79.3274642 126.083718,81.0174642 L125.913718,76.0374642 Z" id="Path" fill="#F2A2A0" fill-rule="nonzero"></path>
                <circle id="Oval" fill="#000000" fill-rule="nonzero" cx="121.223718" cy="63.4174642" r="1"></circle>
                <circle id="Oval" fill="#000000" fill-rule="nonzero" cx="129.533718" cy="63.4174642" r="1"></circle>
                <path d="M116.163718,61.2274629 L133.473718,61.2274629 C133.525266,61.2272059 133.568564,61.266174 133.573718,61.3174642 L133.573718,64.0974642 C133.573718,65.0915767 132.767831,65.8974642 131.773718,65.8974642 L129.373718,65.8974642 C128.567405,65.8919294 127.861988,65.3536922 127.643718,64.5774642 L126.973718,62.1174642" id="Path" stroke="#FF8880" stroke-width="0.9" stroke-linecap="round"></path>
                <path d="M125.473718,62.1874642 L125.123718,64.3874642 C124.985867,65.2578815 124.234984,65.898466 123.353718,65.8974653 L121.043718,65.8974653 C120.049606,65.8974653 119.243718,65.0915767 119.243718,64.0974642 L119.243718,61.2974642" id="Path" stroke="#FF8880" stroke-width="0.9" stroke-linecap="round"></path>
                <path d="M115.033718,67.1574642 C115.033718,67.1574642 117.093718,73.9374642 115.473718,76.9474642 C114.043718,79.6174642 107.723718,78.4274642 106.573718,77.2474642 C103.683718,74.2474642 105.413718,71.0474642 106.573718,67.5874642 C107.733718,64.1274642 108.833718,60.1674642 108.833718,60.1674642 L110.103718,62.9074642 L111.783718,67.8574642 C111.783718,67.8574642 114.473718,70.6574642 115.033718,67.1574642 Z" id="Path" fill="#000000" fill-rule="nonzero"></path>
                <path d="M115.873718,78.0874642 C115.873718,78.0874642 117.933718,74.6874642 114.703718,67.8974642" id="Path" stroke="#000000" stroke-width="0.9" stroke-linecap="round"></path>
                <path d="M194.473718,142.477464 C194.473718,134.646066 188.125116,128.297464 180.293718,128.297464 L157.883718,128.297464 L123.443718,177.297464 L145.503718,188.297464 L178.043718,172.137464 C182.631127,169.854118 186.538192,166.405693 189.373718,162.137464 L189.533718,161.897464 C192.73979,157.109227 194.458504,151.479918 194.473718,145.717464 L194.473718,142.477464 Z" id="Path" fill="#000000" fill-rule="nonzero" opacity="0.1" style="mix-blend-mode: multiply;"></path>
                <path d="M148.973718,232.787464 C148.973718,232.787464 149.293718,237.217464 162.973718,237.217464 C162.973718,237.217464 171.873718,236.777464 173.043718,232.787464 L173.043718,232.787464 C171.815124,230.049912 169.094324,228.288243 166.093718,228.287464 L155.993718,228.287464 C153.339193,228.288898 150.876719,229.671671 149.493718,231.937464 L148.973718,232.787464 Z" id="Path" fill="#3C327F" fill-rule="nonzero"></path>
                <path d="M150.153718,228.667464 L150.743718,250.237464 C150.780954,251.498071 151.802734,252.506638 153.063718,252.527464 L173.063718,252.927464 C173.063718,252.927464 173.463718,246.287464 165.273718,244.377464 L168.273718,222.007464 C163.763718,221.667464 150.153718,228.667464 150.153718,228.667464 Z" id="Path" fill="#FFB6B2" fill-rule="nonzero"></path>
                <path d="M166.573718,234.477464 L168.233718,222.007464 C163.763718,221.667464 150.153718,228.667464 150.153718,228.667464 L150.273718,233.247464 C159.253718,231.877464 164.053718,233.087464 166.573718,234.477464 Z" id="Path" fill="#F2A2A0" fill-rule="nonzero"></path>
                <path d="M165.263718,244.377464 L165.863718,239.887464 L150.463718,238.887464 L150.613718,245.507464 C150.613718,245.507464 173.473718,246.287464 165.263718,244.377464 Z" id="Path" fill="#FAF1E1" fill-rule="nonzero"></path>
                <path d="M152.633718,252.527464 L173.053718,252.927464 C173.053718,252.927464 173.453718,246.287464 165.263718,244.377464 L150.613718,245.477464 L150.763718,250.657464 C150.784945,251.681315 151.609867,252.506238 152.633718,252.527464 L152.633718,252.527464 Z" id="Path" fill="#E5520B" fill-rule="nonzero"></path>
                <path d="M128.883718,137.037464 L113.063718,130.137464 C104.576168,126.440803 97.7751793,119.707574 93.9937184,111.257464 L93.6637184,112.847464 L95.8537184,127.527464 L109.183718,130.857464 C106.833718,135.857464 109.573718,142.617464 109.573718,142.617464 L110.573718,143.067464 C112.042632,143.700443 113.068861,145.061147 113.273718,146.647464 L113.523718,147.107464 L134.993718,142.617464 L128.883718,137.037464 Z" id="Path" fill="#000000" fill-rule="nonzero" opacity="0.1" style="mix-blend-mode: multiply;"></path>
                <path d="M149.413718,232.577464 L150.553718,231.947464 C154.937563,229.570844 159.956733,228.629968 164.903718,229.257464 C170.813718,230.087464 172.583718,232.507464 172.583718,232.507464" id="Path" stroke="#3C327F" stroke-width="0.9" stroke-linecap="round"></path>
                <path d="M165.133718,144.677464 L115.223718,144.677464 C114.794468,144.676555 114.39084,144.473047 114.134867,144.128468 C113.878894,143.783889 113.800623,143.338688 113.923718,142.927464 L124.393718,108.117464 C124.583244,107.479448 125.168156,107.040764 125.833718,107.037464 L175.913718,107.037464 C176.389005,107.039817 176.835445,107.265811 177.118728,107.647457 C177.402012,108.029102 177.489072,108.521852 177.353718,108.977464 L167.043718,143.257464 C166.788616,144.099333 166.013387,144.675681 165.133718,144.677464 Z" id="Path" fill="#FEFFFF" fill-rule="nonzero"></path>
                <path d="M108.793718,132.697464 C108.793718,132.697464 113.483718,130.137464 116.383718,129.877464 C119.283718,129.617464 123.523718,133.287464 123.713718,133.977464 C123.790867,134.359589 123.834367,134.747741 123.843718,135.137464 C123.89217,136.190216 123.42079,137.199691 122.582511,137.83838 C121.744233,138.477069 120.64585,138.663603 119.643718,138.337464 C119.144647,138.134726 118.612326,138.026228 118.073718,138.017464 C117.173718,138.157464 114.993718,141.077464 109.503718,141.017464 L109.023718,139.347464 C108.413068,137.188419 108.334154,134.913636 108.793718,132.717464 L108.793718,132.697464 Z" id="Path" fill="#FFB6B2" fill-rule="nonzero"></path>
                <path d="M115.903718,131.997464 C115.903718,131.997464 118.513718,130.997464 122.753718,134.547464" id="Path" stroke="#F2A2A0" stroke-width="0.9" stroke-linecap="round"></path>
                <path d="M115.733718,134.167464 C118.090159,134.090708 120.417002,134.709808 122.423718,135.947464" id="Path" stroke="#F2A2A0" stroke-width="0.9" stroke-linecap="round"></path>
                <path d="M115.753718,136.147464 C117.341167,136.035828 118.934024,136.267764 120.423718,136.827464" id="Path" stroke="#F2A2A0" stroke-width="0.9" stroke-linecap="round"></path>
                <path d="M216.823718,176.277464 L186.873718,140.197464 C183.340554,135.889664 177.71087,133.895016 172.253718,135.017464 L113.083718,147.087464 L115.143718,166.367464 C115.873695,173.14824 121.593767,178.290701 128.413718,178.297464 L129.533718,178.297464 L162.203718,162.947464 C166.780439,160.796842 172.207804,161.674273 175.873718,165.157464 L205.963718,193.777464 L215.913718,185.667464 C217.286768,184.547715 218.155364,182.925663 218.326267,181.162173 C218.49717,179.398684 217.956203,177.640029 216.823718,176.277464 L216.823718,176.277464 Z" id="Path" fill="#49439C" fill-rule="nonzero"></path>
                <path d="M170.733718,155.747464 L123.473718,177.327464 C125.060217,177.980398 126.758129,178.31998 128.473718,178.327464 L146.473718,178.327464 L149.023718,232.817464 L150.603718,231.977464 C154.99163,229.612325 160.007101,228.672143 164.953718,229.287464 C171.133718,230.127464 173.083718,232.817464 173.083718,232.817464 L170.733718,155.747464 Z" id="Path" fill="#49439C" fill-rule="nonzero"></path>
                <rect id="Rectangle" fill="#B2D4FF" fill-rule="nonzero" x="94.7037184" y="25.0074642" width="21.94" height="15.45" rx="0.76"></rect>
                <path d="M98.0137184,28.5274642 L104.473718,33.6374642 C105.149116,34.1772566 106.108321,34.1772566 106.783718,33.6374642 L113.473718,28.3074642" id="Path" stroke="#4D9AFF" stroke-width="0.9" stroke-linecap="round"></path>
                <line x1="101.143718" y1="34.0674642" x2="98.0037184" y2="37.0674642" id="Path" stroke="#4D9AFF" stroke-width="0.9" stroke-linecap="round"></line>
                <line x1="109.733718" y1="33.9374642" x2="112.833718" y2="37.1474642" id="Path" stroke="#4D9AFF" stroke-width="0.9" stroke-linecap="round"></line>
                <rect id="Rectangle" fill="#B2D4FF" fill-rule="nonzero" x="140.373718" y="25.0074642" width="21.94" height="15.45" rx="0.76"></rect>
                <path d="M143.683718,28.5274642 L150.143718,33.6374642 C150.819116,34.1772566 151.778321,34.1772566 152.453718,33.6374642 L159.163718,28.3074642" id="Path" stroke="#4D9AFF" stroke-width="0.9" stroke-linecap="round"></path>
                <line x1="146.813718" y1="34.0674642" x2="143.673718" y2="37.0674642" id="Path" stroke="#4D9AFF" stroke-width="0.9" stroke-linecap="round"></line>
                <line x1="155.403718" y1="33.9374642" x2="158.503718" y2="37.1474642" id="Path" stroke="#4D9AFF" stroke-width="0.9" stroke-linecap="round"></line>
                <line x1="122.663718" y1="29.2774642" x2="134.353718" y2="29.2774642" id="Path" stroke="#B2D4FE" stroke-width="0.9" stroke-linecap="round"></line>
                <line x1="131.903718" y1="26.7074642" x2="134.463718" y2="29.2774642" id="Path" stroke="#B2D4FE" stroke-width="0.9" stroke-linecap="round"></line>
                <line x1="134.463718" y1="29.3374642" x2="131.903718" y2="31.9074642" id="Path" stroke="#B2D4FE" stroke-width="0.9" stroke-linecap="round"></line>
                <line x1="134.463718" y1="36.2374642" x2="122.783718" y2="36.2374642" id="Path" stroke="#B2D4FE" stroke-width="0.9" stroke-linecap="round"></line>
                <line x1="125.233718" y1="38.8174642" x2="122.663718" y2="36.2474642" id="Path" stroke="#B2D4FE" stroke-width="0.9" stroke-linecap="round"></line>
                <line x1="122.663718" y1="36.1874642" x2="125.233718" y2="33.6174642" id="Path" stroke="#B2D4FE" stroke-width="0.9" stroke-linecap="round"></line>
                <circle id="Oval" fill="#FFFFFF" fill-rule="nonzero" cx="229.633718" cy="82.5374642" r="17.45"></circle>
                <path d="M230.223718,88.4174642 C225.011521,88.5990353 219.916165,90.0107949 215.353718,92.5374642 C218.912612,97.6411167 224.924604,100.457586 231.123774,99.9253448 C237.322944,99.3931033 242.766864,95.5930644 245.403718,89.9574642 C240.445238,88.7103345 235.331636,88.1915632 230.223718,88.4174642 L230.223718,88.4174642 Z" id="Path" fill="#49439C" fill-rule="nonzero"></path>
                <path d="M223.603718,74.5974642 L223.083718,81.7674642 C223.002233,82.9392316 223.655598,84.0387959 224.723718,84.5274642 L225.373718,84.8174642 L225.373718,90.8174642 C225.373857,91.3614491 225.6685,91.8627249 226.143718,92.1274642 L226.143718,92.1274642 C228.46371,93.4259905 231.319064,93.2981389 233.513718,91.7974642 L233.763718,91.6274642 C234.173174,91.3479981 234.416823,90.8831913 234.413718,90.3874642 L234.413718,82.9674642 L235.713718,78.3874642 L234.473718,75.7774642 C234.473718,75.7774642 233.003718,73.7774642 232.343718,73.5674642 C231.683718,73.3574642 226.613718,73.0574642 226.613718,73.0574642 L223.603718,74.5974642 Z" id="Path" fill="#FFB6B2" fill-rule="nonzero"></path>
                <path d="M225.033718,89.0574642 L225.033718,90.7774642 C225.041524,91.3328348 225.357586,91.8377639 225.853718,92.0874642 L225.853718,92.0874642 C228.369118,93.3888925 231.385144,93.2633833 233.783718,91.7574642 L234.053718,91.5874642 C234.485031,91.3222662 234.749506,90.8537671 234.753718,90.3474642 L234.753718,88.5974642" id="Path" stroke="#FFFFFF" stroke-width="0.68" stroke-linecap="square"></path>
                <path d="M223.113718,75.5774642 C225.820727,76.0783255 228.606994,75.9448312 231.253718,75.1874642 C231.342771,75.1660937 231.436708,75.1865705 231.508788,75.2430653 C231.580867,75.2995601 231.623194,75.3858844 231.623718,75.4774642 C231.623718,76.4774642 231.523718,79.1574642 232.033718,79.1574642 C232.543718,79.1574642 232.773718,78.3774642 233.363718,77.8374642 C233.953718,77.2974642 234.583718,77.9774642 234.733718,78.4274642 C234.81542,79.1897555 234.454174,79.9316685 233.803718,80.3374642 C233.063718,80.7774642 233.313718,82.5874642 234.433718,82.9274642 C234.433718,82.9274642 238.063718,77.1474642 238.013718,75.9274642 C237.963718,74.7074642 233.653718,69.0174642 232.233718,68.7174642 C231.911841,68.6175741 231.562521,68.6613355 231.275232,68.8375399 C230.987942,69.0137443 230.790588,69.3052756 230.733718,69.6374642 C230.705255,69.8069719 230.594869,69.9514639 230.438808,70.0234919 C230.282747,70.09552 230.101176,70.0857777 229.953718,69.9974642 C229.003718,69.4674642 227.543718,68.8474642 226.423718,69.2074642 C226.115818,69.2596503 225.855413,69.4644668 225.732152,69.7514038 C225.60889,70.0383408 225.639603,70.3682149 225.813718,70.6274642 C225.898915,70.8112378 225.86964,71.0277593 225.738701,71.1823105 C225.607762,71.3368618 225.398992,71.4013108 225.203718,71.3474642 C224.033718,71.0274642 222.653718,70.9274642 221.963718,71.4174642 C220.923718,72.2074642 220.863718,74.7974642 223.113718,75.5774642 Z" id="Path" fill="#314351" fill-rule="nonzero"></path>
                <path d="M230.473718,83.6774642 C229.015278,84.7364451 227.185374,85.1487159 225.413718,84.8174642 L225.413718,87.5574642 C229.363718,87.0774642 230.543718,85.0774642 230.883718,83.9374642 C230.920304,83.8283961 230.877736,83.7084404 230.780583,83.6468313 C230.68343,83.5852222 230.556775,83.5978656 230.473718,83.6774642 Z" id="Path" fill="#F2A2A0" fill-rule="nonzero"></path>
                <line x1="215.773718" y1="62.8074642" x2="204.683718" y2="48.7874642" id="Path" stroke="#0265FC" stroke-width="0.9" stroke-linecap="round"></line>
                <line x1="211.063718" y1="66.4174642" x2="203.933718" y2="62.2974642" id="Path" stroke="#0265FC" stroke-width="0.9" stroke-linecap="round"></line>
                <path d="M148.473718,60.0774642 C160.617576,68.2712271 164.183342,84.5592904 156.573718,97.0774642" id="Path" stroke="#B2D4FE" stroke-width="0.9" stroke-linecap="round" stroke-dasharray="0.9"></path>
                <path d="M183.663718,114.987464 C201.663718,108.117464 223.063718,119.487464 225.813718,135.167464" id="Path" stroke="#B2D4FE" stroke-width="0.9" stroke-linecap="round" stroke-dasharray="0.9"></path>
                <line x1="179.943718" y1="102.047464" x2="201.113718" y2="88.7174642" id="Path" stroke="#B2D4FE" stroke-width="0.9" stroke-linecap="round" stroke-dasharray="0.9"></line>
                <path d="M205.963718,193.777464 L216.353718,203.037464 C217.368042,203.947003 218.918164,203.898561 219.873718,202.927464 L233.753718,188.777464 C233.753718,188.777464 229.193718,183.927464 222.183718,188.587464 L214.473718,179.077464 L214.473718,179.077464 C211.162709,182.103346 208.660252,185.908593 207.193718,190.147464 L205.963718,193.777464 Z" id="Path" fill="#FFB6B2" fill-rule="nonzero"></path>
                <path d="M214.473718,179.077464 C211.162709,182.103346 208.660252,185.908593 207.193718,190.147464 L205.943718,193.777464 L206.843718,194.577464 C207.993718,192.047464 211.363718,185.577464 216.733718,181.867464 L214.473718,179.077464 Z" id="Path" fill="#F2A2A0" fill-rule="nonzero"></path>
                <path d="M214.473718,179.077464 C214.987006,178.65152 215.577867,178.328924 216.213718,178.127464 C216.213718,178.127464 217.263718,178.977464 216.993718,182.187464 L214.473718,179.077464 Z" id="Path" fill="#3C327F" fill-rule="nonzero"></path>
                <path d="M216.993718,177.717464 C212.253718,179.377464 208.683718,185.907464 207.213718,190.147464 L206.103718,193.367464" id="Path" stroke="#3C327F" stroke-width="0.9" stroke-linecap="round"></path>
                <path d="M222.183718,188.587464 L219.333718,185.057464 L210.033718,197.407464 L212.973718,200.027464 C212.973718,200.027464 229.193718,183.927464 222.183718,188.587464 Z" id="Path" fill="#FAF1E1" fill-rule="nonzero"></path>
                <path d="M219.473718,203.357464 L233.783718,188.777464 C233.783718,188.777464 229.223718,183.927464 222.213718,188.587464 L212.963718,199.987464 L216.833718,203.447464 C217.595963,204.128906 218.759652,204.089235 219.473718,203.357464 Z" id="Path" fill="#E5520B" fill-rule="nonzero"></path>
                <path d="M214.713718,201.577464 L216.803718,203.447464 C217.565963,204.128906 218.729652,204.089235 219.443718,203.357464 L232.283718,190.277464 C225.817184,192.998845 219.872235,196.822289 214.713718,201.577464 L214.713718,201.577464 Z" id="Path" fill="#000000" fill-rule="nonzero" opacity="0.1" style="mix-blend-mode: multiply;"></path>
                <ellipse id="Oval" fill="#B2D4FE" fill-rule="nonzero" transform="translate(147.403518, 126.268612) rotate(-71.820000) translate(-147.403518, -126.268612) " cx="147.403518" cy="126.268612" rx="2.8" ry="2.48"></ellipse>
                <path d="M49.8037184,173.897464 C49.8037184,173.897464 44.3237184,161.437464 52.8037184,155.597464 C52.8237184,155.597464 60.4737184,165.687464 49.8037184,173.897464 Z" id="Path" fill="#B2D4FE" fill-rule="nonzero"></path>
                <path d="M51.4737184,165.557464 C50.2037184,170.947464 48.9037184,178.217464 49.4737184,185.287464" id="Path" stroke="#79B5FA" stroke-width="0.68" stroke-linecap="round"></path>
                <path d="M48.7337184,215.637464 L44.0437184,215.637464 C42.0520722,215.635891 40.4052241,214.085401 40.2837184,212.097464 L38.4737184,183.587464 L53.6437184,183.587464 L52.4737184,212.007464 C52.393854,214.020901 50.7486418,215.617725 48.7337184,215.637464 L48.7337184,215.637464 Z" id="Path" fill="#B2D4FE" fill-rule="nonzero"></path>
                <path d="M48.7337184,215.637464 L44.0437184,215.637464 C42.0520722,215.635891 40.4052241,214.085401 40.2837184,212.097464 L38.4737184,183.587464 L53.6437184,183.587464 L52.4737184,212.007464 C52.393854,214.020901 50.7486418,215.617725 48.7337184,215.637464 L48.7337184,215.637464 Z" id="Path" fill="#000000" fill-rule="nonzero" opacity="0.1" style="mix-blend-mode: multiply;"></path>
                <path d="M287.023718,139.157464 L238.533718,139.157464 C237.103301,139.157464 235.943718,137.997882 235.943718,136.567464 L235.943718,124.237464 C235.949226,122.810953 237.107197,121.657464 238.533718,121.657464 L280.333718,121.657464 C281.76024,121.657464 282.918211,122.810953 282.923718,124.237464 L282.923718,131.177464 C282.921092,131.831538 283.188895,132.457618 283.663718,132.907464 L287.903718,136.907464 C288.316132,137.261845 288.459635,137.838113 288.261575,138.344515 C288.063516,138.850917 287.567126,139.176915 287.023718,139.157464 Z" id="Path" fill="#FFFFFF" fill-rule="nonzero"></path>
                <path d="M217.093718,161.617464 L265.593718,161.617464 C266.278792,161.620135 266.936578,161.349172 267.421002,160.864748 C267.905426,160.380324 268.176389,159.722538 268.173738,159.037464 L268.173738,146.707464 C268.173738,145.28257 267.018613,144.127464 265.593718,144.127464 L223.793718,144.127464 C222.367197,144.127464 221.209226,145.280953 221.203718,146.707464 L221.203718,153.637464 C221.204376,154.294052 220.937112,154.922484 220.463718,155.377464 L216.213718,159.377464 C215.809527,159.733547 215.671522,160.304579 215.868489,160.805947 C216.065455,161.307316 216.555237,161.631717 217.093718,161.617464 L217.093718,161.617464 Z" id="Path" fill="#FFFFFF" fill-rule="nonzero"></path>
                <path d="M287.023718,139.157464 L238.533718,139.157464 C237.103301,139.157464 235.943718,137.997882 235.943718,136.567464 L235.943718,124.237464 C235.949226,122.810953 237.107197,121.657464 238.533718,121.657464 L280.333718,121.657464 C281.76024,121.657464 282.918211,122.810953 282.923718,124.237464 L282.923718,131.177464 C282.921092,131.831538 283.188895,132.457618 283.663718,132.907464 L287.903718,136.907464 C288.316132,137.261845 288.459635,137.838113 288.261575,138.344515 C288.063516,138.850917 287.567126,139.176915 287.023718,139.157464 Z" id="Path" fill="#FFE5B2" fill-rule="nonzero"></path>
                <path d="M217.093718,161.617464 L265.593718,161.617464 C266.278792,161.620135 266.936578,161.349172 267.421002,160.864748 C267.905426,160.380324 268.176389,159.722538 268.173738,159.037464 L268.173738,146.707464 C268.173738,145.28257 267.018613,144.127464 265.593718,144.127464 L223.793718,144.127464 C222.367197,144.127464 221.209226,145.280953 221.203718,146.707464 L221.203718,153.637464 C221.204376,154.294052 220.937112,154.922484 220.463718,155.377464 L216.213718,159.377464 C215.809527,159.733547 215.671522,160.304579 215.868489,160.805947 C216.065455,161.307316 216.555237,161.631717 217.093718,161.617464 L217.093718,161.617464 Z" id="Path" fill="#CCCCFE" fill-rule="nonzero"></path>
                <line x1="272.933718" y1="126.277464" x2="276.093718" y2="126.277464" id="Path" stroke="#FFFFFF" stroke-width="0.9" stroke-linecap="round"></line>
                <line x1="242.473718" y1="126.277464" x2="269.693718" y2="126.277464" id="Path" stroke="#FFFFFF" stroke-width="0.9" stroke-linecap="round"></line>
                <line x1="251.413718" y1="130.397464" x2="276.093718" y2="130.397464" id="Path" stroke="#FFFFFF" stroke-width="0.9" stroke-linecap="round"></line>
                <line x1="242.473718" y1="130.397464" x2="247.493718" y2="130.397464" id="Path" stroke="#FFFFFF" stroke-width="0.9" stroke-linecap="round"></line>
                <line x1="272.933718" y1="134.517464" x2="276.093718" y2="134.517464" id="Path" stroke="#FFFFFF" stroke-width="0.9" stroke-linecap="round"></line>
                <line x1="242.473718" y1="134.517464" x2="269.693718" y2="134.517464" id="Path" stroke="#FFFFFF" stroke-width="0.9" stroke-linecap="round"></line>
                <line x1="237.723718" y1="148.827464" x2="262.073718" y2="148.827464" id="Path" stroke="#FFFFFF" stroke-width="0.9" stroke-linecap="round"></line>
                <line x1="228.463718" y1="148.827464" x2="233.093718" y2="148.827464" id="Path" stroke="#FFFFFF" stroke-width="0.9" stroke-linecap="round"></line>
                <line x1="228.463718" y1="152.937464" x2="251.393718" y2="152.937464" id="Path" stroke="#FFFFFF" stroke-width="0.9" stroke-linecap="round"></line>
                <line x1="228.463718" y1="157.057464" x2="262.073718" y2="157.057464" id="Path" stroke="#FFFFFF" stroke-width="0.9" stroke-linecap="round"></line>
                <path d="M109.603718,141.077464 L79.4737184,140.287464 C75.4782736,140.18482 71.621755,138.799979 68.4737184,136.337464 L66.0937184,134.477464 C67.1210765,139.250457 71.341411,142.658388 76.2237184,142.657464 L109.573718,142.657464 L109.793718,142.747464 C109.682726,142.197258 109.61916,141.638541 109.603718,141.077464 L109.603718,141.077464 Z" id="Path" fill="#000000" fill-rule="nonzero" opacity="0.1" style="mix-blend-mode: multiply;"></path>
                <polygon id="Path" fill="#000000" fill-rule="nonzero" opacity="0.1" style="mix-blend-mode: multiply;" points="135.603718 102.897464 127.033718 100.137464 127.863718 95.4874642"></polygon>
                <path d="M178.243718,160.477464 C173.974141,156.07577 167.418376,154.791733 161.803718,157.257464 L120.313718,175.477464 C122.646316,177.292899 125.517908,178.27825 128.473718,178.277464 L129.583718,178.277464 L162.263718,162.927464 C166.840439,160.776842 172.267804,161.654273 175.933718,165.137464 L206.023718,193.757464 L207.103718,190.427464 L178.243718,160.477464 Z" id="Path" fill="#000000" fill-rule="nonzero" opacity="0.1" style="mix-blend-mode: multiply;"></path>
                <line x1="83.8737184" y1="239.747464" x2="101.223718" y2="239.747464" id="Path" stroke="#F58220" stroke-width="0.9" stroke-linecap="round"></line>
                <polygon id="Path" fill="#000000" fill-rule="nonzero" opacity="0.1" style="mix-blend-mode: multiply;" points="102.023718 103.117464 110.583718 100.447464 109.823718 96.2574642"></polygon>
                <line x1="105.703718" y1="239.747464" x2="108.243718" y2="239.747464" id="Path" stroke="#F58220" stroke-width="0.9" stroke-linecap="round"></line>
                <polygon id="Path" fill="#B22485" fill-rule="nonzero" points="102.273718 84.1374642 107.733718 83.7374642 110.263718 97.6374642 102.023718 103.117464"></polygon>
                <path d="M135.363718,84.4774642 L135.273718,84.4774642 C133.525247,83.9482715 131.718375,83.6359312 129.893718,83.5474642 L129.893718,83.5474642 L127.373718,97.4474642 L135.603718,102.927464 L135.363718,84.4774642 Z" id="Path" fill="#B22485" fill-rule="nonzero"></path>
                <line x1="109.843718" y1="97.2374642" x2="114.593718" y2="126.517464" id="Path" stroke="#B22485" stroke-width="0.68" stroke-linecap="round"></line>
                <circle id="Oval" fill="#B22485" fill-rule="nonzero" cx="108.153718" cy="108.017464" r="1"></circle>
                <circle id="Oval" fill="#B22485" fill-rule="nonzero" cx="109.133718" cy="114.347464" r="1"></circle>
                <circle id="Oval" fill="#B22485" fill-rule="nonzero" cx="110.313718" cy="120.777464" r="1"></circle>
                <path d="M109.603718,82.8574642 C109.603718,82.8574642 117.753718,90.2874642 126.943718,83.1474642" id="Path" stroke="#FFFFFF" stroke-width="0.45" stroke-linecap="round"></path>
                <line x1="118.833718" y1="86.3074642" x2="118.833718" y2="87.2374642" id="Path" stroke="#FFFFFF" stroke-width="0.45" stroke-linecap="round"></line>
                <path d="M146.413718,178.297464 L128.413718,178.297464 C121.593767,178.290701 115.873695,173.14824 115.143718,166.367464 L113.223718,146.367464 C113.033434,144.427643 111.402849,142.948439 109.453718,142.947464 L68.4537184,142.947464 C66.4955956,142.947432 64.5979693,142.268951 63.0837184,141.027464" id="Path" stroke="#0265FC" stroke-width="0.9" stroke-linecap="round"></path>
                <path d="M167.753718,161.787464 C165.838593,161.736269 163.938019,162.133506 162.203718,162.947464 L134.573718,175.947464" id="Path" stroke="#3C327F" stroke-width="0.9" stroke-linecap="round"></path>
                <path d="M127.253718,196.477464 L70.9837184,165.577464 C64.5908865,162.057242 59.9342994,156.054695 58.1137184,148.987464 L41.1137184,82.6974642 C40.0229497,85.0417916 39.7722434,87.6900977 40.4037184,90.1974642 L55.4037184,151.047464 C57.0766216,157.800412 61.4616578,163.563913 67.5237184,166.977464 L116.573718,194.547464 C119.818507,196.364831 123.578089,197.044231 127.253718,196.477464 L127.253718,196.477464 Z" id="Path" fill="#000000" fill-rule="nonzero" opacity="0.1" style="mix-blend-mode: multiply;"></path>
                <line x1="127.763718" y1="97.1574642" x2="126.353718" y2="105.507464" id="Path" stroke="#B22485" stroke-width="0.68" stroke-linecap="round"></line>
                <path d="M93.4737184,111.747464 C93.4737184,111.747464 86.7837184,124.317464 83.4737184,124.747464 L88.8637184,126.197464 L93.4737184,111.747464 Z" id="Path" fill="#000000" fill-rule="nonzero" opacity="0.1" style="mix-blend-mode: multiply;"></path>
                <path d="M81.9337184,124.587464 L109.033718,130.707464 C109.095801,130.720241 109.148792,130.760376 109.177912,130.816674 C109.207032,130.872973 109.209166,130.939413 109.183718,130.997464 C108.183431,133.432086 107.983801,136.12185 108.613718,138.677464 L109.483718,142.217464" id="Path" stroke="#B22485" stroke-width="0.68" stroke-linecap="round"></path>
                <line x1="94.1137184" y1="110.347464" x2="89.0437184" y2="125.807464" id="Path" stroke="#B22485" stroke-width="0.68" stroke-linecap="round"></line>
                <path d="M40.1937184,183.587464 L41.8937184,210.117464 C42.0205185,212.105307 43.67184,213.651504 45.6637184,213.647472 L50.3437184,213.647472 C51.0244081,213.647925 51.6921049,213.461109 52.2737184,213.107464 C52.4067098,212.754869 52.4842959,212.383805 52.5037184,212.007464 L53.6437184,183.587464 L40.1937184,183.587464 Z" id="Path" fill="#B2D4FE" fill-rule="nonzero"></path>
                <path d="M39.6737184,160.317464 C39.6737184,160.317464 23.5737184,153.727464 24.6737184,135.857464 C24.6737184,135.857464 29.5837184,141.287464 33.5637184,143.277464 C37.5437184,145.267464 43.7437184,153.307464 39.6737184,160.317464 Z" id="Path" fill="#B2D4FF" fill-rule="nonzero"></path>
                <path d="M45.6337184,184.137464 C45.6337184,184.137464 44.3737184,160.207464 30.6837184,145.137464" id="Path" stroke="#79B5FA" stroke-width="0.68" stroke-linecap="round"></path>
                <path d="M23.8437184,168.717464 C23.8437184,168.717464 40.2437184,164.547464 40.6037184,179.407464 L40.6037184,179.407464 C38.2637184,177.787464 34.0237184,177.737464 31.2237184,177.197464 C27.3937184,176.477464 25.8937184,174.387464 23.8437184,168.717464 Z" id="Path" fill="#B2D4FF" fill-rule="nonzero"></path>
                <path d="M33.0837184,173.377464 C33.0837184,173.377464 41.3437184,175.047464 42.5937184,184.877464" id="Path" stroke="#79B5FA" stroke-width="0.68" stroke-linecap="round"></path>
                <line x1="12.0537184" y1="64.4074642" x2="32.1437184" y2="64.4074642" id="Path" stroke="#FFC74F" stroke-width="1.8" stroke-linecap="round"></line>
                <line x1="9.11371842" y1="71.7574642" x2="48.8137184" y2="71.7574642" id="Path" stroke="#FFC74F" stroke-width="1.8" stroke-linecap="round"></line>
                <line x1="6.80371842" y1="79.1074642" x2="32.1437184" y2="79.1074642" id="Path" stroke="#B2D4FE" stroke-width="1.8" stroke-linecap="round"></line>
                <line x1="5.58371842" y1="86.4574642" x2="12.5437184" y2="86.4574642" id="Path" stroke="#B2D4FE" stroke-width="1.8" stroke-linecap="round"></line>
            </g>
        </g>
    </g>
</svg>