<?xml version="1.0" encoding="UTF-8"?>
<svg width="124px" height="124px" viewBox="0 0 124 124" version="1.1" xmlns="http://www.w3.org/2000/svg" xmlns:xlink="http://www.w3.org/1999/xlink">
    <title>characters4 (1)-06</title>
    <g id="Page-1" stroke="none" stroke-width="1" fill="none" fill-rule="evenodd">
        <g id="MC-1263-DWP-Landing-Page-Web" transform="translate(-432.000000, -2817.000000)">
            <g id="characters4-(1)-06" transform="translate(433.000000, 2818.000000)">
                <circle id="Oval" fill="#B2D4FF" fill-rule="nonzero" cx="61.5" cy="60.5" r="57.5"></circle>
                <circle id="Oval" stroke="#B2D4FF" stroke-width="1.45" cx="61" cy="61" r="61"></circle>
                <path d="M110,92.6518836 C101.019561,82.0696983 87.8896141,75.984091 74.0729467,76 L45.3901863,76 L25.6557334,77.4746013 C19.5401274,77.9361629 13.5581831,79.5111199 8,82.1230936 C15.896066,102.369209 34.3452931,116.479987 55.8181168,118.696485 C77.2909404,120.912984 98.1954414,110.864433 110,92.6518836 L110,92.6518836 Z" id="Path" fill="#E085D3" fill-rule="nonzero"></path>
                <path d="M43.2650602,115.15223 C51.8959222,117.987978 61.0781508,118.719446 70.0481928,117.285809 L76,86.5605101 L38,85 L43.2650602,115.15223 Z" id="Path" fill="#F7DFF5" fill-rule="nonzero"></path>
                <path d="M74.5125736,18.5329371 C74.5125736,18.5329371 62.3052832,6.61838662 45.8966655,21.4221262 C45.8966655,21.4221262 35.6007086,31.7623817 38.5218032,45.7431944 L53.0821975,74 C53.0821975,74 89.1270623,18.6402754 74.5125736,18.5329371 Z" id="Path" fill="#000000" fill-rule="nonzero"></path>
                <path d="M71.6447941,18.9277132 C71.6447941,18.9277132 80.3289406,15.1292398 83.8831738,22.9045188 C87.4374069,30.6797977 86.909196,38.4283268 88.4938289,47.6302624 C90.1769418,57.4385271 87.8671379,66.9792937 78.4667731,67.8620375 C72.5536051,68.3366416 66.6058957,67.5836533 61,65.6507197 L71.6447941,18.9277132 Z" id="Path" fill="#000000" fill-rule="nonzero"></path>
                <path d="M74.1556095,75.6768188 L74.1556095,75.6768188 C72.3748674,75.6729478 70.9173263,74.2637538 70.8594201,72.489965 C70.6981934,67.3570772 70.4653105,62.4741388 70.4653105,62.4741388 C70.4653105,62.4741388 73.9585547,62.5455528 75.4633369,61.8314119 C88.5047821,55.582679 82.4766965,28.3739103 75.2214969,23 C75.2214969,23 66.1032336,35.9527307 53.1155306,40.1750889 C52.3534143,40.41728 51.5194313,40.2060258 50.9658418,39.6305564 C49.7297708,38.3629563 47.329285,36.5686773 45.5916199,39.4430944 C43.1015637,43.4690638 48.2787308,47.8163966 50.9658418,46.5845035 C50.7818438,49.7347007 49.6660754,52.7600779 47.7592227,55.2791691 C46.1374632,57.3774643 45.091077,59.8599995 44.7227873,62.4830655 L43.3165326,71.2312917 C42.879966,73.9608743 40.6184778,76.033672 37.8527402,76.2392048 L28,76.9622724 C34.0719065,87.4188476 45.2374138,93.897932 57.359323,93.9988052 C69.4812321,94.0996783 80.7537399,87.8073132 87,77.4532443 C82.8203849,76.2775889 78.4985037,75.6798572 74.1556095,75.6768188 Z" id="Path" fill="#FFB6B2" fill-rule="nonzero"></path>
                <path d="M75,51.2573546 C73.9891909,52.5554351 72.2782214,53.2076431 70.5827657,52.9411695 C68.8873099,52.6746959 67.4995632,51.5354647 67,50 L75,51.2573546 Z" id="Path" fill="#FFFFFF" fill-rule="nonzero"></path>
                <line x1="71.095" y1="43" x2="71.905" y2="46" id="Path" stroke="#FF8880" stroke-width="1.45" stroke-linecap="round"></line>
                <line x1="48.585" y1="46" x2="48.415" y2="48" id="Path" stroke="#FFFFFF" stroke-width="1.09" stroke-linecap="round"></line>
                <path d="M70.7034851,63.2174341 C66.2930494,62.3989515 62.1341584,60.6451692 58.5371078,58.0869371 C58.4294477,57.9853683 58.260845,57.9711219 58.1359952,58.0530444 C58.0111455,58.1349668 57.9655294,58.2897768 58.0274728,58.4213434 C59.2598629,61.2813975 63.1979515,68.981543 71,72 L70.7034851,63.2174341 Z" id="Path" fill="#F2A2A0" fill-rule="nonzero"></path>
                <circle id="Oval" fill="#000000" fill-rule="nonzero" cx="62" cy="40" r="1"></circle>
                <circle id="Oval" fill="#000000" fill-rule="nonzero" cx="77" cy="40" r="1"></circle>
                <path d="M53,36 L83.8362188,36 C83.8855298,35.9988611 83.9326475,36.0196018 83.9638829,36.0562445 C83.9951182,36.0928871 84.0069689,36.1413232 83.995992,36.1874806 L83.995992,40.9414455 C83.9910994,42.6320157 82.5618738,44 80.8005289,44 L76.5399115,44 C75.103163,44.000138 73.842973,43.0798984 73.4598401,41.7508123 L72.2526651,37.5506247" id="Path" stroke="#FF8880" stroke-width="1.09" stroke-linecap="round"></path>
                <path d="M69,37.5599129 L68.4270833,41.3856209 C68.1690028,42.895209 66.8465601,44.0001498 65.2980769,44 L61.1730769,44 C59.4240713,44 58.0048583,42.6007135 58,40.8714597 L58,36" id="Path" stroke="#FF8880" stroke-width="1.09" stroke-linecap="round"></path>
                <path d="M51.0955034,46.5387747 C51.0955034,46.5387747 54.7986068,58.6927048 51.8774694,64.0984292 C49.2978803,68.8866123 37.9189266,66.7833917 35.8516601,64.6354217 C30.6475415,59.2654968 33.7574293,53.5107273 35.8516601,47.2995141 C37.945891,41.0883009 39.9232763,34 39.9232763,34 L42.2691743,38.9224312 L45.2981691,47.7917572 C45.2981691,47.7917572 50.0438939,52.812637 51.0955034,46.5387747 Z" id="Path" fill="#000000" fill-rule="nonzero"></path>
                <path d="M51.9192749,66 C51.9192749,66 55.3441878,59.9853013 50,48" id="Path" stroke="#000000" stroke-width="1.45" stroke-linecap="round"></path>
                <path d="M41,75 C41,75 55.5814154,88.1455034 72,75.5212263" id="Path" stroke="#FFFFFF" stroke-width="0.72" stroke-linecap="round"></path>
                <line x1="57.5" y1="81" x2="57.5" y2="83" id="Path" stroke="#FFFFFF" stroke-width="0.72" stroke-linecap="round"></line>
                <line x1="43" y1="112" x2="37" y2="77" id="Path" stroke="#B22485" stroke-width="1.09" stroke-linecap="round"></line>
                <line x1="71" y1="115" x2="77" y2="77" id="Path" stroke="#B22485" stroke-width="1.09" stroke-linecap="round"></line>
                <path d="M27.3914174,76.7349267 L27,107.207496 C27.9102731,107.843835 28.8205462,108.453286 29.7308192,109 L41,101.570071 L37.3589077,76 L27.3914174,76.7349267 Z" id="Path" fill="#B22485" fill-rule="nonzero"></path>
                <path d="M87.0461449,77.7353584 L86.8971963,77.6814095 C83.8252238,76.737331 80.6544371,76.1728696 77.4521028,76 L74,101.742649 L86.5642523,113 C87.3878505,112.595383 88.2026869,112.163791 89,111.714216 L87.0461449,77.7353584 Z" id="Path" fill="#B22485" fill-rule="nonzero"></path>
            </g>
        </g>
    </g>
</svg>