<?xml version="1.0" encoding="UTF-8"?>
<svg width="297px" height="273px" viewBox="0 0 297 273" version="1.1" xmlns="http://www.w3.org/2000/svg" xmlns:xlink="http://www.w3.org/1999/xlink">
    <title>Group 24</title>
    <g id="Page-1" stroke="none" stroke-width="1" fill="none" fill-rule="evenodd">
        <g id="MC-1263-DWP-Landing-Page-Web" transform="translate(-811.000000, -3391.000000)">
            <g id="Manager-illustration-2-01" transform="translate(811.000000, 3391.000000)">
                <g id="Group-24" transform="translate(0.228192, 0.589920)">
                    <path d="M55.7718078,9.21008008 C69.2718078,1.61008008 104.171808,-8.58991992 156.371808,12.8100801 C208.571808,34.2100801 252.071808,53.7100801 281.471808,90.1100801 C281.471808,90.1100801 306.471808,116.31008 290.471808,156.21008 C274.471808,196.11008 226.671808,224.51008 211.971808,235.01008 C197.271808,245.51008 141.371808,276.61008 96.7718078,271.41008 C52.1718078,266.21008 21.6718078,205.91008 13.3718078,181.31008 C6.1536552,160.390388 1.78114774,138.59512 0.371807761,116.51008 C-1.72819224,81.2100801 3.57180776,38.6100801 55.7718078,9.21008008 Z" id="Path" fill="#ECF3FF" fill-rule="nonzero"></path>
                    <path d="M193.571808,107.71008 L185.671808,107.71008 C187.78544,89.9396036 175.960338,73.5031508 158.439683,69.858438 C140.919028,66.2137253 123.520212,76.5709084 118.371808,93.7100801 C113.720022,90.2343391 107.40546,89.9910465 102.50003,93.0985591 C97.5945991,96.2060717 95.1167109,102.019242 96.2718078,107.71008 L89.9718078,107.71008 C84.8106915,107.699461 79.8567438,109.739527 76.1997821,113.381486 C72.5428203,117.023445 70.4824055,121.968964 70.4717665,127.13008 L70.4717665,127.21008 L70.4717665,127.21008 C70.4611882,132.371196 72.5012546,137.325144 76.1432135,140.982106 C79.7851723,144.639068 84.7306915,146.699482 89.8918078,146.71008 L193.571808,146.71008 C204.353143,146.699292 213.105872,137.991219 213.171818,127.21008 L213.171818,127.21008 C213.177115,122.043662 211.129852,117.086739 207.480393,113.429779 C203.830934,109.772819 198.878226,107.715382 193.711808,107.71008 L193.571808,107.71008 Z" id="Path" fill="#B2D4FE" fill-rule="nonzero"></path>
                    <path d="M188.871808,145.11008 C188.871808,145.11008 190.371808,142.81008 186.071808,132.21008 C186.071808,132.21008 182.571808,124.91008 180.471808,124.41008 L178.571808,130.91008 C178.571808,130.81008 179.371808,147.71008 188.871808,145.11008 Z" id="Path" fill="#B22485" fill-rule="nonzero"></path>
                    <path d="M168.071808,140.51008 L189.571808,114.51008 C191.578737,112.028079 193.074179,109.173144 193.971808,106.11008 L195.271808,101.21008 C195.309999,101.038864 195.414781,100.889897 195.563011,100.79608 C195.71124,100.702264 195.89072,100.671319 196.061808,100.71008 L196.061808,100.71008 C196.261808,100.81008 196.461808,100.91008 196.461808,101.11008 L197.761808,104.61008 C197.890928,104.924707 198.232634,105.09556 198.561808,105.01008 C198.637615,104.999512 198.707869,104.964385 198.761808,104.91008 L206.161808,98.2100801 C206.287556,98.0836714 206.458505,98.0125999 206.636808,98.0125999 C206.815111,98.0125999 206.986059,98.0836714 207.111808,98.2100801 L207.161808,98.2100801 C207.391729,98.4135758 207.434563,98.7562497 207.261808,99.0100801 L205.261808,103.31008 C205.093142,103.667741 205.13141,104.088698 205.361808,104.41008 L207.261808,107.61008 C207.902309,108.711468 207.823603,110.088824 207.061808,111.11008 L203.561808,115.31008 C201.861808,117.31008 189.861808,138.71008 183.461808,149.51008 C182.061808,152.01008 177.761808,156.21008 171.761808,158.81008 C171.761808,158.81008 165.561808,164.81008 164.261808,153.01008 C163.736638,148.494735 165.117352,143.964835 168.071808,140.51008 Z" id="Path" fill="#FFB6B2" fill-rule="nonzero"></path>
                    <line x1="204.271808" y1="104.51008" x2="201.371808" y2="107.71008" id="Path" stroke="#F2A2A0" stroke-width="0.9" stroke-linecap="round"></line>
                    <line x1="205.171808" y1="107.11008" x2="202.271808" y2="110.11008" id="Path" stroke="#F2A2A0" stroke-width="0.9" stroke-linecap="round"></line>
                    <line x1="205.971808" y1="109.21008" x2="203.471808" y2="112.11008" id="Path" stroke="#F2A2A0" stroke-width="0.9" stroke-linecap="round"></line>
                    <path d="M181.871808,123.71008 L167.971808,140.51008 C165.064865,144.029563 163.695455,148.570238 164.171808,153.11008 C165.471808,164.91008 171.671808,158.91008 171.671808,158.91008 C177.671808,156.31008 181.871808,152.01008 183.371808,149.61008 C185.171808,146.51008 187.371808,142.71008 189.671808,138.61008 C184.271808,137.61008 182.471808,127.51008 181.871808,123.71008 Z" id="Path" fill="#F2A2A0" fill-rule="nonzero"></path>
                    <path d="M180.471808,124.41008 L172.771808,133.71008 C168.952013,138.399779 164.089476,142.13229 158.571808,144.61008 C157.271808,145.21008 155.971808,145.71008 154.571808,146.21008 L114.771808,161.11008 L84.8718078,180.21008 L75.3718078,233.71008 L130.271808,244.41008 C131.561582,236.984227 133.399951,229.664177 135.771808,222.51008 L138.971808,213.11008 C140.283571,209.185413 140.760436,205.029874 140.371808,200.91008 L139.771808,194.71008 C139.264514,190.535412 140.789145,186.370568 143.871808,183.51008 C144.871808,182.61008 171.971808,163.11008 171.971808,163.11008 C177.059585,159.388615 181.57426,154.941323 185.371808,149.91008 L189.071808,145.01008 C176.871808,143.51008 180.471808,124.41008 180.471808,124.41008 Z" id="Path" fill="#E085D3" fill-rule="nonzero"></path>
                    <path d="M88.3718078,181.11008 L123.071808,166.71008 L127.771808,187.31008 C130.867881,200.832074 131.275611,214.830808 128.971808,228.51008 L127.271808,238.51008 L113.571808,236.71008 L113.571808,234.01008 C114.371808,212.21008 101.571808,193.51008 90.7718078,183.31008 L88.3718078,181.11008 Z" id="Path" fill="#F7DFF5" fill-rule="nonzero"></path>
                    <path d="M100.371808,127.71008 C100.371808,127.71008 90.2718078,124.01008 84.6718078,136.81008 C84.6718078,136.81008 81.4718078,145.41008 86.7718078,152.81008 L102.471808,165.41008 C102.571808,165.31008 108.771808,123.91008 100.371808,127.71008 Z" id="Path" fill="#000000" fill-rule="nonzero"></path>
                    <path d="M98.5718078,128.41008 C98.5718078,128.41008 102.571808,123.91008 106.671808,127.51008 C110.771808,131.11008 112.471808,135.71008 115.871808,140.61008 C119.371808,145.81008 120.571808,152.01008 115.371808,155.01008 C112.059586,156.809513 108.422183,157.931329 104.671808,158.31008 L98.5718078,128.41008 Z" id="Path" fill="#000000" fill-rule="nonzero"></path>
                    <path d="M114.771808,161.01008 L114.771808,161.01008 C113.777669,161.490106 112.582604,161.073847 112.101808,160.08008 L112.101808,160.01008 C110.701808,157.11008 109.301808,154.31008 109.301808,154.31008 C110.292106,153.901412 111.205257,153.326465 112.001808,152.61008 C117.901808,145.61008 107.301808,131.41008 101.701808,130.21008 C101.701808,130.21008 99.8018078,140.11008 93.4018078,145.91008 C93.0038906,146.220916 92.4708421,146.297065 92.0018078,146.11008 C90.9018078,145.71008 89.1018078,145.31008 88.8018078,147.41008 C88.4018078,150.41008 92.6018078,151.51008 93.8018078,150.11008 C94.5318603,151.990346 94.671395,154.048483 94.2018078,156.01008 C93.8347087,157.660752 93.8690018,159.375407 94.3018078,161.01008 L94.4018078,161.41008 C95.8932522,166.577212 94.2092362,172.138381 90.1018078,175.61008 L85.3018078,180.01008 C91.4018078,184.41008 101.101808,184.61008 112.601808,179.81008 C119.901808,176.81008 126.201808,167.61008 123.701808,157.81008 C123.571808,157.71008 114.871808,160.91008 114.771808,161.01008 Z" id="Path" fill="#FFB6B2" fill-rule="nonzero"></path>
                    <path d="M96.2718078,161.31008 C95.8000859,160.032682 94.9660279,158.920605 93.8718078,158.11008 C93.8592817,159.124167 93.9940197,160.134702 94.2718078,161.11008 L94.3718078,161.51008 C95.882036,166.677319 94.1949237,172.248713 90.0718078,175.71008 L86.5718078,178.81008 L88.7718078,180.41008 C88.7718078,180.41008 100.571808,171.11008 96.2718078,161.31008 Z" id="Path" fill="#F2A2A0" fill-rule="nonzero"></path>
                    <path d="M107.871808,146.71008 C107.63971,147.723354 106.872562,148.52886 105.871808,148.81008 C104.832071,149.050167 103.741393,148.74929 102.971808,148.01008 L107.871808,146.71008 Z" id="Path" fill="#FFFFFF" fill-rule="nonzero"></path>
                    <line x1="104.571808" y1="142.41008" x2="105.771808" y2="144.01008" id="Path" stroke="#FF8880" stroke-width="0.68" stroke-linecap="round"></line>
                    <line x1="91.9718078" y1="150.31008" x2="92.2718078" y2="151.41008" id="Path" stroke="#FFFFFF" stroke-width="0.68" stroke-linecap="round"></line>
                    <path d="M109.171808,154.31008 C106.478735,154.943148 103.679518,154.977285 100.971808,154.41008 C100.861883,154.396849 100.751809,154.43354 100.671808,154.51008 C100.671808,154.61008 100.671808,154.71008 100.771808,154.71008 C102.171808,156.11008 106.471808,159.61008 111.571808,159.41008 L109.171808,154.31008 Z" id="Path" fill="#F2A2A0" fill-rule="nonzero"></path>
                    <circle id="Oval" fill="#000000" fill-rule="nonzero" cx="98.3718078" cy="143.41008" r="1"></circle>
                    <circle id="Oval" fill="#000000" fill-rule="nonzero" cx="106.971808" cy="139.51008" r="1"></circle>
                    <path d="M92.1718078,143.51008 L110.171808,135.41008 L110.271808,135.41008 L111.571808,138.31008 C111.812188,138.783429 111.854507,139.332929 111.689442,139.837503 C111.524377,140.342078 111.165472,140.760322 110.691808,141.00008 L110.571808,141.00008 L108.071808,142.10008 C107.233346,142.519622 106.214196,142.264835 105.671808,141.50008 L103.271808,138.60008" id="Path" stroke="#FF8880" stroke-width="0.68" stroke-linecap="round"></path>
                    <path d="M101.971808,139.31008 L102.871808,142.71008 C103.160239,143.672829 102.689408,144.700096 101.771808,145.11008 L99.3718078,146.21008 C98.3776686,146.690106 97.1826035,146.273847 96.7018078,145.28008 L96.7018078,145.21008 L95.4018078,142.31008" id="Path" stroke="#FF8880" stroke-width="0.68" stroke-linecap="round"></path>
                    <path d="M93.6718078,150.21008 C93.6718078,150.21008 98.9718078,156.31008 98.6718078,160.21008 C98.4718078,163.61008 91.3718078,165.41008 89.5718078,164.71008 C85.1718078,163.01008 85.4718078,158.81008 85.0718078,154.71008 C84.6718078,150.61008 83.9718078,146.01008 83.9718078,146.01008 L86.5718078,148.21008 L90.6718078,152.51008 C90.6718078,152.51008 94.7718078,154.11008 93.6718078,150.21008 Z" id="Path" fill="#000000" fill-rule="nonzero"></path>
                    <path d="M99.6718078,161.11008 C99.6718078,161.11008 100.171808,156.61008 93.6718078,151.11008" id="Path" stroke="#000000" stroke-width="0.9" stroke-linecap="round"></path>
                    <path d="M52.7718078,247.01008 C65.1718078,259.71008 79.8718078,269.41008 96.6718078,271.41008 C129.171808,275.21008 167.671808,259.71008 191.871808,247.01008 L52.7718078,247.01008 Z" id="Path" fill="#FFE5B2" fill-rule="nonzero"></path>
                    <path d="M215.371808,205.609979 L162.671808,205.609979 C161.176266,205.599261 159.810506,206.457739 159.171808,207.81008 L139.671808,247.01008 L191.871808,247.01008 C194.871808,245.41008 197.671808,243.91008 200.171808,242.41008 L217.071808,208.41008 C217.496056,207.415585 217.053128,206.263972 216.071808,205.81008 C215.849789,205.708783 215.61383,205.641367 215.371808,205.609979 Z" id="Path" fill="#A8AAAD" fill-rule="nonzero"></path>
                    <path d="M200.171808,242.41008 L217.071808,208.41008 C217.551833,207.415941 217.135575,206.220876 216.141808,205.74008 L216.071808,205.74008 C215.823464,205.614396 215.55008,205.54605 215.271808,205.539979 L162.571808,205.539979 C161.076266,205.529261 159.710506,206.387739 159.071808,207.74008 L156.971808,211.94008 L191.971808,246.94008 C194.971808,245.31008 197.771808,243.81008 200.171808,242.41008 Z" id="Path" fill="#000000" fill-rule="nonzero" opacity="0.1"></path>
                    <path d="M142.011808,24.9500801 L175.711808,24.9500801 C176.425286,24.9608109 177.001077,25.536602 177.011808,26.2500801 L177.011808,49.2500801 C176.995937,49.9613725 176.4231,50.5342089 175.711808,50.5500801 L142.011808,50.5500801 C141.29833,50.5393493 140.722539,49.9635581 140.711808,49.2500801 L140.711808,26.2500801 C140.717251,25.5343765 141.296104,24.9555229 142.011808,24.9500801 Z" id="Path" fill="#FFFFFF" fill-rule="nonzero"></path>
                    <path d="M146.311808,30.7500801 L157.011808,39.1500801 C158.117009,40.0545636 159.706606,40.0545636 160.811808,39.1500801 L171.911808,30.3500801" id="Path" stroke="#4D9AFF" stroke-width="0.9" stroke-linecap="round"></path>
                    <line x1="151.411808" y1="39.9500801" x2="146.211808" y2="44.8500801" id="Path" stroke="#4D9AFF" stroke-width="0.9" stroke-linecap="round"></line>
                    <line x1="165.511808" y1="39.7500801" x2="170.711808" y2="45.0500801" id="Path" stroke="#4D9AFF" stroke-width="0.9" stroke-linecap="round"></line>
                    <ellipse id="Oval" fill="#FFFFFF" fill-rule="nonzero" transform="translate(180.866921, 226.409437) rotate(-71.820000) translate(-180.866921, -226.409437) " cx="180.866921" cy="226.409437" rx="2.8" ry="2.5"></ellipse>
                    <path d="M46.4718078,110.01008 C55.2831137,101.021616 69.4815732,100.199144 79.2718078,108.11008" id="Path" stroke="#B2D4FE" stroke-width="0.9" stroke-linecap="round" stroke-dasharray="0.9"></path>
                    <rect id="Rectangle" fill="#A8AAAD" fill-rule="nonzero" x="127.971808" y="243.91008" width="28.3" height="3.1"></rect>
                    <path d="M181.861808,52.1400801 C182.42159,53.6172565 182.791223,55.1596319 182.961808,56.7300801 C183.86988,63.4670761 181.493729,70.2311136 176.571808,74.9200801" id="Path" stroke="#B2D4FE" stroke-width="0.9" stroke-linecap="round" stroke-dasharray="0.9"></path>
                    <path d="M249.121808,125.23008 C247.08305,132.841771 242.102957,139.33125 235.277884,143.269874 C228.452812,147.208498 220.342282,148.273377 212.731808,146.23008 L212.731808,146.23008 C211.031562,145.759835 209.372684,145.151134 207.771808,144.41008" id="Path" stroke="#CCCCFE" stroke-width="0.9" stroke-linecap="round" stroke-dasharray="0.9"></path>
                    <path d="M192.071808,151.81008 C198.355087,169.309994 194.299287,188.855087 181.571808,202.41008" id="Path" stroke="#B2D4FE" stroke-width="0.9" stroke-linecap="round"></path>
                    <path d="M91.3718078,230.51008 L108.271808,234.51008 C112.717711,235.602554 117.320714,235.907164 121.871808,235.41008 L121.871808,235.41008 C122.684308,235.308392 123.509339,235.411521 124.271808,235.71008 C126.301036,236.513307 128.042732,237.906663 129.271808,239.71008 L131.871808,243.81008 C132.449752,244.786805 132.189876,246.042875 131.271808,246.71008 C130.942016,246.914692 130.559816,247.018928 130.171808,247.01008 L87.7718078,247.01008 L91.3718078,230.51008 Z" id="Path" fill="#FFB6B2" fill-rule="nonzero"></path>
                    <polygon id="Path" fill="#F2A2A0" fill-rule="nonzero" points="94.7718078 247.01008 98.5718078 247.01008 98.2718078 232.11008"></polygon>
                    <path d="M124.071808,238.41008 C126.028755,239.077613 127.880676,240.020409 129.571808,241.21008" id="Path" stroke="#F2A2A0" stroke-width="0.9" stroke-linecap="round"></path>
                    <path d="M123.871808,241.81008 C126.38913,242.525212 128.860401,243.393496 131.271808,244.41008" id="Path" stroke="#F2A2A0" stroke-width="0.9" stroke-linecap="round"></path>
                    <line x1="124.471808" y1="245.01008" x2="130.271808" y2="246.31008" id="Path" stroke="#F2A2A0" stroke-width="0.9" stroke-linecap="round"></line>
                    <path d="M85.0718078,180.01008 L82.2718078,182.11008 C74.2874062,188.058957 68.4034555,196.394554 65.4718078,205.91008 L57.4718078,231.61008 C55.5064108,237.799746 58.911926,244.414132 65.0918078,246.41008 L65.2718078,246.47008 C66.4366976,246.831118 67.6526189,246.999996 68.8718078,246.97008 L94.8718078,246.97008 L98.6718078,230.27008 L80.2718078,230.27008 L85.0718078,180.01008 Z" id="Path" fill="#E085D3" fill-rule="nonzero"></path>
                    <path d="M68.7718078,247.11008 L94.7718078,247.11008 L95.3718078,244.91008 C85.1718078,244.91008 74.7718078,245.01008 69.0718078,244.01008 C62.0718078,242.81008 60.6718078,237.51008 60.6718078,234.51008 C60.6718078,231.51008 67.1718078,206.81008 73.7718078,195.11008 C75.8718078,191.41008 83.7718078,184.21008 86.9718078,181.31008 L85.0718078,180.11008 L82.2718078,182.21008 C74.2874062,188.158957 68.4034555,196.494554 65.4718078,206.01008 L57.4718078,231.71008 C55.4804571,237.912041 58.8912065,244.554498 65.0918078,246.55008 L65.2718078,246.61008 C66.4112457,246.930716 67.5881692,247.098848 68.7718078,247.11008 L68.7718078,247.11008 Z" id="Path" fill="#000000" fill-rule="nonzero" opacity="0.1"></path>
                    <path d="M84.3718078,209.11008 L84.3718078,209.11008 C86.3718078,219.31008 89.9718078,227.01008 98.4718078,231.51008 L97.4718078,231.41008 L80.2718078,228.51008 L84.3718078,209.11008 Z" id="Path" fill="#000000" fill-rule="nonzero" opacity="0.1"></path>
                    <line x1="77.9718078" y1="228.11008" x2="98.2718078" y2="231.71008" id="Path" stroke="#B22485" stroke-width="0.68" stroke-linecap="round"></line>
                    <line x1="84.6718078" y1="206.21008" x2="80.5718078" y2="228.31008" id="Path" stroke="#B22485" stroke-width="0.68" stroke-linecap="round"></line>
                    <path d="M80.0318078,64.7700801 C93.1444652,63.7775866 104.922485,72.7615507 107.431808,85.6700801" id="Path" stroke="#B2D4FE" stroke-width="0.9" stroke-linecap="round" stroke-dasharray="0.9"></path>
                    <path d="M112.971808,215.41008 C114.572599,213.446475 115.732171,211.161435 116.371808,208.71008" id="Path" stroke="#E085D3" stroke-width="0.68" stroke-linecap="round"></path>
                    <line x1="204.271808" y1="104.51008" x2="201.371808" y2="107.71008" id="Path" stroke="#F2A2A0" stroke-width="0.9" stroke-linecap="round"></line>
                    <line x1="205.171808" y1="107.11008" x2="202.271808" y2="110.11008" id="Path" stroke="#F2A2A0" stroke-width="0.9" stroke-linecap="round"></line>
                    <line x1="205.971808" y1="109.21008" x2="203.471808" y2="112.11008" id="Path" stroke="#F2A2A0" stroke-width="0.9" stroke-linecap="round"></line>
                    <path d="M123.371808,107.31008 L130.171808,101.91008 C130.605279,101.603277 131.142974,101.481469 131.666346,101.571511 C132.189718,101.661554 132.655791,101.956053 132.961808,102.39008 L132.961808,102.39008 C133.373858,102.89971 133.451938,103.60243 133.161808,104.19008 L126.961808,118.09008 C126.642887,118.932825 126.911658,119.885018 127.624157,120.436629 C128.336655,120.988241 129.325815,121.009931 130.061808,120.49008 L154.061808,101.49008 C154.963812,100.904307 156.1599,101.075176 156.861808,101.89008 C157.332244,102.537377 157.37158,103.402773 156.961808,104.09008 L150.261808,114.89008" id="Path" stroke="#4D9AFF" stroke-width="0.9" stroke-linecap="round"></path>
                    <polygon id="Path" fill="#000000" fill-rule="nonzero" opacity="0.1" points="92.1718078 201.31008 99.8718078 193.91008 96.8718078 189.91008"></polygon>
                    <polygon id="Path" fill="#B22485" fill-rule="nonzero" points="82.6718078 181.81008 87.9718078 177.51008 98.0718078 191.11008 92.1718078 201.31008"></polygon>
                    <path d="M97.3718078,190.91008 L102.771808,198.31008 C110.155109,208.384726 113.988561,220.623636 113.671808,233.11008 L113.671808,234.51008" id="Path" stroke="#B22485" stroke-width="0.68" stroke-linecap="round"></path>
                    <circle id="Oval" fill="#B22485" fill-rule="nonzero" cx="101.271808" cy="203.31008" r="1"></circle>
                    <circle id="Oval" fill="#B22485" fill-rule="nonzero" cx="105.271808" cy="210.41008" r="1"></circle>
                    <circle id="Oval" fill="#B22485" fill-rule="nonzero" cx="107.671808" cy="218.01008" r="1"></circle>
                    <polygon id="Path" fill="#000000" fill-rule="nonzero" opacity="0.1" points="125.471808 177.81008 134.671808 176.41008 124.071808 172.81008"></polygon>
                    <path d="M120.671808,159.01008 L127.571808,186.51008 C130.370927,197.921552 131.082385,209.745303 129.671808,221.41008 L128.071808,234.91008" id="Path" stroke="#B22485" stroke-width="0.68" stroke-linecap="round"></path>
                    <polygon id="Path" fill="#B22485" fill-rule="nonzero" points="126.771808 156.61008 120.471808 158.81008 124.671808 174.31008 134.671808 176.41008"></polygon>
                    <path d="M117.271808,160.01008 C112.25776,167.773512 103.065513,171.758134 93.9718078,170.11008" id="Path" stroke="#FFFFFF" stroke-width="0.45" stroke-linecap="round"></path>
                    <line x1="106.271808" y1="169.01008" x2="106.671808" y2="170.21008" id="Path" stroke="#FFFFFF" stroke-width="0.45" stroke-linecap="round"></line>
                    <path d="M185.171808,150.01008 L188.871808,145.11008 C187.70156,145.003463 186.571976,144.626935 185.571808,144.01008 C182.804964,148.539845 179.441484,152.676926 175.571808,156.31008 C164.971808,166.01008 142.071808,179.81008 142.071808,179.81008 L140.071808,185.81008 L139.371808,192.41008 L139.671808,192.31008 C139.87687,189.02158 141.346053,185.939878 143.771808,183.71008 C144.771808,182.81008 171.871808,163.31008 171.871808,163.31008 C176.884817,159.497021 181.358749,155.02309 185.171808,150.01008 L185.171808,150.01008 Z" id="Path" fill="#000000" fill-rule="nonzero" opacity="0.1"></path>
                    <path d="M188.571808,145.01008 C176.471808,143.41008 180.471808,124.71008 180.471808,124.71008" id="Path" stroke="#B22485" stroke-width="0.68" stroke-linecap="round"></path>
                    <path d="M142.171808,179.81008 C140.171035,184.483326 139.182683,189.527327 139.271808,194.61008" id="Path" stroke="#B22485" stroke-width="0.68" stroke-linecap="round"></path>
                    <rect id="Rectangle" fill="#B2D4FE" fill-rule="nonzero" x="18.1418078" y="115.50008" width="22.54" height="31.96" rx="0.68"></rect>
                    <path d="M38.0618078,112.47008 L20.7718078,112.47008 C20.3228109,112.47008 19.9572833,112.831117 19.9518078,113.28008 L19.9518078,145.00008 C19.9572833,145.449044 20.3228109,145.81008 20.7718078,145.81008 L44.7718078,145.81008 C45.2191584,145.81008 45.5818078,145.447431 45.5818078,145.00008 L45.5818078,120.06008 L38.0618078,112.47008 Z" id="Path" fill="#FFFFFF" fill-rule="nonzero"></path>
                    <polygon id="Path" fill="#B2D4FE" fill-rule="nonzero" points="38.0718078 120.01008 45.6018078 120.01008 38.0718078 112.47008"></polygon>
                    <rect id="Rectangle" fill="#F4C6EF" fill-rule="nonzero" x="23.3918078" y="123.54008" width="18.76" height="1.68"></rect>
                    <rect id="Rectangle" fill="#F4C6EF" fill-rule="nonzero" x="32.6818078" y="123.54008" width="9.47" height="1.68"></rect>
                    <rect id="Rectangle" fill="#F4C6EF" fill-rule="nonzero" x="23.3918078" y="127.50008" width="18.76" height="1.68"></rect>
                    <rect id="Rectangle" fill="#F4C6EF" fill-rule="nonzero" x="32.6818078" y="127.50008" width="9.47" height="1.68"></rect>
                    <rect id="Rectangle" fill="#F4C6EF" fill-rule="nonzero" x="23.3918078" y="131.47008" width="18.76" height="1.68"></rect>
                    <rect id="Rectangle" fill="#F4C6EF" fill-rule="nonzero" x="32.6818078" y="131.47008" width="9.47" height="1.68"></rect>
                    <rect id="Rectangle" fill="#F4C6EF" fill-rule="nonzero" x="23.3918078" y="135.44008" width="18.76" height="1.68"></rect>
                    <rect id="Rectangle" fill="#F4C6EF" fill-rule="nonzero" x="32.6818078" y="135.44008" width="9.47" height="1.68"></rect>
                    <path d="M38.7718078,37.670039 L74.2118078,37.670039 C74.8855952,37.670039 75.4318078,38.2162927 75.4318078,38.8900801 L75.4318078,38.8900801 L75.4318078,69.5800801 C75.4102187,70.2381967 74.8702783,70.7601215 74.2118078,70.7601215 L38.7718078,70.7601215 C38.4482404,70.7627431 38.1368688,70.6367549 37.9061967,70.4098335 C37.6755245,70.1829122 37.5444491,69.8736476 37.5418078,69.5500801 L37.5418078,69.5500801 L37.5418078,38.8900801 C37.5418078,38.5647759 37.671704,38.252939 37.9026657,38.0238549 C38.1336275,37.7947709 38.4465145,37.6674137 38.7718078,37.670039 Z" id="Path" fill="#FFFFFF" fill-rule="nonzero"></path>
                    <path d="M75.4318078,38.8900801 L75.4318078,45.6900801 L37.5618078,45.6900801 L37.5618078,38.8900801 C37.5618078,38.2201787 38.1019289,37.6755711 38.7718078,37.6700801 L74.2118078,37.6700801 C74.8855952,37.6700801 75.4318078,38.2162927 75.4318078,38.8900801 L75.4318078,38.8900801 Z" id="Path" fill="#7DCC7A" fill-rule="nonzero"></path>
                    <path d="M69.4018078,40.2300801 C69.3714532,40.5444221 69.2173943,40.8338072 68.9735614,41.0345004 C68.7297285,41.2351937 68.4161207,41.3307343 68.1018078,41.3000801 C67.5332938,41.2491477 67.0827402,40.7985941 67.0318078,40.2300801 L67.0318078,35.1100801 C67.0881251,34.4976678 67.6018115,34.0290526 68.2168078,34.0290526 C68.8318041,34.0290526 69.3454904,34.4976678 69.4018078,35.1100801" id="Path" fill="#F4C6EF" fill-rule="nonzero"></path>
                    <path d="M44.7718078,33.9300377 C45.4235038,33.9300377 45.9518078,34.4583841 45.9518078,35.1100801 L45.9518078,35.1100801 L45.9518078,40.2300801 C45.9214532,40.5444221 45.7673943,40.8338072 45.5235614,41.0345004 C45.2797285,41.2351937 44.9661207,41.3307343 44.6518078,41.3000801 C44.0832938,41.2491477 43.6327402,40.7985941 43.5818078,40.2300801 L43.5818078,35.1100801 C43.5818078,34.7953843 43.7074893,34.4937212 43.9309498,34.2721386 C44.1544102,34.0505559 44.4571233,33.9274132 44.7718078,33.9300377 L44.7718078,33.9300377 Z" id="Path" fill="#F4C6EF" fill-rule="nonzero"></path>
                    <path d="M50.6618078,48.6600801 L53.6618078,48.6600801 C53.9987015,48.6600801 54.2718078,48.9331864 54.2718078,49.2700801 L54.2718078,49.2700801 L54.2718078,52.2700801 C54.2664523,52.6047304 53.9964581,52.8747247 53.6618078,52.8800801 L50.6618078,52.8800801 C50.3249141,52.8800801 50.0518078,52.6069738 50.0518078,52.2700801 L50.0518078,52.2700801 L50.0518078,49.2700801 C50.0518078,48.9331864 50.3249141,48.6600801 50.6618078,48.6600801 Z" id="Path" fill="#F4C6EF" fill-rule="nonzero"></path>
                    <path d="M59.3818078,48.6600801 L62.3818078,48.6600801 C62.7187015,48.6600801 62.9918078,48.9331864 62.9918078,49.2700801 L62.9918078,49.2700801 L62.9918078,52.2700801 C62.9864523,52.6047304 62.7164581,52.8747247 62.3818078,52.8800801 L59.3818078,52.8800801 C59.0449141,52.8800801 58.7718078,52.6069738 58.7718078,52.2700801 L58.7718078,52.2700801 L58.7718078,49.2700801 C58.7718078,48.9331864 59.0449141,48.6600801 59.3818078,48.6600801 Z" id="Path" fill="#F4C6EF" fill-rule="nonzero"></path>
                    <path d="M68.1018078,48.6600801 L71.1018078,48.6600801 C71.4387015,48.6600801 71.7118078,48.9331864 71.7118078,49.2700801 L71.7118078,49.2700801 L71.7118078,52.2700801 C71.7064523,52.6047304 71.4364581,52.8747247 71.1018078,52.8800801 L68.1018078,52.8800801 C67.7649141,52.8800801 67.4918078,52.6069738 67.4918078,52.2700801 L67.4918078,52.2700801 L67.4918078,49.2700801 C67.4918078,48.9331864 67.7649141,48.6600801 68.1018078,48.6600801 Z" id="Path" fill="#F4C6EF" fill-rule="nonzero"></path>
                    <path d="M41.9418078,55.8100801 L44.8918078,55.8100801 C45.2287015,55.8100801 45.5018078,56.0831864 45.5018078,56.4200801 L45.5018078,56.4200801 L45.5018078,59.4100801 C45.4964523,59.7447304 45.2264581,60.0147247 44.8918078,60.0200801 L41.9418078,60.0200801 C41.6049141,60.0200801 41.3318078,59.7469738 41.3318078,59.4100801 L41.3318078,59.4100801 L41.3318078,56.4100801 C41.3318078,56.0731864 41.6049141,55.8000801 41.9418078,55.8000801 L41.9418078,55.8100801 Z" id="Path" fill="#F4C6EF" fill-rule="nonzero"></path>
                    <path d="M50.6618078,55.8100801 L53.6618078,55.8100801 C53.9987015,55.8100801 54.2718078,56.0831864 54.2718078,56.4200801 L54.2718078,56.4200801 L54.2718078,59.4100801 C54.2664523,59.7447304 53.9964581,60.0147247 53.6618078,60.0200801 L50.6618078,60.0200801 C50.3267483,60.0315806 50.0432399,59.7746511 50.0218078,59.4400801 L50.0218078,56.4100801 C50.0218078,56.0731864 50.2949141,55.8000801 50.6318078,55.8000801 L50.6318078,55.8000801 L50.6618078,55.8100801 Z" id="Path" fill="#F4C6EF" fill-rule="nonzero"></path>
                    <path d="M59.3818078,55.8100801 L62.3818078,55.8100801 C62.7187015,55.8100801 62.9918078,56.0831864 62.9918078,56.4200801 L62.9918078,56.4200801 L62.9918078,59.4100801 C62.9864523,59.7447304 62.7164581,60.0147247 62.3818078,60.0200801 L59.3818078,60.0200801 C59.0449141,60.0200801 58.7718078,59.7469738 58.7718078,59.4100801 L58.7718078,59.4100801 L58.7718078,56.4100801 C58.7718078,56.0731864 59.0449141,55.8000801 59.3818078,55.8000801 L59.3818078,55.8100801 Z" id="Path" fill="#F4C6EF" fill-rule="nonzero"></path>
                    <path d="M68.1018078,55.8100801 L71.1018078,55.8100801 C71.4387015,55.8100801 71.7118078,56.0831864 71.7118078,56.4200801 L71.7118078,56.4200801 L71.7118078,59.4100801 C71.7064523,59.7447304 71.4364581,60.0147247 71.1018078,60.0200801 L68.1018078,60.0200801 C67.7649141,60.0200801 67.4918078,59.7469738 67.4918078,59.4100801 L67.4918078,59.4100801 L67.4918078,56.4100801 C67.4918078,56.0731864 67.7649141,55.8000801 68.1018078,55.8000801 L68.1018078,55.8100801 Z" id="Path" fill="#F4C6EF" fill-rule="nonzero"></path>
                    <path d="M41.9418078,62.9500801 L44.8918078,62.9500801 C45.2287015,62.9500801 45.5018078,63.2231864 45.5018078,63.5600801 L45.5018078,63.5600801 L45.5018078,66.5600801 C45.4914099,66.8925716 45.2242993,67.1596822 44.8918078,67.1700801 L41.9418078,67.1700801 C41.6049141,67.1700801 41.3318078,66.8969738 41.3318078,66.5600801 L41.3318078,66.5600801 L41.3318078,63.5600801 C41.3318078,63.2231864 41.6049141,62.9500801 41.9418078,62.9500801 Z" id="Path" fill="#F4C6EF" fill-rule="nonzero"></path>
                    <path d="M50.6618078,62.9500801 L53.6618078,62.9500801 C53.9987015,62.9500801 54.2718078,63.2231864 54.2718078,63.5600801 L54.2718078,63.5600801 L54.2718078,66.5600801 C54.2664523,66.8947304 53.9964581,67.1647247 53.6618078,67.1700801 L50.6618078,67.1700801 C50.3249141,67.1700801 50.0518078,66.8969738 50.0518078,66.5600801 L50.0518078,66.5600801 L50.0518078,63.5600801 C50.0518078,63.2231864 50.3249141,62.9500801 50.6618078,62.9500801 L50.6618078,62.9500801 Z" id="Path" fill="#F4C6EF" fill-rule="nonzero"></path>
                    <path d="M59.3818078,62.9500801 L62.3818078,62.9500801 C62.7187015,62.9500801 62.9918078,63.2231864 62.9918078,63.5600801 L62.9918078,63.5600801 L62.9918078,66.5600801 C62.9864523,66.8947304 62.7164581,67.1647247 62.3818078,67.1700801 L59.3818078,67.1700801 C59.0471575,67.1647247 58.7771632,66.8947304 58.7718078,66.5600801 L58.7718078,63.5600801 C58.7718078,63.2231864 59.0449141,62.9500801 59.3818078,62.9500801 L59.3818078,62.9500801 Z" id="Path" fill="#F4C6EF" fill-rule="nonzero"></path>
                    <rect id="Rectangle" fill="#CCCCFE" fill-rule="nonzero" x="239.671808" y="85.3500801" width="32.16" height="24.22" rx="1.99"></rect>
                    <path d="M242.771808,88.9500801 C243.623629,88.9774431 244.452481,89.2330058 245.171808,89.6900801 C246.338242,90.0980671 247.62608,89.9623121 248.681808,89.3200801 C249.611808,88.7700801 250.681808,88.7700801 252.561808,89.5100801 C253.624145,89.9701061 254.829471,89.9701061 255.891808,89.5100801 C257.114631,88.829455 258.617252,88.8991643 259.771808,89.6900801 C260.77534,90.4561615 262.186701,90.3798717 263.101808,89.5100801 C264.188308,88.6589776 265.715307,88.6589776 266.801808,89.5100801 C267.22196,89.9707713 267.885778,90.1187308 268.461808,89.8800801" id="Path" stroke="#FFFFFF" stroke-width="0.55" stroke-linecap="round" stroke-linejoin="round"></path>
                    <path d="M242.771808,91.9100801 C243.602897,91.9114057 244.423079,92.099364 245.171808,92.4600801 C246.143327,93.0209871 247.340288,93.0209871 248.311808,92.4600801 C249.010463,91.9730159 249.870775,91.7758612 250.711808,91.9100801 C251.641808,92.0900801 253.491808,92.8300801 254.041808,92.6500801 C255.236258,92.2381698 256.480812,91.9892591 257.741808,91.9100801 C259.031808,91.9100801 259.741808,93.2000801 261.441808,92.8300801 C263.141808,92.4600801 263.651808,91.7200801 264.951808,91.9100801 C265.667772,91.9944554 266.35335,92.2481193 266.951808,92.6500801 C267.501808,92.8300801 267.901808,93.2000801 268.451808,92.8300801" id="Path" stroke="#FFFFFF" stroke-width="0.55" stroke-linecap="round" stroke-linejoin="round"></path>
                    <path d="M242.531808,94.6800801 C243.485893,94.7924127 244.418813,95.0416404 245.301808,95.4200801 C246.253684,95.9398931 247.418914,95.8699793 248.301808,95.2400801 C249.578181,94.5799869 251.095434,94.5799869 252.371808,95.2400801 C253.477185,95.7900198 254.77643,95.7900198 255.881808,95.2400801 C257.190441,94.6522322 258.700179,94.719002 259.951808,95.4200801 C261.061808,95.9800801 261.611808,95.6100801 263.271808,95.0500801 C264.751808,94.3100801 265.491808,94.5000801 267.341808,95.6100801 C267.782149,95.8918853 268.326756,95.9581213 268.821808,95.7900801" id="Path" stroke="#FFFFFF" stroke-width="0.55" stroke-linecap="round" stroke-linejoin="round"></path>
                    <rect id="Rectangle" fill="#FFE5B2" fill-rule="nonzero" x="224.691808" y="98.1000801" width="33.46" height="22.42" rx="1.87"></rect>
                    <rect id="Rectangle" fill="#FFFFFF" fill-rule="nonzero" x="228.111808" y="100.97008" width="26.99" height="16.82" rx="0.55"></rect>
                    <path d="M246.601808,114.65008 L231.991808,114.65008 C231.991808,114.65008 239.201808,107.25008 239.301808,107.34008 L246.601808,114.65008 Z" id="Path" fill="#8C8CEB" fill-rule="nonzero"></path>
                    <polyline id="Path" fill="#7DCA7A" fill-rule="nonzero" points="251.031808 114.65008 239.301808 114.65008 245.121808 108.73008 251.221808 114.65008"></polyline>
                    <circle id="Oval" fill="#FFB100" fill-rule="nonzero" cx="249.191808" cy="106.33008" r="2.13"></circle>
                    <path d="M233.841808,95.7900801 L233.841808,104.48008 C233.847515,104.975047 233.456539,105.383794 232.961808,105.40008 L232.961808,105.40008 C232.401808,105.40008 232.031808,105.22008 232.031808,104.11008 L232.031808,95.8100801 C232.017764,95.024108 232.452258,94.2986593 233.151808,93.9400801 L233.281808,93.8800801 C233.707179,93.7196229 234.176436,93.7196229 234.601808,93.8800801 C235.170377,94.0214738 235.626977,94.4441114 235.811808,95.0000801 C235.88316,95.2197571 235.920261,95.449111 235.921808,95.6800801 L235.921808,97.9400801" id="Path" stroke="#8C8CEB" stroke-width="0.44" stroke-linecap="round" stroke-linejoin="round"></path>
                </g>
            </g>
        </g>
    </g>
</svg>