<?xml version="1.0" encoding="UTF-8"?>
<svg width="296px" height="272px" viewBox="0 0 296 272" version="1.1" xmlns="http://www.w3.org/2000/svg" xmlns:xlink="http://www.w3.org/1999/xlink">
    <title>team leads illustrations-changes 25-08 -04</title>
    <g id="Page-1" stroke="none" stroke-width="1" fill="none" fill-rule="evenodd">
        <g id="MC-1263-DWP-Landing-Page-Web" transform="translate(-807.000000, -5393.000000)">
            <g id="team-leads-illustrations-changes-25-08--04" transform="translate(807.000000, 5393.000000)">
                <path d="M56.27,9.28 C69.68,1.75 104.57,-8.5 156.54,12.88 C208.51,34.26 251.95,53.68 281.34,89.94 C281.34,89.94 306.24,116.08 290.34,155.87 C274.44,195.66 226.67,224 212,234.45 C197.33,244.9 141.62,276 97.11,270.75 C52.6,265.5 22.23,205.43 13.89,180.9 C6.74107582,160.018133 2.40626988,138.276845 1,116.25 C-1,81.1 4.22,38.54 56.27,9.28 Z" id="Path" fill="#ECF3FF" fill-rule="nonzero"></path>
                <path d="M97.34,27.84 C97.34,27.84 86.78,16.26 71.83,24.46 C71.83,24.46 64.83,28.79 60.31,39.84 C58.259814,44.7327073 54.4282308,48.6643692 49.59,50.84 C42.23,54.21 33.05,61.42 36.35,75.89 C41.63,99.06 100.41,73.89 100.41,73.89 C101.503976,68.9568205 101.286768,63.8231413 99.78,59 C98.5547782,55.3844935 98.2657826,51.5174575 98.94,47.76 C100.07,41.64 100.92,32.52 97.34,27.84 Z" id="Path" fill="#000000" fill-rule="nonzero"></path>
                <path d="M95.28,31.21 C95.28,31.21 99.53,49.21 84.73,49.97 C84.73,49.97 79.01,63.9 95.28,65.66 C95.28,65.66 76.81,76.95 49.98,65.37 C49.98,65.37 60.98,62 64.35,58.37 C67.72,54.74 71.68,42.68 71.68,42.68 C71.68,42.68 68,40.4 70.65,37 C70.65,37 72.71,35.1 74.37,36.66 L75.83,38.03 C75.83,38.03 81,28.37 95.28,31.21 Z" id="Path" fill="#CC8672" fill-rule="nonzero"></path>
                <path d="M83.79,56.1 C83.6890427,54.0240965 84.0087798,51.9492073 84.73,50 C84.73,50 79.52,49.86 77.73,46 C77.76,45.94 75.92,52 83.79,56.1 Z" id="Path" fill="#AF6951" fill-rule="nonzero"></path>
                <circle id="Oval" fill="#000000" fill-rule="nonzero" cx="84.12" cy="36.44" r="1"></circle>
                <circle id="Oval" fill="#000000" fill-rule="nonzero" cx="93.01" cy="38.54" r="1"></circle>
                <line x1="89.32" y1="38.69" x2="89.81" y2="40.98" id="Path" stroke="#FFB6B2" stroke-width="0.9" stroke-linecap="round"></line>
                <path d="M84.58,41.75 C84.5500133,42.0124797 84.5500133,42.2775203 84.58,42.54 C84.8137103,44.3615383 86.4779912,45.6500138 88.3,45.42 C88.8149559,45.3517869 89.3056653,45.159621 89.73,44.86 L84.58,41.75 Z" id="Path" fill="#FFFFFF" fill-rule="nonzero"></path>
                <path d="M101.73,33.85 C101.73,33.85 101.44,27.25 95.36,27.32" id="Path" stroke="#000000" stroke-width="0.9" stroke-linecap="round"></path>
                <path d="M91.37,20.51 C94.4984341,22.1567887 96.4831445,25.3752379 96.55,28.91" id="Path" stroke="#000000" stroke-width="0.9" stroke-linecap="round"></path>
                <path d="M50,65.37 C50,65.37 33,68.45 28.3,81.64 C23.6,94.83 34.17,115.07 42.67,123.86 C43.3714009,138.13561 41.9218568,152.435531 38.37,166.28 C32.37,189.15 30.65,216.52 30.65,216.52 C30.65,216.52 120.45,200.49 133,172 C145.55,143.51 95.28,65.66 95.28,65.66 C95.28,65.66 77.3,76.8 50,65.37 Z" id="Path" fill="#F4C6EF" fill-rule="nonzero"></path>
                <path d="M62.59,94 C67.2601126,82.2956287 76.4058892,72.9374945 88,68 L65.87,100.1 L62.59,94 Z" id="Path" fill="#000000" fill-rule="nonzero" opacity="0.1" style="mix-blend-mode: multiply;"></path>
                <path d="M88.17,68.58 C80.42,70.89 67.07,72.87 50.17,65.58" id="Path" stroke="#E085D3" stroke-width="0.9" stroke-linecap="round"></path>
                <path d="M77.79,190.38 C77.17,190.48 72.71,193.28 66.55,194.45 C63.3290378,195.057453 60.0092988,194.882549 56.87,193.94" id="Path" stroke="#8E8EED" stroke-width="0.9" stroke-linecap="round"></path>
                <line x1="100.51" y1="215.05" x2="100.9" y2="223.56" id="Path" stroke="#8E8EED" stroke-width="0.9" stroke-linecap="round"></line>
                <path d="M177.92,123.11 C177.92,123.11 176.58,142.48 163.09,142.19" id="Path" stroke="#F58220" stroke-width="0.9" stroke-linecap="round"></path>
                <path d="M1,116.25 C1.57506065,125.918545 2.76075848,135.541068 4.55,145.06 C9.03262188,133.841877 11.3304891,121.870566 11.3200425,109.79 C11.331757,97.3713928 8.90237325,85.0715759 4.17,73.59 C0.5,88.12 0.2,102.73 1,116.25 Z" id="Path" fill="#B2D4FE" fill-rule="nonzero"></path>
                <path d="M85.84,0.71 C99.0715111,9.89874936 114.800826,14.8126334 130.91,14.7900778 C138.478619,14.7966282 146.008916,13.7155794 153.27,11.58 C125.53,0.73 102.81,-1.1 85.84,0.71 Z" id="Path" fill="#F7DFF5" fill-rule="nonzero"></path>
                <path d="M125.46,269.87 C162.75,264.09 200.33,242.75 212,234.45 C212.87,233.82 213.87,233.13 215,232.39 C180.282531,225.16068 144.698458,240.060591 125.49,269.87 L125.46,269.87 Z" id="Path" fill="#DCF5DE" fill-rule="nonzero"></path>
                <circle id="Oval" fill="#FFFFFF" fill-rule="nonzero" cx="147.7" cy="32.3" r="1.84"></circle>
                <circle id="Oval" fill="#FFFFFF" fill-rule="nonzero" cx="26.31" cy="125.62" r="1.84"></circle>
                <circle id="Oval" fill="#FFFFFF" fill-rule="nonzero" cx="172.25" cy="244.08" r="2.63"></circle>
                <path d="M171.85,35.07 C171.85,35.07 172.9,35.25 173.44,37 C173.98,38.75 174.86,40.89 176.74,41.44 L179.74,40.44 C179.74,40.44 177.88,38.87 177.58,37.76 C177.28,36.65 176.92,34.03 176.73,33.13 L171.85,35.07 Z" id="Path" fill="#B2D4FE" fill-rule="nonzero"></path>
                <line x1="200.2" y1="50.61" x2="200.2" y2="56.08" id="Path" stroke="#FFFFFF" stroke-width="0.68" stroke-linecap="round"></line>
                <line x1="197.47" y1="53.35" x2="202.94" y2="53.35" id="Path" stroke="#FFFFFF" stroke-width="0.68" stroke-linecap="round"></line>
                <path d="M126.74,228.52 C126.74,228.52 130.09,232.02 136.47,231.76 C136.47,231.76 135.54,234.33 136.68,235.98 C133.189249,235.776447 129.751443,235.030858 126.49,233.77 L126.74,228.52 Z" id="Path" fill="#FFFFFF" fill-rule="nonzero"></path>
                <path d="M168.92,211.82 C171.197874,211.203105 173.338732,210.161514 175.23,208.75 C177.59,206.75 176.99,205.4 176.99,205.4 L181.05,208.31 C181.05,208.31 175.56,213.52 172.76,215 L168.92,211.82 Z" id="Path" fill="#B2D4FE" fill-rule="nonzero"></path>
                <circle id="Oval" fill="#B2D4FE" fill-rule="nonzero" cx="135.96" cy="132.87" r="79.49"></circle>
                <path d="M150.15,81.26 C133.28,96.78 142.05,106.67 149.25,103.52 C156.45,100.37 161.61,101.27 164.09,105.77 C166.57,110.27 173.98,110.27 177.09,109.14 C180.2,108.01 183.38,115.44 177.09,116.34 C170.8,117.24 169.84,112.74 162.42,116.96 C155,121.18 153.48,108.52 143.19,111.56 C132.9,114.6 128.35,121.85 128.19,133.31 C128.03,144.77 140.5,152.03 153.66,146.31 C153.66,146.31 160.35,153.11 157.31,166.6 C154.27,180.09 161.75,189.99 167.65,189.6 C173.55,189.21 184,178 185.05,169.91 C186.1,161.82 181.05,158.61 183.54,154.39 C186.03,150.17 194.83,148.49 194.16,142.08 C193.49,135.67 186.91,141.75 182.52,132.3 C178.13,122.85 176.62,122.52 177.97,120.3 C177.97,120.3 179.49,118.95 181.47,122.45 C183.45,125.95 186.91,135.22 193.99,136.07 C199.68,136.74 211.07,137.07 215.34,137.13 C215.41,135.71 215.460009,134.28 215.460009,132.84 C215.470815,109.729713 205.394548,87.7657138 187.87,72.7 L185.67,73.17 C185.67,73.17 167,65.75 150.15,81.26 Z" id="Path" fill="#7DCC7A" fill-rule="nonzero"></path>
                <path d="M57.76,118.65 C61.7670086,118.467751 65.615221,117.029919 68.76,114.54 C70.0871348,112.931113 71.3128379,111.241179 72.43,109.48 C74.0785947,106.839323 76.5327553,104.798864 79.43,103.66 C83.85,101.94 90.04,98.54 91.17,92.73 C92.41,86.38 86.98,77.9 83.49,73.23 C70.0380796,85.0363207 60.9708841,101.042229 57.76,118.65 Z" id="Path" fill="#7DCC7A" fill-rule="nonzero"></path>
                <path d="M97.53,151.19 C94.38,150.29 89.66,139.72 84.53,137.02 C79.4,134.32 72.84,139.02 69.47,138.15 C66.1,137.28 65.19,130.05 60.47,128.48 C59.1678634,128.028863 57.9254124,127.42107 56.77,126.67 C56.62,128.72 56.51,130.78 56.51,132.87 C56.51,133.69 56.51,134.5 56.57,135.31 C61.94,139.31 69.13,143.62 69.92,145.31 C71.04,147.79 67.44,151.16 67.92,158.13 C68.4,165.1 77.19,171.07 78.22,174.18 C78.78,175.87 77.51,180.92 76.22,185.18 C79.6522072,189.102692 83.4603882,192.67977 87.59,195.86 C88.6639022,194.891936 89.8904334,194.108037 91.22,193.54 C95.57,191.75 97.38,188.06 98.11,184.82 C99.0066481,181.185544 101.275078,178.039128 104.44,176.04 C113.5,170.04 112.44,161.95 110.18,157.68 C108.5,154.62 100.68,152.09 97.53,151.19 Z" id="Path" fill="#7DCC7A" fill-rule="nonzero"></path>
                <path d="M136,212.360033 C148.044235,212.371065 159.932355,209.635019 170.76,204.36 C167.34,204.15 163.9,204.02997 160.42,204.02997 C145.591719,204.021103 130.829531,206.005539 116.53,209.93 C122.894895,211.540142 129.434603,212.356346 136,212.360033 L136,212.360033 Z" id="Path" fill="#FFFFFF" fill-rule="nonzero"></path>
                <path d="M109,75.46 L106,79.21 C105.334036,80.0244158 105.143339,81.128165 105.497436,82.1188194 C105.851534,83.1094737 106.698678,83.8422587 107.73,84.05 L112.44,85.05 C113.501316,85.2714306 114.59953,84.9030044 115.31258,84.0863136 C116.02563,83.2696229 116.24256,82.1317505 115.88,81.11 L114.21,76.39 C113.868068,75.3368548 112.973836,74.5576804 111.883803,74.3631062 C110.793769,74.1685321 109.685183,74.5901978 109,75.46 L109,75.46 Z" id="Path" fill="#ECF3FF" fill-rule="nonzero"></path>
                <path d="M81.21,78.8699923 C79.4737522,78.8673452 77.8077074,79.5552067 76.5790558,80.7819825 C75.3504042,82.0087583 74.66,83.6737502 74.66,85.41 C74.66,90.25 81.21,99 81.21,99 C81.21,99 87.75,90.45 87.75,85.41 C87.75,83.6754842 87.0609663,82.0120096 85.8344783,80.7855217 C84.6079904,79.5590337 82.9445158,78.8699923 81.21,78.8699923 L81.21,78.8699923 Z M81.21,87.5800174 C80.036158,87.5840478 78.9756475,86.8800576 78.5236301,85.7967286 C78.0716127,84.7133995 78.31725,83.4644212 79.1458518,82.6329523 C79.9744536,81.8014833 81.222576,81.5515333 82.3074599,81.9998059 C83.3923438,82.4480786 84.1,83.506151 84.1,84.68 C84.1,86.2777286 82.8077191,87.5744906 81.21,87.5800174 Z" id="Shape" fill="#FFFFFF" fill-rule="nonzero"></path>
                <path d="M175,76 C171.382535,76 168.45,78.9325349 168.45,82.55 C168.45,87.38 175,96.13 175,96.13 C175,96.13 181.55,87.58 181.55,82.55 C181.55,78.9325349 178.617465,76 175,76 Z M175,84.7100174 C173.826158,84.7140478 172.765648,84.0100576 172.31363,82.9267286 C171.861613,81.8433995 172.10725,80.5944212 172.935852,79.7629523 C173.764454,78.9314833 175.012576,78.6815333 176.09746,79.1298059 C177.182344,79.5780786 177.89,80.636151 177.89,81.81 C177.884491,83.4021963 176.592206,84.6900095 175,84.69 L175,84.7100174 Z" id="Shape" fill="#FFFFFF" fill-rule="nonzero"></path>
                <path d="M92.44,157.79 C88.8225349,157.79 85.89,160.722535 85.89,164.34 C85.89,169.18 92.44,177.93 92.44,177.93 C92.44,177.93 98.99,169.37 98.99,164.34 C98.99,160.722535 96.0574651,157.79 92.44,157.79 L92.44,157.79 Z M92.44,166.500017 C91.2652493,166.504044 90.2041083,165.798968 89.7526806,164.714409 C89.301253,163.62985 89.5487284,162.380087 90.3794075,161.549408 C91.2100866,160.718728 92.4598498,160.471253 93.544409,160.922681 C94.6289681,161.374108 95.3340439,162.435249 95.3300173,163.61 C95.3300173,165.206103 94.0361029,166.500017 92.44,166.500017 Z" id="Shape" fill="#FFFFFF" fill-rule="nonzero"></path>
                <path d="M78.87,152.67 L79.87,144.2 C79.9775883,143.340497 79.6550562,142.483131 79.0076423,141.907652 C78.3602285,141.332173 77.4709617,141.112384 76.63,141.32 C73.54,142.07 69.31,143.44 67.3,145.65 L68.52,143.15 C68.7605349,142.66086 68.6649131,142.07305 68.2817423,141.685371 C67.8985714,141.297692 67.3119194,141.195202 66.82,141.43 C64.45,142.55 61.39,144.3 60.04,146.33 L60.58,144.46 C60.7218789,143.933562 60.5147124,143.375033 60.0638545,143.068449 C59.6129966,142.761866 59.0174187,142.774529 58.58,143.1 C56.81,144.5 54.85,146.54 54.49,148.86 C54.49,148.86 48.25,149.79 47.91,156.2 C47.57,162.61 55.11,180.87 55.11,180.87 L69.85,179.24 L78.87,152.67 Z" id="Path" fill="#000000" fill-rule="nonzero"></path>
                <path d="M53.56,144.2 C53.56,144.2 52.42,146.82 55.16,150.88" id="Path" stroke="#000000" stroke-width="0.9" stroke-linecap="round"></path>
                <path d="M50.28,145.33 C50.28,145.33 50.76,147.73 54.77,150.09" id="Path" stroke="#000000" stroke-width="0.9" stroke-linecap="round"></path>
                <path d="M75.58,178.62 L80.44,176.81 C83.1576601,175.799042 84.6421142,172.869313 83.85,170.08 L82.23,164.4 C82.1281515,164.021453 82.2435378,163.617601 82.53,163.35 L83.02,162.9 C83.4014384,162.541974 83.4611373,161.957778 83.16,161.53 L81.66,159.42 C80.6182735,157.944104 79.8463383,156.295277 79.38,154.55 L78.87,152.67 C78.6540853,151.906316 77.9634934,151.374154 77.17,151.36 L72.07,151.23 C71.4537129,151.214854 70.8648788,151.484765 70.4740793,151.96154 C70.0832797,152.438316 69.9341898,153.068673 70.07,153.67 L71.53,160.25 C71.5922486,160.524707 71.5415154,160.812906 71.3891992,161.049842 C71.236883,161.286779 70.9957576,161.452582 70.72,161.51 L70.72,161.51 C70.2184315,161.611003 69.7155425,161.342796 69.52,160.87 L69.42,160.66 C69.1702906,160.014466 68.6349892,159.521476 67.9711224,159.325645 C67.3072555,159.129814 66.5900897,159.253345 66.03,159.66 C65.1706545,160.297441 64.8194351,161.415691 65.16,162.43 L65.54,163.6 C65.9336461,164.784749 66.9639453,165.644623 68.2,165.82 L68.47,165.82 C68.9624529,165.909903 69.3549776,166.282802 69.47,166.77 C69.6738076,167.601072 69.8109102,168.447096 69.88,169.3 C70.1768741,172.899089 68.0256928,176.250835 64.63,177.48 L55,180.76 L57.36,197.76 L78.52,194.16 L75.58,178.62 Z" id="Path" fill="#FFB6B2" fill-rule="nonzero"></path>
                <path d="M82.1,168 C81.2057144,168.759055 79.9595898,168.948345 78.8802392,168.489092 C77.8008885,168.029839 77.0731909,167.000707 77,165.83 L82.1,168 Z" id="Path" fill="#FFFFFF" fill-rule="nonzero"></path>
                <path d="M75.58,178.62 L69.76,177.09 C69.6229298,177.058248 69.4816652,177.12279 69.4159413,177.247195 C69.3502175,177.371601 69.3765189,177.524668 69.48,177.62 C71.48,179.35 75.68,183.47 77.48,188.62 L75.58,178.62 Z" id="Path" fill="#F2A2A0" fill-rule="nonzero"></path>
                <circle id="Oval" fill="#000000" fill-rule="nonzero" cx="78.19" cy="159.14" r="1"></circle>
                <path d="M135.63,132.67 L131.88,115.67 C131.73585,115.053988 132.013611,114.416471 132.562907,114.102587 C133.112203,113.788704 133.802466,113.873065 134.26,114.31 L136.4,116.19 C136.500312,116.263473 136.629647,116.28471 136.748188,116.247172 C136.866728,116.209635 136.960264,116.117822 137,116 L139,109.18 C139.41,108.03 139.51,107.26 140.62,107.18 C141.08,107.18 141.72,107.62 141.79,107.59 C142.19576,107.334406 142.671265,107.212033 143.15,107.24 C143.65,107.3 144.03,107.93 144.1,107.93 C144.44,107.93 145.04,107.74 145.46,107.87 C145.88,108 146.04,108.42 146.29,109.36 C146.29,109.36 146.81,109.11 147.2,109.28 C148.2,109.73 148.07,110.57 148.25,111.85 C148.96,116.68 149.17,133.62 149.17,133.62 L135.63,132.67 Z" id="Path" fill="#FFB6B2" fill-rule="nonzero"></path>
                <line x1="141.7" y1="108.07" x2="140.5" y2="114.92" id="Path" stroke="#FF8880" stroke-width="0.68" stroke-linecap="round"></line>
                <line x1="144.01" y1="108.21" x2="143.4" y2="114.75" id="Path" stroke="#FF8880" stroke-width="0.68" stroke-linecap="round"></line>
                <line x1="146.35" y1="109.68" x2="146.17" y2="115.99" id="Path" stroke="#FF8880" stroke-width="0.68" stroke-linecap="round"></line>
                <path d="M100.9,223.56 C164.63,213.78 152.61,132.66 152.61,132.66 C144.69,130.31 133.25,131.19 133.25,131.19 C134.33,143.19 130.72,155.89 127.74,164.01 C125.16437,171.071393 120.110873,176.956479 113.52,180.57 C103.05,186.27 90.52,188.57 83.31,189.57 C82.13,189.72 80.15,190.02 77.79,190.4 C77.17,190.5 72.71,193.3 66.55,194.47 C63.3290378,195.077453 60.0092988,194.902549 56.87,193.96 C39,197 30.3,203.26 25.55,207.22 C39.94,234.22 64.8,266.96 97.11,270.75 C99.4233333,271.016667 101.756667,271.19 104.11,271.27 C101.52,253.15 100.9,223.56 100.9,223.56 Z" id="Path" fill="#FFC74F" fill-rule="nonzero"></path>
                <path d="M152.61,132.66 C151.61,132.37 150.61,132.12 149.49,131.92 C156.15,212.65 100.63,217.62 100.63,217.62 L100.9,223.56 C164.63,213.78 152.61,132.66 152.61,132.66 Z" id="Path" fill="#000000" fill-rule="nonzero" opacity="0.1" style="mix-blend-mode: multiply;"></path>
                <path d="M162.72,142.34 C162.72,142.34 159.5,135.45 177.97,122.69 C177.97,122.69 179.14,134.42 172.4,140.14 C165.66,145.86 162.72,142.34 162.72,142.34 Z" id="Path" fill="#4AA147" fill-rule="nonzero"></path>
                <path d="M198.64,162.57 L180.79,128.89 C177.189639,122.10667 174.339471,114.95107 172.29,107.55 L172.29,107.55 C172.114568,106.913783 171.546289,106.465202 170.886726,106.442301 C170.227162,106.419399 169.629138,106.827484 169.41,107.45 L168.75,110.92 C168.699253,111.048101 168.587554,111.142146 168.452681,111.170329 C168.317807,111.198511 168.177796,111.157062 168.08,111.06 L162.94,105.68 C161.99,104.8 161.52,104.14 160.45,104.61 C160.01,104.8 159.65,105.54 159.57,105.61 C159.068223,105.561468 158.563996,105.673519 158.13,105.93 C157.69,106.24 157.65,107 157.58,107.05 C157.28,107.23 156.58,107.32 156.29,107.64 C156,107.96 156.01,108.44 156.29,109.44 C156.29,109.44 155.68,109.44 155.41,109.8 C154.68,110.71 155.23,111.43 155.68,112.71 C157.37,117.54 182.27,170.24 182.27,170.24 L198.64,162.57 Z" id="Path" fill="#FFB6B2" fill-rule="nonzero"></path>
                <line x1="159.9" y1="105.99" x2="164.34" y2="111.77" id="Path" stroke="#FF8880" stroke-width="0.68" stroke-linecap="round"></line>
                <line x1="157.82" y1="107.24" x2="161.56" y2="113.02" id="Path" stroke="#FF8880" stroke-width="0.68" stroke-linecap="round"></line>
                <line x1="156.36" y1="109.74" x2="159.59" y2="115.52" id="Path" stroke="#FF8880" stroke-width="0.68" stroke-linecap="round"></line>
                <path d="M247.71,106.58 L257.21,104.26 L253.86,90.53 C253.432799,88.8555736 253.307506,87.1184005 253.49,85.4 C253.85,82.09 253.81,76.01 249.13,73.94 C249.13,73.94 245.27,73.32 243.33,74.94 C243.33,74.94 242.07,70.94 238.14,70.84 C234.21,70.74 233.14,74.99 233.14,74.99 C233.14,74.99 223.55,66.58 219.53,74.79 C216.76,80.45 226.53,83.41 226.53,83.41 L236.82,103.16 L247.71,106.58 Z" id="Path" fill="#314351" fill-rule="nonzero"></path>
                <path d="M238.71,126.41 L235,112.8 C235,112.8 230.22,115.23 227.83,108.59 C225.44,101.95 226.5,83.4 226.5,83.4 C226.5,83.4 234.2,82.74 235.06,91.9 C235.06,91.9 239.36,91.36 239.78,94.85 C240.135399,96.5583225 239.174486,98.2666127 237.53,98.85 C237.53,98.85 241.43,106.09 246.36,105.85 C249.985312,105.601288 253.586012,105.073052 257.13,104.27 L260.8,115.87 L238.71,126.41 Z" id="Path" fill="#FFB6B2" fill-rule="nonzero"></path>
                <circle id="Oval" fill="#314351" fill-rule="nonzero" cx="229.29" cy="94.9" r="1"></circle>
                <path d="M229.94,103.8 C230.169492,103.783672 230.397065,103.746859 230.62,103.69 C232.43888,103.265503 233.651292,101.545769 233.44,99.69" id="Path" stroke="#314351" stroke-width="0.9" stroke-linecap="round"></path>
                <path d="M235,112.8 C236.759789,111.837405 238.262084,110.465446 239.38,108.8 C239.440886,108.674405 239.582601,108.609998 239.717257,108.646723 C239.851914,108.683447 239.941308,108.810884 239.93,108.95 C239.93,110.95 239.36,114.88 236.14,116.95 L235,112.8 Z" id="Path" fill="#F2A2A0" fill-rule="nonzero"></path>
                <path d="M266.88,190.87 C276.58,180.56 285.14,168.87 290.33,155.87 C295.74,142.33 296.43,130.37 294.98,120.48 C290.14,116.56 279.39,110.27 262.85,113.6 L230.59,122.07 C217.79,125.43 212.59,130.9 204.36,144.98 L197.47,155.53 L178,122.69 C178,122.69 176.24,142.63 162.75,142.34 C162.75,142.34 173.75,188.08 190.75,191.01 C207.75,193.94 224.18,172.83 224.18,172.83 L241.18,213.83 C247.844304,208.721886 254.233261,203.264236 260.32,197.48 L266.88,190.87 Z" id="Path" fill="#BEEDC0" fill-rule="nonzero"></path>
                <path d="M265.34,169.81 C253.215864,173.898393 242.586294,181.509346 234.81,191.67 L232.96,194.07 L235.29,199.66 L237.89,196.21 C245.750852,185.776993 256.602048,177.984781 269,173.87 L283.75,169 C285.04,166.84 286.26,164.64 287.38,162.4 L265.34,169.81 Z" id="Path" fill="#DCF5DE" fill-rule="nonzero"></path>
                <path d="M193.07,185.15 C179,184.15 167.95,151.5 165.07,142.15 C164.293054,142.274492 163.506775,142.331372 162.72,142.32 C162.72,142.32 173.72,188.06 190.72,190.99 C207.72,193.92 224.15,172.81 224.15,172.81 L223.86,165.19 C223.86,165.19 209.49,186.32 193.07,185.15 Z" id="Path" fill="#000000" fill-rule="nonzero" opacity="0.1" style="mix-blend-mode: multiply;"></path>
                <line x1="224.15" y1="172.83" x2="224" y2="159.34" id="Path" stroke="#7DCC7A" stroke-linecap="round" stroke-linejoin="round"></line>
                <path d="M277.81,157.24 C282.108863,155.820666 286.521772,154.773478 291,154.11 C291.666667,152.23 292.283333,150.383333 292.85,148.57 C287.637996,149.19688 282.502189,150.345987 277.52,152 L260.35,157.75 C248.22209,161.831189 237.588243,169.43923 229.81,179.6 L228,182 L230.32,187.59 L232.92,184.14 C240.778054,173.721606 251.617059,165.937611 264,161.82 L277.81,157.24 Z" id="Path" fill="#DCF5DE" fill-rule="nonzero"></path>
                <path d="M71.39,109 C71.39,109 73.88,123.12 55.33,133.46 C55.33,133.46 50.79,127.08 59.07,117.55 C62.1061377,113.403651 66.443458,110.393579 71.39,109 Z" id="Path" fill="#E085D3" fill-rule="nonzero"></path>
                <path d="M54.58,128.16 C54.58,128.16 55.94,114.87 67.87,110.57 L80,116.63 C82.0316321,117.641912 84.3572498,117.897163 86.56,117.35 C93.13,115.71 107.39,112.07 113.7,109.77 C115.444546,109.135761 116.757507,107.672748 117.2,105.87 L119,98.5 C119.079039,98.1974003 119.331182,97.9712702 119.640569,97.9255158 C119.949956,97.8797613 120.256758,98.0232307 120.42,98.29 L122.51,101.61 C122.658379,101.845119 122.916976,101.98771 123.195,101.98771 C123.473024,101.98771 123.731621,101.845119 123.88,101.61 L127.99,96.29 C128.56,95.45 129.47,94.5 130.33,94.83 C130.79,95.02 130.68,95.83 130.73,95.83 C131.012745,95.5209783 131.467179,95.4390984 131.84,95.63 C132.245722,95.9013616 132.483637,96.3620842 132.47,96.85 C132.807346,96.8241733 133.141336,96.9319119 133.4,97.15 C134.02,97.81 133.65,98.72 133.53,99.27 C133.53,99.33 134.35,99.16 134.65,99.71 C135.16,100.62 132.65,113.93 123.07,118.97 C120.41,120.37 87.59,135.39 78.99,137.34 C70.39,139.29 54.58,128.16 54.58,128.16 Z" id="Path" fill="#CC8672" fill-rule="nonzero"></path>
                <path d="M134,104.1 C131.44,109.1 128,114.1 123.6,116.44 C113.04,122.1 81.38,133.64 75.51,133.25 C70.2,132.89 57.98,124.99 55.73,123.51 C55.3511148,124.597959 55.0470723,125.710554 54.82,126.84 L54.6,128.17 C54.8,128.31 70.48,139.29 79.03,137.35 C87.58,135.41 120.45,120.35 123.11,118.98 C129.39,115.65 132.65,108.69 134,104.1 Z" id="Path" fill="#AF6951" fill-rule="nonzero"></path>
                <line x1="127.02" y1="101.29" x2="130.36" y2="96.08" id="Path" stroke="#FFB6B2" stroke-width="0.68" stroke-linecap="round"></line>
                <line x1="129.37" y1="102.26" x2="132.36" y2="97.18" id="Path" stroke="#FFB6B2" stroke-width="0.68" stroke-linecap="round"></line>
                <line x1="130.42" y1="105.27" x2="133.35" y2="99.49" id="Path" stroke="#FFB6B2" stroke-width="0.68" stroke-linecap="round"></line>
                <path d="M54.58,128.16 C55.728229,120.417199 60.7354528,113.78988 67.87,110.57 L71.39,109 C71.39,109 65.47,103 64.39,97.33 C64.3617451,97.1670695 64.2203623,97.0480948 64.055,97.0480948 C63.8896377,97.0480948 63.7482549,97.1670695 63.72,97.33 L62.88,100.7 C61.0995696,107.622915 58.1103157,114.17693 54.05,120.06 L51.05,124.46 L54.58,128.16 Z" id="Path" fill="#F4C6EF" fill-rule="nonzero"></path>
                <path d="M55,133.34 C55,133.34 53.38,129.58 54.07,127.34 L54.07,127.34 C35.17,111.75 27.78,91.58 32.1,81.64 C36.59,71.28 51.94,66.49 51.94,66.49 L50.57,65.6 L50,65.37 C50,65.37 33,68.45 28.3,81.64 C23.6,94.83 34.17,115.07 42.67,123.86 C42.65,123.86 50.23,131.49 55,133.34 Z" id="Path" fill="#000000" fill-rule="nonzero" opacity="0.1" style="mix-blend-mode: multiply;"></path>
                <path d="M55.31,133.05 C55.31,133.05 51.15,127.28 59.31,117.22 C59.31,117.22 64.46,110.88 70.86,109.22 C70.8768585,109.206727 70.8866987,109.186456 70.8866987,109.165 C70.8866987,109.143544 70.8768585,109.123273 70.86,109.11 C70.14,108.11 63,97.74 62.44,91.11" id="Path" stroke="#E085D3" stroke-width="0.9" stroke-linecap="round"></path>
                <path d="M139.41,98.84 C139.190378,96.2369601 138.085736,93.7876889 136.28,91.9" id="Path" stroke="#FFFFFF" stroke-width="0.68" stroke-linecap="round"></path>
                <path d="M143.81,101.58 C145.304058,99.0090978 145.693652,95.9428466 144.89,93.08" id="Path" stroke="#FFFFFF" stroke-width="0.68" stroke-linecap="round"></path>
            </g>
        </g>
    </g>
</svg>