<?xml version="1.0" encoding="UTF-8"?>
<svg width="66px" height="66px" viewBox="0 0 66 66" version="1.1" xmlns="http://www.w3.org/2000/svg" xmlns:xlink="http://www.w3.org/1999/xlink">
    <title>characters4 (1)-02</title>
    <g id="Page-1" stroke="none" stroke-width="1" fill="none" fill-rule="evenodd">
        <g id="MC-1263-DWP-Landing-Page-Web" transform="translate(-47.000000, -1463.000000)">
            <g id="characters4-(1)-02" transform="translate(48.000000, 1464.000000)">
                <circle id="Oval" fill="#BEEDC0" fill-rule="nonzero" cx="32" cy="32" r="30"></circle>
                <circle id="Oval" stroke="#BEEDC0" stroke-width="1.8" cx="32" cy="32" r="32"></circle>
                <path d="M47.0202697,39.8951826 L25.3660569,37 L8.83251739,39.6987405 C7.1542777,40.1359961 5.53268532,40.7637849 4,41.5696177 C7.7149604,52.9860002 18.0481688,61.0335843 30.1291039,61.9191697 C42.210039,62.804755 53.6275368,56.3515928 59,45.6013583 C55.6696118,42.5607739 51.4982408,40.5738698 47.0202697,39.8951826 Z" id="Path" fill="#FFFFFF" fill-rule="nonzero"></path>
                <path d="M37.54873,34.6936876 C37.54873,34.6936876 44.8594754,33.4271115 42.5483666,17.8329879 L27.9501733,13 L22,21.6993782 L22.6802861,30.4225643 L22.6802861,30.4511337 C31.3795605,36.6983063 37.54873,34.6936876 37.54873,34.6936876 Z" id="Path" fill="#FFB6B2" fill-rule="nonzero"></path>
                <path d="M29.9525479,46.9936381 C36.3869233,46.9936381 37.6349493,42.6411671 37.8631875,41.7678709 C38.0914257,40.8945747 37.9651663,34.337848 37.9651663,34.337848 C37.9651663,34.337848 32.1960811,36.5374337 22.872307,29 L22.0321961,39.0685917 C21.8159591,41.2583493 22.6979429,43.4161017 24.4068448,44.878113 C25.8586806,46.3093118 27.8753252,47.0786032 29.9525479,46.9936381 L29.9525479,46.9936381 Z" id="Path" fill="#FFB6B2" fill-rule="nonzero"></path>
                <path d="M22.3933722,30 L23.9238994,26.2672467 C23.342343,25.8133043 22.9701967,25.133426 22.8957231,24.3888599 C22.8440796,23.2406899 23.1961948,22.3038985 23.9661533,22.1261484 C24.7768505,21.9888501 25.5462643,22.5393258 25.6985599,23.3655954 C25.8300162,24.1630691 25.5060703,25.3112391 26.5389414,25.2295701 C26.5389414,25.2295701 27.1727487,24.5521978 27.0084283,22.5633177 C26.8441079,20.5744375 26.3370621,16.2171566 29.4028115,15.6550818 C32.4685609,15.093007 36.1211689,17.5767051 39.2902055,17.7880837 C42.2385832,17.975442 43.4123004,18.2684895 44.5672382,15.2323247 C45.7221759,12.1961598 44.4921203,10.4282663 41.7503168,9.59716425 C39.0085133,8.76606216 38.8582775,9.16960306 36.942771,8.97263666 C35.0272645,8.77567027 30.7361543,6.71472925 24.5201478,9.26568422 C18.3041413,11.8166392 20.2572068,19.455092 20.4074426,20.7954242 C20.5576784,22.1357565 20.6421861,28.0111198 22.3933722,30 Z" id="Path" fill="#314351" fill-rule="nonzero"></path>
                <path d="M36.9635006,34.80768 C34.9482333,35.1780365 32.8663358,34.8869998 31.0323425,33.9785399 C29.8506064,33.4463138 28.9529788,32.4395657 28.5640682,31.2102088 C28.5283644,31.0739099 28.3965473,30.9849326 28.2557895,31.002119 C28.1150318,31.0193054 28.0088448,31.1373427 28.0074518,31.2781711 C27.9390154,32.5286774 28.3131346,34.2821049 30.3388532,35.867892 C32.3873581,37.5013346 34.6232825,38.8883452 37,40 L36.9635006,34.80768 Z" id="Path" fill="#F2A2A0" fill-rule="nonzero"></path>
                <circle id="Oval" fill="#314351" fill-rule="nonzero" cx="32.5" cy="23.5" r="1"></circle>
                <circle id="Oval" fill="#314351" fill-rule="nonzero" cx="40.5" cy="24.5" r="1"></circle>
                <path d="M29.1011764,21 C29.1011764,21 28.6568962,24.5023652 29.6303192,25.3435032 C30.2792679,25.9042618 33.7835907,26.35572 34.6222321,25.6048737 C35.4608734,24.8540274 36,21.8696511 36,21.8696511" id="Path" stroke="#314351" stroke-width="0.9"></path>
                <path d="M38.5635069,22.0138448 C38.5635069,22.0138448 38.1492736,25.5054505 39.0671769,26.348742 C39.6744052,26.9077779 42.9835642,27.3531116 43.7743731,26.604572 C44.3533583,26.0550112 44.8099563,24.1410238 44.9888298,23.2882572 C45.0152899,23.1806601 44.9942309,23.0668034 44.931074,22.9759967 C44.8679171,22.8851899 44.7688322,22.8263041 44.659326,22.8144979 L29.8834369,21 L26,21.4216457" id="Path" stroke="#314351" stroke-width="0.9"></path>
                <line x1="37" y1="25" x2="38" y2="28" id="Path" stroke="#FF8880" stroke-width="0.9" stroke-linecap="round"></line>
                <path d="M37,44.8847169 C35.1730134,46.7410364 31.0549659,48.2864223 27.2300179,46.6157348 C21.9298026,44.2953355 22.3108319,37 22.3108319,37 L22.3108319,37 L22.0323875,40.1186167 C21.8148654,42.2946664 22.7020906,44.4389111 24.4211481,45.8917702 C25.8793037,47.3115498 27.9038211,48.0758145 29.9900379,47.994052 C33.9908455,47.9894112 35.9936918,46.3465685 37,44.8847169 Z" id="Path" fill="#F2A2A0" fill-rule="nonzero"></path>
                <line x1="33" y1="40" x2="32" y2="42" id="Path" stroke="#F2A2A0" stroke-width="0.9" stroke-linecap="round"></line>
                <path d="M46,13 C46,13 45.4124629,16.5 43,17" id="Path" stroke="#314351" stroke-width="0.9" stroke-linecap="round"></path>
                <path d="M46,16 C46,16 45.2380952,18.1604557 42,17.9904706" id="Path" stroke="#314351" stroke-width="0.9" stroke-linecap="round"></path>
                <path d="M33,28 C33.003117,28.1660754 33.0291143,28.3312003 33.0774194,28.4917391 C33.2578627,29.0280435 33.6725484,29.4790845 34.2301521,29.7455313 C34.7877558,30.011978 35.4425466,30.0719784 36.0503226,29.9123188 C36.4079068,29.8174498 36.733879,29.6470999 37,29.4160266 L33,28 Z" id="Path" fill="#FFFFFF" fill-rule="nonzero"></path>
            </g>
        </g>
    </g>
</svg>