<?xml version="1.0" encoding="UTF-8"?>
<svg width="697px" height="372px" viewBox="0 0 697 372" version="1.1" xmlns="http://www.w3.org/2000/svg" xmlns:xlink="http://www.w3.org/1999/xlink">
    <title>semicircle</title>
    <defs>
        <linearGradient x1="50%" y1="0%" x2="50%" y2="100%" id="linearGradient-1">
            <stop stop-color="#FFFFFF" offset="0%"></stop>
            <stop stop-color="#F7DFF5" offset="100%"></stop>
        </linearGradient>
    </defs>
    <g id="semicircle" stroke="none" stroke-width="1" fill="none" fill-rule="evenodd" opacity="0.423719134">
        <path d="M348.493054,-2.5579496e-13 C540.971655,-2.67580875e-13 697,156.026938 697,348.5 C697,356.397915 696.737277,364.234464 696.220094,372.001383 L495.872691,372.0009 C497.111469,364.347838 497.755123,356.49768 497.755123,348.498532 C497.755123,267.188987 431.248123,201.276531 349.208219,201.276531 C267.997506,201.276531 202.004789,265.880206 200.693056,346.069699 L200.673,348.496 L200.673156,348.504403 C200.673156,356.496018 201.316922,364.347337 202.555906,372.001449 L0.779688962,372.001441 C0.262649457,364.235637 -2.05550455e-13,356.400229 -2.06033992e-13,348.503474 L-2.06034418e-13,348.496526 C-2.17819781e-13,156.026938 156.024872,-2.44009682e-13 348.493054,-2.5579496e-13 Z" id="Combined-Shape" fill="url(#linearGradient-1)" transform="translate(348.500000, 186.000724) rotate(-180.000000) translate(-348.500000, -186.000724) "></path>
    </g>
</svg>