<?xml version="1.0" encoding="UTF-8"?>
<svg width="296px" height="272px" viewBox="0 0 296 272" version="1.1" xmlns="http://www.w3.org/2000/svg" xmlns:xlink="http://www.w3.org/1999/xlink">
    <title>Group 25</title>
    <g id="Page-1" stroke="none" stroke-width="1" fill="none" fill-rule="evenodd">
        <g id="MC-1263-DWP-Landing-Page-Web" transform="translate(-259.000000, -3715.000000)">
            <g id="Group-25" transform="translate(259.000000, 3715.000000)">
                <path d="M55.8326199,9.20245789 C69.2726199,1.65245789 104.26262,-8.62754211 156.38262,12.8224579 C208.50262,34.2724579 252.05262,53.7324579 281.51262,90.0924579 C281.51262,90.0924579 306.51262,116.302458 290.51262,156.202458 C274.51262,196.102458 226.70262,224.522458 211.95262,234.992458 C197.20262,245.462458 141.38262,276.642458 96.7526199,271.402458 C52.1226199,266.162458 21.6926199,205.902458 13.3326199,181.272458 C6.1395815,160.335639 1.76779382,138.53387 0.332619916,116.442458 C-1.62738008,81.2724579 3.63261992,38.5524579 55.8326199,9.20245789 Z" id="Path" fill="#ECF3FF" fill-rule="nonzero"></path>
                <line x1="64.6726199" y1="228.122458" x2="121.75262" y2="228.122458" id="Path" stroke="#C5E2FF" stroke-width="0.9" stroke-linecap="round"></line>
                <line x1="91.3426199" y1="239.782458" x2="121.75262" y2="239.782458" id="Path" stroke="#C5E2FF" stroke-width="0.9" stroke-linecap="round"></line>
                <line x1="95.3626199" y1="251.492458" x2="114.00262" y2="251.492458" id="Path" stroke="#C5E2FF" stroke-width="0.9" stroke-linecap="round"></line>
                <path d="M88.95262,228.202458 L88.95262,239.482458 C88.95262,239.563786 88.9196891,239.641648 88.8612464,239.698205 C88.8028037,239.754763 88.723903,239.785169 88.6426199,239.782458 L74.3626199,239.782458" id="Path" stroke="#C5E2FF" stroke-width="0.9" stroke-linecap="round"></path>
                <line x1="105.44262" y1="239.832458" x2="105.44262" y2="251.232458" id="Path" stroke="#C5E2FF" stroke-width="0.9" stroke-linecap="round"></line>
                <line x1="254.05262" y1="117.642458" x2="288.94262" y2="117.642458" id="Path" stroke="#C5E2FF" stroke-width="0.9" stroke-linecap="round"></line>
                <line x1="280.72262" y1="129.312458" x2="290.85262" y2="129.312458" id="Path" stroke="#C5E2FF" stroke-width="0.9" stroke-linecap="round"></line>
                <line x1="272.76262" y1="141.022458" x2="284.27262" y2="141.022458" id="Path" stroke="#C5E2FF" stroke-width="0.9" stroke-linecap="round"></line>
                <path d="M278.29262,117.732458 L278.29262,129.002458 C278.29262,129.173666 278.153828,129.312458 277.98262,129.312458 L263.74262,129.312458" id="Path" stroke="#C5E2FF" stroke-width="0.9" stroke-linecap="round"></path>
                <line x1="69.4026199" y1="14.1424579" x2="104.29262" y2="14.1424579" id="Path" stroke="#C5E2FF" stroke-width="0.9" stroke-linecap="round"></line>
                <line x1="96.0726199" y1="25.8124579" x2="106.20262" y2="25.8124579" id="Path" stroke="#C5E2FF" stroke-width="0.9" stroke-linecap="round"></line>
                <path d="M93.6426199,14.2724579 L93.6426199,25.5024579 C93.6426199,25.6736662 93.5038282,25.8124579 93.3326199,25.8124579 L79.0926199,25.8124579" id="Path" stroke="#C5E2FF" stroke-width="0.9" stroke-linecap="round"></path>
                <path d="M33.4826199,39.6724579 L247.95262,39.6724579 C248.283991,39.6724579 248.55262,39.941087 248.55262,40.2724579 L248.55262,194.622458 C248.55262,195.727027 247.657189,196.622458 246.55262,196.622458 L33.2026199,196.622458 C32.3244872,196.622458 31.6126199,195.910591 31.6126199,195.032458 L31.6126199,41.5424579 C31.6126199,40.5096854 32.4498474,39.6724579 33.4826199,39.6724579 Z" id="Path" fill="#FFFFFF" fill-rule="nonzero"></path>
                <rect id="Rectangle" fill="#F7DFF5" fill-rule="nonzero" x="116.64262" y="57.3124579" width="39.4" height="31.75" rx="2.47"></rect>
                <path d="M119.07262,57.2724578 L120.59262,57.2724578 L120.59262,89.0724579 L119.07262,89.0724579 C117.730568,89.0724579 116.64262,87.9845098 116.64262,86.6424579 L116.64262,59.7524579 C116.629179,59.0993628 116.87925,58.4683595 117.336428,58.0017742 C117.793607,57.5351889 118.419387,57.2724578 119.07262,57.2724578 L119.07262,57.2724578 Z" id="Path" fill="#F4C6EF" fill-rule="nonzero"></path>
                <rect id="Rectangle" fill="#F7DFF5" fill-rule="nonzero" x="165.45262" y="103.572458" width="39.4" height="31.75" rx="2.47"></rect>
                <rect id="Rectangle" fill="#ECF3FF" fill-rule="nonzero" x="165.36262" y="149.832458" width="39.4" height="31.75" rx="2.47"></rect>
                <rect id="Rectangle" fill="#DCF5DE" fill-rule="nonzero" x="67.8326199" y="149.832458" width="39.4" height="31.75" rx="2.47"></rect>
                <path d="M70.2626199,149.832458 L71.7826199,149.832458 L71.7826199,181.582458 L70.2626199,181.582458 C68.920568,181.582458 67.8325993,180.49451 67.8325993,179.152458 L67.8325993,152.272458 C67.8299606,151.626251 68.0848033,151.005599 68.5408052,150.54772 C68.9968072,150.089842 69.6164075,149.832458 70.2626199,149.832458 L70.2626199,149.832458 Z" id="Path" fill="#BEEDC0" fill-rule="nonzero"></path>
                <rect id="Rectangle" fill="#FAF1E1" fill-rule="nonzero" x="116.64262" y="149.832458" width="39.4" height="31.75" rx="2.47"></rect>
                <path d="M119.10262,149.832458 L120.62262,149.832458 L120.62262,181.582458 L119.10262,181.582458 C117.760568,181.582458 116.672599,180.49451 116.672599,179.152458 L116.672599,152.272458 C116.669961,151.626251 116.924803,151.005599 117.380805,150.54772 C117.836807,150.089842 118.456407,149.832458 119.10262,149.832458 L119.10262,149.832458 Z" id="Path" fill="#FFE5B2" fill-rule="nonzero"></path>
                <rect id="Rectangle" fill="#ECF3FF" fill-rule="nonzero" x="165.45262" y="57.3124579" width="39.4" height="31.75" rx="2.47"></rect>
                <path d="M190.39262,80.8324782 L175.39262,80.8324782 C174.037908,80.821455 172.947068,79.717203 172.952599,78.3624579 L172.952599,51.5524579 C172.952599,50.1883146 174.058477,49.0824579 175.42262,49.0824579 L209.87262,49.0824579 C211.23839,49.0824579 212.347113,50.1866986 212.35262,51.5524579 L212.35262,78.3624579 C212.35262,79.0192789 212.091022,79.6490533 211.625642,80.1125567 C211.160262,80.5760601 210.529436,80.8351171 209.87262,80.8324782" id="Path" stroke="#B2D4FE" stroke-width="0.9" stroke-linecap="round"></path>
                <path d="M79.8826199,204.332458 C79.8826199,204.332458 74.7926199,196.332458 90.4726199,182.572458 L92.8226199,188.842458 C92.8226199,188.842458 87.1426199,207.072458 79.8826199,204.332458 Z" id="Path" fill="#B22485" fill-rule="nonzero"></path>
                <rect id="Rectangle" fill="#FAF1E1" fill-rule="nonzero" x="67.8326199" y="57.3124579" width="39.4" height="31.75" rx="2.47"></rect>
                <path d="M70.2626199,57.2724578 L71.7826199,57.2724578 L71.7826199,89.0724579 L70.2626199,89.0724579 C68.920568,89.0724579 67.8326199,87.9845098 67.8326199,86.6424579 L67.8326199,59.7524579 C67.8191789,59.0993628 68.06925,58.4683595 68.5264283,58.0017742 C68.9836067,57.5351889 69.6093865,57.2724578 70.2626199,57.2724578 Z" id="Path" fill="#FFC74F" fill-rule="nonzero"></path>
                <circle id="Oval" fill="#FFFFFF" fill-rule="nonzero" cx="78.8726199" cy="65.0024579" r="2.28"></circle>
                <line x1="85.4126199" y1="65.0024579" x2="101.29262" y2="65.0024579" id="Path" stroke="#FFC74F" stroke-width="1.8" stroke-linecap="round"></line>
                <circle id="Oval" fill="#FFFFFF" fill-rule="nonzero" cx="78.8726199" cy="73.3124579" r="2.28"></circle>
                <line x1="85.4126199" y1="73.3124579" x2="101.29262" y2="73.3124579" id="Path" stroke="#FFC74F" stroke-width="1.8" stroke-linecap="round"></line>
                <circle id="Oval" fill="#FFFFFF" fill-rule="nonzero" cx="78.8726199" cy="81.6224579" r="2.28"></circle>
                <line x1="85.4126199" y1="81.6224579" x2="91.2126199" y2="81.6224579" id="Path" stroke="#FFC74F" stroke-width="1.8" stroke-linecap="round"></line>
                <rect id="Rectangle" fill="#FFE7E5" fill-rule="nonzero" x="116.64262" y="103.572458" width="39.4" height="31.75" rx="2.47"></rect>
                <path d="M119.07262,103.572458 L120.59262,103.572458 L120.59262,135.322458 L119.07262,135.322458 C117.730568,135.322458 116.642599,134.23451 116.642599,132.892458 L116.642599,106.012458 C116.639961,105.366251 116.894803,104.745599 117.350805,104.28772 C117.806807,103.829842 118.426407,103.572458 119.07262,103.572458 L119.07262,103.572458 Z" id="Path" fill="#FFB6B2" fill-rule="nonzero"></path>
                <circle id="Oval" fill="#FFFFFF" fill-rule="nonzero" cx="127.68262" cy="111.072458" r="2.28"></circle>
                <line x1="134.22262" y1="111.072458" x2="140.01262" y2="111.072458" id="Path" stroke="#FFB6B2" stroke-width="1.8" stroke-linecap="round"></line>
                <circle id="Oval" fill="#FFFFFF" fill-rule="nonzero" cx="127.68262" cy="119.372458" r="2.28"></circle>
                <line x1="134.22262" y1="119.372458" x2="150.10262" y2="119.372458" id="Path" stroke="#FFB6B2" stroke-width="1.8" stroke-linecap="round"></line>
                <rect id="Rectangle" fill="#ECF3FF" fill-rule="nonzero" x="67.8326199" y="103.572458" width="39.4" height="31.75" rx="2.47"></rect>
                <path d="M70.2626199,103.572458 L71.7826199,103.572458 L71.7826199,135.322458 L70.2626199,135.322458 C68.920568,135.322458 67.8325993,134.23451 67.8325993,132.892458 L67.8325993,106.012458 C67.8299606,105.366251 68.0848033,104.745599 68.5408052,104.28772 C68.9968072,103.829842 69.6164075,103.572458 70.2626199,103.572458 L70.2626199,103.572458 Z" id="Path" fill="#B2D4FE" fill-rule="nonzero"></path>
                <circle id="Oval" fill="#FFFFFF" fill-rule="nonzero" cx="78.8726199" cy="111.072458" r="2.28"></circle>
                <line x1="85.4126199" y1="111.072458" x2="101.29262" y2="111.072458" id="Path" stroke="#B2D4FE" stroke-width="1.8" stroke-linecap="round"></line>
                <circle id="Oval" fill="#FFFFFF" fill-rule="nonzero" cx="78.8726199" cy="119.372458" r="2.28"></circle>
                <line x1="85.4126199" y1="119.372458" x2="101.29262" y2="119.372458" id="Path" stroke="#B2D4FE" stroke-width="1.8" stroke-linecap="round"></line>
                <circle id="Oval" fill="#FFFFFF" fill-rule="nonzero" cx="78.8726199" cy="127.682458" r="2.28"></circle>
                <line x1="85.4126199" y1="127.682458" x2="91.2126199" y2="127.682458" id="Path" stroke="#B2D4FE" stroke-width="1.8" stroke-linecap="round"></line>
                <path d="M209.25262,117.102458 L208.84262,113.722458 C208.141789,107.982321 206.903008,102.320758 205.14262,96.8124579 L195.57262,66.8124579 C194.900135,64.7040543 194.605604,62.4933831 194.70262,60.2824579 L195.04262,52.1924579 C195.160421,49.6416155 193.726781,47.2719627 191.41262,46.1924579 C189.21262,45.1924579 186.50262,44.1124579 184.65262,44.1124579 C181.03262,44.1124579 176.32262,47.9324579 177.21262,48.8224579 C178.10262,49.7124579 180.93262,49.0124579 181.81262,50.8224579 C182.69262,52.6324579 183.09262,57.0024579 182.50262,57.5924579 C181.91262,58.1824579 177.70262,54.6524579 176.32262,54.6524579 C174.94262,54.6524579 176.13262,59.5524579 178.38262,62.5924579 C180.63262,65.6324579 190.63262,104.342458 192.00262,112.962458 C192.00262,112.982458 199.65262,123.172458 209.25262,117.102458 Z" id="Path" fill="#FFB6B2" fill-rule="nonzero"></path>
                <path d="M180.22262,46.4324579 L181.63262,46.9324579 C183.623858,47.6436297 185.198208,49.1996739 185.93262,51.1824579 L186.32262,52.2424579" id="Path" stroke="#FF8880" stroke-width="0.9" stroke-linecap="round"></path>
                <path d="M183.53262,44.9124579 L185.53262,46.0524579 C187.228055,47.0211091 188.461085,48.6327012 188.95262,50.5224579 L189.36262,52.1224579" id="Path" stroke="#FF8880" stroke-width="0.9" stroke-linecap="round"></path>
                <path d="M190.00262,46.4824579 L190.15262,46.6524579 C191.572891,48.2596892 192.420411,50.2923319 192.56262,52.4324579 L192.56262,52.9524579" id="Path" stroke="#FF8880" stroke-width="0.9" stroke-linecap="round"></path>
                <path d="M209.25262,117.102458 L208.84262,113.722458 C208.141789,107.982321 206.903008,102.320758 205.14262,96.8124579 L196.80262,70.6224579 L181.88262,72.6224579 C185.70262,85.5424579 191.03262,106.872458 192.00262,113.002458 C192.00262,112.982458 199.65262,123.172458 209.25262,117.102458 Z" id="Path" fill="#F2A2A0" fill-rule="nonzero"></path>
                <path d="M120.80262,190.142458 L109.00262,195.792458 L85.8226199,180.272458 C83.3942087,178.640819 81.5264271,176.301728 80.4726199,173.572458 C79.0391794,169.595036 77.1888775,165.780464 74.9526199,162.192458 C74.5295138,161.632664 73.8015936,161.397075 73.1307271,161.602807 C72.4598605,161.80854 71.9891589,162.411706 71.9526199,163.112458 L71.9526199,167.382458 L61.9526199,162.322458 C60.7547184,161.706359 59.3226348,161.757478 58.1717102,162.45742 C57.0207856,163.157362 56.3166237,164.405413 56.3126199,165.752458 C56.3126199,169.262458 56.8526199,173.682458 58.8826199,177.282458 C62.8826199,184.452458 70.8826199,184.472458 76.8226199,191.072458 C82.7626199,197.672458 98.1326199,216.732458 113.55262,217.562458 C119.96262,217.902458 126.61262,213.132458 133.55262,208.742458 C143.29262,202.562458 120.80262,190.142458 120.80262,190.142458 Z" id="Path" fill="#FFB6B2" fill-rule="nonzero"></path>
                <path d="M120.80262,190.142458 L109.00262,195.792458 L88.6726199,182.142458 C86.8126199,191.012458 81.5726199,195.142458 80.8526199,195.642458 C88.2526199,203.912458 100.85262,216.882458 113.55262,217.562458 C119.96262,217.902458 126.61262,213.132458 133.55262,208.742458 C143.29262,202.562458 120.80262,190.142458 120.80262,190.142458 Z" id="Path" fill="#F2A2A0" fill-rule="nonzero"></path>
                <path d="M59.1926199,163.562458 C59.1926199,163.562458 63.5126199,168.282458 67.3426199,169.782458" id="Path" stroke="#FF8880" stroke-width="0.9" stroke-linecap="round"></path>
                <path d="M57.8826199,165.962458 C59.959864,169.158017 62.6316036,171.924812 65.7526199,174.112458" id="Path" stroke="#FF8880" stroke-width="0.9" stroke-linecap="round"></path>
                <path d="M57.7226199,171.642458 C59.6678682,173.998689 61.8944535,176.107732 64.3526199,177.922458" id="Path" stroke="#FF8880" stroke-width="0.9" stroke-linecap="round"></path>
                <path d="M209.40262,236.822458 L209.22262,235.822458 C208.530115,232.130585 207.45429,228.521042 206.01262,225.052458 L203.37262,218.702458 L156.62262,223.702458 L154.52262,263.122458 C176.65262,255.682458 198.76262,243.822458 209.40262,236.822458 Z" id="Path" fill="#49439C" fill-rule="nonzero"></path>
                <path d="M156.62262,223.732458 L155.51262,244.672458 C163.51262,244.672458 189.75262,242.672458 207.20262,228.142458 L203.62262,218.612458 L156.62262,223.732458 Z" id="Path" fill="#000000" fill-rule="nonzero" opacity="0.1" style="mix-blend-mode: multiply;"></path>
                <path d="M201.02262,74.7624579 L182.60262,74.7624579 L185.20262,86.9424579 C188.421507,102.045513 190.182922,117.422728 190.46262,132.862458 L190.73262,148.462458 L170.44262,156.692458 L157.44262,160.252458 C149.007028,162.551674 141.235265,166.814493 134.76262,172.692458 L113.06262,192.542458 C111.805328,193.694024 109.944675,193.892656 108.47262,193.032458 L90.4726199,182.572458 C90.4726199,182.572458 90.1726199,203.442458 79.8826199,204.332458 C79.8826199,204.332458 97.4326199,218.612458 113.94262,218.672458 C127.66262,218.672458 141.94262,204.732458 146.39262,200.002458 L146.70262,201.392458 C147.524889,205.193456 148.871083,208.861833 150.70262,212.292458 L150.70262,212.292458 C153.713083,217.933687 154.993136,224.337426 154.38262,230.702458 L153.96262,235.102458 L168.96262,235.022458 C182.838266,234.943488 196.474384,231.399541 208.63262,224.712458 L208.63262,224.712458 L208.38262,222.992458 C206.240342,208.106634 205.92467,193.014842 207.44262,178.052458 C208.495953,167.719125 209.73262,157.409125 211.15262,147.122458 C212.67262,135.992458 213.75262,120.562458 211.57262,104.952458 C210.14262,94.4524579 205.73262,84.3724579 201.02262,74.7624579 Z" id="Path" fill="#E085D3" fill-rule="nonzero"></path>
                <path d="M185.20262,86.9424579 C187.607978,98.2569332 189.195417,109.729939 189.95262,121.272458 L195.16262,123.002458 C195.16262,123.002458 194.08262,91.9124579 185.98262,74.7724579 L182.58262,74.7724579 L185.20262,86.9424579 Z" id="Path" fill="#000000" fill-rule="nonzero" opacity="0.1" style="mix-blend-mode: multiply;"></path>
                <path d="M152.02262,189.272458 C152.02262,189.272458 131.83262,211.422458 117.13262,213.582458 C105.71262,215.252458 90.5326199,206.422458 84.3026199,202.382458 C83.0945706,203.524903 81.5382326,204.229128 79.8826199,204.382458 C79.8826199,204.382458 97.4326199,218.612458 113.95262,218.672458 C127.67262,218.672458 141.95262,204.732458 146.40262,200.002458 L146.71262,201.392458 C147.534889,205.193456 148.881083,208.861833 150.71262,212.292458 C153.723083,217.933687 155.003136,224.337426 154.39262,230.702458 L153.97262,235.102458 L160.67262,235.102458 C162.91262,224.412458 158.45262,214.312458 154.56262,207.502458 C150.67262,200.692458 152.02262,189.272458 152.02262,189.272458 Z" id="Path" fill="#000000" fill-rule="nonzero" opacity="0.1" style="mix-blend-mode: multiply;"></path>
                <path d="M90.4726199,182.862458 C90.4726199,182.862458 90.4726199,203.332458 80.1826199,204.222458" id="Path" stroke="#B22485" stroke-width="0.68" stroke-linecap="round"></path>
                <path d="M195.73262,126.512458 C195.73262,126.512458 194.36262,95.9324579 186.73262,75.3024579" id="Path" stroke="#B22485" stroke-width="0.68" stroke-linecap="round"></path>
                <path d="M169.28262,110.552458 C169.28262,110.552458 178.89262,101.272458 191.61262,112.992458 C191.61262,112.992458 199.61262,121.192458 197.21262,132.182458 L197.21262,132.182458 C194.845616,136.719146 190.133986,139.544777 185.017161,139.496246 C179.900337,139.447715 175.243149,136.533226 172.96262,131.952458 C167.56262,121.172458 163.66262,110.542458 169.28262,110.552458 Z" id="Path" fill="#000000" fill-rule="nonzero"></path>
                <path d="M171.65262,110.532458 C171.65262,110.532458 164.84262,107.482458 162.01262,113.602458 C159.18262,119.722458 159.53262,125.832458 158.23262,133.092458 C156.84262,140.822458 158.59262,148.362458 165.98262,149.092458 C170.630005,149.499709 175.311393,148.941347 179.73262,147.452458 L171.65262,110.532458 Z" id="Path" fill="#000000" fill-rule="nonzero"></path>
                <path d="M168.52262,144.272458 C169.159512,144.595622 169.830278,144.847159 170.52262,145.022458 C170.52262,145.022458 170.52262,151.792458 170.46262,156.822458 C173.34262,159.682458 191.07262,160.572458 188.53262,150.282458 C187.35262,145.962458 186.19262,131.902458 186.19262,131.902458 C188.30262,132.902458 192.40262,129.512458 190.47262,126.312458 C189.10262,124.042458 187.19262,125.442458 186.21262,126.432458 C185.775042,126.882532 185.119983,127.045328 184.52262,126.852458 C174.35262,123.442458 169.25262,114.072458 169.25262,114.072458 C163.46262,118.272458 158.31262,139.272458 168.52262,144.272458 Z" id="Path" fill="#FFB6B2" fill-rule="nonzero"></path>
                <path d="M167.47262,137.022458 C168.542005,137.778625 169.947346,137.864053 171.100451,137.242987 C172.253556,136.621922 172.95555,135.401477 172.91262,134.092458 L167.47262,137.022458 Z" id="Path" fill="#FFFFFF" fill-rule="nonzero"></path>
                <line x1="168.60262" y1="129.702458" x2="168.01262" y2="132.032458" id="Path" stroke="#FF8880" stroke-width="0.9" stroke-linecap="round"></line>
                <circle id="Oval" fill="#000000" fill-rule="nonzero" cx="176.12262" cy="127.712458" r="1"></circle>
                <circle id="Oval" fill="#000000" fill-rule="nonzero" cx="165.65262" cy="126.812458" r="1"></circle>
                <path d="M184.08262,125.192458 L159.72262,123.072458 C159.6891,123.069655 159.655942,123.081049 159.631226,123.103864 C159.606509,123.126679 159.592503,123.158821 159.59262,123.192458 L159.25262,127.102458 C159.191654,127.771359 159.400247,128.436921 159.832087,128.951373 C160.263926,129.465825 160.883273,129.786592 161.55262,129.842458 L164.92262,130.142458 C166.0592,130.239219 167.119969,129.56344 167.51262,128.492458 L169.13262,124.122458" id="Path" stroke="#FF8880" stroke-width="0.9" stroke-linecap="round"></path>
                <path d="M170.84262,124.272458 L171.17262,128.572458 C171.261029,129.811253 172.235533,130.802705 173.47262,130.912458 L176.72262,131.192458 C178.114303,131.313724 179.340897,130.284101 179.46262,128.892458 L179.80262,124.952458" id="Path" stroke="#FF8880" stroke-width="0.9" stroke-linecap="round"></path>
                <path d="M182.68262,140.662458 C181.22262,142.092458 177.68262,145.522458 170.47262,145.012458 C170.47262,145.322458 170.47262,147.382458 170.42262,150.012458 C179.95262,149.382458 182.03262,142.452458 182.99262,141.012458 C183.13262,140.812458 182.85262,140.492458 182.68262,140.662458 Z" id="Path" fill="#F2A2A0" fill-rule="nonzero"></path>
                <path d="M170.37262,155.892458 C170.37262,155.892458 185.66262,158.462458 188.01262,148.892458" id="Path" stroke="#FFFFFF" stroke-width="0.45" stroke-linecap="round"></path>
                <path d="M186.14262,131.862458 C186.14262,131.862458 178.94262,141.112458 184.52262,147.392458 C189.16262,152.622458 196.69262,150.122458 199.95262,147.092458 C204.25262,143.092458 201.66262,138.352458 200.03262,133.452458 C198.40262,128.552458 196.95262,122.972458 196.95262,122.972458 L194.80262,128.172458 C193.630819,131.107287 190.567657,132.824324 187.45262,132.292458 C186.99599,132.219183 186.553847,132.074052 186.14262,131.862458 L186.14262,131.862458 Z" id="Path" fill="#000000" fill-rule="nonzero"></path>
                <path d="M182.25262,148.682458 C182.25262,148.682458 178.95262,139.152458 187.14262,133.272458" id="Path" stroke="#000000" stroke-width="0.9" stroke-linecap="round"></path>
                <path d="M146.39262,200.002458 C146.39262,200.002458 158.98262,182.002458 152.21262,170.222458 C152.21262,170.222458 150.65262,167.472458 146.04262,165.912458" id="Path" stroke="#B22485" stroke-width="0.68" stroke-linecap="round"></path>
                <path d="M150.55262,168.362458 C150.55262,168.362458 153.15262,165.582458 164.04262,161.892458" id="Path" stroke="#B22485" stroke-width="0.68" stroke-linecap="round"></path>
                <path d="M170.41262,156.772458 C173.29262,159.632458 191.02262,160.522458 188.48262,150.232458" id="Path" stroke="#B22485" stroke-width="0.68" stroke-linecap="round"></path>
                <line x1="182.60262" y1="74.7624579" x2="201.02262" y2="74.7624579" id="Path" stroke="#B22485" stroke-width="0.68" stroke-linecap="round"></line>
                <line x1="187.50262" y1="131.022458" x2="187.59262" y2="132.632458" id="Path" stroke="#FFFFFF" stroke-width="0.68" stroke-linecap="round"></line>
                <line x1="9.00261992" y1="96.7124579" x2="20.5126199" y2="96.7124579" id="Path" stroke="#C5E2FF" stroke-width="0.9" stroke-linecap="round"></line>
                <path d="M32.9526199,39.6724579 L33.4526199,39.6724579 L33.4526199,196.672458 L32.9526199,196.672458 C32.2346497,196.672458 31.6526198,196.090428 31.6526198,195.372458 L31.6526198,41.0124579 C31.652297,40.28774 32.2282249,39.6940912 32.9526199,39.6724579 Z" id="Path" fill="#B2D4FE" fill-rule="nonzero"></path>
            </g>
        </g>
    </g>
</svg>