<?xml version="1.0" encoding="UTF-8"?>
<svg width="296px" height="272px" viewBox="0 0 296 272" version="1.1" xmlns="http://www.w3.org/2000/svg" xmlns:xlink="http://www.w3.org/1999/xlink">
    <title>Group 26</title>
    <g id="Page-1" stroke="none" stroke-width="1" fill="none" fill-rule="evenodd">
        <g id="MC-1263-DWP-Landing-Page-Web" transform="translate(-809.000000, -4026.000000)">
            <g id="Group-26" transform="translate(809.000000, 4026.000000)">
                <path d="M55.7943524,9.25713979 C69.2343524,1.64713979 104.224352,-8.63286021 156.344352,12.8171398 C208.464352,34.2671398 252.014352,53.7271398 281.484352,90.0871398 C281.484352,90.0871398 306.484352,116.29714 290.484352,156.19714 C274.484352,196.09714 226.654352,224.51714 211.944352,234.99714 C197.234352,245.47714 141.344352,276.63714 96.7443524,271.39714 C52.1443524,266.15714 21.6643524,205.89714 13.3443524,181.25714 C6.15478905,160.333135 1.78304737,138.545047 0.344352412,116.46714 C-1.65564759,81.2571398 3.59435241,38.5471398 55.7943524,9.25713979 Z" id="Path" fill="#ECF3FF" fill-rule="nonzero"></path>
                <path d="M188.264352,133.25714 C188.264352,133.25714 183.754352,114.14714 160.924352,110.96714 L99.4743524,111.84714 L95.1843524,112.74714 C78.2501718,116.344055 64.5050201,128.672416 59.0943524,145.11714 C53.7743524,161.25714 49.0143524,177.79714 47.7343524,192.78714 C46.9543524,201.91714 52.3743524,208.17714 61.5443524,208.09714 C64.3943524,208.09714 70.1243524,207.09714 76.2243524,205.88714 L83.3443524,204.61714 C87.3443524,203.910473 91.3210191,203.143806 95.2743524,202.31714 C95.8843524,204.94714 98.5343524,216.59714 98.5943524,221.61714 L98.6743524,227.30714 L190.234352,227.30714 L188.264352,133.25714 Z M87.9043524,176.32714 L82.4443524,176.96714 L83.6943524,163.40714 L87.9043524,176.32714 Z" id="Shape" fill="#E085D3" fill-rule="nonzero"></path>
                <path d="M109.124352,119.25714 L152.884352,116.50714 L154.164352,232.84714 L120.934352,229.02714 L122.064352,201.86714 C122.738143,185.619559 121.149601,169.357198 117.344352,153.54714 L109.124352,119.25714 Z" id="Path" fill="#F7DFF5" fill-rule="nonzero"></path>
                <path d="M147.274352,55.5771398 C147.274352,55.5771398 136.024352,44.5771398 120.894352,58.2571398 C120.894352,58.2571398 111.414352,67.8671398 114.104352,80.8571398 L127.524352,107.10714 C127.524352,107.10714 160.744352,55.6771398 147.274352,55.5771398 Z" id="Path" fill="#000000" fill-rule="nonzero"></path>
                <path d="M144.484352,55.5371398 C144.484352,55.5371398 152.544352,52.0071398 155.834352,59.2471398 C159.124352,66.4871398 158.654352,73.7171398 160.124352,82.2971398 C161.684352,91.4371398 159.544352,100.29714 150.814352,101.14714 C145.326739,101.587257 139.80745,100.885855 134.604352,99.0871398 L144.484352,55.5371398 Z" id="Path" fill="#000000" fill-rule="nonzero"></path>
                <path d="M146.344352,108.71714 L146.344352,108.71714 C144.677518,108.71746 143.317035,107.383654 143.284352,105.71714 C143.134352,100.93714 142.924352,96.3871398 142.924352,96.3871398 C142.924352,96.3871398 146.164352,96.4571398 147.554352,95.7871398 C159.654352,89.9871398 154.064352,64.6471398 147.334352,59.6471398 C147.334352,59.6471398 138.874352,71.6471398 126.824352,75.6471398 C126.116964,75.8777897 125.339978,75.6835431 124.824352,75.1471398 C123.674352,73.9571398 121.444352,72.2871398 119.824352,74.9671398 C117.514352,78.7171398 122.334352,82.7571398 124.824352,81.6071398 C124.640193,84.542887 123.596931,87.3596961 121.824352,89.7071398 C120.311739,91.6547969 119.335989,93.9648758 118.994352,96.4071398 L117.694352,104.54714 C117.294352,107.09714 115.414352,108.40714 112.694352,108.94714 L99.4143524,111.78714 C104.924352,121.25714 119.254352,125.78714 131.004352,125.78714 C142.564352,125.78714 155.284352,120.16714 160.864352,110.94714 C159.454352,110.77714 148.724352,109.15714 146.344352,108.71714 Z" id="Path" fill="#FFB6B2" fill-rule="nonzero"></path>
                <path d="M146.974352,85.4671398 C146.063967,86.7171271 144.525151,87.3450095 143.000162,87.0887267 C141.475174,86.8324439 140.226132,85.7360466 139.774352,84.2571398 L146.974352,85.4671398 Z" id="Path" fill="#FFFFFF" fill-rule="nonzero"></path>
                <line x1="144.354352" y1="78.2971398" x2="145.034352" y2="81.0571398" id="Path" stroke="#FF8880" stroke-width="0.9" stroke-linecap="round"></line>
                <line x1="123.114352" y1="81.1871398" x2="123.054352" y2="82.3871398" id="Path" stroke="#FFFFFF" stroke-width="0.68" stroke-linecap="round"></line>
                <path d="M142.934352,96.4271398 C138.977896,95.6557266 135.24777,93.9975126 132.024352,91.5771398 C131.924066,91.4923266 131.779298,91.4855035 131.671478,91.5605082 C131.563659,91.635513 131.51971,91.7736174 131.564352,91.8971398 C132.674352,94.5971398 136.204352,101.89714 143.184352,104.71714 L142.934352,96.4271398 Z" id="Path" fill="#F2A2A0" fill-rule="nonzero"></path>
                <circle id="Oval" fill="#000000" fill-rule="nonzero" cx="135.114352" cy="75.3971398" r="1"></circle>
                <circle id="Oval" fill="#000000" fill-rule="nonzero" cx="148.954352" cy="75.3971398" r="1"></circle>
                <path d="M126.694352,71.7471398 L155.564352,71.7471398 C155.604135,71.7471398 155.642288,71.7629433 155.670418,71.7910738 C155.698549,71.8192042 155.714352,71.8573573 155.714352,71.8971398 L155.714352,76.5371398 C155.714352,78.193994 154.371207,79.5371398 152.714352,79.5371398 L148.714352,79.5371398 C147.369822,79.5320429 146.192887,78.6329956 145.834352,77.3371398 L144.724352,73.2571398" id="Path" stroke="#FF8880" stroke-width="0.9" stroke-linecap="round"></path>
                <path d="M142.134352,73.3571398 L141.544352,77.0071398 C141.309597,78.4555278 140.061631,79.5215863 138.594352,79.5271398 L134.754352,79.5271398 C133.097498,79.5271398 131.754352,78.183994 131.754352,76.5271398 L131.754352,71.8771398" id="Path" stroke="#FF8880" stroke-width="0.9" stroke-linecap="round"></path>
                <path d="M124.824352,81.6271398 C124.824352,81.6271398 128.244352,92.9171398 125.544352,97.9371398 C123.154352,102.37714 112.644352,100.40714 110.724352,98.4271398 C105.914352,93.4271398 108.794352,88.0971398 110.774352,82.3371398 C112.754352,76.5771398 114.534352,69.9871398 114.534352,69.9871398 L116.654352,74.5571398 L119.454352,82.7871398 C119.454352,82.7871398 123.854352,87.4571398 124.824352,81.6271398 Z" id="Path" fill="#000000" fill-rule="nonzero"></path>
                <path d="M126.204352,99.8271398 C126.204352,99.8271398 129.644352,94.1571398 124.274352,82.8271398" id="Path" stroke="#000000" stroke-width="0.9" stroke-linecap="round"></path>
                <polygon id="Path" fill="#000000" fill-rule="nonzero" opacity="0.1" style="mix-blend-mode: multiply;" points="161.694352 111.05714 167.244352 136.35714 161.514352 137.67714"></polygon>
                <path d="M161.694352,111.05714 C161.694352,111.05714 155.894352,109.96714 151.844352,109.59714 L148.684352,135.08714 L164.014352,144.08714 L161.694352,111.05714 Z" id="Path" fill="#B22485" fill-rule="nonzero"></path>
                <path d="M210.804352,185.16714 L132.044352,185.16714 C131.298355,185.166141 130.599601,184.801833 130.171665,184.190781 C129.74373,183.579729 129.640256,182.79853 129.894352,182.09714 L147.204352,134.67714 C147.907248,132.742702 149.746171,131.455456 151.804352,131.457138 L230.574352,131.457138 C231.32035,131.458139 232.019104,131.822447 232.44704,132.433499 C232.874975,133.044551 232.978449,133.825749 232.724352,134.52714 L215.414352,181.94714 C214.702885,183.879394 212.863425,185.164223 210.804352,185.16714 Z" id="Path" fill="#FFE5B2" fill-rule="nonzero"></path>
                <path d="M166.464352,169.877128 C164.605143,169.872931 162.943945,171.037771 162.314352,172.78714 L157.794352,185.16714 L210.794352,185.16714 C212.853425,185.164223 214.692885,183.879394 215.404352,181.94714 L219.804352,169.877128 L166.464352,169.877128 Z" id="Path" fill="#000000" fill-rule="nonzero" opacity="0.1" style="mix-blend-mode: multiply;"></path>
                <rect id="Rectangle" fill="#FFFFFF" fill-rule="nonzero" x="153.224352" y="140.27714" width="68.12" height="4.31" rx="2.155"></rect>
                <rect id="Rectangle" fill="#FFFFFF" fill-rule="nonzero" x="149.254352" y="150.85714" width="68.12" height="4.31" rx="2.155"></rect>
                <rect id="Rectangle" fill="#FFFFFF" fill-rule="nonzero" x="181.864352" y="161.44714" width="31.55" height="4.31" rx="2.155"></rect>
                <polygon id="Path" fill="#000000" fill-rule="nonzero" opacity="0.1" style="mix-blend-mode: multiply;" points="99.4043524 145.76714 114.474352 140.09714 112.674352 132.66714"></polygon>
                <polygon id="Path" fill="#B22485" fill-rule="nonzero" points="97.5643524 112.19714 107.004352 110.16714 113.214352 134.68714 99.4043524 145.76714"></polygon>
                <path d="M112.824352,134.41714 L119.014352,161.69714 C120.810633,169.618015 121.858573,177.690169 122.144352,185.80714 C122.538907,199.431973 122.037827,213.06801 120.644352,226.62714" id="Path" stroke="#B22485" stroke-width="0.68" stroke-linecap="round"></path>
                <line x1="84.1843524" y1="157.81714" x2="82.3643524" y2="176.78714" id="Path" stroke="#B22485" stroke-width="0.68" stroke-linecap="round"></line>
                <path d="M253.754352,173.256988 L169.404352,173.256988 C167.546078,173.255901 165.886418,174.419662 165.254352,176.16714 L146.714352,226.96714 L223.784352,226.96714 C229.024352,223.38714 235.144352,219.07714 241.574352,214.10714 L255.574352,175.81714 C255.787722,175.227739 255.69831,174.57116 255.335104,174.060277 C254.971898,173.549395 254.381135,173.249244 253.754352,173.256988 L253.754352,173.256988 Z" id="Path" fill="#A8AAAD" fill-rule="nonzero"></path>
                <path d="M253.754352,173.256813 L169.404352,173.256813 C167.546078,173.255901 165.886418,174.419662 165.254352,176.16714 L164.894352,177.16714 L214.724352,226.99714 L223.784352,226.99714 C229.024352,223.41714 235.144352,219.10714 241.574352,214.13714 L255.574352,175.84714 C255.80036,175.254245 255.717179,174.587819 255.35237,174.068668 C254.987561,173.549517 254.388755,173.245423 253.754352,173.256813 L253.754352,173.256813 Z" id="Path" fill="#000000" fill-rule="nonzero" opacity="0.1" style="mix-blend-mode: multiply;"></path>
                <ellipse id="Oval" fill="#FFFFFF" fill-rule="nonzero" transform="translate(204.600652, 200.555040) rotate(-71.927678) translate(-204.600652, -200.555040) " cx="204.600652" cy="200.55504" rx="3.87728305" ry="3.43759116"></ellipse>
                <path d="M27.6543524,112.25714 L0.124352412,112.25714 C0.184352412,113.68714 0.244352412,115.09714 0.324352412,116.49714 C0.744352412,123.83714 1.55435241,130.92714 2.56435241,137.56714 L27.6343524,137.56714 C28.3247083,137.56714 28.8843946,137.007496 28.8843946,136.31714 L28.8843946,113.51714 C28.8899322,112.830631 28.3407968,112.268102 27.6543524,112.25714 Z" id="Path" fill="#FFFFFF" fill-rule="nonzero"></path>
                <path d="M3.39435241,121.98714 L8.95435241,126.38714 C10.0559088,127.280759 11.632796,127.280759 12.7343524,126.38714 L23.7343524,117.65714" id="Path" stroke="#4D9AFF" stroke-width="0.9" stroke-linecap="round"></path>
                <line x1="17.5643524" y1="126.86714" x2="22.6543524" y2="132.13714" id="Path" stroke="#4D9AFF" stroke-width="0.9" stroke-linecap="round"></line>
                <path d="M104.434352,175.30714 C103.984352,178.90714 103.084352,192.14714 112.704352,198.25714 C116.024352,189.95714 108.204352,178.74714 105.964352,175.93714 C105.60045,175.490468 105.038064,175.254266 104.464352,175.30714 L104.434352,175.30714 Z" id="Path" fill="#B22485" fill-rule="nonzero"></path>
                <path d="M281.484352,90.0871398 C274.274418,81.2638174 266.160151,73.2199342 257.274352,66.0871398 L186.904352,66.0871398 C185.671096,66.0871398 184.48835,66.5770491 183.616306,67.4490933 C182.744262,68.3211374 182.254352,69.5038831 182.254352,70.7371398 L182.254352,92.9271398 C182.254352,94.1603965 182.744262,95.3431422 183.616306,96.2151863 C184.48835,97.0872305 185.671096,97.5771398 186.904352,97.5771398 L286.904352,97.5771398 C285.350487,94.9069468 283.534883,92.3979299 281.484352,90.0871398 L281.484352,90.0871398 Z" id="Path" fill="#CCCCFE" fill-rule="nonzero"></path>
                <line x1="196.354352" y1="74.3771398" x2="245.344352" y2="74.3771398" id="Path" stroke="#FFFFFF" stroke-width="0.9" stroke-linecap="round"></line>
                <path d="M149.804352,163.63714 C149.62991,162.864355 149.132929,162.203245 148.439048,161.820942 C147.745167,161.438638 146.920801,161.371733 146.174352,161.63714 L136.174352,165.25714 L138.454352,159.04714 C138.673282,158.469965 138.491315,157.817486 138.005284,157.436914 C137.519253,157.056343 136.842175,157.036174 136.334352,157.38714 C133.223194,159.484362 130.410889,161.993907 127.974352,164.84714 C127.394352,165.52714 126.794352,166.24714 126.194352,166.96714 C123.966908,169.618222 121.001105,171.54669 117.674352,172.50714 L104.344352,176.34714 C104.004352,180.12714 103.904352,188.57714 108.684352,194.61714 C121.814352,189.50714 140.434352,181.61714 147.684352,175.61714 C151.764352,172.25714 150.694352,167.54714 149.804352,163.63714 Z" id="Path" fill="#FFB6B2" fill-rule="nonzero"></path>
                <line x1="212.444352" y1="81.7871398" x2="256.854352" y2="81.7871398" id="Path" stroke="#FFFFFF" stroke-width="0.9" stroke-linecap="round"></line>
                <line x1="196.354352" y1="81.7871398" x2="205.394352" y2="81.7871398" id="Path" stroke="#FFFFFF" stroke-width="0.9" stroke-linecap="round"></line>
                <line x1="196.354352" y1="89.1971398" x2="245.344352" y2="89.1971398" id="Path" stroke="#FFFFFF" stroke-width="0.9" stroke-linecap="round"></line>
                <path d="M157.114352,13.1371398 L133.984352,13.1371398 C131.422416,13.1481295 129.349827,15.2251858 129.344352,17.7871398 L129.344352,39.9671398 C129.349867,42.5368806 131.434606,44.6171398 134.004352,44.6171398 L225.224352,44.6171398 C204.874352,33.1871398 181.974352,23.3671398 157.114352,13.1371398 Z" id="Path" fill="#FFE5B2" fill-rule="nonzero"></path>
                <line x1="147.834352" y1="165.02714" x2="140.534352" y2="167.81714" id="Path" stroke="#FF8880" stroke-width="0.9" stroke-linecap="round"></line>
                <line x1="148.324352" y1="168.45714" x2="141.414352" y2="171.24714" id="Path" stroke="#FF8880" stroke-width="0.9" stroke-linecap="round"></line>
                <line x1="148.374352" y1="172.02714" x2="141.904352" y2="175.06714" id="Path" stroke="#FF8880" stroke-width="0.9" stroke-linecap="round"></line>
                <path d="M77.5043524,76.6471398 L2.81435241,76.6471398 C1.02593547,85.0685302 0.0878941555,93.6482581 0.0143524117,102.25714 L77.5043524,102.25714 C79.5919888,102.25714 81.2846836,100.564776 81.2846836,98.4771398 L81.2846836,80.4771398 C81.2977286,79.4659864 80.9053927,78.4916335 80.1950502,77.771895 C79.4847077,77.0521564 78.5155942,76.6471398 77.5043524,76.6471398 L77.5043524,76.6471398 Z" id="Path" fill="#BEEDC0" fill-rule="nonzero"></path>
                <line x1="18.3143524" y1="85.9171398" x2="59.9243524" y2="85.9171398" id="Path" stroke="#306626" stroke-width="0.9" stroke-linecap="round"></line>
                <line x1="49.4843524" y1="93.3071398" x2="59.9243524" y2="93.3071398" id="Path" stroke="#306626" stroke-width="0.9" stroke-linecap="round"></line>
                <line x1="18.3143524" y1="93.3071398" x2="44.6843524" y2="93.3071398" id="Path" stroke="#306626" stroke-width="0.9" stroke-linecap="round"></line>
                <circle id="Oval" fill="#FFFFFF" fill-rule="nonzero" cx="10.2843524" cy="85.6071398" r="2.35"></circle>
                <line x1="148.084352" y1="24.5971398" x2="156.904352" y2="24.5971398" id="Path" stroke="#CC4E0A" stroke-width="0.9" stroke-linecap="round"></line>
                <circle id="Oval" fill="#FFFFFF" fill-rule="nonzero" cx="140.044352" cy="24.2771398" r="2.35"></circle>
                <line x1="148.084352" y1="32.2371398" x2="182.774352" y2="32.2371398" id="Path" stroke="#CC4E0A" stroke-width="0.9" stroke-linecap="round"></line>
                <circle id="Oval" fill="#FFFFFF" fill-rule="nonzero" cx="140.044352" cy="31.9271398" r="2.35"></circle>
                <path d="M104.464352,200.65714 C108.384352,199.83714 112.144352,198.87714 112.464352,198.10714 C110.342686,196.713736 108.575761,194.844084 107.304352,192.64714 C92.7543524,198.50714 62.5443524,202.18714 50.5543524,203.47714 C52.9443524,206.42714 56.7143524,208.13714 61.5543524,208.09714 C64.4043524,208.09714 70.1343524,207.09714 76.2343524,205.88714 L83.3443524,204.61714 C87.3443524,203.910473 91.3210191,203.143806 95.2743524,202.31714 C95.8843524,204.94714 98.5343524,216.59714 98.5943524,221.61714 L98.6743524,227.30714 L121.014352,227.30714 L121.424352,217.50714 C114.888965,212.854121 109.159797,207.162112 104.464352,200.65714 L104.464352,200.65714 Z" id="Path" fill="#000000" fill-rule="nonzero" opacity="0.1" style="mix-blend-mode: multiply;"></path>
                <circle id="Oval" fill="#FFFFFF" fill-rule="nonzero" cx="10.2843524" cy="93.1971398" r="2.35"></circle>
                <circle id="Oval" fill="#B2D4FE" fill-rule="nonzero" cx="74.5443524" cy="40.5771398" r="21.69"></circle>
                <path d="M34.4243524,166.77714 C34.2340647,169.16966 32.3706295,171.089468 29.9848408,171.350956 C27.5990521,171.612444 25.36402,170.141836 24.6600241,167.847331 C23.9560282,165.552826 24.9816892,163.081779 27.1035937,161.960225 C29.2254983,160.83867 31.8449867,161.383036 33.3443524,163.25714" id="Path" stroke="#4D9AFF" stroke-width="0.9" stroke-linecap="round"></path>
                <path d="M82.0443524,49.9771398 C82.6375219,49.9771398 83.2062519,49.7408278 83.6247466,49.3204564 C84.0432414,48.9000849 84.2770124,48.3303033 84.2743749,47.7371398 L84.2743749,44.7371398 C84.274111,44.4156222 84.0689639,44.1300254 83.7643524,44.0271398 L79.3443524,42.5571398 C79.126873,42.4828036 78.8873163,42.5122875 78.6943524,42.6371398 L76.7943524,43.9071398 C74.4870134,42.6995521 72.5901901,40.8340525 71.3443524,38.5471398 L72.6043524,36.6471398 C72.7325742,36.4557889 72.7657576,36.2161313 72.6943524,35.9971398 L71.2043524,31.5371398 C71.1014668,31.2325283 70.81587,31.0273812 70.4943524,31.0271398 L67.4943524,31.0271398 C66.2650328,31.0326157 65.2698283,32.0278201 65.2643524,33.2571398 C65.7088746,42.3238204 72.9761376,49.565098 82.0443524,49.9771398 L82.0443524,49.9771398 Z" id="Path" fill="#4D9AFD" fill-rule="nonzero"></path>
                <path d="M36.2043524,226.32714 C50.9343524,248.00714 71.5843524,268.44714 96.7443524,271.39714 C141.384352,276.63714 197.234352,245.46714 211.954352,234.99714 C214.954352,232.84714 219.394352,229.92714 224.644352,226.32714 L36.2043524,226.32714 Z" id="Path" fill="#B2D4FE" fill-rule="nonzero"></path>
                <path d="M126.734352,241.02714 L47.4143524,241.02714 C60.7743524,256.55714 77.4143524,269.13714 96.7443524,271.39714 C107.444352,272.65714 118.744352,271.81714 130.054352,269.67714 L130.054352,244.34714 C130.054352,242.513554 128.567938,241.02714 126.734352,241.02714 L126.734352,241.02714 Z" id="Path" fill="#BEEDC0" fill-rule="nonzero"></path>
                <line x1="75.5543524" y1="252.84714" x2="117.164352" y2="252.84714" id="Path" stroke="#306626" stroke-width="0.9" stroke-linecap="round"></line>
                <line x1="106.724352" y1="260.23714" x2="117.164352" y2="260.23714" id="Path" stroke="#306626" stroke-width="0.9" stroke-linecap="round"></line>
                <polygon id="Path" fill="#000000" fill-rule="nonzero" opacity="0.1" style="mix-blend-mode: multiply;" points="91.6143524 175.89714 84.1843524 159.58714 83.7043524 163.45714 87.9043524 176.32714"></polygon>
                <path d="M149.024352,109.25714 C138.18583,117.008318 123.577402,116.85463 112.904352,108.87714" id="Path" stroke="#FFFFFF" stroke-width="0.45" stroke-linecap="round"></path>
                <line x1="131.224352" y1="114.98714" x2="131.224352" y2="116.48714" id="Path" stroke="#FFFFFF" stroke-width="0.45" stroke-linecap="round"></line>
                <path d="M95.2643524,202.31714 C95.2643524,202.31714 109.944352,200.09714 112.354352,198.14714 C111.584352,197.62714 102.644352,191.14714 104.464352,175.68714 L73.0043524,177.79714" id="Path" stroke="#B22485" stroke-width="0.68" stroke-linecap="round"></path>
                <circle id="Oval" fill="#B22485" fill-rule="nonzero" cx="112.574352" cy="154.57714" r="1.32"></circle>
                <circle id="Oval" fill="#B22485" fill-rule="nonzero" cx="115.344352" cy="167.12714" r="1.32"></circle>
                <rect id="Rectangle" fill="#FFFFFF" fill-rule="nonzero" x="246.404352" y="130.17714" width="35.94" height="25.3" rx="1.25"></rect>
                <path d="M251.824352,135.93714 L262.404352,144.32714 C263.505909,145.220759 265.082796,145.220759 266.184352,144.32714 L277.184352,135.59714" id="Path" stroke="#4D9AFF" stroke-width="0.9" stroke-linecap="round"></path>
                <line x1="256.954352" y1="145.01714" x2="251.814352" y2="149.93714" id="Path" stroke="#4D9AFF" stroke-width="0.9" stroke-linecap="round"></line>
                <line x1="271.014352" y1="144.80714" x2="276.104352" y2="150.06714" id="Path" stroke="#4D9AFF" stroke-width="0.9" stroke-linecap="round"></line>
                <line x1="251.164352" y1="74.3771398" x2="256.854352" y2="74.3771398" id="Path" stroke="#FFFFFF" stroke-width="0.9" stroke-linecap="round"></line>
                <line x1="251.164352" y1="89.1971398" x2="256.854352" y2="89.1971398" id="Path" stroke="#FFFFFF" stroke-width="0.9" stroke-linecap="round"></line>
                <line x1="228.644352" y1="124.98714" x2="232.764352" y2="111.06714" id="Path" stroke="#0265FC" stroke-width="0.9" stroke-linecap="round"></line>
                <line x1="234.574352" y1="127.53714" x2="252.214352" y2="102.39714" id="Path" stroke="#0265FC" stroke-width="0.9" stroke-linecap="round"></line>
            </g>
        </g>
    </g>
</svg>