<?xml version="1.0" encoding="UTF-8"?>
<svg width="162px" height="30px" viewBox="0 0 162 30" version="1.1" xmlns="http://www.w3.org/2000/svg" xmlns:xlink="http://www.w3.org/1999/xlink">
    <title>kissflow</title>
    <g id="kissflow" stroke="none" stroke-width="1" fill="none" fill-rule="evenodd">
        <g id="logo-2" fill-rule="nonzero">
            <g id="logo">
                <path d="M55.0467398,24.8101482 C55.0384993,25.6389562 54.3258039,26.306444 53.4501832,26.3054333 C53.028062,26.2965528 52.6256397,26.1296209 52.3301548,25.8410417 L45.6071697,18.8680816 L43.2198393,21.0435244 L43.2198393,24.577509 C43.2250355,25.523284 42.4198095,26.2942368 41.4206645,26.3001046 C40.9405063,26.2977557 40.4810005,26.1149474 40.1432366,25.7918968 C39.8054726,25.4688461 39.6171194,25.0320167 39.6195892,24.577509 L39.6195892,4.66465993 C39.6195892,3.71368065 40.4263344,2.94206441 41.4206645,2.94206441 C42.4198095,2.94793216 43.2250355,3.71888495 43.2198393,4.66465993 L43.2198393,16.9829938 L50.8592966,9.63621269 C51.1941795,9.3467456 51.621929,9.17448605 52.0721917,9.14873591 C52.9727172,9.14873591 53.702518,9.84754142 53.702518,10.7088392 C53.7053992,11.1110158 53.5556006,11.5007978 53.2803967,11.8072158 L47.8125189,16.8462517 L54.5711498,23.7428493 C54.8685108,24.0261009 55.0392354,24.4088012 55.0467398,24.8110362 L55.0467398,24.8101482 Z M56.8421623,4.06830508 C56.8853209,2.83634947 57.8578942,1.86183496 59.0432493,1.86183496 C60.2276007,1.86183496 61.2011777,2.837525 61.2443362,4.06830508 C61.2011777,5.29908516 60.2286044,6.27359967 59.0432493,6.27359967 C57.8588979,6.27359967 56.8853209,5.29908516 56.8421623,4.06830508 Z M60.9264203,11.0746687 L60.9264203,24.5455433 C60.9536237,25.1670984 60.5746526,25.7504723 59.9386565,26.0674654 C59.2918966,26.3846664 58.5226503,26.3846664 57.8758905,26.0674654 C57.2398944,25.7504723 56.8618613,25.1662105 56.8881267,24.5455433 L56.8881267,11.0746687 C56.8618613,10.4531137 57.2398944,9.86973981 57.8758905,9.55274672 C58.5229026,9.23523893 59.2925824,9.23523893 59.9395946,9.55274672 C60.5746526,9.86973981 60.9526857,10.4531137 60.9264203,11.0746687 L60.9264203,11.0746687 Z M76.3066441,11.5159729 C76.5974388,11.8613799 76.7653492,12.289365 76.7869243,12.7368846 C76.7869243,13.561777 76.1490521,14.0563573 75.3470217,14.0563573 C74.8095206,14.0563573 74.3057892,13.8210543 73.8011197,13.1657576 C73.1069068,12.2665598 71.9895254,11.7485077 70.813439,11.7805777 C69.1343343,11.7805777 68.1259335,12.6045822 68.1259335,13.7926403 C68.1259335,14.6184207 68.6052756,15.4095715 70.377247,15.9139191 L72.4568979,16.4750945 C75.313252,17.2333917 77.4632564,18.4853812 77.4632564,21.256629 C77.4632564,24.7213546 74.1369406,26.4705882 70.6455285,26.4705882 C67.7225731,26.4705882 65.6729397,25.2159349 64.7996177,23.8636086 C64.6307692,23.6283056 64.0932681,22.973009 64.0932681,22.1809702 C64.0932681,21.4883802 64.5303981,20.7664884 65.4712596,20.7664884 C66.2442106,20.7664884 66.6475709,21.2379823 66.9833918,21.7236832 C67.8229442,23.1088632 69.2009357,23.5705898 70.6455285,23.5705898 C72.5919767,23.5705898 73.9352605,22.779439 73.9352605,21.450199 C73.9352605,20.4601505 73.2298489,19.734707 71.5526203,19.2720924 L69.3013067,18.6789513 C66.0425304,17.7901275 64.6317072,16.0746354 64.6317072,13.8308216 C64.6317072,10.7292617 67.4871232,8.94715909 70.7458996,8.94715909 C73.1510529,8.9427348 75.234456,9.8990417 76.3066441,11.5159729 L76.3066441,11.5159729 Z M91.7159473,11.5159729 C92.006742,11.8613799 92.1746524,12.289365 92.1962275,12.7368846 C92.1962275,13.561777 91.5583553,14.0563573 90.7563249,14.0563573 C90.2188238,14.0563573 89.7150924,13.8210543 89.2104229,13.1657576 C88.5156405,12.2657694 87.3969977,11.7476206 86.2199281,11.7805777 C84.5408234,11.7805777 83.5352367,12.6045822 83.5352367,13.7926403 C83.5352367,14.6184207 84.0145789,15.4095715 85.7837361,15.9139191 L87.8662011,16.4750945 C90.7225552,17.2333917 92.8725596,18.4853812 92.8725596,21.256629 C92.8725596,24.7213546 89.5462439,26.4705882 86.0529557,26.4705882 C83.1318763,26.4705882 81.0813049,25.2159349 80.2089209,23.8636086 C80.0400724,23.6283056 79.5025713,22.973009 79.5025713,22.1809702 C79.5025713,21.4883802 79.9397013,20.7664884 80.8805628,20.7664884 C81.6535138,20.7664884 82.0568741,21.2379823 82.3926951,21.7236832 C83.2322474,23.1088632 84.6074248,23.5705898 86.0520176,23.5705898 C88.0012799,23.5705898 89.3445637,22.779439 89.3445637,21.450199 C89.3445637,20.4601505 88.6391521,19.734707 86.9591094,19.2720924 L84.7077958,18.6789513 C81.4518336,17.7901275 80.0400724,16.0746354 80.0400724,13.8308216 C80.0400724,10.7292617 82.8964265,8.94715909 86.1533267,8.94715909 C88.557542,8.9427348 90.6315646,9.8990417 91.7159473,11.5159729 L91.7159473,11.5159729 Z M107.250011,5.26401662 C107.260895,5.59395967 107.130684,5.91410361 106.888863,6.15195246 C106.651658,6.3856713 106.321207,6.51369262 105.978957,6.50446299 C105.550811,6.46238132 105.132672,6.35503523 104.740734,6.18658196 C104.268663,5.94855729 103.74453,5.81783599 103.209841,5.80476955 C101.385339,5.80476955 100.799059,7.14111298 100.799059,8.44371486 L100.799059,9.53232419 L104.056898,9.53232419 C104.903954,9.53232419 105.490234,10.0730771 105.490234,10.8686676 C105.506181,11.2416007 105.358907,11.6029906 105.085936,11.8631558 C104.812026,12.123321 104.438683,12.2573993 104.056898,12.2316491 L100.798121,12.2316491 L100.798121,24.5739573 C100.824394,25.1787592 100.505633,25.7503547 99.9632593,26.0710171 C99.4274827,26.3834375 98.7514537,26.3834375 98.2156771,26.0710171 C97.6726444,25.7504161 97.3534593,25.1783624 97.379877,24.5730694 L97.379877,12.2298733 L96.310503,12.2298733 C95.9310632,12.2518364 95.5606035,12.1148156 95.2974119,11.8551643 C95.0292034,11.5906814 94.8903832,11.2318962 94.9146886,10.8660038 C94.8968657,10.5019501 95.0394489,10.1485517 95.3067924,9.89371408 C95.5696097,9.64036426 95.9362477,9.50835484 96.310503,9.53232419 L97.3864433,9.53232419 L97.3864433,8.3185159 C97.3864433,3.95875094 100.675237,2.94117647 102.793348,2.94117647 C104.259516,2.94117647 105.497738,3.32298888 106.376689,3.92678525 C106.931075,4.27751991 107.249073,4.69041007 107.249073,5.26401662 L107.250011,5.26401662 Z M112.396138,5.03670505 L112.396138,24.5322243 C112.396138,25.463669 111.622249,26.2193024 110.669193,26.2193024 C109.715199,26.2193024 108.942248,25.463669 108.942248,24.5322243 L108.942248,5.04114473 C108.942248,4.10970003 109.715199,3.35406664 110.668255,3.35406664 C111.622249,3.35406664 112.396138,4.10970003 112.396138,5.04114473 L112.396138,5.03670505 Z M133.243302,17.7261961 C133.243302,23.5981158 128.301669,26.4705882 124.485692,26.4705882 C120.668778,26.4705882 115.759976,23.609659 115.759976,17.7261961 C115.759976,11.8427332 120.671592,8.94717448 124.496949,8.94717448 C128.323244,8.94717448 133.243302,11.873811 133.243302,17.7261961 L133.243302,17.7261961 Z M119.244822,17.7261961 C119.244822,21.4395438 121.930451,23.4445029 124.485692,23.4445029 C127.040933,23.4445029 129.76127,21.4395438 129.76127,17.7261961 C129.76127,13.9684516 127.073765,11.9723719 124.485692,11.9723719 C121.896682,11.9723719 119.244822,13.9782189 119.244822,17.7261961 L119.244822,17.7261961 Z M161.412955,11.3818945 C161.375341,11.6438356 161.294669,11.8995611 161.173661,12.1384159 L156.473106,25.0933998 C156.17293,25.9129645 155.537872,26.3542686 154.803381,26.3542686 C154.067952,26.3542686 153.433832,25.9040852 153.066118,25.0933998 L148.557862,14.6921193 L144.027094,25.0933998 C143.692211,25.9129645 143.058091,26.3542686 142.322662,26.3542686 C141.588171,26.3542686 140.953113,25.9040852 140.652938,25.0933998 L135.940188,12.1384159 C135.819418,11.8996035 135.739017,11.64432 135.701837,11.3818945 C135.697384,10.9621928 135.871896,10.5585032 136.185956,10.2622075 C136.500202,9.96563688 136.927014,9.80048082 137.371648,9.80483324 C138.02022,9.79949029 138.610431,10.1586922 138.8744,10.7194944 L142.549669,21.43688 L146.958492,10.8526848 C147.188313,10.2089313 147.840256,9.78627384 148.557862,9.81202398 C149.274109,9.7938203 149.921452,10.2137943 150.161923,10.8526848 L154.568869,21.43688 L158.245077,10.7194944 C158.412049,10.1512155 159.110895,9.80483324 159.745953,9.80483324 C160.188711,9.80136875 160.615522,9.96652482 160.929768,10.2630954 C161.243076,10.559666 161.417553,10.9627888 161.412955,11.3818945 L161.412955,11.3818945 Z" id="Shape" fill="#FFFFFF"></path>
                <ellipse id="Oval" fill="#1F80FF" transform="translate(24.287971, 9.399601) rotate(-44.810000) translate(-24.287971, -9.399601) " cx="24.2879708" cy="9.3996015" rx="8.06819605" ry="4.83430187"></ellipse>
                <ellipse id="Oval" fill="#48AD1E" transform="translate(22.477705, 22.894784) rotate(-45.210000) translate(-22.477705, -22.894784) " cx="22.4777048" cy="22.8947838" rx="3.64166306" ry="5.78135137"></ellipse>
                <ellipse id="Oval" fill="#D32A97" transform="translate(9.231212, 9.547644) rotate(-45.190000) translate(-9.231212, -9.547644) " cx="9.23121242" cy="9.54764393" rx="4.83430187" ry="8.06819605"></ellipse>
                <ellipse id="Oval" fill="#FF6529" transform="translate(11.055583, 22.893187) rotate(-44.790000) translate(-11.055583, -22.893187) " cx="11.0555826" cy="22.8931871" rx="5.78135137" ry="3.64166306"></ellipse>
            </g>
        </g>
    </g>
</svg>