<?xml version="1.0" encoding="UTF-8"?>
<svg width="180px" height="180px" viewBox="0 0 180 180" version="1.1" xmlns="http://www.w3.org/2000/svg" xmlns:xlink="http://www.w3.org/1999/xlink">
    <title>dotted copy</title>
    <defs>
        <filter id="filter-1">
            <feColorMatrix in="SourceGraphic" type="matrix" values="0 0 0 0 0.956863 0 0 0 0 0.776471 0 0 0 0 0.937255 0 0 0 1.000000 0"></feColorMatrix>
        </filter>
        <polygon id="path-2" points="175.999973 0.399671859 179.919973 0.399671859 179.919973 4.32400814 175.999973 4.32400814"></polygon>
        <polygon id="path-4" points="175.999973 14.9757781 179.919973 14.9757781 179.919973 18.9001143 175.999973 18.9001143"></polygon>
        <polygon id="path-6" points="175.999973 29.5518842 179.919973 29.5518842 179.919973 33.4762205 175.999973 33.4762205"></polygon>
        <polygon id="path-8" points="175.999973 45.2492294 179.919973 45.2492294 179.919973 49.1735657 175.999973 49.1735657"></polygon>
        <polygon id="path-10" points="175.999973 59.8253356 179.919973 59.8253356 179.919973 63.7496719 175.999973 63.7496719"></polygon>
        <polygon id="path-12" points="175.999973 74.4014418 179.919973 74.4014418 179.919973 78.3257781 175.999973 78.3257781"></polygon>
        <polygon id="path-14" points="175.999973 88.977548 179.919973 88.977548 179.919973 92.9018842 175.999973 92.9018842"></polygon>
        <polygon id="path-16" points="0.159972765 176.994805 4.07997276 176.994805 4.07997276 180.919141 0.159972765 180.919141"></polygon>
        <polygon id="path-18" points="14.7199728 176.994805 18.6399728 176.994805 18.6399728 180.919141 14.7199728 180.919141"></polygon>
        <polygon id="path-20" points="29.2799728 176.994805 33.1999728 176.994805 33.1999728 180.919141 29.2799728 180.919141"></polygon>
        <polygon id="path-22" points="43.8399728 176.994805 47.7599728 176.994805 47.7599728 180.919141 43.8399728 180.919141"></polygon>
        <polygon id="path-24" points="58.3999728 176.994805 62.3199728 176.994805 62.3199728 180.919141 58.3999728 180.919141"></polygon>
        <polygon id="path-26" points="72.9599728 176.994805 76.8799728 176.994805 76.8799728 180.919141 72.9599728 180.919141"></polygon>
        <polygon id="path-28" points="88.0799728 176.994805 91.9999728 176.994805 91.9999728 180.919141 88.0799728 180.919141"></polygon>
        <polygon id="path-30" points="175.999973 102.993035 179.919973 102.993035 179.919973 106.917371 175.999973 106.917371"></polygon>
        <polygon id="path-32" points="175.999973 117.569141 179.919973 117.569141 179.919973 121.493477 175.999973 121.493477"></polygon>
        <polygon id="path-34" points="175.999973 132.145247 179.919973 132.145247 179.919973 136.069583 175.999973 136.069583"></polygon>
        <polygon id="path-36" points="175.999973 146.721353 179.919973 146.721353 179.919973 150.64569 175.999973 150.64569"></polygon>
        <polygon id="path-38" points="175.999973 162.418698 179.919973 162.418698 179.919973 166.343035 175.999973 166.343035"></polygon>
        <polygon id="path-40" points="102.639973 176.994805 106.559973 176.994805 106.559973 180.919141 102.639973 180.919141"></polygon>
        <polygon id="path-42" points="117.199973 176.994805 121.119973 176.994805 121.119973 180.919141 117.199973 180.919141"></polygon>
        <polygon id="path-44" points="132.319973 176.994805 136.239973 176.994805 136.239973 180.919141 132.319973 180.919141"></polygon>
        <polygon id="path-46" points="146.879973 176.994805 150.799973 176.994805 150.799973 180.919141 146.879973 180.919141"></polygon>
        <polygon id="path-48" points="161.439973 176.994805 165.359973 176.994805 165.359973 180.919141 161.439973 180.919141"></polygon>
        <polygon id="path-50" points="175.999973 176.994805 179.919973 176.994805 179.919973 180.919141 175.999973 180.919141"></polygon>
    </defs>
    <g id="dotted-copy" stroke="none" stroke-width="1" fill="none" fill-rule="evenodd" opacity="0.958018712">
        <g filter="url(#filter-1)" id="Group-13-Copy-3">
            <g transform="translate(90.000000, 90.500000) rotate(-360.000000) translate(-90.000000, -90.500000) translate(0.000000, 0.000000)" id="Group-4">
                <path d="M3.51997276,2.64214973 C3.51997276,3.57012521 2.7681281,4.32400814 1.83919607,4.32400814 C0.911817425,4.32400814 0.159972765,3.57012521 0.159972765,2.64214973 C0.159972765,1.71261986 0.911817425,0.960291328 1.83919607,0.960291328 C2.7681281,0.960291328 3.51997276,1.71261986 3.51997276,2.64214973" id="Fill-1" fill="#FFA530"></path>
                <path d="M18.0799728,2.64214973 C18.0799728,3.57012521 17.3281281,4.32400814 16.3991961,4.32400814 C15.4718174,4.32400814 14.7199728,3.57012521 14.7199728,2.64214973 C14.7199728,1.71261986 15.4718174,0.960291328 16.3991961,0.960291328 C17.3281281,0.960291328 18.0799728,1.71261986 18.0799728,2.64214973" id="Fill-3" fill="#FFA530"></path>
                <path d="M32.6399728,2.64214973 C32.6399728,3.57012521 31.8881281,4.32400814 30.9591961,4.32400814 C30.0318174,4.32400814 29.2799728,3.57012521 29.2799728,2.64214973 C29.2799728,1.71261986 30.0318174,0.960291328 30.9591961,0.960291328 C31.8881281,0.960291328 32.6399728,1.71261986 32.6399728,2.64214973" id="Fill-5" fill="#FFA530"></path>
                <path d="M47.7599728,2.64214973 C47.7599728,3.57012521 47.0081281,4.32400814 46.0791961,4.32400814 C45.1518174,4.32400814 44.3999728,3.57012521 44.3999728,2.64214973 C44.3999728,1.71261986 45.1518174,0.960291328 46.0791961,0.960291328 C47.0081281,0.960291328 47.7599728,1.71261986 47.7599728,2.64214973" id="Fill-7" fill="#FFA530"></path>
                <path d="M62.3199728,2.64214973 C62.3199728,3.57012521 61.5681281,4.32400814 60.6391961,4.32400814 C59.7118174,4.32400814 58.9599728,3.57012521 58.9599728,2.64214973 C58.9599728,1.71261986 59.7118174,0.960291328 60.6391961,0.960291328 C61.5681281,0.960291328 62.3199728,1.71261986 62.3199728,2.64214973" id="Fill-9" fill="#FFA530"></path>
                <path d="M76.8799728,2.64214973 C76.8799728,3.57012521 76.1281281,4.32400814 75.2007495,4.32400814 C74.2718174,4.32400814 73.5199728,3.57012521 73.5199728,2.64214973 C73.5199728,1.71261986 74.2718174,0.960291328 75.2007495,0.960291328 C76.1281281,0.960291328 76.8799728,1.71261986 76.8799728,2.64214973" id="Fill-11" fill="#FFA530"></path>
                <path d="M91.4399728,2.64214973 C91.4399728,3.57012521 90.6881281,4.32400814 89.7591961,4.32400814 C88.8318174,4.32400814 88.0799728,3.57012521 88.0799728,2.64214973 C88.0799728,1.71261986 88.8318174,0.960291328 89.7591961,0.960291328 C90.6881281,0.960291328 91.4399728,1.71261986 91.4399728,2.64214973" id="Fill-13" fill="#FFA530"></path>
                <path d="M3.51997276,17.2182559 C3.51997276,18.1477858 2.7681281,18.9001143 1.83919607,18.9001143 C0.911817425,18.9001143 0.159972765,18.1477858 0.159972765,17.2182559 C0.159972765,16.2902804 0.911817425,15.5363975 1.83919607,15.5363975 C2.7681281,15.5363975 3.51997276,16.2902804 3.51997276,17.2182559" id="Fill-15" fill="#FFA530"></path>
                <path d="M18.0799728,17.2182559 C18.0799728,18.1477858 17.3281281,18.9001143 16.3991961,18.9001143 C15.4718174,18.9001143 14.7199728,18.1477858 14.7199728,17.2182559 C14.7199728,16.2902804 15.4718174,15.5363975 16.3991961,15.5363975 C17.3281281,15.5363975 18.0799728,16.2902804 18.0799728,17.2182559" id="Fill-17" fill="#FFA530"></path>
                <path d="M32.6399728,17.2182559 C32.6399728,18.1477858 31.8881281,18.9001143 30.9591961,18.9001143 C30.0318174,18.9001143 29.2799728,18.1477858 29.2799728,17.2182559 C29.2799728,16.2902804 30.0318174,15.5363975 30.9591961,15.5363975 C31.8881281,15.5363975 32.6399728,16.2902804 32.6399728,17.2182559" id="Fill-19" fill="#FFA530"></path>
                <path d="M47.7599728,17.2182559 C47.7599728,18.1477858 47.0081281,18.9001143 46.0791961,18.9001143 C45.1518174,18.9001143 44.3999728,18.1477858 44.3999728,17.2182559 C44.3999728,16.2902804 45.1518174,15.5363975 46.0791961,15.5363975 C47.0081281,15.5363975 47.7599728,16.2902804 47.7599728,17.2182559" id="Fill-21" fill="#FFA530"></path>
                <path d="M62.3199728,17.2182559 C62.3199728,18.1477858 61.5681281,18.9001143 60.6391961,18.9001143 C59.7118174,18.9001143 58.9599728,18.1477858 58.9599728,17.2182559 C58.9599728,16.2902804 59.7118174,15.5363975 60.6391961,15.5363975 C61.5681281,15.5363975 62.3199728,16.2902804 62.3199728,17.2182559" id="Fill-23" fill="#FFA530"></path>
                <path d="M76.8799728,17.2182559 C76.8799728,18.1477858 76.1281281,18.9001143 75.2007495,18.9001143 C74.2718174,18.9001143 73.5199728,18.1477858 73.5199728,17.2182559 C73.5199728,16.2902804 74.2718174,15.5363975 75.2007495,15.5363975 C76.1281281,15.5363975 76.8799728,16.2902804 76.8799728,17.2182559" id="Fill-25" fill="#FFA530"></path>
                <path d="M91.4399728,17.2182559 C91.4399728,18.1477858 90.6881281,18.9001143 89.7591961,18.9001143 C88.8318174,18.9001143 88.0799728,18.1477858 88.0799728,17.2182559 C88.0799728,16.2902804 88.8318174,15.5363975 89.7591961,15.5363975 C90.6881281,15.5363975 91.4399728,16.2902804 91.4399728,17.2182559" id="Fill-27" fill="#FFA530"></path>
                <path d="M3.51997276,31.7943621 C3.51997276,32.7223376 2.7681281,33.4762205 1.83919607,33.4762205 C0.911817425,33.4762205 0.159972765,32.7223376 0.159972765,31.7943621 C0.159972765,30.8663866 0.911817425,30.1125037 1.83919607,30.1125037 C2.7681281,30.1125037 3.51997276,30.8663866 3.51997276,31.7943621" id="Fill-29" fill="#FFA530"></path>
                <path d="M18.0799728,31.7943621 C18.0799728,32.7223376 17.3281281,33.4762205 16.3991961,33.4762205 C15.4718174,33.4762205 14.7199728,32.7223376 14.7199728,31.7943621 C14.7199728,30.8663866 15.4718174,30.1125037 16.3991961,30.1125037 C17.3281281,30.1125037 18.0799728,30.8663866 18.0799728,31.7943621" id="Fill-31" fill="#FFA530"></path>
                <path d="M32.6399728,31.7943621 C32.6399728,32.7223376 31.8881281,33.4762205 30.9591961,33.4762205 C30.0318174,33.4762205 29.2799728,32.7223376 29.2799728,31.7943621 C29.2799728,30.8663866 30.0318174,30.1125037 30.9591961,30.1125037 C31.8881281,30.1125037 32.6399728,30.8663866 32.6399728,31.7943621" id="Fill-33" fill="#FFA530"></path>
                <path d="M47.7599728,31.7943621 C47.7599728,32.7223376 47.0081281,33.4762205 46.0791961,33.4762205 C45.1518174,33.4762205 44.3999728,32.7223376 44.3999728,31.7943621 C44.3999728,30.8663866 45.1518174,30.1125037 46.0791961,30.1125037 C47.0081281,30.1125037 47.7599728,30.8663866 47.7599728,31.7943621" id="Fill-35" fill="#FFA530"></path>
                <path d="M62.3199728,31.7943621 C62.3199728,32.7223376 61.5681281,33.4762205 60.6391961,33.4762205 C59.7118174,33.4762205 58.9599728,32.7223376 58.9599728,31.7943621 C58.9599728,30.8663866 59.7118174,30.1125037 60.6391961,30.1125037 C61.5681281,30.1125037 62.3199728,30.8663866 62.3199728,31.7943621" id="Fill-37" fill="#FFA530"></path>
                <path d="M76.8799728,31.7943621 C76.8799728,32.7223376 76.1281281,33.4762205 75.2007495,33.4762205 C74.2718174,33.4762205 73.5199728,32.7223376 73.5199728,31.7943621 C73.5199728,30.8663866 74.2718174,30.1125037 75.2007495,30.1125037 C76.1281281,30.1125037 76.8799728,30.8663866 76.8799728,31.7943621" id="Fill-39" fill="#FFA530"></path>
                <path d="M91.4399728,31.7943621 C91.4399728,32.7223376 90.6881281,33.4762205 89.7591961,33.4762205 C88.8318174,33.4762205 88.0799728,32.7223376 88.0799728,31.7943621 C88.0799728,30.8663866 88.8318174,30.1125037 89.7591961,30.1125037 C90.6881281,30.1125037 91.4399728,30.8663866 91.4399728,31.7943621" id="Fill-41" fill="#FFA530"></path>
                <path d="M3.51997276,46.9310878 C3.51997276,47.8590633 2.7681281,48.6129462 1.83919607,48.6129462 C0.911817425,48.6129462 0.159972765,47.8590633 0.159972765,46.9310878 C0.159972765,46.0031123 0.911817425,45.2492294 1.83919607,45.2492294 C2.7681281,45.2492294 3.51997276,46.0031123 3.51997276,46.9310878" id="Fill-43" fill="#FFA530"></path>
                <path d="M18.0799728,46.9310878 C18.0799728,47.8590633 17.3281281,48.6129462 16.3991961,48.6129462 C15.4718174,48.6129462 14.7199728,47.8590633 14.7199728,46.9310878 C14.7199728,46.0031123 15.4718174,45.2492294 16.3991961,45.2492294 C17.3281281,45.2492294 18.0799728,46.0031123 18.0799728,46.9310878" id="Fill-45" fill="#FFA530"></path>
                <path d="M32.6399728,46.9310878 C32.6399728,47.8590633 31.8881281,48.6129462 30.9591961,48.6129462 C30.0318174,48.6129462 29.2799728,47.8590633 29.2799728,46.9310878 C29.2799728,46.0031123 30.0318174,45.2492294 30.9591961,45.2492294 C31.8881281,45.2492294 32.6399728,46.0031123 32.6399728,46.9310878" id="Fill-47" fill="#FFA530"></path>
                <path d="M47.7599728,46.9310878 C47.7599728,47.8590633 47.0081281,48.6129462 46.0791961,48.6129462 C45.1518174,48.6129462 44.3999728,47.8590633 44.3999728,46.9310878 C44.3999728,46.0031123 45.1518174,45.2492294 46.0791961,45.2492294 C47.0081281,45.2492294 47.7599728,46.0031123 47.7599728,46.9310878" id="Fill-49" fill="#FFA530"></path>
                <path d="M62.3199728,46.9310878 C62.3199728,47.8590633 61.5681281,48.6129462 60.6391961,48.6129462 C59.7118174,48.6129462 58.9599728,47.8590633 58.9599728,46.9310878 C58.9599728,46.0031123 59.7118174,45.2492294 60.6391961,45.2492294 C61.5681281,45.2492294 62.3199728,46.0031123 62.3199728,46.9310878" id="Fill-51" fill="#FFA530"></path>
                <path d="M76.8799728,46.9310878 C76.8799728,47.8590633 76.1281281,48.6129462 75.2007495,48.6129462 C74.2718174,48.6129462 73.5199728,47.8590633 73.5199728,46.9310878 C73.5199728,46.0031123 74.2718174,45.2492294 75.2007495,45.2492294 C76.1281281,45.2492294 76.8799728,46.0031123 76.8799728,46.9310878" id="Fill-53" fill="#FFA530"></path>
                <path d="M91.4399728,46.9310878 C91.4399728,47.8590633 90.6881281,48.6129462 89.7591961,48.6129462 C88.8318174,48.6129462 88.0799728,47.8590633 88.0799728,46.9310878 C88.0799728,46.0031123 88.8318174,45.2492294 89.7591961,45.2492294 C90.6881281,45.2492294 91.4399728,46.0031123 91.4399728,46.9310878" id="Fill-55" fill="#FFA530"></path>
                <path d="M3.51997276,61.507194 C3.51997276,62.4351695 2.7681281,63.1890524 1.83919607,63.1890524 C0.911817425,63.1890524 0.159972765,62.4351695 0.159972765,61.507194 C0.159972765,60.5792185 0.911817425,59.8253356 1.83919607,59.8253356 C2.7681281,59.8253356 3.51997276,60.5792185 3.51997276,61.507194" id="Fill-57" fill="#FFA530"></path>
                <path d="M18.0799728,61.507194 C18.0799728,62.4351695 17.3281281,63.1890524 16.3991961,63.1890524 C15.4718174,63.1890524 14.7199728,62.4351695 14.7199728,61.507194 C14.7199728,60.5792185 15.4718174,59.8253356 16.3991961,59.8253356 C17.3281281,59.8253356 18.0799728,60.5792185 18.0799728,61.507194" id="Fill-59" fill="#FFA530"></path>
                <path d="M32.6399728,61.507194 C32.6399728,62.4351695 31.8881281,63.1890524 30.9591961,63.1890524 C30.0318174,63.1890524 29.2799728,62.4351695 29.2799728,61.507194 C29.2799728,60.5792185 30.0318174,59.8253356 30.9591961,59.8253356 C31.8881281,59.8253356 32.6399728,60.5792185 32.6399728,61.507194" id="Fill-61" fill="#FFA530"></path>
                <path d="M47.7599728,61.507194 C47.7599728,62.4351695 47.0081281,63.1890524 46.0791961,63.1890524 C45.1518174,63.1890524 44.3999728,62.4351695 44.3999728,61.507194 C44.3999728,60.5792185 45.1518174,59.8253356 46.0791961,59.8253356 C47.0081281,59.8253356 47.7599728,60.5792185 47.7599728,61.507194" id="Fill-63" fill="#FFA530"></path>
                <path d="M62.3199728,61.507194 C62.3199728,62.4351695 61.5681281,63.1890524 60.6391961,63.1890524 C59.7118174,63.1890524 58.9599728,62.4351695 58.9599728,61.507194 C58.9599728,60.5792185 59.7118174,59.8253356 60.6391961,59.8253356 C61.5681281,59.8253356 62.3199728,60.5792185 62.3199728,61.507194" id="Fill-65" fill="#FFA530"></path>
                <path d="M76.8799728,61.507194 C76.8799728,62.4351695 76.1281281,63.1890524 75.2007495,63.1890524 C74.2718174,63.1890524 73.5199728,62.4351695 73.5199728,61.507194 C73.5199728,60.5792185 74.2718174,59.8253356 75.2007495,59.8253356 C76.1281281,59.8253356 76.8799728,60.5792185 76.8799728,61.507194" id="Fill-67" fill="#FFA530"></path>
                <path d="M91.4399728,61.507194 C91.4399728,62.4351695 90.6881281,63.1890524 89.7591961,63.1890524 C88.8318174,63.1890524 88.0799728,62.4351695 88.0799728,61.507194 C88.0799728,60.5792185 88.8318174,59.8253356 89.7591961,59.8253356 C90.6881281,59.8253356 91.4399728,60.5792185 91.4399728,61.507194" id="Fill-69" fill="#FFA530"></path>
                <path d="M3.51997276,76.0833002 C3.51997276,77.0112757 2.7681281,77.7651586 1.83919607,77.7651586 C0.911817425,77.7651586 0.159972765,77.0112757 0.159972765,76.0833002 C0.159972765,75.1553247 0.911817425,74.4014418 1.83919607,74.4014418 C2.7681281,74.4014418 3.51997276,75.1553247 3.51997276,76.0833002" id="Fill-71" fill="#FFA530"></path>
                <path d="M18.0799728,76.0833002 C18.0799728,77.0112757 17.3281281,77.7651586 16.3991961,77.7651586 C15.4718174,77.7651586 14.7199728,77.0112757 14.7199728,76.0833002 C14.7199728,75.1553247 15.4718174,74.4014418 16.3991961,74.4014418 C17.3281281,74.4014418 18.0799728,75.1553247 18.0799728,76.0833002" id="Fill-73" fill="#FFA530"></path>
                <path d="M32.6399728,76.0833002 C32.6399728,77.0112757 31.8881281,77.7651586 30.9591961,77.7651586 C30.0318174,77.7651586 29.2799728,77.0112757 29.2799728,76.0833002 C29.2799728,75.1553247 30.0318174,74.4014418 30.9591961,74.4014418 C31.8881281,74.4014418 32.6399728,75.1553247 32.6399728,76.0833002" id="Fill-75" fill="#FFA530"></path>
                <path d="M47.7599728,76.0833002 C47.7599728,77.0112757 47.0081281,77.7651586 46.0791961,77.7651586 C45.1518174,77.7651586 44.3999728,77.0112757 44.3999728,76.0833002 C44.3999728,75.1553247 45.1518174,74.4014418 46.0791961,74.4014418 C47.0081281,74.4014418 47.7599728,75.1553247 47.7599728,76.0833002" id="Fill-77" fill="#FFA530"></path>
                <path d="M62.3199728,76.0833002 C62.3199728,77.0112757 61.5681281,77.7651586 60.6391961,77.7651586 C59.7118174,77.7651586 58.9599728,77.0112757 58.9599728,76.0833002 C58.9599728,75.1553247 59.7118174,74.4014418 60.6391961,74.4014418 C61.5681281,74.4014418 62.3199728,75.1553247 62.3199728,76.0833002" id="Fill-79" fill="#FFA530"></path>
                <path d="M76.8799728,76.0833002 C76.8799728,77.0112757 76.1281281,77.7651586 75.2007495,77.7651586 C74.2718174,77.7651586 73.5199728,77.0112757 73.5199728,76.0833002 C73.5199728,75.1553247 74.2718174,74.4014418 75.2007495,74.4014418 C76.1281281,74.4014418 76.8799728,75.1553247 76.8799728,76.0833002" id="Fill-81" fill="#FFA530"></path>
                <path d="M91.4399728,76.0833002 C91.4399728,77.0112757 90.6881281,77.7651586 89.7591961,77.7651586 C88.8318174,77.7651586 88.0799728,77.0112757 88.0799728,76.0833002 C88.0799728,75.1553247 88.8318174,74.4014418 89.7591961,74.4014418 C90.6881281,74.4014418 91.4399728,75.1553247 91.4399728,76.0833002" id="Fill-83" fill="#FFA530"></path>
                <path d="M3.51997276,90.6594064 C3.51997276,91.5873819 2.7681281,92.3412648 1.83919607,92.3412648 C0.911817425,92.3412648 0.159972765,91.5873819 0.159972765,90.6594064 C0.159972765,89.7298765 0.911817425,88.977548 1.83919607,88.977548 C2.7681281,88.977548 3.51997276,89.7298765 3.51997276,90.6594064" id="Fill-85" fill="#FFA530"></path>
                <path d="M18.0799728,90.6594064 C18.0799728,91.5873819 17.3281281,92.3412648 16.3991961,92.3412648 C15.4718174,92.3412648 14.7199728,91.5873819 14.7199728,90.6594064 C14.7199728,89.7298765 15.4718174,88.977548 16.3991961,88.977548 C17.3281281,88.977548 18.0799728,89.7298765 18.0799728,90.6594064" id="Fill-87" fill="#FFA530"></path>
                <path d="M32.6399728,90.6594064 C32.6399728,91.5873819 31.8881281,92.3412648 30.9591961,92.3412648 C30.0318174,92.3412648 29.2799728,91.5873819 29.2799728,90.6594064 C29.2799728,89.7298765 30.0318174,88.977548 30.9591961,88.977548 C31.8881281,88.977548 32.6399728,89.7298765 32.6399728,90.6594064" id="Fill-89" fill="#FFA530"></path>
                <path d="M47.7599728,90.6594064 C47.7599728,91.5873819 47.0081281,92.3412648 46.0791961,92.3412648 C45.1518174,92.3412648 44.3999728,91.5873819 44.3999728,90.6594064 C44.3999728,89.7298765 45.1518174,88.977548 46.0791961,88.977548 C47.0081281,88.977548 47.7599728,89.7298765 47.7599728,90.6594064" id="Fill-91" fill="#FFA530"></path>
                <path d="M62.3199728,90.6594064 C62.3199728,91.5873819 61.5681281,92.3412648 60.6391961,92.3412648 C59.7118174,92.3412648 58.9599728,91.5873819 58.9599728,90.6594064 C58.9599728,89.7298765 59.7118174,88.977548 60.6391961,88.977548 C61.5681281,88.977548 62.3199728,89.7298765 62.3199728,90.6594064" id="Fill-93" fill="#FFA530"></path>
                <path d="M76.8799728,90.6594064 C76.8799728,91.5873819 76.1281281,92.3412648 75.2007495,92.3412648 C74.2718174,92.3412648 73.5199728,91.5873819 73.5199728,90.6594064 C73.5199728,89.7298765 74.2718174,88.977548 75.2007495,88.977548 C76.1281281,88.977548 76.8799728,89.7298765 76.8799728,90.6594064" id="Fill-95" fill="#FFA530"></path>
                <path d="M91.4399728,90.6594064 C91.4399728,91.5873819 90.6881281,92.3412648 89.7591961,92.3412648 C88.8318174,92.3412648 88.0799728,91.5873819 88.0799728,90.6594064 C88.0799728,89.7298765 88.8318174,88.977548 89.7591961,88.977548 C90.6881281,88.977548 91.4399728,89.7298765 91.4399728,90.6594064" id="Fill-97" fill="#FFA530"></path>
                <path d="M105.999973,2.64214973 C105.999973,3.57012521 105.248128,4.32400814 104.319196,4.32400814 C103.391817,4.32400814 102.639973,3.57012521 102.639973,2.64214973 C102.639973,1.71261986 103.391817,0.960291328 104.319196,0.960291328 C105.248128,0.960291328 105.999973,1.71261986 105.999973,2.64214973" id="Fill-99" fill="#FFA530"></path>
                <path d="M121.119973,2.64214973 C121.119973,3.57012521 120.368128,4.32400814 119.439196,4.32400814 C118.511817,4.32400814 117.759973,3.57012521 117.759973,2.64214973 C117.759973,1.71261986 118.511817,0.960291328 119.439196,0.960291328 C120.368128,0.960291328 121.119973,1.71261986 121.119973,2.64214973" id="Fill-101" fill="#FFA530"></path>
                <path d="M135.679973,2.64214973 C135.679973,3.57012521 134.928128,4.32400814 133.999196,4.32400814 C133.071817,4.32400814 132.319973,3.57012521 132.319973,2.64214973 C132.319973,1.71261986 133.071817,0.960291328 133.999196,0.960291328 C134.928128,0.960291328 135.679973,1.71261986 135.679973,2.64214973" id="Fill-103" fill="#FFA530"></path>
                <path d="M150.239973,2.64214973 C150.239973,3.57012521 149.488128,4.32400814 148.559196,4.32400814 C147.631817,4.32400814 146.879973,3.57012521 146.879973,2.64214973 C146.879973,1.71261986 147.631817,0.960291328 148.559196,0.960291328 C149.488128,0.960291328 150.239973,1.71261986 150.239973,2.64214973" id="Fill-105" fill="#FFA530"></path>
                <path d="M164.799973,2.64214973 C164.799973,3.57012521 164.048476,4.32400814 163.119973,4.32400814 C162.193023,4.32400814 161.439973,3.57012521 161.439973,2.64214973 C161.439973,1.71261986 162.193023,0.960291328 163.119973,0.960291328 C164.048476,0.960291328 164.799973,1.71261986 164.799973,2.64214973" id="Fill-107" fill="#FFA530"></path>
                <mask id="mask-3" fill="white">
                    <use xlink:href="#path-2"></use>
                </mask>
                <g id="Clip-110"></g>
                <path d="M179.919973,2.36184 C179.919973,3.44447806 179.042821,4.32400814 177.959067,4.32400814 C176.877125,4.32400814 175.999973,3.44447806 175.999973,2.36184 C175.999973,1.27738848 176.877125,0.399671859 177.959067,0.399671859 C179.042821,0.399671859 179.919973,1.27738848 179.919973,2.36184" id="Fill-109" fill="#FFA530" mask="url(#mask-3)"></path>
                <path d="M105.999973,17.2182559 C105.999973,18.1477858 105.248128,18.9001143 104.319196,18.9001143 C103.391817,18.9001143 102.639973,18.1477858 102.639973,17.2182559 C102.639973,16.2902804 103.391817,15.5363975 104.319196,15.5363975 C105.248128,15.5363975 105.999973,16.2902804 105.999973,17.2182559" id="Fill-112" fill="#FFA530"></path>
                <path d="M121.119973,17.2182559 C121.119973,18.1477858 120.368128,18.9001143 119.439196,18.9001143 C118.511817,18.9001143 117.759973,18.1477858 117.759973,17.2182559 C117.759973,16.2902804 118.511817,15.5363975 119.439196,15.5363975 C120.368128,15.5363975 121.119973,16.2902804 121.119973,17.2182559" id="Fill-114" fill="#FFA530"></path>
                <path d="M135.679973,17.2182559 C135.679973,18.1477858 134.928128,18.9001143 133.999196,18.9001143 C133.071817,18.9001143 132.319973,18.1477858 132.319973,17.2182559 C132.319973,16.2902804 133.071817,15.5363975 133.999196,15.5363975 C134.928128,15.5363975 135.679973,16.2902804 135.679973,17.2182559" id="Fill-116" fill="#FFA530"></path>
                <path d="M150.239973,17.2182559 C150.239973,18.1477858 149.488128,18.9001143 148.559196,18.9001143 C147.631817,18.9001143 146.879973,18.1477858 146.879973,17.2182559 C146.879973,16.2902804 147.631817,15.5363975 148.559196,15.5363975 C149.488128,15.5363975 150.239973,16.2902804 150.239973,17.2182559" id="Fill-118" fill="#FFA530"></path>
                <path d="M164.799973,17.2182559 C164.799973,18.1477858 164.048476,18.9001143 163.119973,18.9001143 C162.193023,18.9001143 161.439973,18.1477858 161.439973,17.2182559 C161.439973,16.2902804 162.193023,15.5363975 163.119973,15.5363975 C164.048476,15.5363975 164.799973,16.2902804 164.799973,17.2182559" id="Fill-120" fill="#FFA530"></path>
                <mask id="mask-5" fill="white">
                    <use xlink:href="#path-4"></use>
                </mask>
                <g id="Clip-123"></g>
                <path d="M179.919973,16.9379462 C179.919973,18.0223977 179.042821,18.9001143 177.959067,18.9001143 C176.877125,18.9001143 175.999973,18.0223977 175.999973,16.9379462 C175.999973,15.8553081 176.877125,14.9757781 177.959067,14.9757781 C179.042821,14.9757781 179.919973,15.8553081 179.919973,16.9379462" id="Fill-122" fill="#FFA530" mask="url(#mask-5)"></path>
                <path d="M105.999973,31.7943621 C105.999973,32.7223376 105.248128,33.4762205 104.319196,33.4762205 C103.391817,33.4762205 102.639973,32.7223376 102.639973,31.7943621 C102.639973,30.8663866 103.391817,30.1125037 104.319196,30.1125037 C105.248128,30.1125037 105.999973,30.8663866 105.999973,31.7943621" id="Fill-125" fill="#FFA530"></path>
                <path d="M121.119973,31.7943621 C121.119973,32.7223376 120.368128,33.4762205 119.439196,33.4762205 C118.511817,33.4762205 117.759973,32.7223376 117.759973,31.7943621 C117.759973,30.8663866 118.511817,30.1125037 119.439196,30.1125037 C120.368128,30.1125037 121.119973,30.8663866 121.119973,31.7943621" id="Fill-127" fill="#FFA530"></path>
                <path d="M135.679973,31.7943621 C135.679973,32.7223376 134.928128,33.4762205 133.999196,33.4762205 C133.071817,33.4762205 132.319973,32.7223376 132.319973,31.7943621 C132.319973,30.8663866 133.071817,30.1125037 133.999196,30.1125037 C134.928128,30.1125037 135.679973,30.8663866 135.679973,31.7943621" id="Fill-129" fill="#FFA530"></path>
                <path d="M150.239973,31.7943621 C150.239973,32.7223376 149.488128,33.4762205 148.559196,33.4762205 C147.631817,33.4762205 146.879973,32.7223376 146.879973,31.7943621 C146.879973,30.8663866 147.631817,30.1125037 148.559196,30.1125037 C149.488128,30.1125037 150.239973,30.8663866 150.239973,31.7943621" id="Fill-131" fill="#FFA530"></path>
                <path d="M164.799973,31.7943621 C164.799973,32.7223376 164.048476,33.4762205 163.119973,33.4762205 C162.193023,33.4762205 161.439973,32.7223376 161.439973,31.7943621 C161.439973,30.8663866 162.193023,30.1125037 163.119973,30.1125037 C164.048476,30.1125037 164.799973,30.8663866 164.799973,31.7943621" id="Fill-133" fill="#FFA530"></path>
                <mask id="mask-7" fill="white">
                    <use xlink:href="#path-6"></use>
                </mask>
                <g id="Clip-136"></g>
                <path d="M179.919973,31.5140524 C179.919973,32.5966904 179.042821,33.4762205 177.959067,33.4762205 C176.877125,33.4762205 175.999973,32.5966904 175.999973,31.5140524 C175.999973,30.4314143 176.877125,29.5518842 177.959067,29.5518842 C179.042821,29.5518842 179.919973,30.4314143 179.919973,31.5140524" id="Fill-135" fill="#FFA530" mask="url(#mask-7)"></path>
                <path d="M105.999973,46.9310878 C105.999973,47.8590633 105.248128,48.6129462 104.319196,48.6129462 C103.391817,48.6129462 102.639973,47.8590633 102.639973,46.9310878 C102.639973,46.0031123 103.391817,45.2492294 104.319196,45.2492294 C105.248128,45.2492294 105.999973,46.0031123 105.999973,46.9310878" id="Fill-138" fill="#FFA530"></path>
                <path d="M121.119973,46.9310878 C121.119973,47.8590633 120.368128,48.6129462 119.439196,48.6129462 C118.511817,48.6129462 117.759973,47.8590633 117.759973,46.9310878 C117.759973,46.0031123 118.511817,45.2492294 119.439196,45.2492294 C120.368128,45.2492294 121.119973,46.0031123 121.119973,46.9310878" id="Fill-140" fill="#FFA530"></path>
                <path d="M135.679973,46.9310878 C135.679973,47.8590633 134.928128,48.6129462 133.999196,48.6129462 C133.071817,48.6129462 132.319973,47.8590633 132.319973,46.9310878 C132.319973,46.0031123 133.071817,45.2492294 133.999196,45.2492294 C134.928128,45.2492294 135.679973,46.0031123 135.679973,46.9310878" id="Fill-142" fill="#FFA530"></path>
                <path d="M150.239973,46.9310878 C150.239973,47.8590633 149.488128,48.6129462 148.559196,48.6129462 C147.631817,48.6129462 146.879973,47.8590633 146.879973,46.9310878 C146.879973,46.0031123 147.631817,45.2492294 148.559196,45.2492294 C149.488128,45.2492294 150.239973,46.0031123 150.239973,46.9310878" id="Fill-144" fill="#FFA530"></path>
                <path d="M164.799973,46.9310878 C164.799973,47.8590633 164.048476,48.6129462 163.119973,48.6129462 C162.193023,48.6129462 161.439973,47.8590633 161.439973,46.9310878 C161.439973,46.0031123 162.193023,45.2492294 163.119973,45.2492294 C164.048476,45.2492294 164.799973,46.0031123 164.799973,46.9310878" id="Fill-146" fill="#FFA530"></path>
                <mask id="mask-9" fill="white">
                    <use xlink:href="#path-8"></use>
                </mask>
                <g id="Clip-149"></g>
                <path d="M179.919973,47.2113975 C179.919973,48.2940356 179.042821,49.1735657 177.959067,49.1735657 C176.877125,49.1735657 175.999973,48.2940356 175.999973,47.2113975 C175.999973,46.1287595 176.877125,45.2492294 177.959067,45.2492294 C179.042821,45.2492294 179.919973,46.1287595 179.919973,47.2113975" id="Fill-148" fill="#FFA530" mask="url(#mask-9)"></path>
                <path d="M105.999973,61.507194 C105.999973,62.4351695 105.248128,63.1890524 104.319196,63.1890524 C103.391817,63.1890524 102.639973,62.4351695 102.639973,61.507194 C102.639973,60.5792185 103.391817,59.8253356 104.319196,59.8253356 C105.248128,59.8253356 105.999973,60.5792185 105.999973,61.507194" id="Fill-151" fill="#FFA530"></path>
                <path d="M121.119973,61.507194 C121.119973,62.4351695 120.368128,63.1890524 119.439196,63.1890524 C118.511817,63.1890524 117.759973,62.4351695 117.759973,61.507194 C117.759973,60.5792185 118.511817,59.8253356 119.439196,59.8253356 C120.368128,59.8253356 121.119973,60.5792185 121.119973,61.507194" id="Fill-153" fill="#FFA530"></path>
                <path d="M135.679973,61.507194 C135.679973,62.4351695 134.928128,63.1890524 133.999196,63.1890524 C133.071817,63.1890524 132.319973,62.4351695 132.319973,61.507194 C132.319973,60.5792185 133.071817,59.8253356 133.999196,59.8253356 C134.928128,59.8253356 135.679973,60.5792185 135.679973,61.507194" id="Fill-155" fill="#FFA530"></path>
                <path d="M150.239973,61.507194 C150.239973,62.4351695 149.488128,63.1890524 148.559196,63.1890524 C147.631817,63.1890524 146.879973,62.4351695 146.879973,61.507194 C146.879973,60.5792185 147.631817,59.8253356 148.559196,59.8253356 C149.488128,59.8253356 150.239973,60.5792185 150.239973,61.507194" id="Fill-157" fill="#FFA530"></path>
                <path d="M164.799973,61.507194 C164.799973,62.4351695 164.048476,63.1890524 163.119973,63.1890524 C162.193023,63.1890524 161.439973,62.4351695 161.439973,61.507194 C161.439973,60.5792185 162.193023,59.8253356 163.119973,59.8253356 C164.048476,59.8253356 164.799973,60.5792185 164.799973,61.507194" id="Fill-159" fill="#FFA530"></path>
                <mask id="mask-11" fill="white">
                    <use xlink:href="#path-10"></use>
                </mask>
                <g id="Clip-162"></g>
                <path d="M179.919973,61.7875037 C179.919973,62.8701418 179.042821,63.7496719 177.959067,63.7496719 C176.877125,63.7496719 175.999973,62.8701418 175.999973,61.7875037 C175.999973,60.7048657 176.877125,59.8253356 177.959067,59.8253356 C179.042821,59.8253356 179.919973,60.7048657 179.919973,61.7875037" id="Fill-161" fill="#FFA530" mask="url(#mask-11)"></path>
                <path d="M105.999973,76.0833002 C105.999973,77.0112757 105.248128,77.7651586 104.319196,77.7651586 C103.391817,77.7651586 102.639973,77.0112757 102.639973,76.0833002 C102.639973,75.1553247 103.391817,74.4014418 104.319196,74.4014418 C105.248128,74.4014418 105.999973,75.1553247 105.999973,76.0833002" id="Fill-164" fill="#FFA530"></path>
                <path d="M121.119973,76.0833002 C121.119973,77.0112757 120.368128,77.7651586 119.439196,77.7651586 C118.511817,77.7651586 117.759973,77.0112757 117.759973,76.0833002 C117.759973,75.1553247 118.511817,74.4014418 119.439196,74.4014418 C120.368128,74.4014418 121.119973,75.1553247 121.119973,76.0833002" id="Fill-166" fill="#FFA530"></path>
                <path d="M135.679973,76.0833002 C135.679973,77.0112757 134.928128,77.7651586 133.999196,77.7651586 C133.071817,77.7651586 132.319973,77.0112757 132.319973,76.0833002 C132.319973,75.1553247 133.071817,74.4014418 133.999196,74.4014418 C134.928128,74.4014418 135.679973,75.1553247 135.679973,76.0833002" id="Fill-168" fill="#FFA530"></path>
                <path d="M150.239973,76.0833002 C150.239973,77.0112757 149.488128,77.7651586 148.559196,77.7651586 C147.631817,77.7651586 146.879973,77.0112757 146.879973,76.0833002 C146.879973,75.1553247 147.631817,74.4014418 148.559196,74.4014418 C149.488128,74.4014418 150.239973,75.1553247 150.239973,76.0833002" id="Fill-170" fill="#FFA530"></path>
                <path d="M164.799973,76.0833002 C164.799973,77.0112757 164.048476,77.7651586 163.119973,77.7651586 C162.193023,77.7651586 161.439973,77.0112757 161.439973,76.0833002 C161.439973,75.1553247 162.193023,74.4014418 163.119973,74.4014418 C164.048476,74.4014418 164.799973,75.1553247 164.799973,76.0833002" id="Fill-172" fill="#FFA530"></path>
                <mask id="mask-13" fill="white">
                    <use xlink:href="#path-12"></use>
                </mask>
                <g id="Clip-175"></g>
                <path d="M179.919973,76.3636099 C179.919973,77.446248 179.042821,78.3257781 177.959067,78.3257781 C176.877125,78.3257781 175.999973,77.446248 175.999973,76.3636099 C175.999973,75.2809719 176.877125,74.4014418 177.959067,74.4014418 C179.042821,74.4014418 179.919973,75.2809719 179.919973,76.3636099" id="Fill-174" fill="#FFA530" mask="url(#mask-13)"></path>
                <path d="M105.999973,90.6594064 C105.999973,91.5873819 105.248128,92.3412648 104.319196,92.3412648 C103.391817,92.3412648 102.639973,91.5873819 102.639973,90.6594064 C102.639973,89.7298765 103.391817,88.977548 104.319196,88.977548 C105.248128,88.977548 105.999973,89.7298765 105.999973,90.6594064" id="Fill-177" fill="#FFA530"></path>
                <path d="M121.119973,90.6594064 C121.119973,91.5873819 120.368128,92.3412648 119.439196,92.3412648 C118.511817,92.3412648 117.759973,91.5873819 117.759973,90.6594064 C117.759973,89.7298765 118.511817,88.977548 119.439196,88.977548 C120.368128,88.977548 121.119973,89.7298765 121.119973,90.6594064" id="Fill-179" fill="#FFA530"></path>
                <path d="M135.679973,90.6594064 C135.679973,91.5873819 134.928128,92.3412648 133.999196,92.3412648 C133.071817,92.3412648 132.319973,91.5873819 132.319973,90.6594064 C132.319973,89.7298765 133.071817,88.977548 133.999196,88.977548 C134.928128,88.977548 135.679973,89.7298765 135.679973,90.6594064" id="Fill-181" fill="#FFA530"></path>
                <path d="M150.239973,90.6594064 C150.239973,91.5873819 149.488128,92.3412648 148.559196,92.3412648 C147.631817,92.3412648 146.879973,91.5873819 146.879973,90.6594064 C146.879973,89.7298765 147.631817,88.977548 148.559196,88.977548 C149.488128,88.977548 150.239973,89.7298765 150.239973,90.6594064" id="Fill-183" fill="#FFA530"></path>
                <path d="M164.799973,90.6594064 C164.799973,91.5873819 164.048476,92.3412648 163.119973,92.3412648 C162.193023,92.3412648 161.439973,91.5873819 161.439973,90.6594064 C161.439973,89.7298765 162.193023,88.977548 163.119973,88.977548 C164.048476,88.977548 164.799973,89.7298765 164.799973,90.6594064" id="Fill-185" fill="#FFA530"></path>
                <mask id="mask-15" fill="white">
                    <use xlink:href="#path-14"></use>
                </mask>
                <g id="Clip-188"></g>
                <path d="M179.919973,90.9397161 C179.919973,92.0223542 179.042821,92.9018842 177.959067,92.9018842 C176.877125,92.9018842 175.999973,92.0223542 175.999973,90.9397161 C175.999973,89.8552646 176.877125,88.977548 177.959067,88.977548 C179.042821,88.977548 179.919973,89.8552646 179.919973,90.9397161" id="Fill-187" fill="#FFA530" mask="url(#mask-15)"></path>
                <path d="M3.51997276,104.674893 C3.51997276,105.604423 2.7681281,106.356752 1.83919607,106.356752 C0.911817425,106.356752 0.159972765,105.604423 0.159972765,104.674893 C0.159972765,103.746918 0.911817425,102.993035 1.83919607,102.993035 C2.7681281,102.993035 3.51997276,103.746918 3.51997276,104.674893" id="Fill-190" fill="#FFA530"></path>
                <path d="M18.0799728,104.674893 C18.0799728,105.604423 17.3281281,106.356752 16.3991961,106.356752 C15.4718174,106.356752 14.7199728,105.604423 14.7199728,104.674893 C14.7199728,103.746918 15.4718174,102.993035 16.3991961,102.993035 C17.3281281,102.993035 18.0799728,103.746918 18.0799728,104.674893" id="Fill-192" fill="#FFA530"></path>
                <path d="M32.6399728,104.674893 C32.6399728,105.604423 31.8881281,106.356752 30.9591961,106.356752 C30.0318174,106.356752 29.2799728,105.604423 29.2799728,104.674893 C29.2799728,103.746918 30.0318174,102.993035 30.9591961,102.993035 C31.8881281,102.993035 32.6399728,103.746918 32.6399728,104.674893" id="Fill-194" fill="#FFA530"></path>
                <path d="M47.7599728,104.674893 C47.7599728,105.604423 47.0081281,106.356752 46.0791961,106.356752 C45.1518174,106.356752 44.3999728,105.604423 44.3999728,104.674893 C44.3999728,103.746918 45.1518174,102.993035 46.0791961,102.993035 C47.0081281,102.993035 47.7599728,103.746918 47.7599728,104.674893" id="Fill-196" fill="#FFA530"></path>
                <path d="M62.3199728,104.674893 C62.3199728,105.604423 61.5681281,106.356752 60.6391961,106.356752 C59.7118174,106.356752 58.9599728,105.604423 58.9599728,104.674893 C58.9599728,103.746918 59.7118174,102.993035 60.6391961,102.993035 C61.5681281,102.993035 62.3199728,103.746918 62.3199728,104.674893" id="Fill-198" fill="#FFA530"></path>
                <path d="M76.8799728,104.674893 C76.8799728,105.604423 76.1281281,106.356752 75.2007495,106.356752 C74.2718174,106.356752 73.5199728,105.604423 73.5199728,104.674893 C73.5199728,103.746918 74.2718174,102.993035 75.2007495,102.993035 C76.1281281,102.993035 76.8799728,103.746918 76.8799728,104.674893" id="Fill-200" fill="#FFA530"></path>
                <path d="M91.4399728,104.674893 C91.4399728,105.604423 90.6881281,106.356752 89.7591961,106.356752 C88.8318174,106.356752 88.0799728,105.604423 88.0799728,104.674893 C88.0799728,103.746918 88.8318174,102.993035 89.7591961,102.993035 C90.6881281,102.993035 91.4399728,103.746918 91.4399728,104.674893" id="Fill-202" fill="#FFA530"></path>
                <path d="M3.51997276,120.372238 C3.51997276,121.301768 2.7681281,122.054097 1.83919607,122.054097 C0.911817425,122.054097 0.159972765,121.301768 0.159972765,120.372238 C0.159972765,119.444263 0.911817425,118.69038 1.83919607,118.69038 C2.7681281,118.69038 3.51997276,119.444263 3.51997276,120.372238" id="Fill-204" fill="#FFA530"></path>
                <path d="M18.0799728,120.372238 C18.0799728,121.301768 17.3281281,122.054097 16.3991961,122.054097 C15.4718174,122.054097 14.7199728,121.301768 14.7199728,120.372238 C14.7199728,119.444263 15.4718174,118.69038 16.3991961,118.69038 C17.3281281,118.69038 18.0799728,119.444263 18.0799728,120.372238" id="Fill-206" fill="#FFA530"></path>
                <path d="M32.6399728,120.372238 C32.6399728,121.301768 31.8881281,122.054097 30.9591961,122.054097 C30.0318174,122.054097 29.2799728,121.301768 29.2799728,120.372238 C29.2799728,119.444263 30.0318174,118.69038 30.9591961,118.69038 C31.8881281,118.69038 32.6399728,119.444263 32.6399728,120.372238" id="Fill-208" fill="#FFA530"></path>
                <path d="M47.7599728,120.372238 C47.7599728,121.301768 47.0081281,122.054097 46.0791961,122.054097 C45.1518174,122.054097 44.3999728,121.301768 44.3999728,120.372238 C44.3999728,119.444263 45.1518174,118.69038 46.0791961,118.69038 C47.0081281,118.69038 47.7599728,119.444263 47.7599728,120.372238" id="Fill-210" fill="#FFA530"></path>
                <path d="M62.3199728,120.372238 C62.3199728,121.301768 61.5681281,122.054097 60.6391961,122.054097 C59.7118174,122.054097 58.9599728,121.301768 58.9599728,120.372238 C58.9599728,119.444263 59.7118174,118.69038 60.6391961,118.69038 C61.5681281,118.69038 62.3199728,119.444263 62.3199728,120.372238" id="Fill-212" fill="#FFA530"></path>
                <path d="M76.8799728,120.372238 C76.8799728,121.301768 76.1281281,122.054097 75.2007495,122.054097 C74.2718174,122.054097 73.5199728,121.301768 73.5199728,120.372238 C73.5199728,119.444263 74.2718174,118.69038 75.2007495,118.69038 C76.1281281,118.69038 76.8799728,119.444263 76.8799728,120.372238" id="Fill-214" fill="#FFA530"></path>
                <path d="M91.4399728,120.372238 C91.4399728,121.301768 90.6881281,122.054097 89.7591961,122.054097 C88.8318174,122.054097 88.0799728,121.301768 88.0799728,120.372238 C88.0799728,119.444263 88.8318174,118.69038 89.7591961,118.69038 C90.6881281,118.69038 91.4399728,119.444263 91.4399728,120.372238" id="Fill-216" fill="#FFA530"></path>
                <path d="M3.51997276,134.948344 C3.51997276,135.877874 2.7681281,136.630203 1.83919607,136.630203 C0.911817425,136.630203 0.159972765,135.877874 0.159972765,134.948344 C0.159972765,134.020369 0.911817425,133.266486 1.83919607,133.266486 C2.7681281,133.266486 3.51997276,134.020369 3.51997276,134.948344" id="Fill-218" fill="#FFA530"></path>
                <path d="M18.0799728,134.948344 C18.0799728,135.877874 17.3281281,136.630203 16.3991961,136.630203 C15.4718174,136.630203 14.7199728,135.877874 14.7199728,134.948344 C14.7199728,134.020369 15.4718174,133.266486 16.3991961,133.266486 C17.3281281,133.266486 18.0799728,134.020369 18.0799728,134.948344" id="Fill-220" fill="#FFA530"></path>
                <path d="M32.6399728,134.948344 C32.6399728,135.877874 31.8881281,136.630203 30.9591961,136.630203 C30.0318174,136.630203 29.2799728,135.877874 29.2799728,134.948344 C29.2799728,134.020369 30.0318174,133.266486 30.9591961,133.266486 C31.8881281,133.266486 32.6399728,134.020369 32.6399728,134.948344" id="Fill-222" fill="#FFA530"></path>
                <path d="M47.7599728,134.948344 C47.7599728,135.877874 47.0081281,136.630203 46.0791961,136.630203 C45.1518174,136.630203 44.3999728,135.877874 44.3999728,134.948344 C44.3999728,134.020369 45.1518174,133.266486 46.0791961,133.266486 C47.0081281,133.266486 47.7599728,134.020369 47.7599728,134.948344" id="Fill-224" fill="#FFA530"></path>
                <path d="M62.3199728,134.948344 C62.3199728,135.877874 61.5681281,136.630203 60.6391961,136.630203 C59.7118174,136.630203 58.9599728,135.877874 58.9599728,134.948344 C58.9599728,134.020369 59.7118174,133.266486 60.6391961,133.266486 C61.5681281,133.266486 62.3199728,134.020369 62.3199728,134.948344" id="Fill-226" fill="#FFA530"></path>
                <path d="M76.8799728,134.948344 C76.8799728,135.877874 76.1281281,136.630203 75.2007495,136.630203 C74.2718174,136.630203 73.5199728,135.877874 73.5199728,134.948344 C73.5199728,134.020369 74.2718174,133.266486 75.2007495,133.266486 C76.1281281,133.266486 76.8799728,134.020369 76.8799728,134.948344" id="Fill-228" fill="#FFA530"></path>
                <path d="M91.4399728,134.948344 C91.4399728,135.877874 90.6881281,136.630203 89.7591961,136.630203 C88.8318174,136.630203 88.0799728,135.877874 88.0799728,134.948344 C88.0799728,134.020369 88.8318174,133.266486 89.7591961,133.266486 C90.6881281,133.266486 91.4399728,134.020369 91.4399728,134.948344" id="Fill-230" fill="#FFA530"></path>
                <path d="M3.51997276,148.963831 C3.51997276,149.893361 2.7681281,150.64569 1.83919607,150.64569 C0.911817425,150.64569 0.159972765,149.893361 0.159972765,148.963831 C0.159972765,148.035856 0.911817425,147.281973 1.83919607,147.281973 C2.7681281,147.281973 3.51997276,148.035856 3.51997276,148.963831" id="Fill-232" fill="#FFA530"></path>
                <path d="M18.0799728,148.963831 C18.0799728,149.893361 17.3281281,150.64569 16.3991961,150.64569 C15.4718174,150.64569 14.7199728,149.893361 14.7199728,148.963831 C14.7199728,148.035856 15.4718174,147.281973 16.3991961,147.281973 C17.3281281,147.281973 18.0799728,148.035856 18.0799728,148.963831" id="Fill-234" fill="#FFA530"></path>
                <path d="M32.6399728,148.963831 C32.6399728,149.893361 31.8881281,150.64569 30.9591961,150.64569 C30.0318174,150.64569 29.2799728,149.893361 29.2799728,148.963831 C29.2799728,148.035856 30.0318174,147.281973 30.9591961,147.281973 C31.8881281,147.281973 32.6399728,148.035856 32.6399728,148.963831" id="Fill-236" fill="#FFA530"></path>
                <path d="M47.7599728,148.963831 C47.7599728,149.893361 47.0081281,150.64569 46.0791961,150.64569 C45.1518174,150.64569 44.3999728,149.893361 44.3999728,148.963831 C44.3999728,148.035856 45.1518174,147.281973 46.0791961,147.281973 C47.0081281,147.281973 47.7599728,148.035856 47.7599728,148.963831" id="Fill-238" fill="#FFA530"></path>
                <path d="M62.3199728,148.963831 C62.3199728,149.893361 61.5681281,150.64569 60.6391961,150.64569 C59.7118174,150.64569 58.9599728,149.893361 58.9599728,148.963831 C58.9599728,148.035856 59.7118174,147.281973 60.6391961,147.281973 C61.5681281,147.281973 62.3199728,148.035856 62.3199728,148.963831" id="Fill-240" fill="#FFA530"></path>
                <path d="M76.8799728,148.963831 C76.8799728,149.893361 76.1281281,150.64569 75.2007495,150.64569 C74.2718174,150.64569 73.5199728,149.893361 73.5199728,148.963831 C73.5199728,148.035856 74.2718174,147.281973 75.2007495,147.281973 C76.1281281,147.281973 76.8799728,148.035856 76.8799728,148.963831" id="Fill-242" fill="#FFA530"></path>
                <path d="M91.4399728,148.963831 C91.4399728,149.893361 90.6881281,150.64569 89.7591961,150.64569 C88.8318174,150.64569 88.0799728,149.893361 88.0799728,148.963831 C88.0799728,148.035856 88.8318174,147.281973 89.7591961,147.281973 C90.6881281,147.281973 91.4399728,148.035856 91.4399728,148.963831" id="Fill-244" fill="#FFA530"></path>
                <path d="M3.51997276,163.539937 C3.51997276,164.467913 2.7681281,165.221796 1.83919607,165.221796 C0.911817425,165.221796 0.159972765,164.467913 0.159972765,163.539937 C0.159972765,162.611962 0.911817425,161.858079 1.83919607,161.858079 C2.7681281,161.858079 3.51997276,162.611962 3.51997276,163.539937" id="Fill-246" fill="#FFA530"></path>
                <path d="M18.0799728,163.539937 C18.0799728,164.467913 17.3281281,165.221796 16.3991961,165.221796 C15.4718174,165.221796 14.7199728,164.467913 14.7199728,163.539937 C14.7199728,162.611962 15.4718174,161.858079 16.3991961,161.858079 C17.3281281,161.858079 18.0799728,162.611962 18.0799728,163.539937" id="Fill-248" fill="#FFA530"></path>
                <path d="M32.6399728,163.539937 C32.6399728,164.467913 31.8881281,165.221796 30.9591961,165.221796 C30.0318174,165.221796 29.2799728,164.467913 29.2799728,163.539937 C29.2799728,162.611962 30.0318174,161.858079 30.9591961,161.858079 C31.8881281,161.858079 32.6399728,162.611962 32.6399728,163.539937" id="Fill-250" fill="#FFA530"></path>
                <path d="M47.7599728,163.539937 C47.7599728,164.467913 47.0081281,165.221796 46.0791961,165.221796 C45.1518174,165.221796 44.3999728,164.467913 44.3999728,163.539937 C44.3999728,162.611962 45.1518174,161.858079 46.0791961,161.858079 C47.0081281,161.858079 47.7599728,162.611962 47.7599728,163.539937" id="Fill-252" fill="#FFA530"></path>
                <path d="M62.3199728,163.539937 C62.3199728,164.467913 61.5681281,165.221796 60.6391961,165.221796 C59.7118174,165.221796 58.9599728,164.467913 58.9599728,163.539937 C58.9599728,162.611962 59.7118174,161.858079 60.6391961,161.858079 C61.5681281,161.858079 62.3199728,162.611962 62.3199728,163.539937" id="Fill-254" fill="#FFA530"></path>
                <path d="M76.8799728,163.539937 C76.8799728,164.467913 76.1281281,165.221796 75.2007495,165.221796 C74.2718174,165.221796 73.5199728,164.467913 73.5199728,163.539937 C73.5199728,162.611962 74.2718174,161.858079 75.2007495,161.858079 C76.1281281,161.858079 76.8799728,162.611962 76.8799728,163.539937" id="Fill-256" fill="#FFA530"></path>
                <path d="M91.4399728,163.539937 C91.4399728,164.467913 90.6881281,165.221796 89.7591961,165.221796 C88.8318174,165.221796 88.0799728,164.467913 88.0799728,163.539937 C88.0799728,162.611962 88.8318174,161.858079 89.7591961,161.858079 C90.6881281,161.858079 91.4399728,162.611962 91.4399728,163.539937" id="Fill-258" fill="#FFA530"></path>
                <mask id="mask-17" fill="white">
                    <use xlink:href="#path-16"></use>
                </mask>
                <g id="Clip-261"></g>
                <path d="M4.07997276,178.956973 C4.07997276,180.039611 3.20282066,180.919141 2.11906662,180.919141 C1.03712487,180.919141 0.159972765,180.039611 0.159972765,178.956973 C0.159972765,177.872521 1.03712487,176.994805 2.11906662,176.994805 C3.20282066,176.994805 4.07997276,177.872521 4.07997276,178.956973" id="Fill-260" fill="#FFA530" mask="url(#mask-17)"></path>
                <mask id="mask-19" fill="white">
                    <use xlink:href="#path-18"></use>
                </mask>
                <g id="Clip-264"></g>
                <path d="M18.6399728,178.956973 C18.6399728,180.039611 17.7628207,180.919141 16.6790666,180.919141 C15.5971249,180.919141 14.7199728,180.039611 14.7199728,178.956973 C14.7199728,177.872521 15.5971249,176.994805 16.6790666,176.994805 C17.7628207,176.994805 18.6399728,177.872521 18.6399728,178.956973" id="Fill-263" fill="#FFA530" mask="url(#mask-19)"></path>
                <mask id="mask-21" fill="white">
                    <use xlink:href="#path-20"></use>
                </mask>
                <g id="Clip-267"></g>
                <path d="M33.1999728,178.956973 C33.1999728,180.039611 32.3228207,180.919141 31.2390666,180.919141 C30.1571249,180.919141 29.2799728,180.039611 29.2799728,178.956973 C29.2799728,177.872521 30.1571249,176.994805 31.2390666,176.994805 C32.3228207,176.994805 33.1999728,177.872521 33.1999728,178.956973" id="Fill-266" fill="#FFA530" mask="url(#mask-21)"></path>
                <mask id="mask-23" fill="white">
                    <use xlink:href="#path-22"></use>
                </mask>
                <g id="Clip-270"></g>
                <path d="M47.7599728,178.956973 C47.7599728,180.039611 46.8828207,180.919141 45.7990666,180.919141 C44.7171249,180.919141 43.8399728,180.039611 43.8399728,178.956973 C43.8399728,177.872521 44.7171249,176.994805 45.7990666,176.994805 C46.8828207,176.994805 47.7599728,177.872521 47.7599728,178.956973" id="Fill-269" fill="#FFA530" mask="url(#mask-23)"></path>
                <mask id="mask-25" fill="white">
                    <use xlink:href="#path-24"></use>
                </mask>
                <g id="Clip-273"></g>
                <path d="M62.3199728,178.956973 C62.3199728,180.039611 61.4428207,180.919141 60.3590666,180.919141 C59.2771249,180.919141 58.3999728,180.039611 58.3999728,178.956973 C58.3999728,177.872521 59.2771249,176.994805 60.3590666,176.994805 C61.4428207,176.994805 62.3199728,177.872521 62.3199728,178.956973" id="Fill-272" fill="#FFA530" mask="url(#mask-25)"></path>
                <mask id="mask-27" fill="white">
                    <use xlink:href="#path-26"></use>
                </mask>
                <g id="Clip-276"></g>
                <path d="M76.8799728,178.956973 C76.8799728,180.039611 76.0028207,180.919141 74.9208789,180.919141 C73.8371249,180.919141 72.9599728,180.039611 72.9599728,178.956973 C72.9599728,177.872521 73.8371249,176.994805 74.9208789,176.994805 C76.0028207,176.994805 76.8799728,177.872521 76.8799728,178.956973" id="Fill-275" fill="#FFA530" mask="url(#mask-27)"></path>
                <mask id="mask-29" fill="white">
                    <use xlink:href="#path-28"></use>
                </mask>
                <g id="Clip-279"></g>
                <path d="M91.9999728,178.956973 C91.9999728,180.039611 91.1228207,180.919141 90.0390666,180.919141 C88.9571249,180.919141 88.0799728,180.039611 88.0799728,178.956973 C88.0799728,177.872521 88.9571249,176.994805 90.0390666,176.994805 C91.1228207,176.994805 91.9999728,177.872521 91.9999728,178.956973" id="Fill-278" fill="#FFA530" mask="url(#mask-29)"></path>
                <path d="M105.999973,104.674893 C105.999973,105.604423 105.248128,106.356752 104.319196,106.356752 C103.391817,106.356752 102.639973,105.604423 102.639973,104.674893 C102.639973,103.746918 103.391817,102.993035 104.319196,102.993035 C105.248128,102.993035 105.999973,103.746918 105.999973,104.674893" id="Fill-281" fill="#FFA530"></path>
                <path d="M121.119973,104.674893 C121.119973,105.604423 120.368128,106.356752 119.439196,106.356752 C118.511817,106.356752 117.759973,105.604423 117.759973,104.674893 C117.759973,103.746918 118.511817,102.993035 119.439196,102.993035 C120.368128,102.993035 121.119973,103.746918 121.119973,104.674893" id="Fill-283" fill="#FFA530"></path>
                <path d="M135.679973,104.674893 C135.679973,105.604423 134.928128,106.356752 133.999196,106.356752 C133.071817,106.356752 132.319973,105.604423 132.319973,104.674893 C132.319973,103.746918 133.071817,102.993035 133.999196,102.993035 C134.928128,102.993035 135.679973,103.746918 135.679973,104.674893" id="Fill-285" fill="#FFA530"></path>
                <path d="M150.239973,104.674893 C150.239973,105.604423 149.488128,106.356752 148.559196,106.356752 C147.631817,106.356752 146.879973,105.604423 146.879973,104.674893 C146.879973,103.746918 147.631817,102.993035 148.559196,102.993035 C149.488128,102.993035 150.239973,103.746918 150.239973,104.674893" id="Fill-287" fill="#FFA530"></path>
                <path d="M164.799973,104.674893 C164.799973,105.604423 164.048476,106.356752 163.119973,106.356752 C162.193023,106.356752 161.439973,105.604423 161.439973,104.674893 C161.439973,103.746918 162.193023,102.993035 163.119973,102.993035 C164.048476,102.993035 164.799973,103.746918 164.799973,104.674893" id="Fill-289" fill="#FFA530"></path>
                <mask id="mask-31" fill="white">
                    <use xlink:href="#path-30"></use>
                </mask>
                <g id="Clip-292"></g>
                <path d="M179.919973,104.955203 C179.919973,106.039654 179.042821,106.917371 177.959067,106.917371 C176.877125,106.917371 175.999973,106.039654 175.999973,104.955203 C175.999973,103.872565 176.877125,102.993035 177.959067,102.993035 C179.042821,102.993035 179.919973,103.872565 179.919973,104.955203" id="Fill-291" fill="#FFA530" mask="url(#mask-31)"></path>
                <path d="M105.999973,120.372238 C105.999973,121.301768 105.248128,122.054097 104.319196,122.054097 C103.391817,122.054097 102.639973,121.301768 102.639973,120.372238 C102.639973,119.444263 103.391817,118.69038 104.319196,118.69038 C105.248128,118.69038 105.999973,119.444263 105.999973,120.372238" id="Fill-294" fill="#FFA530"></path>
                <path d="M121.119973,120.372238 C121.119973,121.301768 120.368128,122.054097 119.439196,122.054097 C118.511817,122.054097 117.759973,121.301768 117.759973,120.372238 C117.759973,119.444263 118.511817,118.69038 119.439196,118.69038 C120.368128,118.69038 121.119973,119.444263 121.119973,120.372238" id="Fill-296" fill="#FFA530"></path>
                <path d="M135.679973,120.372238 C135.679973,121.301768 134.928128,122.054097 133.999196,122.054097 C133.071817,122.054097 132.319973,121.301768 132.319973,120.372238 C132.319973,119.444263 133.071817,118.69038 133.999196,118.69038 C134.928128,118.69038 135.679973,119.444263 135.679973,120.372238" id="Fill-298" fill="#FFA530"></path>
                <path d="M150.239973,120.372238 C150.239973,121.301768 149.488128,122.054097 148.559196,122.054097 C147.631817,122.054097 146.879973,121.301768 146.879973,120.372238 C146.879973,119.444263 147.631817,118.69038 148.559196,118.69038 C149.488128,118.69038 150.239973,119.444263 150.239973,120.372238" id="Fill-300" fill="#FFA530"></path>
                <path d="M164.799973,120.372238 C164.799973,121.301768 164.048476,122.054097 163.119973,122.054097 C162.193023,122.054097 161.439973,121.301768 161.439973,120.372238 C161.439973,119.444263 162.193023,118.69038 163.119973,118.69038 C164.048476,118.69038 164.799973,119.444263 164.799973,120.372238" id="Fill-302" fill="#FFA530"></path>
                <mask id="mask-33" fill="white">
                    <use xlink:href="#path-32"></use>
                </mask>
                <g id="Clip-305"></g>
                <path d="M179.919973,119.531309 C179.919973,120.615761 179.042821,121.493477 177.959067,121.493477 C176.877125,121.493477 175.999973,120.615761 175.999973,119.531309 C175.999973,118.448671 176.877125,117.569141 177.959067,117.569141 C179.042821,117.569141 179.919973,118.448671 179.919973,119.531309" id="Fill-304" fill="#FFA530" mask="url(#mask-33)"></path>
                <path d="M105.999973,134.948344 C105.999973,135.877874 105.248128,136.630203 104.319196,136.630203 C103.391817,136.630203 102.639973,135.877874 102.639973,134.948344 C102.639973,134.020369 103.391817,133.266486 104.319196,133.266486 C105.248128,133.266486 105.999973,134.020369 105.999973,134.948344" id="Fill-307" fill="#FFA530"></path>
                <path d="M121.119973,134.948344 C121.119973,135.877874 120.368128,136.630203 119.439196,136.630203 C118.511817,136.630203 117.759973,135.877874 117.759973,134.948344 C117.759973,134.020369 118.511817,133.266486 119.439196,133.266486 C120.368128,133.266486 121.119973,134.020369 121.119973,134.948344" id="Fill-309" fill="#FFA530"></path>
                <path d="M135.679973,134.948344 C135.679973,135.877874 134.928128,136.630203 133.999196,136.630203 C133.071817,136.630203 132.319973,135.877874 132.319973,134.948344 C132.319973,134.020369 133.071817,133.266486 133.999196,133.266486 C134.928128,133.266486 135.679973,134.020369 135.679973,134.948344" id="Fill-311" fill="#FFA530"></path>
                <path d="M150.239973,134.948344 C150.239973,135.877874 149.488128,136.630203 148.559196,136.630203 C147.631817,136.630203 146.879973,135.877874 146.879973,134.948344 C146.879973,134.020369 147.631817,133.266486 148.559196,133.266486 C149.488128,133.266486 150.239973,134.020369 150.239973,134.948344" id="Fill-313" fill="#FFA530"></path>
                <path d="M164.799973,134.948344 C164.799973,135.877874 164.048476,136.630203 163.119973,136.630203 C162.193023,136.630203 161.439973,135.877874 161.439973,134.948344 C161.439973,134.020369 162.193023,133.266486 163.119973,133.266486 C164.048476,133.266486 164.799973,134.020369 164.799973,134.948344" id="Fill-315" fill="#FFA530"></path>
                <mask id="mask-35" fill="white">
                    <use xlink:href="#path-34"></use>
                </mask>
                <g id="Clip-318"></g>
                <path d="M179.919973,134.107415 C179.919973,135.191867 179.042821,136.069583 177.959067,136.069583 C176.877125,136.069583 175.999973,135.191867 175.999973,134.107415 C175.999973,133.024777 176.877125,132.145247 177.959067,132.145247 C179.042821,132.145247 179.919973,133.024777 179.919973,134.107415" id="Fill-317" fill="#FFA530" mask="url(#mask-35)"></path>
                <path d="M105.999973,148.963831 C105.999973,149.893361 105.248128,150.64569 104.319196,150.64569 C103.391817,150.64569 102.639973,149.893361 102.639973,148.963831 C102.639973,148.035856 103.391817,147.281973 104.319196,147.281973 C105.248128,147.281973 105.999973,148.035856 105.999973,148.963831" id="Fill-320" fill="#FFA530"></path>
                <path d="M121.119973,148.963831 C121.119973,149.893361 120.368128,150.64569 119.439196,150.64569 C118.511817,150.64569 117.759973,149.893361 117.759973,148.963831 C117.759973,148.035856 118.511817,147.281973 119.439196,147.281973 C120.368128,147.281973 121.119973,148.035856 121.119973,148.963831" id="Fill-322" fill="#FFA530"></path>
                <path d="M135.679973,148.963831 C135.679973,149.893361 134.928128,150.64569 133.999196,150.64569 C133.071817,150.64569 132.319973,149.893361 132.319973,148.963831 C132.319973,148.035856 133.071817,147.281973 133.999196,147.281973 C134.928128,147.281973 135.679973,148.035856 135.679973,148.963831" id="Fill-324" fill="#FFA530"></path>
                <path d="M150.239973,148.963831 C150.239973,149.893361 149.488128,150.64569 148.559196,150.64569 C147.631817,150.64569 146.879973,149.893361 146.879973,148.963831 C146.879973,148.035856 147.631817,147.281973 148.559196,147.281973 C149.488128,147.281973 150.239973,148.035856 150.239973,148.963831" id="Fill-326" fill="#FFA530"></path>
                <path d="M164.799973,148.963831 C164.799973,149.893361 164.048476,150.64569 163.119973,150.64569 C162.193023,150.64569 161.439973,149.893361 161.439973,148.963831 C161.439973,148.035856 162.193023,147.281973 163.119973,147.281973 C164.048476,147.281973 164.799973,148.035856 164.799973,148.963831" id="Fill-328" fill="#FFA530"></path>
                <mask id="mask-37" fill="white">
                    <use xlink:href="#path-36"></use>
                </mask>
                <g id="Clip-331"></g>
                <path d="M179.919973,148.683521 C179.919973,149.767973 179.042821,150.64569 177.959067,150.64569 C176.877125,150.64569 175.999973,149.767973 175.999973,148.683521 C175.999973,147.600883 176.877125,146.721353 177.959067,146.721353 C179.042821,146.721353 179.919973,147.600883 179.919973,148.683521" id="Fill-330" fill="#FFA530" mask="url(#mask-37)"></path>
                <path d="M105.999973,163.539937 C105.999973,164.467913 105.248128,165.221796 104.319196,165.221796 C103.391817,165.221796 102.639973,164.467913 102.639973,163.539937 C102.639973,162.611962 103.391817,161.858079 104.319196,161.858079 C105.248128,161.858079 105.999973,162.611962 105.999973,163.539937" id="Fill-333" fill="#FFA530"></path>
                <path d="M121.119973,163.539937 C121.119973,164.467913 120.368128,165.221796 119.439196,165.221796 C118.511817,165.221796 117.759973,164.467913 117.759973,163.539937 C117.759973,162.611962 118.511817,161.858079 119.439196,161.858079 C120.368128,161.858079 121.119973,162.611962 121.119973,163.539937" id="Fill-335" fill="#FFA530"></path>
                <path d="M135.679973,163.539937 C135.679973,164.467913 134.928128,165.221796 133.999196,165.221796 C133.071817,165.221796 132.319973,164.467913 132.319973,163.539937 C132.319973,162.611962 133.071817,161.858079 133.999196,161.858079 C134.928128,161.858079 135.679973,162.611962 135.679973,163.539937" id="Fill-337" fill="#FFA530"></path>
                <path d="M150.239973,163.539937 C150.239973,164.467913 149.488128,165.221796 148.559196,165.221796 C147.631817,165.221796 146.879973,164.467913 146.879973,163.539937 C146.879973,162.611962 147.631817,161.858079 148.559196,161.858079 C149.488128,161.858079 150.239973,162.611962 150.239973,163.539937" id="Fill-339" fill="#FFA530"></path>
                <path d="M164.799973,163.539937 C164.799973,164.467913 164.048476,165.221796 163.119973,165.221796 C162.193023,165.221796 161.439973,164.467913 161.439973,163.539937 C161.439973,162.611962 162.193023,161.858079 163.119973,161.858079 C164.048476,161.858079 164.799973,162.611962 164.799973,163.539937" id="Fill-341" fill="#FFA530"></path>
                <mask id="mask-39" fill="white">
                    <use xlink:href="#path-38"></use>
                </mask>
                <g id="Clip-344"></g>
                <path d="M179.919973,164.380867 C179.919973,165.463505 179.042821,166.343035 177.959067,166.343035 C176.877125,166.343035 175.999973,165.463505 175.999973,164.380867 C175.999973,163.298228 176.877125,162.418698 177.959067,162.418698 C179.042821,162.418698 179.919973,163.298228 179.919973,164.380867" id="Fill-343" fill="#FFA530" mask="url(#mask-39)"></path>
                <mask id="mask-41" fill="white">
                    <use xlink:href="#path-40"></use>
                </mask>
                <g id="Clip-347"></g>
                <path d="M106.559973,178.956973 C106.559973,180.039611 105.682821,180.919141 104.599067,180.919141 C103.517125,180.919141 102.639973,180.039611 102.639973,178.956973 C102.639973,177.872521 103.517125,176.994805 104.599067,176.994805 C105.682821,176.994805 106.559973,177.872521 106.559973,178.956973" id="Fill-346" fill="#FFA530" mask="url(#mask-41)"></path>
                <mask id="mask-43" fill="white">
                    <use xlink:href="#path-42"></use>
                </mask>
                <g id="Clip-350"></g>
                <path d="M121.119973,178.956973 C121.119973,180.039611 120.242821,180.919141 119.159067,180.919141 C118.077125,180.919141 117.199973,180.039611 117.199973,178.956973 C117.199973,177.872521 118.077125,176.994805 119.159067,176.994805 C120.242821,176.994805 121.119973,177.872521 121.119973,178.956973" id="Fill-349" fill="#FFA530" mask="url(#mask-43)"></path>
                <mask id="mask-45" fill="white">
                    <use xlink:href="#path-44"></use>
                </mask>
                <g id="Clip-353"></g>
                <path d="M136.239973,178.956973 C136.239973,180.039611 135.362821,180.919141 134.279067,180.919141 C133.197125,180.919141 132.319973,180.039611 132.319973,178.956973 C132.319973,177.872521 133.197125,176.994805 134.279067,176.994805 C135.362821,176.994805 136.239973,177.872521 136.239973,178.956973" id="Fill-352" fill="#FFA530" mask="url(#mask-45)"></path>
                <mask id="mask-47" fill="white">
                    <use xlink:href="#path-46"></use>
                </mask>
                <g id="Clip-356"></g>
                <path d="M150.799973,178.956973 C150.799973,180.039611 149.922821,180.919141 148.839067,180.919141 C147.757125,180.919141 146.879973,180.039611 146.879973,178.956973 C146.879973,177.872521 147.757125,176.994805 148.839067,176.994805 C149.922821,176.994805 150.799973,177.872521 150.799973,178.956973" id="Fill-355" fill="#FFA530" mask="url(#mask-47)"></path>
                <mask id="mask-49" fill="white">
                    <use xlink:href="#path-48"></use>
                </mask>
                <g id="Clip-359"></g>
                <path d="M165.359973,178.956973 C165.359973,180.039611 164.483226,180.919141 163.399973,180.919141 C162.318531,180.919141 161.439973,180.039611 161.439973,178.956973 C161.439973,177.872521 162.318531,176.994805 163.399973,176.994805 C164.483226,176.994805 165.359973,177.872521 165.359973,178.956973" id="Fill-358" fill="#FFA530" mask="url(#mask-49)"></path>
                <mask id="mask-51" fill="white">
                    <use xlink:href="#path-50"></use>
                </mask>
                <g id="Clip-362"></g>
                <path d="M179.919973,178.956973 C179.919973,180.039611 179.042821,180.919141 177.959067,180.919141 C176.877125,180.919141 175.999973,180.039611 175.999973,178.956973 C175.999973,177.872521 176.877125,176.994805 177.959067,176.994805 C179.042821,176.994805 179.919973,177.872521 179.919973,178.956973" id="Fill-361" fill="#FFA530" mask="url(#mask-51)"></path>
            </g>
        </g>
    </g>
</svg>